<svg xmlns="http://www.w3.org/2000/svg" viewBox="0 0 60 60"><path d="M13 0c-1.547 0-3.033.662-4.078 1.817C7.895 2.954 7.39 4.477 7.525 6H7.5v48.958C7.5 57.738 9.762 60 12.542 60H52.5V0H13zM9.5 54.958V9.998c.836.63 1.875 1.002 3 1.002v46.996c-1.658-.023-3-1.375-3-3.038zM50.5 58h-36V11h3v25.2c0 .683.44 1.263 1.1 1.445.136.037.272.056.407.056.015 0 .03-.004.044-.005.046 0 .09-.012.134-.017.103-.012.202-.033.3-.066.047-.016.092-.035.137-.056.095-.043.18-.097.264-.16.036-.026.073-.05.106-.08.11-.098.212-.21.292-.345l4.217-7.027 4.216 7.03c.327.544.94.8 1.55.686.045-.01.09-.003.134-.015.657-.183 1.1-.763 1.1-1.444V11h19v47zM29.64 9.483l-.003.007-.137.274v.042l-.1.23.1.152V34.39l-5-8.333-5 8.333V10.236L21.118 7h9.764L29.64 9.483zM32.118 9l2-4H19.882l-2 4h-4.67C11.318 9 9.696 7.62 9.52 5.86c-.102-.998.213-1.957.886-2.7C11.07 2.42 12.016 2 13 2h37.5v1h-5c-.553 0-1 .447-1 1s.447 1 1 1h5v1h-4c-.553 0-1 .447-1 1s.447 1 1 1h4v1H32.118z"/></svg>