<svg xmlns="http://www.w3.org/2000/svg" viewBox="0 0 58.153 58.153"><path d="M40.076 29.153h-7.142c-.364-1.4-1.46-2.494-2.858-2.858V16.153c0-.553-.448-1-1-1s-1 .447-1 1v10.142c-1.72.447-3 2-3 3.858 0 2.206 1.794 4 4 4 1.858 0 3.41-1.28 3.858-3h7.142c.552 0 1-.447 1-1s-.447-1-1-1zm-11 3c-1.103 0-2-.897-2-2s.897-2 2-2 2 .897 2 2-.897 2-2 2z"/><path d="M50.188 9.764l4.096 4.096c.188.188.442.293.707.293s.52-.105.708-.293c3.167-3.166 3.167-8.32 0-11.485-3.166-3.166-8.32-3.166-11.485 0-.188.188-.293.44-.293.707s.105.52.293.707l4.56 4.56-1.698 1.7c-4.78-4.285-11.09-6.897-17.998-6.897S15.86 5.765 11.08 10.05l-1.7-1.7 4.56-4.56c.188-.19.293-.442.293-.708s-.105-.52-.293-.707C10.774-.79 5.62-.79 2.455 2.375c-3.167 3.166-3.167 8.32 0 11.485.188.188.442.293.707.293s.52-.105.707-.293l4.095-4.096L9.64 11.44c-4.678 4.857-7.564 11.453-7.564 18.713 0 9.898 5.357 18.564 13.32 23.265l-3.027 3.028c-.392.39-.392 1.023 0 1.414.194.195.45.293.706.293s.512-.098.707-.293l3.45-3.45c3.578 1.754 7.597 2.743 11.843 2.743s8.265-.99 11.843-2.743l3.45 3.45c.194.195.45.293.706.293s.512-.098.707-.293c.39-.39.39-1.023 0-1.414l-3.028-3.028c7.964-4.7 13.32-13.367 13.32-23.265 0-7.26-2.885-13.856-7.564-18.713l1.678-1.676zm4.095-5.975c2.146 2.145 2.362 5.5.65 7.892L46.39 3.14c2.39-1.713 5.747-1.498 7.893.65zM3.22 11.68c-1.713-2.39-1.497-5.745.65-7.89 2.145-2.147 5.502-2.362 7.89-.65l-8.54 8.54zm25.856 43.473c-13.785 0-25-11.215-25-25s11.215-25 25-25 25 11.215 25 25-11.214 25-25 25z"/><path d="M48.958 18.61c-2.01-3.45-4.89-6.328-8.338-8.338-.016-.01-.026-.028-.043-.038-.018-.01-.037-.01-.055-.02-3.373-1.943-7.28-3.062-11.445-3.062s-8.072 1.118-11.445 3.063c-.018.01-.038.008-.055.02-.017.01-.026.026-.043.037-3.45 2.01-6.328 4.89-8.338 8.338-.01.017-.028.026-.038.043-.01.017-.01.037-.018.055-1.944 3.374-3.063 7.28-3.063 11.445s1.12 8.072 3.063 11.445c.01.018.008.037.018.055.014.025.035.043.05.066 2.01 3.437 4.885 6.308 8.326 8.314.016.01.026.028.043.038.026.015.054.02.08.033 3.368 1.935 7.265 3.048 11.42 3.048s8.052-1.113 11.42-3.048c.026-.012.054-.018.08-.033.017-.01.026-.027.043-.038 3.44-2.006 6.315-4.876 8.325-8.315.016-.024.037-.042.05-.067.01-.017.01-.037.02-.055 1.943-3.374 3.062-7.28 3.062-11.445s-1.12-8.072-3.063-11.445c-.01-.018-.008-.037-.018-.055-.01-.017-.028-.027-.038-.043zm-8.54 29.19l-.476-.827c-.277-.478-.888-.643-1.366-.366-.478.276-.642.888-.366 1.366l.48.83c-2.604 1.346-5.52 2.152-8.613 2.3v-.95c0-.553-.448-1-1-1s-1 .447-1 1v.95c-3.092-.147-6.01-.954-8.612-2.3l.48-.83c.275-.48.11-1.09-.367-1.366-.48-.276-1.09-.11-1.366.366l-.477.826c-2.525-1.63-4.675-3.78-6.303-6.304l.826-.477c.478-.277.642-.89.366-1.367-.277-.478-.887-.645-1.366-.366l-.83.48c-1.346-2.604-2.152-5.522-2.3-8.613h.95c.552 0 1-.447 1-1s-.448-1-1-1h-.95c.146-3.092.952-6.01 2.3-8.612l.828.48c.158.09.33.133.5.133.345 0 .68-.18.866-.5.276-.48.112-1.09-.366-1.366l-.826-.48c1.628-2.524 3.78-4.675 6.303-6.303l.477.826c.186.32.52.5.867.5.17 0 .34-.043.5-.134.477-.277.64-.89.365-1.367l-.48-.83c2.604-1.346 5.52-2.152 8.613-2.3v.95c0 .553.448 1 1 1s1-.447 1-1v-.95c3.092.147 6.01.954 8.612 2.3l-.48.83c-.275.48-.11 1.09.367 1.366.158.09.33.133.5.133.345 0 .68-.18.866-.5l.477-.826c2.525 1.628 4.675 3.78 6.303 6.303l-.826.477c-.478.276-.642.888-.366 1.366.186.32.52.5.867.5.17 0 .34-.043.5-.134l.828-.48c1.347 2.603 2.153 5.52 2.3 8.612h-.95c-.55 0-1 .447-1 1s.45 1 1 1h.95c-.147 3.092-.953 6.01-2.3 8.612l-.83-.48c-.48-.277-1.09-.11-1.365.367-.276.48-.112 1.09.366 1.367l.826.477c-1.626 2.526-3.776 4.676-6.3 6.305z"/></svg>