<svg xmlns="http://www.w3.org/2000/svg" viewBox="0 0 60 60"><path d="M47.024 31.5v-8.994c.043-6.857-4.568-11.405-8.53-13.216C37.36 8.77 36.19 8.37 35 8.074V7.5c0-2.757-2.243-5-5-5s-5 2.243-5 5v.66c-1.07.29-2.124.667-3.146 1.14-4.378 2.017-8.814 6.88-8.854 13.2v9c0 6.388-2.256 11.87-6.705 16.29-.265.265-.36.654-.25 1.01s.416.622.785.686l9.49 1.64c1.77.304 3.397.554 4.946.76 1.745 3.42 5.172 5.615 8.916 5.615 3.745 0 7.173-2.195 8.917-5.617 1.542-.205 3.162-.454 4.92-.758l9.49-1.64c.37-.062.67-.327.784-.684.113-.355.017-.745-.25-1.01-4.657-4.63-7.02-10.11-7.02-16.29zM27 7.5c0-1.654 1.346-3 3-3s3 1.346 3 3v.182c-1.993-.286-4.015-.274-6 .047V7.5zm3.183 48c-2.532 0-4.898-1.258-6.417-3.315 2.235.23 4.32.346 6.406.346 2.093 0 4.186-.115 6.43-.348-1.52 2.06-3.887 3.318-6.42 3.318zm13.498-6.347c-1.918.33-3.677.6-5.34.812h-.006c-.733.093-1.445.174-2.142.244h-.017c-.64.064-1.263.116-1.88.16l-.348.023c-.535.035-1.064.063-1.59.083-.107.004-.215.01-.322.013-1.244.04-2.47.04-3.714 0l-.333-.014c-.517-.02-1.038-.047-1.565-.082l-.376-.025c-.6-.044-1.205-.094-1.824-.156l-.068-.006c-.692-.07-1.398-.15-2.124-.242h-.01c-1.667-.21-3.433-.482-5.36-.814L9 47.83c3.983-4.554 6-10.038 6-16.33v-8.994c.034-5.435 3.888-9.637 7.69-11.39 1.132-.522 2.305-.91 3.498-1.184.01-.002.02 0 .03-.003 2.466-.555 5.088-.58 7.58-.07.014.004.027-.002.04 0 1.304.272 2.588.684 3.825 1.25 3.69 1.686 7.396 5.86 7.36 11.39v9c0 6.034 2.176 11.644 6.314 16.332l-7.656 1.32z"/><path d="M36.417 13.838c-3.875-1.77-8.62-1.773-12.47.002-2.194 1.012-5.917 3.973-5.947 8.654-.003.552.44 1.002.994 1.006H19c.55 0 .997-.443 1-.994.023-3.677 3.02-6.035 4.785-6.85 3.33-1.537 7.446-1.533 10.8 0 .502.23 1.095.01 1.325-.493.23-.503.008-1.096-.493-1.325zM4.802 22.793c-.39-.39-1.023-.39-1.414 0C1.203 24.978 0 27.886 0 30.983c0 3.097 1.203 6.006 3.388 8.19.195.195.45.293.707.293s.512-.098.707-.293c.39-.39.39-1.023 0-1.414C2.995 35.95 2 33.545 2 30.982c0-2.563.995-4.97 2.802-6.776.39-.39.39-1.023 0-1.414z"/><path d="M8.305 37.19c.256 0 .512-.098.707-.293.39-.39.39-1.023 0-1.414-2.558-2.558-2.558-6.72 0-9.276.39-.39.39-1.023 0-1.414s-1.023-.39-1.414 0c-3.337 3.337-3.337 8.768 0 12.104.195.196.45.293.707.293zM56.612 22.793c-.39-.39-1.023-.39-1.414 0s-.39 1.023 0 1.414C57.005 26.014 58 28.42 58 30.983c0 2.563-.995 4.97-2.802 6.776-.39.39-.39 1.022 0 1.413.195.195.45.293.707.293s.512-.098.707-.293C58.797 36.99 60 34.08 60 30.983c0-3.097-1.203-6.005-3.388-8.19z"/><path d="M50.988 24.793c-.39.39-.39 1.023 0 1.414 2.558 2.558 2.558 6.72 0 9.276-.39.39-.39 1.023 0 1.414.195.195.45.293.707.293s.512-.098.707-.293c3.337-3.337 3.337-8.768 0-12.104-.39-.39-1.024-.39-1.414 0z"/></svg>