<svg xmlns="http://www.w3.org/2000/svg" viewBox="0 0 55 55"><path d="M51.376 45.29c-4.66-4.63-7.022-10.11-7.022-16.29v-8.994c.043-6.857-4.568-11.405-8.53-13.216-1.135-.52-2.305-.92-3.494-1.216V5c0-2.757-2.243-5-5-5s-5 2.243-5 5v.66c-1.07.29-2.124.667-3.146 1.14-4.38 2.017-8.815 6.88-8.855 13.2v9c0 6.388-2.257 11.87-6.706 16.29-.265.265-.36.654-.25 1.01s.416.622.785.686l9.49 1.64c1.768.304 3.396.554 4.945.76C20.34 52.806 23.768 55 27.512 55c3.745 0 7.173-2.196 8.917-5.618 1.542-.205 3.162-.454 4.92-.758l9.49-1.64c.37-.062.67-.327.784-.684.113-.356.017-.745-.248-1.01zM24.33 5c0-1.654 1.345-3 3-3s3 1.346 3 3v.182c-1.994-.286-4.016-.274-6 .047V5zm3.182 48c-2.532 0-4.898-1.258-6.417-3.315 2.235.23 4.32.346 6.406.346 2.094 0 4.187-.115 6.43-.348C32.41 51.742 30.045 53 27.513 53zm13.498-6.347c-1.92.33-3.678.6-5.34.812h-.006c-.732.093-1.444.174-2.14.244H33.5c-.636.065-1.26.116-1.875.16-.117.01-.233.017-.35.025-.534.035-1.062.063-1.587.083-.108.004-.216.01-.324.013-1.244.043-2.47.043-3.714.002l-.332-.014c-.518-.02-1.04-.047-1.567-.082l-.372-.025c-.6-.042-1.207-.093-1.828-.154l-.064-.006c-.692-.07-1.4-.15-2.126-.242h-.01c-1.667-.21-3.432-.482-5.36-.814L6.33 45.33c3.982-4.554 6-10.038 6-16.33v-8.994c.033-5.435 3.887-9.637 7.69-11.39 1.13-.522 2.304-.91 3.497-1.184.01-.002.02 0 .03-.003 2.465-.555 5.088-.58 7.58-.07.014.004.027-.002.04 0 1.304.272 2.588.684 3.825 1.25 3.69 1.686 7.396 5.86 7.36 11.39v9c0 6.034 2.176 11.644 6.314 16.332l-7.656 1.32z"/><path d="M33.746 11.338c-3.875-1.77-8.62-1.773-12.47.002-2.194 1.012-5.917 3.973-5.947 8.654-.004.552.44 1.002.993 1.006h.006c.548 0 .996-.443 1-.994.022-3.677 3.018-6.035 4.784-6.85 3.33-1.537 7.446-1.533 10.8 0 .5.23 1.095.01 1.325-.493.23-.503.008-1.096-.494-1.325z"/></svg>