<svg xmlns="http://www.w3.org/2000/svg" viewBox="0 0 58.153 58.153"><path d="M40.076 29.153h-7.142c-.364-1.4-1.46-2.494-2.858-2.858V16.153c0-.553-.448-1-1-1s-1 .447-1 1v10.142c-1.72.447-3 2-3 3.858 0 2.206 1.794 4 4 4 1.858 0 3.41-1.28 3.858-3h7.142c.552 0 1-.447 1-1s-.447-1-1-1zm-11 3c-1.103 0-2-.897-2-2s.897-2 2-2 2 .897 2 2-.897 2-2 2z"/><path d="M50.188 9.764l4.096 4.096c.188.188.442.293.707.293s.52-.105.708-.293c3.167-3.166 3.167-8.32 0-11.485s-8.32-3.166-11.485 0c-.188.188-.293.44-.293.707s.105.52.293.707l4.56 4.56-1.698 1.7c-4.78-4.285-11.09-6.897-17.998-6.897S15.86 5.765 11.08 10.05l-1.7-1.7 4.56-4.56c.188-.19.293-.442.293-.708s-.105-.52-.293-.707C10.774-.79 5.622-.79 2.455 2.375s-3.167 8.32 0 11.485c.188.188.442.293.707.293s.52-.105.707-.293l4.095-4.096L9.64 11.44c-4.678 4.857-7.564 11.453-7.564 18.713 0 9.898 5.357 18.564 13.32 23.265l-3.027 3.028c-.392.39-.392 1.023 0 1.414.194.195.45.293.706.293s.512-.098.707-.293l3.45-3.45c3.578 1.754 7.597 2.743 11.843 2.743s8.265-.99 11.843-2.743l3.45 3.45c.194.195.45.293.706.293s.512-.098.707-.293c.39-.39.39-1.023 0-1.414l-3.028-3.028c7.964-4.7 13.32-13.367 13.32-23.265 0-7.26-2.885-13.856-7.564-18.713l1.678-1.676zm4.095-5.975c2.146 2.145 2.362 5.5.65 7.892L46.39 3.14c2.39-1.713 5.746-1.498 7.893.65zM3.22 11.68c-1.713-2.39-1.497-5.745.65-7.89s5.5-2.362 7.89-.65l-8.54 8.54zm25.856 43.473c-13.785 0-25-11.215-25-25s11.215-25 25-25 25 11.215 25 25-11.214 25-25 25z"/><path d="M29.076 10.032c.552 0 1-.447 1-1v-1c0-.553-.448-1-1-1s-1 .447-1 1v1c0 .552.448 1 1 1zM29.076 50.032c-.552 0-1 .447-1 1v1c0 .553.448 1 1 1s1-.447 1-1v-1c0-.553-.447-1-1-1zM50.076 31.032h1c.552 0 1-.447 1-1s-.448-1-1-1h-1c-.552 0-1 .447-1 1s.448 1 1 1zM8.076 29.032h-1c-.552 0-1 .447-1 1s.448 1 1 1h1c.552 0 1-.447 1-1s-.447-1-1-1zM43.926 13.768l-.707.707c-.392.39-.392 1.023 0 1.414.194.194.45.292.706.292s.512-.098.707-.293l.707-.708c.39-.39.39-1.023 0-1.414s-1.024-.39-1.414 0zM13.52 44.174l-.707.707c-.39.392-.39 1.024 0 1.415.195.195.45.293.707.293s.512-.098.707-.293l.707-.707c.39-.39.39-1.023 0-1.414s-1.023-.39-1.414 0zM44.633 44.174c-.39-.39-1.023-.39-1.414 0s-.392 1.023 0 1.414l.706.707c.195.195.45.293.707.293s.512-.098.707-.293c.39-.39.39-1.023 0-1.414l-.707-.706zM14.227 13.768c-.39-.39-1.023-.39-1.414 0s-.39 1.023 0 1.414l.707.707c.195.194.45.292.707.292s.512-.098.707-.293c.39-.392.39-1.024 0-1.415l-.707-.707z"/></svg>