<svg xmlns="http://www.w3.org/2000/svg" viewBox="0 0 56 56"><path d="M22.66 0H3.34C1.498 0 0 1.498 0 3.34v19.32C0 24.502 1.498 26 3.34 26h19.32c1.842 0 3.34-1.498 3.34-3.34V3.34C26 1.498 24.502 0 22.66 0zM24 22.66c0 .74-.6 1.34-1.34 1.34H3.34C2.6 24 2 23.4 2 22.66V3.34C2 2.6 2.6 2 3.34 2h19.32C23.4 2 24 2.6 24 3.34v19.32zM52.66 0H33.34C31.498 0 30 1.498 30 3.34v19.32c0 1.842 1.498 3.34 3.34 3.34h19.32c1.842 0 3.34-1.498 3.34-3.34V3.34C56 1.498 54.502 0 52.66 0zM54 22.66c0 .74-.6 1.34-1.34 1.34H33.34c-.74 0-1.34-.6-1.34-1.34V3.34C32 2.6 32.6 2 33.34 2h19.32C53.4 2 54 2.6 54 3.34v19.32zM22.66 30H3.34C1.498 30 0 31.498 0 33.34v19.32C0 54.502 1.498 56 3.34 56h19.32c1.842 0 3.34-1.498 3.34-3.34V33.34c0-1.842-1.498-3.34-3.34-3.34zM24 52.66c0 .74-.6 1.34-1.34 1.34H3.34C2.6 54 2 53.4 2 52.66V33.34C2 32.6 2.6 32 3.34 32h19.32c.74 0 1.34.6 1.34 1.34v19.32zM55 42H44V31c0-.553-.447-1-1-1s-1 .447-1 1v11H31c-.553 0-1 .447-1 1s.447 1 1 1h11v11c0 .553.447 1 1 1s1-.447 1-1V44h11c.553 0 1-.447 1-1s-.447-1-1-1z"/></svg>