<svg xmlns="http://www.w3.org/2000/svg" viewBox="0 0 60 60"><path d="M60 4.412C60 3.082 58.918 2 57.588 2H2.412C1.082 2 0 3.082 0 4.412V16h3v37.59C3 56.02 4.98 58 7.41 58H52.59c2.432 0 4.41-1.98 4.41-4.41V16h3V4.412zM7.41 56C6.08 56 5 54.92 5 53.59v-5.534c4.165.462 7.482 3.78 7.944 7.944H7.41zM55 53.59c0 1.33-1.08 2.41-2.41 2.41h-5.534c.462-4.165 3.78-7.482 7.944-7.944v5.534zm0-7.54c-5.268.48-9.472 4.682-9.95 9.95h-30.1c-.48-5.268-4.682-9.472-9.95-9.95V16h50v30.05zM58 14H2V4.412C2 4.185 2.185 4 2.412 4h55.176c.227 0 .412.185.412.412V14z"/><circle cx="9" cy="9" r="1"/><circle cx="6" cy="6" r="1"/><circle cx="12" cy="6" r="1"/><circle cx="6" cy="12" r="1"/><circle cx="12" cy="12" r="1"/><circle cx="15" cy="9" r="1"/><circle cx="21" cy="9" r="1"/><circle cx="18" cy="6" r="1"/><circle cx="24" cy="6" r="1"/><circle cx="18" cy="12" r="1"/><circle cx="24" cy="12" r="1"/><circle cx="27" cy="9" r="1"/><circle cx="33" cy="9" r="1"/><circle cx="30" cy="6" r="1"/><circle cx="36" cy="6" r="1"/><circle cx="30" cy="12" r="1"/><circle cx="36" cy="12" r="1"/><circle cx="39" cy="9" r="1"/><circle cx="45" cy="9" r="1"/><circle cx="42" cy="6" r="1"/><circle cx="48" cy="6" r="1"/><circle cx="42" cy="12" r="1"/><circle cx="48" cy="12" r="1"/><circle cx="51" cy="9" r="1"/><circle cx="54" cy="6" r="1"/><circle cx="54" cy="12" r="1"/><path d="M24.505 31h10.99C37.428 31 39 29.428 39 27.495V26c0-.553-.447-1-1-1s-1 .447-1 1v1.495c0 .83-.675 1.505-1.505 1.505h-10.99c-.83 0-1.505-.675-1.505-1.505V26c0-.553-.447-1-1-1s-1 .447-1 1v1.495C21 29.428 22.572 31 24.505 31z"/></svg>