<svg xmlns="http://www.w3.org/2000/svg" viewBox="0 0 60 60"><path d="M60 8.31c0-.198-.052-.38-.13-.55-.028-.21-.113-.412-.255-.58L53.46 0H6.54L.384 7.182c-.142.166-.227.368-.253.578-.078.17-.13.352-.13.55V19h3v41h54V19h3V8.31zM7.46 2h45.08l4.286 5H3.174L7.46 2zM55 58H5V19h50v39zm3-41H2V9h56v8z"/><path d="M42 23H18v10h24V23zm-2 8H20v-6h20v6zM45 38H15v14h30V38zm-2 12H17V40h26v10z"/><path d="M22 48h5c.552 0 1-.447 1-1s-.448-1-1-1h-5c-.552 0-1 .447-1 1s.448 1 1 1zM27 44h11c.552 0 1-.447 1-1s-.448-1-1-1H27c-.552 0-1 .447-1 1s.448 1 1 1zM22 44c.26 0 .52-.11.71-.29.18-.19.29-.45.29-.71 0-.26-.11-.52-.29-.71-.38-.37-1.04-.37-1.42 0-.18.19-.29.45-.29.71 0 .27.11.52.29.71.19.18.44.29.71.29zM31.29 46.29c-.18.19-.29.45-.29.71 0 .26.11.52.29.71.19.18.45.29.71.29.26 0 .52-.11.71-.29.18-.19.29-.45.29-.71 0-.26-.11-.52-.29-.71-.37-.37-1.05-.37-1.42 0zM38 46h-1c-.552 0-1 .447-1 1s.448 1 1 1h1c.552 0 1-.447 1-1s-.448-1-1-1z"/></svg>