<svg xmlns="http://www.w3.org/2000/svg" viewBox="0 0 60 60"><path d="M56.954 1H3.046C1.366 1 0 2.366 0 4.046V18.01c0 .553.447 1 1 1h2V58c0 .553.447 1 1 1h52c.553 0 1-.447 1-1V19.01h2c.553 0 1-.447 1-1V4.046C60 2.366 58.634 1 56.954 1zM55 57H5v-3h50v3zm0-5H5V19.01h50V52zm3-34.99H2V4.046C2 3.47 2.47 3 3.046 3h53.908C57.53 3 58 3.47 58 4.046V17.01z"/><path d="M16 41h28c.553 0 1-.447 1-1V26c0-.553-.447-1-1-1H16c-.553 0-1 .447-1 1v14c0 .553.447 1 1 1zm1-14h26v12H17V27z"/><path d="M20 32h6c.553 0 1-.447 1-1s-.447-1-1-1h-6c-.553 0-1 .447-1 1s.447 1 1 1zM30 32c.26 0 .52-.11.71-.29.18-.19.29-.45.29-.71 0-.26-.11-.52-.29-.71-.38-.37-1.05-.37-1.42 0-.18.19-.29.45-.29.71 0 .27.11.52.29.71.19.18.44.29.71.29zM40 34H24c-.553 0-1 .447-1 1s.447 1 1 1h16c.553 0 1-.447 1-1s-.447-1-1-1zM19.29 34.29c-.18.19-.29.45-.29.71 0 .26.11.52.29.71.19.18.44.29.71.29.27 0 .52-.11.71-.29.18-.19.29-.45.29-.71 0-.26-.11-.52-.29-.71-.37-.37-1.04-.37-1.42 0zM39 5.01H21c-2.757 0-5 2.243-5 5s2.243 5 5 5h18c2.757 0 5-2.243 5-5s-2.243-5-5-5zm0 8H21c-1.654 0-3-1.346-3-3s1.346-3 3-3h18c1.654 0 3 1.346 3 3s-1.346 3-3 3z"/></svg>