<svg xmlns="http://www.w3.org/2000/svg" viewBox="0 0 60 60"><path d="M42.536 4H36V0H24v4h-6.536C15.554 4 14 5.554 14 7.464v49.072C14 58.446 15.554 60 17.464 60h25.07C44.447 60 46 58.446 46 56.536V7.464C46 5.554 44.446 4 42.536 4zM26 2h8v2h-8V2zm18 54.536c0 .808-.657 1.464-1.464 1.464H17.464C16.657 58 16 57.344 16 56.536V7.464C16 6.656 16.657 6 17.464 6H42.536C43.343 6 44 6.656 44 7.464v49.072z"/><path d="M34 17.108c.02-.423-.212-.822-.605-1.007l-.78-.318-.494.61L21.205 34H27l.002 12.884c-.022.412.2.813.58 1.003l.795.35.506-.635L38.653 29H34V17.108zM35.347 31l-6.345 12.105L29 32h-4.204L32 20.372V31h3.347z"/></svg>