<svg xmlns="http://www.w3.org/2000/svg" viewBox="0 0 54 54"><path d="M52.513 33.545l-5.897-24.18c-.92-3.764-4.14-6.51-7.835-6.676-2.32-.105-4.514.717-6.186 2.315C30.92 6.605 30 8.76 30 11.073v4.247h-6v-4.247c0-2.313-.92-4.468-2.594-6.067-1.672-1.6-3.874-2.424-6.187-2.316-3.696.166-6.918 2.912-7.836 6.677l-5.898 24.18C.54 35.26 0 37.227 0 39.32c0 6.617 5.383 12 12 12 6.418 0 11.66-5.07 11.97-11.412.008-.05.03-.095.03-.147v-9.44h6v9.44c0 .05.022.093.03.14.304 6.347 5.55 11.42 11.97 11.42 6.617 0 12-5.383 12-12 0-2.093-.54-4.06-1.487-5.775zM12 49.32c-5.514 0-10-4.486-10-10 0-1.82.497-3.525 1.352-4.998.184-.317.385-.62.6-.912.053-.072.105-.144.16-.214.503-.646 1.077-1.225 1.71-1.724.057-.045.116-.086.173-.13.28-.21.57-.408.87-.588l.163-.1c.707-.406 1.464-.725 2.254-.95.08-.023.16-.042.242-.062.314-.08.633-.145.955-.195.1-.016.198-.034.3-.046.402-.05.81-.08 1.22-.08 5.514 0 10 4.485 10 10 0 .08-.01.155-.012.234l-.01.165v.005c-.214 5.326-4.6 9.595-9.978 9.595zm9.177-17.716c-.078-.093-.163-.178-.244-.268-.216-.242-.44-.476-.674-.7-.11-.104-.224-.205-.338-.305-.23-.202-.468-.395-.713-.58-.115-.086-.227-.175-.344-.257-.32-.225-.653-.435-.996-.628-.045-.025-.087-.056-.132-.08-.39-.213-.794-.4-1.208-.57-.122-.05-.248-.09-.372-.136-.302-.113-.608-.215-.92-.303-.152-.042-.303-.08-.457-.117-.31-.074-.627-.134-.948-.183-.142-.022-.283-.05-.427-.065-.462-.054-.93-.09-1.405-.09-.38 0-.758.02-1.132.057-.154.013-.304.04-.456.06-.213.028-.425.056-.635.096-.19.035-.374.08-.56.124-.164.04-.328.08-.49.127-.203.057-.403.12-.6.188-.14.048-.277.1-.414.15-.206.08-.41.162-.61.252-.124.055-.244.116-.365.176-.203.1-.407.2-.604.31-.11.062-.217.132-.325.198-.2.12-.4.24-.59.37-.05.034-.097.074-.147.11-.23.162-.458.326-.675.504L9.328 9.84c.708-2.907 3.168-5.025 5.98-5.152 1.774-.094 3.442.547 4.716 1.765C21.298 7.67 22 9.31 22 11.073v21.62c-.008-.01-.017-.02-.025-.033-.246-.368-.514-.72-.798-1.056zM24 28.32v-11h6v11h-6zm8 4.373v-21.62c0-1.762.702-3.403 1.976-4.62 1.202-1.15 2.76-1.772 4.415-1.772.1 0 .2.003.3.008 2.814.127 5.274 2.245 5.983 5.153L49.6 30.043c-.45-.37-.933-.696-1.433-.997-.1-.06-.197-.124-.298-.18-.202-.115-.41-.216-.618-.318-.117-.057-.232-.116-.35-.17-.204-.09-.41-.173-.62-.253-.134-.052-.27-.102-.405-.15-.2-.067-.4-.13-.604-.19-.162-.045-.325-.086-.49-.125-.185-.045-.37-.09-.56-.125-.21-.04-.42-.068-.634-.097-.153-.02-.304-.046-.458-.06-.374-.036-.752-.058-1.132-.058-.476 0-.944.035-1.405.09-.144.017-.284.043-.427.065-.32.05-.637.11-.95.183-.152.037-.304.075-.455.117-.313.088-.62.19-.92.302-.125.046-.25.086-.373.136-.414.17-.82.357-1.208.57-.045.025-.087.055-.132.08-.343.193-.675.403-.996.628-.117.083-.23.17-.343.258-.244.185-.482.378-.712.58-.114.102-.227.203-.337.307-.234.223-.457.457-.673.7-.08.09-.166.175-.244.267-.284.337-.552.688-.798 1.056-.008.014-.017.024-.025.035zM42 49.32c-5.377 0-9.764-4.27-9.98-9.594l.002-.006-.01-.165c-.002-.08-.012-.155-.012-.235 0-5.514 4.486-10 10-10 .41 0 .818.032 1.22.083.102.012.2.03.3.046.324.05.643.113.957.194.08.02.16.04.24.062.79.225 1.548.544 2.256.952.053.03.104.064.157.095.303.182.596.38.88.594.054.042.11.08.165.124.636.5 1.212 1.082 1.716 1.73.053.068.104.137.155.206.218.295.422.603.608.925.85 1.47 1.347 3.172 1.347 4.99 0 5.514-4.486 10-10 10z"/></svg>