<svg xmlns="http://www.w3.org/2000/svg" viewBox="0 0 59 59"><path d="M14 7c0-3.86-3.14-7-7-7S0 3.14 0 7v45h.003L0 52.06C0 55.887 3.113 59 6.94 59H59V7H14zM2 7c0-2.42 1.73-4.444 4.02-4.9.052.503.463.9.98.9s.928-.397.98-.9C10.27 2.555 12 4.58 12 7v40.105C10.73 45.807 8.957 45 7 45c-.243 0-.482.013-.72.037-.105.01-.21.032-.314.048-.128.02-.257.034-.383.06-.138.028-.27.068-.405.104-.088.023-.178.04-.265.068-.167.053-.33.116-.49.18-.05.02-.102.036-.15.057-.2.084-.393.18-.583.282l-.025.012c-.616.334-1.178.758-1.665 1.255V7zm55 50H6.94C4.216 57 2 54.784 2 52c0-2.757 2.243-5 5-5s5 2.243 5 5h2V9h43v48z"/><path d="M46.017 21c.176.124.377.184.576.184.314 0 .623-.147.818-.423.32-.45.212-1.074-.24-1.394l-1.633-1.153c-.453-.317-1.075-.21-1.395.24-.318.45-.21 1.075.24 1.395L46.017 21zM50.92 24.46c.175.124.376.184.575.184.314 0 .623-.147.818-.424.318-.45.21-1.075-.24-1.394l-1.636-1.153c-.45-.317-1.074-.21-1.394.24-.318.452-.21 1.076.24 1.395l1.637 1.153zM37 41c0 .553.447 1 1 1h2c.553 0 1-.447 1-1s-.447-1-1-1h-2c-.553 0-1 .447-1 1zM51 27.383v2c0 .553.447 1 1 1s1-.447 1-1v-2c0-.553-.447-1-1-1s-1 .447-1 1zM41.115 17.54c.176.124.377.184.576.184.315 0 .624-.147.82-.423.317-.45.21-1.074-.24-1.394l-1.635-1.153c-.453-.317-1.075-.21-1.395.24-.318.45-.21 1.075.24 1.395l1.635 1.153zM43 41c0 .553.447 1 1 1h2c.553 0 1-.447 1-1s-.447-1-1-1h-2c-.553 0-1 .447-1 1zM29 41c0-.553-.447-1-1-1h-2c-.553 0-1 .447-1 1s.447 1 1 1h2c.553 0 1-.447 1-1zM52 36.383c.553 0 1-.447 1-1v-2c0-.553-.447-1-1-1s-1 .447-1 1v2c0 .553.447 1 1 1zM36.213 14.08c.176.124.377.184.576.184.313 0 .622-.147.817-.423.318-.45.21-1.074-.24-1.394l-1.634-1.153c-.453-.316-1.075-.21-1.395.24-.318.45-.21 1.075.24 1.395l1.635 1.153zM51 40h-1c-.553 0-1 .447-1 1s.447 1 1 1h3v-2.617c0-.553-.447-1-1-1s-1 .447-1 1V40zM20 42h2c.553 0 1-.447 1-1s-.447-1-1-1h-2c-.553 0-1 .447-1 1s.447 1 1 1zM18 28c.553 0 1-.447 1-1v-2c0-.553-.447-1-1-1s-1 .447-1 1v2c0 .553.447 1 1 1zM20.452 23.27c.2 0 .4-.06.576-.183l1.634-1.153c.45-.32.56-.943.24-1.395-.318-.45-.94-.56-1.395-.24l-1.634 1.152c-.45.32-.56.943-.24 1.395.196.275.505.423.82.423zM25.354 19.81c.2 0 .4-.06.576-.183l1.634-1.153c.45-.32.56-.943.24-1.395-.32-.45-.94-.558-1.395-.24l-1.635 1.152c-.45.32-.56.943-.24 1.395.195.275.504.423.82.423zM18 34c.553 0 1-.447 1-1v-2c0-.553-.447-1-1-1s-1 .447-1 1v2c0 .553.447 1 1 1zM30.256 16.35c.2 0 .4-.06.576-.183l1.634-1.153c.45-.32.56-.943.24-1.395-.32-.45-.94-.56-1.395-.24l-1.633 1.152c-.45.32-.56.943-.24 1.395.196.275.504.423.82.423zM31 41c0 .553.447 1 1 1h2c.553 0 1-.447 1-1s-.447-1-1-1h-2c-.553 0-1 .447-1 1zM18 40c.553 0 1-.447 1-1v-2c0-.553-.447-1-1-1s-1 .447-1 1v2c0 .553.447 1 1 1zM41 54h13v-8H41v8zm2-6h9v4h-9v-4zM22 30v2c0 .553.447 1 1 1s1-.447 1-1v-2c0-.553-.447-1-1-1s-1 .447-1 1zM31 27c-.553 0-1 .447-1 1v2c0 .553.447 1 1 1s1-.447 1-1v-2c0-.553-.447-1-1-1zM25 29h2c.553 0 1-.447 1-1s-.447-1-1-1h-2c-.553 0-1 .447-1 1s.447 1 1 1zM26 36c0-.553-.447-1-1-1h-2c-.553 0-1 .447-1 1s.447 1 1 1h2c.553 0 1-.447 1-1zM29 37h2c.553 0 1-.447 1-1v-2c0-.553-.447-1-1-1s-1 .447-1 1v1h-1c-.553 0-1 .447-1 1s.447 1 1 1zM40 28c0 .553.447 1 1 1h2c.553 0 1-.447 1-1s-.447-1-1-1h-2c-.553 0-1 .447-1 1zM46 28v2c0 .553.447 1 1 1s1-.447 1-1v-2c0-.553-.447-1-1-1s-1 .447-1 1zM47 37c.553 0 1-.447 1-1v-2c0-.553-.447-1-1-1s-1 .447-1 1v1h-1c-.553 0-1 .447-1 1s.447 1 1 1h2zM39 33c.553 0 1-.447 1-1v-2c0-.553-.447-1-1-1s-1 .447-1 1v2c0 .553.447 1 1 1zM39 37h2c.553 0 1-.447 1-1s-.447-1-1-1h-2c-.553 0-1 .447-1 1s.447 1 1 1zM38 46h-5c-.553 0-1 .447-1 1s.447 1 1 1h5c.553 0 1-.447 1-1s-.447-1-1-1zM38 49h-7c-.553 0-1 .447-1 1s.447 1 1 1h7c.553 0 1-.447 1-1s-.447-1-1-1zM38 52H28c-.553 0-1 .447-1 1s.447 1 1 1h10c.553 0 1-.447 1-1s-.447-1-1-1z"/><circle cx="4" cy="5" r="1"/><circle cx="10" cy="5" r="1"/><circle cx="7" cy="8" r="1"/><circle cx="4" cy="11" r="1"/><circle cx="10" cy="11" r="1"/><circle cx="4" cy="17" r="1"/><circle cx="10" cy="17" r="1"/><circle cx="7" cy="14" r="1"/><circle cx="7" cy="20" r="1"/><circle cx="4" cy="23" r="1"/><circle cx="10" cy="23" r="1"/><circle cx="4" cy="29" r="1"/><circle cx="10" cy="29" r="1"/><circle cx="7" cy="26" r="1"/><circle cx="7" cy="32" r="1"/><circle cx="4" cy="35" r="1"/><circle cx="10" cy="35" r="1"/><circle cx="4" cy="41" r="1"/><circle cx="10" cy="41" r="1"/><circle cx="7" cy="38" r="1"/><circle cx="7" cy="44" r="1"/></svg>