<svg xmlns="http://www.w3.org/2000/svg" viewBox="0 0 57 57"><path d="M27.5 8.586l.035 17.176-8.292-7.49-1.34 1.483 9.154 8.27-9.223 8.242 1.333 1.492 8.37-7.48-.037 18.35 10.357-11.652-8.244-8.688 8.26-9.332L27.5 8.586zm7.627 10.456l-5.603 6.33-.024-11.958 5.627 5.628zM29.5 43.37l.024-12.27 5.618 5.922L29.5 43.37z"/><path d="M28.5 0c-9.925 0-18 8.075-18 18v21c0 9.925 8.075 18 18 18s18-8.075 18-18V18c0-9.925-8.075-18-18-18zm16 39c0 8.822-7.178 16-16 16s-16-7.178-16-16V18c0-8.822 7.178-16 16-16s16 7.178 16 16v21z"/></svg>