<svg xmlns="http://www.w3.org/2000/svg" viewBox="0 0 56.868 56.868"><path d="M52.934 6.136c0-3.324-2.684-6.053-6-6.126V0h-36.91c-3.358 0-6.09 2.73-6.09 6.09v50.778l19-12.666 19 12.666V25h11V6.136zm-13 46.996l-17-11.334-17 11.334V6.09C5.934 3.835 7.77 2 10.024 2H42.04c-.983.962-1.682 2.212-1.965 3.61v.004c-.046.222-.08.448-.104.677-.023.234-.036.47-.036.71V53.132zm11-30.132h-9V7c0-.34.035-.67.1-.992.387-1.89 1.858-3.4 3.728-3.855.036-.01.068-.025.104-.032.243-.053.498-.072.753-.088.082-.005.16-.024.245-.025 2.246.037 4.07 1.88 4.07 4.13V23z"/></svg>