<svg xmlns="http://www.w3.org/2000/svg" viewBox="0 0 60 60"><path d="M47.5 36h-35c-.553 0-1 .447-1 1s.447 1 1 1h35c.553 0 1-.447 1-1s-.447-1-1-1zM34.5 31h13c.553 0 1-.447 1-1s-.447-1-1-1h-13c-.553 0-1 .447-1 1s.447 1 1 1zM34.5 24h13c.553 0 1-.447 1-1s-.447-1-1-1h-13c-.553 0-1 .447-1 1s.447 1 1 1zM34.5 17h13c.553 0 1-.447 1-1s-.447-1-1-1h-13c-.553 0-1 .447-1 1s.447 1 1 1zM47.5 48h-35c-.553 0-1 .447-1 1s.447 1 1 1h35c.553 0 1-.447 1-1s-.447-1-1-1zM12.5 44h14c.553 0 1-.447 1-1s-.447-1-1-1h-14c-.553 0-1 .447-1 1s.447 1 1 1zM47.5 42h-13c-.553 0-1 .447-1 1s.447 1 1 1h13c.553 0 1-.447 1-1s-.447-1-1-1zM31.21 43.71c.18-.19.29-.45.29-.71 0-.26-.11-.52-.29-.7-.37-.38-1.06-.38-1.42-.01-.18.19-.29.45-.29.71 0 .26.11.52.29.71.19.18.44.29.71.29.26 0 .52-.11.71-.29z"/><path d="M54.5 4h-25V1c0-.553-.447-1-1-1h-16c-.553 0-1 .447-1 1v3h-6c-.553 0-1 .447-1 1v54c0 .553.447 1 1 1h49c.553 0 1-.447 1-1V5c0-.553-.447-1-1-1zm-41 1V2h14v25l-6.4-4.8c-.355-.268-.844-.268-1.2 0L13.5 27V5zm40 53h-47V6h5v23c0 .38.214.725.553.895.34.17.745.134 1.047-.095l7.4-5.55 7.4 5.55c.082.062.173.106.267.14.034.012.07.016.104.024.063.014.123.027.187.03.015 0 .03.007.044.007.018 0 .033-.01.05-.01.136-.007.272-.032.4-.095.336-.17.55-.516.55-.895V6h24v52z"/></svg>