<svg xmlns="http://www.w3.org/2000/svg" viewBox="0 0 52.974 52.974"><path d="M49.467 3.51c-4.677-4.68-12.29-4.68-16.97 0l-9.192 9.192c-.39.39-.39 1.023 0 1.414s1.023.39 1.414 0l9.19-9.192c1.88-1.88 4.392-2.915 7.07-2.915 2.682 0 5.192 1.035 7.072 2.915s2.916 4.39 2.916 7.07c0 2.68-1.036 5.19-2.916 7.07L36.032 31.09c-3.897 3.898-10.243 3.898-14.142 0-.39-.39-1.023-.39-1.414 0s-.39 1.023 0 1.414c2.34 2.34 5.412 3.51 8.485 3.51s6.147-1.17 8.486-3.51l12.02-12.022c2.26-2.258 3.503-5.27 3.503-8.485 0-3.214-1.245-6.227-3.503-8.485z"/><path d="M26.84 40.28l-7.778 7.777c-1.88 1.88-4.39 2.916-7.07 2.916-2.68 0-5.19-1.036-7.072-2.916-3.898-3.898-3.898-10.243 0-14.142L16.234 22.6c3.9-3.897 10.244-3.895 14.142 0 .39.392 1.023.392 1.414 0s.39-1.022 0-1.413c-4.677-4.68-12.29-4.68-16.97 0L3.505 32.502c-2.258 2.258-3.5 5.27-3.5 8.485 0 3.214 1.243 6.227 3.5 8.484s5.272 3.503 8.485 3.503c3.215 0 6.228-1.244 8.485-3.502l7.778-7.777c.39-.39.39-1.023 0-1.414s-1.022-.39-1.413 0zM33.97 44.01c-.554 0-1 .446-1 1v6c0 .552.446 1 1 1s1-.448 1-1v-6c0-.554-.448-1-1-1zM38.433 42.302c-.39-.39-1.023-.39-1.414 0s-.392 1.023 0 1.414l4.242 4.242c.195.195.45.293.707.293s.51-.097.706-.292c.39-.39.39-1.023 0-1.414l-4.243-4.242zM44.97 38.01h-6c-.554 0-1 .446-1 1s.446 1 1 1h6c.552 0 1-.448 1-1s-.448-1-1-1zM15.97 11.01c.552 0 1-.448 1-1v-6c0-.554-.448-1-1-1s-1 .446-1 1v6c0 .552.447 1 1 1zM11.504 12.716c.195.195.45.293.707.293s.513-.1.708-.294c.39-.39.39-1.023 0-1.414L8.676 7.06c-.39-.39-1.023-.39-1.414 0s-.39 1.023 0 1.414l4.242 4.242zM4.97 17.01h6c.552 0 1-.448 1-1s-.448-1-1-1h-6c-.554 0-1 .446-1 1s.447 1 1 1z"/></svg>