<svg xmlns="http://www.w3.org/2000/svg" viewBox="0 0 58 58"><path d="M21 14h-5V9c0-.553-.448-1-1-1s-1 .447-1 1v5H9c-.552 0-1 .447-1 1s.448 1 1 1h5v5c0 .553.448 1 1 1s1-.447 1-1v-5h5c.552 0 1-.447 1-1s-.448-1-1-1zM49 14H37c-.552 0-1 .447-1 1s.448 1 1 1h12c.552 0 1-.447 1-1s-.448-1-1-1z"/><path d="M30 0H0v58h58V0H30zM2 2h26v26H2V2zm0 54V30h26v26H2zm54 0H30V30h26v26zM30 28V2h26v26H30z"/><path d="M37 47h12c.552 0 1-.447 1-1s-.448-1-1-1H37c-.552 0-1 .447-1 1s.448 1 1 1zM37 41h12c.552 0 1-.447 1-1s-.448-1-1-1H37c-.552 0-1 .447-1 1s.448 1 1 1zM20.707 37.293c-.39-.39-1.023-.39-1.414 0L15 41.586l-4.293-4.293c-.39-.39-1.023-.39-1.414 0s-.39 1.023 0 1.414L13.586 43l-4.293 4.293c-.39.39-.39 1.023 0 1.414.195.195.45.293.707.293s.512-.098.707-.293L15 44.414l4.293 4.293c.195.195.45.293.707.293s.512-.098.707-.293c.39-.39.39-1.023 0-1.414L16.414 43l4.293-4.293c.39-.39.39-1.023 0-1.414z"/></svg>