<svg xmlns="http://www.w3.org/2000/svg" viewBox="0 0 60 60"><path d="M50.586 0H9.414C7.807 0 6.5 1.308 6.5 2.914v54.172C6.5 58.692 7.807 60 9.414 60h41.172c1.607 0 2.914-1.308 2.914-2.914V2.914C53.5 1.308 52.193 0 50.586 0zm.914 57.086c0 .504-.41.914-.914.914H9.414c-.504 0-.914-.41-.914-.914V2.914c0-.504.41-.914.914-.914h41.172c.504 0 .914.41.914.914v54.172z"/><path d="M11.5 55h11V44h-11v11zm2-9h7v7h-7v-7zM24.5 55h11V44h-11v11zm2-9h7v7h-7v-7zM37.5 55h11V31h-11v24zm2-22h7v20h-7V33zM11.5 42h11V31h-11v11zm2-9h7v7h-7v-7zM24.5 42h11V31h-11v11zm2-9h7v7h-7v-7zM11.5 29h11V18h-11v11zm2-9h7v7h-7v-7zM24.5 29h11V18h-11v11zm2-9h7v7h-7v-7zM37.5 29h11V18h-11v11zm2-9h7v7h-7v-7zM11.5 15h37V5h-37v10zm2-8h33v6h-33V7z"/></svg>