<svg xmlns="http://www.w3.org/2000/svg" viewBox="0 0 58 58"><path d="M42.9 4.5c-.466-2.28-2.485-4-4.9-4-.552 0-1 .447-1 1s.448 1 1 1c1.654 0 3 1.346 3 3s-1.346 3-3 3c-.552 0-1 .447-1 1s.448 1 1 1c2.414 0 4.434-1.72 4.9-4H56v7H2v-7h17c.552 0 1-.447 1-1s-.448-1-1-1h-1.816c.414-1.162 1.514-2 2.816-2 1.654 0 3 1.346 3 3s-1.346 3-3 3c-.552 0-1 .447-1 1s.448 1 1 1c2.757 0 5-2.243 5-5s-2.243-5-5-5c-2.414 0-4.434 1.72-4.9 4H0v53h58v-53H42.9zM30 15.5h12v12H30v-12zm12 26H30v-12h12v12zm-26-12h12v12H16v-12zm0-14h12v12H16v-12zm-14 1v-1h12v12H2v-11zm0 13h12v12H2v-12zm0 26v-12h12v12H2zm14 0v-12h12v12H16zm14 0v-12h12v12H30zm26 0H44v-12h12v12zm0-14H44v-12h12v12zm-12-14v-12h12v12H44z"/><path d="M26 2.5c1.654 0 3 1.346 3 3s-1.346 3-3 3c-.552 0-1 .447-1 1s.448 1 1 1c2.757 0 5-2.243 5-5s-2.243-5-5-5c-.552 0-1 .447-1 1s.448 1 1 1zM32 2.5c1.654 0 3 1.346 3 3s-1.346 3-3 3c-.552 0-1 .447-1 1s.448 1 1 1c2.757 0 5-2.243 5-5s-2.243-5-5-5c-.552 0-1 .447-1 1s.448 1 1 1zM31.293 40.207c.195.195.45.293.707.293s.512-.098.707-.293L36 36.914l3.293 3.293c.195.195.45.293.707.293s.512-.098.707-.293c.39-.39.39-1.023 0-1.414L37.414 35.5l3.293-3.293c.39-.39.39-1.023 0-1.414s-1.023-.39-1.414 0L36 34.086l-3.293-3.293c-.39-.39-1.023-.39-1.414 0s-.39 1.023 0 1.414l3.293 3.293-3.293 3.293c-.39.39-.39 1.023 0 1.414z"/></svg>