<svg xmlns="http://www.w3.org/2000/svg" viewBox="0 0 58 58"><path d="M26 2.5c1.654 0 3 1.346 3 3s-1.346 3-3 3c-.553 0-1 .447-1 1s.447 1 1 1c2.757 0 5-2.243 5-5s-2.243-5-5-5c-.553 0-1 .447-1 1s.447 1 1 1zM32 2.5c1.654 0 3 1.346 3 3s-1.346 3-3 3c-.553 0-1 .447-1 1s.447 1 1 1c2.757 0 5-2.243 5-5s-2.243-5-5-5c-.553 0-1 .447-1 1s.447 1 1 1z"/><path d="M42.9 4.5c-.466-2.28-2.485-4-4.9-4-.553 0-1 .447-1 1s.447 1 1 1c1.654 0 3 1.346 3 3s-1.346 3-3 3c-.553 0-1 .447-1 1s.447 1 1 1c2.414 0 4.434-1.72 4.9-4H56v1c-.552 0-1 .448-1 1s.448 1 1 1v4c-.552 0-1 .448-1 1s.448 1 1 1v1H2v-1c.552 0 1-.448 1-1s-.448-1-1-1v-4c.552 0 1-.448 1-1s-.448-1-1-1v-1h17c.553 0 1-.447 1-1s-.447-1-1-1h-1.816c.414-1.162 1.514-2 2.816-2 1.654 0 3 1.346 3 3s-1.346 3-3 3c-.553 0-1 .447-1 1s.447 1 1 1c2.757 0 5-2.243 5-5s-2.243-5-5-5c-2.414 0-4.434 1.72-4.9 4H0v53h58v-53H42.9zm13.1 51H2v-37h54v37z"/><path d="M12.293 31.207c.195.195.45.293.707.293s.512-.098.707-.293L18 26.914V49.5h-3c-.553 0-1 .447-1 1s.447 1 1 1h8c.553 0 1-.447 1-1s-.447-1-1-1h-3v-25c0-.13-.026-.26-.077-.382-.1-.245-.296-.44-.54-.54-.245-.102-.52-.102-.765 0-.123.05-.234.124-.326.216l-6 6c-.39.39-.39 1.022 0 1.413zM30 43.5c0 4.41 3.59 8 8 8s8-3.59 8-8c0-3.07-1.74-5.738-4.284-7.08C43.686 35.18 45 32.995 45 30.5c0-3.86-3.14-7-7-7s-7 3.14-7 7c0 2.494 1.315 4.68 3.284 5.92C31.74 37.763 30 40.43 30 43.5zm3-13c0-2.757 2.243-5 5-5s5 2.243 5 5-2.243 5-5 5-5-2.243-5-5zm5 7c3.31 0 6 2.69 6 6s-2.69 6-6 6-6-2.69-6-6 2.69-6 6-6z"/><circle cx="8" cy="8.5" r="1"/><circle cx="8" cy="14.5" r="1"/><circle cx="5" cy="11.5" r="1"/><circle cx="11" cy="11.5" r="1"/><circle cx="14" cy="8.5" r="1"/><circle cx="14" cy="14.5" r="1"/><circle cx="20" cy="14.5" r="1"/><circle cx="17" cy="11.5" r="1"/><circle cx="23" cy="11.5" r="1"/><circle cx="26" cy="14.5" r="1"/><circle cx="32" cy="14.5" r="1"/><circle cx="29" cy="11.5" r="1"/><circle cx="35" cy="11.5" r="1"/><circle cx="44" cy="8.5" r="1"/><circle cx="38" cy="14.5" r="1"/><circle cx="44" cy="14.5" r="1"/><circle cx="41" cy="11.5" r="1"/><circle cx="47" cy="11.5" r="1"/><circle cx="50" cy="8.5" r="1"/><circle cx="50" cy="14.5" r="1"/><circle cx="53" cy="11.5" r="1"/></svg>