<svg xmlns="http://www.w3.org/2000/svg" viewBox="0 0 58 58"><path d="M42.9 4.5c-.466-2.28-2.485-4-4.9-4-.552 0-1 .447-1 1s.448 1 1 1c1.654 0 3 1.346 3 3s-1.346 3-3 3c-.552 0-1 .447-1 1s.448 1 1 1c2.414 0 4.434-1.72 4.9-4H56v9H2v-9h17c.552 0 1-.447 1-1s-.448-1-1-1h-1.816c.414-1.162 1.514-2 2.816-2 1.654 0 3 1.346 3 3s-1.346 3-3 3c-.552 0-1 .447-1 1s.448 1 1 1c2.757 0 5-2.243 5-5s-2.243-5-5-5c-2.414 0-4.434 1.72-4.9 4H0v53h58v-53H42.9zm13.1 51H2v-38h54v38z"/><path d="M12.293 30.207c.195.195.45.293.707.293s.512-.098.707-.293L18 25.914V48.5h-3c-.552 0-1 .447-1 1s.448 1 1 1h8c.552 0 1-.447 1-1s-.448-1-1-1h-3v-25c0-.13-.027-.26-.077-.382-.1-.245-.296-.44-.54-.54-.245-.102-.52-.102-.765 0-.123.05-.233.123-.326.215l-6 6c-.39.39-.39 1.023 0 1.414zM38 48.5c-2.757 0-5-2.243-5-5 0-.553-.448-1-1-1s-1 .447-1 1c0 3.86 3.14 7 7 7s7-3.14 7-7v-14c0-3.86-3.14-7-7-7s-7 3.14-7 7 3.14 7 7 7c1.958 0 3.728-.81 5-2.11v9.11c0 2.757-2.243 5-5 5zm0-14c-2.757 0-5-2.243-5-5s2.243-5 5-5 5 2.243 5 5-2.243 5-5 5zM26 2.5c1.654 0 3 1.346 3 3s-1.346 3-3 3c-.552 0-1 .447-1 1s.448 1 1 1c2.757 0 5-2.243 5-5s-2.243-5-5-5c-.552 0-1 .447-1 1s.448 1 1 1zM32 2.5c1.654 0 3 1.346 3 3s-1.346 3-3 3c-.552 0-1 .447-1 1s.448 1 1 1c2.757 0 5-2.243 5-5s-2.243-5-5-5c-.552 0-1 .447-1 1s.448 1 1 1z"/></svg>