<svg xmlns="http://www.w3.org/2000/svg" viewBox="0 0 58 58"><path d="M42.9 4.5c-.466-2.28-2.485-4-4.9-4-.553 0-1 .447-1 1s.447 1 1 1c1.654 0 3 1.346 3 3s-1.346 3-3 3c-.553 0-1 .447-1 1s.447 1 1 1c2.414 0 4.434-1.72 4.9-4H56v9H2v-9h17c.553 0 1-.447 1-1s-.447-1-1-1h-1.816c.414-1.162 1.514-2 2.816-2 1.654 0 3 1.346 3 3s-1.346 3-3 3c-.553 0-1 .447-1 1s.447 1 1 1c2.757 0 5-2.243 5-5s-2.243-5-5-5c-2.414 0-4.434 1.72-4.9 4H0v53h58v-53H42.9zm13.1 51H2v-38h54v38z"/><path d="M26 2.5c1.654 0 3 1.346 3 3s-1.346 3-3 3c-.553 0-1 .447-1 1s.447 1 1 1c2.757 0 5-2.243 5-5s-2.243-5-5-5c-.553 0-1 .447-1 1s.447 1 1 1zM32 2.5c1.654 0 3 1.346 3 3s-1.346 3-3 3c-.553 0-1 .447-1 1s.447 1 1 1c2.757 0 5-2.243 5-5s-2.243-5-5-5c-.553 0-1 .447-1 1s.447 1 1 1z"/><circle cx="22" cy="24.5" r="1"/><circle cx="29" cy="24.5" r="1"/><circle cx="36" cy="24.5" r="1"/><circle cx="43" cy="24.5" r="1"/><circle cx="50" cy="24.5" r="1"/><circle cx="8" cy="32.5" r="1"/><circle cx="15" cy="32.5" r="1"/><circle cx="22" cy="32.5" r="1"/><circle cx="29" cy="32.5" r="1"/><circle cx="36" cy="32.5" r="1"/><circle cx="43" cy="32.5" r="1"/><circle cx="50" cy="32.5" r="1"/><circle cx="8" cy="39.5" r="1"/><circle cx="15" cy="39.5" r="1"/><circle cx="22" cy="39.5" r="1"/><circle cx="29" cy="39.5" r="1"/><circle cx="36" cy="39.5" r="1"/><circle cx="43" cy="39.5" r="1"/><circle cx="50" cy="39.5" r="1"/><circle cx="8" cy="47.5" r="1"/><circle cx="15" cy="47.5" r="1"/><circle cx="22" cy="47.5" r="1"/><circle cx="29" cy="47.5" r="1"/><circle cx="36" cy="47.5" r="1"/></svg>