<svg xmlns="http://www.w3.org/2000/svg" viewBox="0 0 58 58"><path d="M42.9 4.5c-.466-2.28-2.485-4-4.9-4-.552 0-1 .447-1 1s.448 1 1 1c1.654 0 3 1.346 3 3s-1.346 3-3 3c-.552 0-1 .447-1 1s.448 1 1 1c2.414 0 4.434-1.72 4.9-4H56v9H2v-9h17c.552 0 1-.447 1-1s-.448-1-1-1h-1.816c.414-1.162 1.514-2 2.816-2 1.654 0 3 1.346 3 3s-1.346 3-3 3c-.552 0-1 .447-1 1s.448 1 1 1c2.757 0 5-2.243 5-5s-2.243-5-5-5c-2.414 0-4.434 1.72-4.9 4H0v53h58v-53H42.9zm13.1 51H2v-38h54v38z"/><path d="M26 2.5c1.654 0 3 1.346 3 3s-1.346 3-3 3c-.552 0-1 .447-1 1s.448 1 1 1c2.757 0 5-2.243 5-5s-2.243-5-5-5c-.552 0-1 .447-1 1s.448 1 1 1zM32 2.5c1.654 0 3 1.346 3 3s-1.346 3-3 3c-.552 0-1 .447-1 1s.448 1 1 1c2.757 0 5-2.243 5-5s-2.243-5-5-5c-.552 0-1 .447-1 1s.448 1 1 1zM9 25.5h22c.552 0 1-.447 1-1s-.448-1-1-1H9c-.552 0-1 .447-1 1s.448 1 1 1zM49 39.5H34c-.552 0-1 .447-1 1s.448 1 1 1h15c.552 0 1-.447 1-1s-.448-1-1-1zM9 33.5h10c.552 0 1-.447 1-1s-.448-1-1-1H9c-.552 0-1 .447-1 1s.448 1 1 1zM49 47.5H39c-.552 0-1 .447-1 1s.448 1 1 1h10c.552 0 1-.447 1-1s-.448-1-1-1zM28 32.5c0 .553.448 1 1 1h15c.552 0 1-.447 1-1s-.448-1-1-1H29c-.552 0-1 .447-1 1zM24.71 33.21c.18-.19.29-.45.29-.71 0-.26-.11-.52-.29-.71-.37-.37-1.05-.37-1.42 0-.18.19-.29.45-.29.71 0 .26.11.52.29.71.19.19.45.29.71.29.26 0 .52-.1.71-.29zM13 40.5c0 .553.448 1 1 1h15c.552 0 1-.447 1-1s-.448-1-1-1H14c-.552 0-1 .447-1 1zM9 41.5c.26 0 .52-.11.71-.29.18-.19.29-.45.29-.71 0-.26-.11-.52-.29-.7-.37-.38-1.05-.38-1.42-.01-.18.19-.29.45-.29.71 0 .26.11.52.29.71.19.18.44.29.71.29zM49 33.5c.26 0 .52-.1.71-.29.19-.19.29-.45.29-.71 0-.26-.1-.52-.29-.71-.38-.37-1.05-.37-1.42 0-.18.19-.29.45-.29.71 0 .26.11.52.29.71.19.19.45.29.71.29zM34 47.5H9c-.552 0-1 .447-1 1s.448 1 1 1h25c.552 0 1-.447 1-1s-.448-1-1-1z"/></svg>