<svg xmlns="http://www.w3.org/2000/svg" viewBox="0 0 58 58"><path d="M42.9 4.5c-.466-2.28-2.485-4-4.9-4-.552 0-1 .447-1 1s.448 1 1 1c1.654 0 3 1.346 3 3s-1.346 3-3 3c-.552 0-1 .447-1 1s.448 1 1 1c2.414 0 4.434-1.72 4.9-4H56v9H2v-9h17c.552 0 1-.447 1-1s-.448-1-1-1h-1.816c.414-1.162 1.514-2 2.816-2 1.654 0 3 1.346 3 3s-1.346 3-3 3c-.552 0-1 .447-1 1s.448 1 1 1c2.757 0 5-2.243 5-5s-2.243-5-5-5c-2.414 0-4.434 1.72-4.9 4H0v53h58v-53H42.9zm13.1 51H2v-38h54v38z"/><path d="M26 2.5c1.654 0 3 1.346 3 3s-1.346 3-3 3c-.552 0-1 .447-1 1s.448 1 1 1c2.757 0 5-2.243 5-5s-2.243-5-5-5c-.552 0-1 .447-1 1s.448 1 1 1zM32 2.5c1.654 0 3 1.346 3 3s-1.346 3-3 3c-.552 0-1 .447-1 1s.448 1 1 1c2.757 0 5-2.243 5-5s-2.243-5-5-5c-.552 0-1 .447-1 1s.448 1 1 1zM13 33.5c3.31 0 6-2.69 6-6s-2.69-6-6-6-6 2.69-6 6 2.69 6 6 6zm0-10c2.206 0 4 1.794 4 4s-1.794 4-4 4-4-1.794-4-4 1.794-4 4-4zM29 33.5c3.31 0 6-2.69 6-6s-2.69-6-6-6-6 2.69-6 6 2.69 6 6 6zm0-10c2.206 0 4 1.794 4 4s-1.794 4-4 4-4-1.794-4-4 1.794-4 4-4zM45 33.5c3.31 0 6-2.69 6-6s-2.69-6-6-6-6 2.69-6 6 2.69 6 6 6zm0-10c2.206 0 4 1.794 4 4s-1.794 4-4 4-4-1.794-4-4 1.794-4 4-4zM13 49.5c3.31 0 6-2.69 6-6s-2.69-6-6-6-6 2.69-6 6 2.69 6 6 6zm0-10c2.206 0 4 1.794 4 4s-1.794 4-4 4-4-1.794-4-4 1.794-4 4-4zM29 49.5c3.31 0 6-2.69 6-6s-2.69-6-6-6-6 2.69-6 6 2.69 6 6 6zm0-10c2.206 0 4 1.794 4 4s-1.794 4-4 4-4-1.794-4-4 1.794-4 4-4z"/><circle cx="45" cy="48.5" r="1"/><circle cx="41" cy="47.5" r="1"/><circle cx="49" cy="47.5" r="1"/><circle cx="49" cy="39.5" r="1"/><circle cx="41" cy="39.5" r="1"/><circle cx="43" cy="41.5" r="1"/><circle cx="47" cy="41.5" r="1"/><circle cx="45" cy="43.5" r="1"/><circle cx="43" cy="45.5" r="1"/><circle cx="47" cy="45.5" r="1"/><circle cx="50" cy="43.5" r="1"/><circle cx="40" cy="43.5" r="1"/><circle cx="45" cy="38.5" r="1"/></svg>