<svg xmlns="http://www.w3.org/2000/svg" viewBox="0 0 60 60"><path d="M19 31h7.142c.447 1.72 2 3 3.858 3 2.206 0 4-1.794 4-4 0-1.86-1.28-3.41-3-3.858V16c0-.553-.448-1-1-1s-1 .447-1 1v10.142c-1.4.364-2.494 1.46-2.858 2.858H19c-.552 0-1 .447-1 1s.448 1 1 1zm11-3c1.103 0 2 .897 2 2s-.897 2-2 2-2-.897-2-2 .897-2 2-2zM30 10c.552 0 1-.447 1-1V8c0-.553-.448-1-1-1s-1 .447-1 1v1c0 .553.448 1 1 1zM30 50c-.552 0-1 .447-1 1v1c0 .553.448 1 1 1s1-.447 1-1v-1c0-.553-.448-1-1-1zM51 29c-.552 0-1 .447-1 1s.448 1 1 1h1c.552 0 1-.447 1-1s-.448-1-1-1h-1zM8 31h1c.552 0 1-.447 1-1s-.448-1-1-1H8c-.552 0-1 .447-1 1s.448 1 1 1zM50.293 10.707c.256 0 .512-.098.707-.293l.707-.707c.39-.39.39-1.023 0-1.414s-1.023-.39-1.414 0L49.586 9c-.39.39-.39 1.023 0 1.414.195.195.45.293.707.293zM9.146 49.44l-.707.706c-.392.39-.392 1.023 0 1.414.194.195.45.293.706.293s.512-.098.707-.293l.707-.707c.39-.39.39-1.023 0-1.414s-1.023-.39-1.414 0zM50.146 51.56c.195.196.45.294.707.294s.512-.098.707-.293c.39-.39.39-1.022 0-1.413l-.707-.707c-.39-.39-1.023-.39-1.414 0s-.392 1.023 0 1.414l.706.707zM8.793 10.207c.195.195.45.293.707.293s.512-.098.707-.293c.39-.39.39-1.023 0-1.414L9.5 8.086c-.39-.39-1.023-.39-1.414 0s-.39 1.023 0 1.414l.707.707z"/><path d="M0 0v60h60V0H0zm58 58H2V2h56v56z"/></svg>