<svg xmlns="http://www.w3.org/2000/svg" viewBox="0 0 60 60"><path d="M50.975 19.694c-.527-9-7.946-16.194-16.89-16.194-5.43 0-10.69 2.663-13.947 7.008-.075-.04-.155-.066-.23-.103-.197-.095-.395-.185-.598-.266-.118-.048-.238-.09-.358-.132-.197-.07-.397-.13-.6-.185-.12-.032-.24-.065-.36-.093-.22-.05-.444-.088-.67-.12-.105-.017-.21-.037-.315-.05-.33-.037-.666-.06-1.007-.06-4.962 0-9 4.037-9 9 0 .13.008.255.016.38C2.856 21.15 0 25.9 0 30.655 0 37.737 5.762 43.5 12.845 43.5H18c.552 0 1-.447 1-1s-.448-1-1-1h-5.155C6.865 41.5 2 36.635 2 30.654 2 26.5 4.705 22.188 8.432 20.4L9 20.13v-.63c0-.123.008-.25.015-.375l.01-.173-.013-.202C9.006 18.667 9 18.584 9 18.5c0-3.86 3.14-7 7-7 .31 0 .614.027.917.067.078.01.156.023.234.036.268.044.53.102.79.176.035.01.07.016.106.026.285.087.563.198.835.32l.21.1c.24.12.476.25.704.4C21.72 13.873 23 16.038 23 18.5c0 .553.448 1 1 1s1-.447 1-1c0-2.754-1.246-5.22-3.2-6.87 2.866-3.75 7.588-6.13 12.284-6.13 7.744 0 14.178 6.135 14.848 13.887-1.022-.072-2.553-.11-4.083.125-.547.083-.922.593-.84 1.14.076.494.502.85.988.85.05 0 .1-.005.152-.013 2.224-.337 4.543-.022 4.684-.003C54.49 22.372 58 26.66 58 31.472c0 5.53-4.5 10.028-10.028 10.028H44c-.552 0-1 .447-1 1s.448 1 1 1h3.972C54.604 43.5 60 38.104 60 31.472c0-5.49-3.827-10.412-9.025-11.778z"/><path d="M38.293 34.207c.195.195.45.293.707.293s.512-.098.707-.293c.39-.39.39-1.023 0-1.414l-8-8c-.09-.092-.202-.165-.325-.216-.244-.1-.52-.1-.764 0-.123.05-.233.124-.326.217l-8 8c-.39.39-.39 1.022 0 1.413.196.195.452.293.708.293s.512-.098.707-.293L30 27.914v25.172l-6.293-6.293c-.39-.39-1.023-.39-1.414 0s-.39 1.023 0 1.414l8 8c.09.092.202.165.325.216.122.05.252.077.382.077s.26-.027.382-.077c.123-.05.233-.124.326-.217l8-8c.39-.39.39-1.022 0-1.413s-1.024-.39-1.415 0L32 53.086V27.914l6.293 6.293z"/></svg>