<svg xmlns="http://www.w3.org/2000/svg" viewBox="0 0 60 60"><path d="M50.976 21.694c-.528-9-7.947-16.194-16.89-16.194-5.43 0-10.69 2.663-13.947 7.008-.076-.04-.156-.066-.232-.103-.196-.095-.394-.185-.597-.266-.117-.048-.237-.09-.357-.132-.197-.07-.397-.13-.6-.185-.12-.032-.24-.065-.36-.093-.22-.05-.444-.088-.67-.12-.105-.017-.21-.037-.315-.05-.332-.037-.667-.06-1.008-.06-4.962 0-9 4.037-9 9 0 .13.008.255.016.38C2.856 23.15 0 27.9 0 32.655 0 39.737 5.762 45.5 12.845 45.5h6.262l-5.264 9h32.313l-5.264-9h7.08C54.603 45.5 60 40.104 60 33.472c0-5.49-3.827-10.412-9.024-11.778zM42.67 52.5H17.33l4.094-7L30 30.837 38.576 45.5l4.094 7zm5.302-9h-8.25L30 26.876 20.277 43.5h-7.432C6.865 43.5 2 38.635 2 32.654 2 28.5 4.705 24.188 8.432 22.4L9 22.13v-.63c0-.123.008-.25.015-.375l.01-.173-.013-.202C9.006 20.667 9 20.584 9 20.5c0-3.86 3.14-7 7-7 .31 0 .614.027.917.067.078.01.156.023.234.036.268.044.53.102.79.176.035.01.07.016.106.026.285.087.563.198.835.32l.21.1c.24.12.476.25.704.4C21.72 15.873 23 18.038 23 20.5c0 .553.448 1 1 1s1-.447 1-1c0-2.754-1.246-5.22-3.2-6.87 2.866-3.75 7.588-6.13 12.284-6.13 7.745 0 14.178 6.135 14.85 13.888-1.023-.072-2.554-.11-4.085.124-.547.083-.922.593-.84 1.14.076.494.502.85.988.85.05 0 .1-.005.152-.013 2.228-.337 4.548-.022 4.684-.003C54.49 24.372 58 28.66 58 33.472c0 5.53-4.5 10.028-10.028 10.028z"/><path d="M30 35.5c-.552 0-1 .447-1 1v8c0 .553.448 1 1 1s1-.447 1-1v-8c0-.553-.448-1-1-1zM30 47.5c-.552 0-1 .447-1 1v1c0 .553.448 1 1 1s1-.447 1-1v-1c0-.553-.448-1-1-1z"/></svg>