<svg xmlns="http://www.w3.org/2000/svg" viewBox="0 0 60 60"><path d="M50.975 17.694c-.527-9-7.946-16.194-16.89-16.194-5.43 0-10.69 2.663-13.947 7.008-.075-.04-.155-.066-.23-.103-.197-.095-.395-.185-.598-.266-.118-.048-.238-.09-.358-.132-.197-.07-.397-.13-.6-.185-.12-.032-.24-.065-.36-.093-.22-.05-.444-.088-.67-.12-.105-.017-.21-.037-.315-.05-.33-.037-.666-.06-1.007-.06-4.962 0-9 4.037-9 9 0 .13.008.255.016.38C2.856 19.15 0 23.9 0 28.655 0 35.737 5.762 41.5 12.845 41.5H18c.552 0 1-.447 1-1s-.448-1-1-1h-5.155C6.865 39.5 2 34.635 2 28.654 2 24.5 4.705 20.188 8.432 18.4L9 18.13v-.63c0-.123.008-.25.015-.375l.01-.173-.013-.202C9.006 16.667 9 16.584 9 16.5c0-3.86 3.14-7 7-7 .31 0 .614.027.917.067.078.01.156.023.234.036.268.044.53.102.79.176.035.01.07.016.106.026.285.087.563.198.835.32l.21.1c.24.12.476.25.704.4C21.72 11.873 23 14.038 23 16.5c0 .553.448 1 1 1s1-.447 1-1c0-2.754-1.246-5.22-3.2-6.87 2.866-3.75 7.588-6.13 12.284-6.13 7.744 0 14.177 6.135 14.848 13.887-1.022-.072-2.553-.11-4.083.125-.547.083-.922.593-.84 1.14.076.494.502.85.988.85.05 0 .1-.005.152-.013 2.224-.337 4.543-.022 4.684-.003C54.49 20.372 58 24.66 58 29.472c0 5.53-4.5 10.028-10.028 10.028H44c-.552 0-1 .447-1 1s.448 1 1 1h3.972C54.604 41.5 60 36.104 60 29.472c0-5.49-3.827-10.412-9.025-11.778z"/><path d="M39.448 47.534C41.038 45.626 42 43.174 42 40.5c0-6.065-4.935-11-11-11s-11 4.935-11 11 4.935 11 11 11c2.673 0 5.125-.96 7.034-2.552l9.26 9.26c.194.194.45.292.706.292s.512-.098.707-.293c.39-.39.39-1.023 0-1.414l-9.26-9.26zM31 49.5c-4.962 0-9-4.037-9-9s4.038-9 9-9 9 4.037 9 9-4.038 9-9 9z"/></svg>