<svg xmlns="http://www.w3.org/2000/svg" viewBox="0 0 60 60"><path d="M50.976 26.194c-.53-9-7.948-16.194-16.89-16.194-5.43 0-10.69 2.663-13.947 7.008-.076-.04-.155-.066-.23-.102-.2-.096-.4-.187-.605-.27-.114-.044-.228-.085-.343-.125-.203-.07-.41-.133-.62-.19-.114-.03-.228-.063-.344-.09-.225-.05-.455-.09-.687-.124-.1-.015-.2-.035-.3-.046-.333-.037-.67-.06-1.01-.06-4.963 0-9 4.037-9 9 0 .127.008.252.016.377v.004C2.856 27.65 0 32.4 0 37.155 0 44.237 5.762 50 12.845 50h24.508c.104 0 .207-.006.31-.014l.063-.008.134.008c.102.008.204.014.31.014h9.802C54.604 50 60 44.604 60 37.972c0-5.49-3.827-10.412-9.024-11.778zM47.972 48H38.17c-.06 0-.117-.005-.175-.01l-.27-.01-.2.01c-.056.005-.114.01-.172.01H12.845C6.865 48 2 43.135 2 37.154 2 33 4.705 28.688 8.433 26.9L9 26.63V26c0-.127.008-.256.015-.386l.01-.16-.013-.21C9.006 25.164 9 25.082 9 25c0-3.86 3.14-7 7-7 .31 0 .614.027.917.067.078.01.156.023.233.036.267.044.53.102.79.177.034.01.07.017.105.027.285.087.563.197.835.32l.21.102c.24.118.475.248.702.395C21.72 20.373 23 22.538 23 25c0 .553.447 1 1 1s1-.447 1-1c0-2.754-1.246-5.22-3.2-6.87C24.667 14.38 29.388 12 34.085 12c7.745 0 14.177 6.135 14.848 13.888-1.022-.072-2.552-.11-4.083.124-.546.083-.92.593-.838 1.14.075.494.5.85.987.85.05 0 .1-.005.15-.013 2.227-.338 4.548-.022 4.684-.003C54.49 28.872 58 33.16 58 37.972 58 43.502 53.5 48 47.972 48z"/></svg>