<svg xmlns="http://www.w3.org/2000/svg" viewBox="0 0 60 60"><path d="M50.975 21.194C50.448 12.194 43.03 5 34.085 5c-5.43 0-10.69 2.663-13.947 7.008-.075-.04-.155-.066-.23-.103-.197-.095-.395-.185-.598-.266-.118-.048-.238-.09-.358-.132-.197-.07-.397-.13-.6-.185-.12-.032-.24-.065-.36-.093-.22-.05-.444-.088-.67-.12-.105-.017-.21-.037-.315-.05-.33-.037-.666-.06-1.007-.06-4.962 0-9 4.037-9 9 0 .13.008.255.016.38C2.856 22.65 0 27.4 0 32.155 0 39.237 5.762 45 12.845 45H18c.552 0 1-.447 1-1s-.448-1-1-1h-5.155C6.865 43 2 38.135 2 32.154 2 28 4.705 23.688 8.432 21.9L9 21.63V21c0-.123.008-.25.015-.375l.01-.173-.013-.202C9.006 20.167 9 20.084 9 20c0-3.86 3.14-7 7-7 .31 0 .614.027.917.067.078.01.156.023.234.036.268.044.53.102.79.176.035.01.07.016.106.026.285.087.563.198.835.32l.21.1c.24.12.476.25.704.4C21.72 15.373 23 17.538 23 20c0 .553.448 1 1 1s1-.447 1-1c0-2.754-1.246-5.22-3.2-6.87C24.666 9.38 29.388 7 34.084 7c7.744 0 14.178 6.135 14.848 13.887-1.022-.072-2.553-.11-4.083.124-.547.084-.922.594-.84 1.14.076.495.502.85.988.85.05 0 .1-.004.152-.012 2.224-.336 4.543-.02 4.684-.002C54.49 23.872 58 28.16 58 32.972 58 38.502 53.5 43 47.972 43H44c-.552 0-1 .447-1 1s.448 1 1 1h3.972C54.604 45 60 39.604 60 32.972c0-5.49-3.827-10.412-9.025-11.778z"/><path d="M41 43c-.552 0-1 .447-1 1 0 4.963-4.038 9-9 9s-9-4.037-9-9 4.038-9 9-9c3 0 5.677 1.506 7.31 4H32c-.552 0-1 .447-1 1s.448 1 1 1h8.005c.07 0 .14-.028.21-.043.06-.014.125-.015.18-.04h.006c.035-.015.057-.043.088-.06.08-.047.162-.094.227-.16.044-.046.07-.103.104-.155.035-.055.08-.104.104-.166.034-.084.043-.175.054-.265.004-.038.022-.07.022-.11v-8c0-.553-.448-1-1-1s-1 .447-1 1v4.6c-2.014-2.272-4.864-3.6-8-3.6-6.065 0-11 4.935-11 11s4.935 11 11 11 11-4.935 11-11c0-.553-.448-1-1-1z"/></svg>