<svg xmlns="http://www.w3.org/2000/svg" viewBox="0 0 60 60"><path d="M50.975 20.694c-.527-9-7.946-16.194-16.89-16.194-5.43 0-10.69 2.663-13.947 7.008-.074-.04-.153-.065-.228-.102-.198-.096-.4-.188-.605-.27-.115-.044-.23-.085-.346-.126-.203-.07-.407-.133-.616-.19-.116-.03-.23-.063-.35-.09-.223-.05-.45-.09-.682-.124-.102-.015-.202-.035-.305-.047-.33-.037-.666-.06-1.007-.06-4.962 0-9 4.037-9 9 0 .13.007.255.016.38C2.856 22.15 0 26.9 0 31.655 0 38.737 5.762 44.5 12.845 44.5H18c.552 0 1-.447 1-1s-.448-1-1-1h-5.155C6.865 42.5 2 37.635 2 31.654 2 27.5 4.705 23.188 8.432 21.4L9 21.13v-.63c0-.123.008-.25.015-.375l.01-.175-.013-.188C9.007 19.675 9 19.588 9 19.5c0-3.86 3.14-7 7-7 .31 0 .614.027.917.067.078.01.155.023.232.036.267.044.53.102.79.177.035.01.07.016.103.026.286.087.565.198.838.322.07.03.138.065.206.1.242.118.48.25.707.398C21.72 14.876 23 17.04 23 19.5c0 .553.448 1 1 1s1-.447 1-1c0-2.754-1.246-5.22-3.2-6.87 2.866-3.75 7.588-6.13 12.284-6.13 7.744 0 14.178 6.135 14.848 13.887-1.022-.072-2.553-.11-4.083.125-.547.083-.922.593-.84 1.14.076.494.502.85.988.85.05 0 .1-.005.152-.013 2.224-.337 4.543-.022 4.684-.003C54.49 23.372 58 27.66 58 32.472c0 5.53-4.5 10.028-10.028 10.028H44c-.552 0-1 .447-1 1s.448 1 1 1h3.972C54.604 44.5 60 39.104 60 32.472c0-5.49-3.827-10.412-9.025-11.778z"/><path d="M31.708 30.794c-.092-.093-.203-.166-.326-.217-.244-.1-.52-.1-.764 0-.123.05-.233.124-.326.217l-8 8c-.39.39-.39 1.022 0 1.413.196.195.452.293.708.293s.512-.098.707-.293L30 33.914V54.5c0 .553.448 1 1 1s1-.447 1-1V33.914l6.293 6.293c.195.195.45.293.707.293s.512-.098.707-.293c.39-.39.39-1.023 0-1.414l-8-8z"/></svg>