<svg xmlns="http://www.w3.org/2000/svg" viewBox="0 0 60 60"><path d="M51 8.603v-.02l-.31-.295c-.142-.135-.29-.262-.434-.394-.065-.06-.13-.12-.195-.177-.297-.27-.6-.53-.907-.787l-.166-.137c-.324-.266-.653-.524-.987-.776l-.126-.094c-.352-.262-.708-.516-1.07-.76l-.086-.06c-.374-.252-.753-.495-1.137-.73-.023-.014-.047-.03-.072-.043-.388-.235-.78-.46-1.18-.678-.026-.015-.052-.03-.08-.044-.393-.213-.79-.417-1.193-.612l-.112-.054c-.39-.188-.785-.366-1.184-.536l-.165-.07c-.38-.16-.763-.31-1.15-.454l-.04-.016c-.015-.006-.03-.01-.044-.017-.05-.02-.1-.037-.15-.055-.364-.132-.73-.255-1.1-.373-.103-.033-.207-.068-.312-.1-.345-.106-.693-.204-1.043-.297-.13-.035-.26-.072-.39-.105-.33-.083-.66-.157-.99-.23-.154-.032-.307-.068-.46-.1-.316-.062-.633-.116-.95-.17-.172-.028-.342-.06-.515-.085-.31-.046-.623-.083-.935-.12-.18-.02-.358-.045-.538-.063-.333-.033-.668-.055-1.003-.077-.16-.01-.32-.026-.48-.034C30.998.014 30.5 0 30 0s-1 .013-1.496.038c-.16.008-.32.024-.48.034-.336.022-.67.044-1.004.077-.18.017-.36.042-.538.063-.313.037-.625.073-.935.12-.173.025-.343.057-.515.085-.317.053-.634.107-.95.17-.153.03-.306.067-.46.1-.33.072-.66.146-.99.23-.13.032-.26.07-.39.104-.35.093-.697.19-1.043.297-.106.03-.21.065-.314.1-.37.116-.735.24-1.1.372l-.15.054c-.015.006-.03.01-.043.017l-.04.016c-.387.143-.77.294-1.15.453l-.165.07c-.398.17-.793.348-1.184.536l-.112.053c-.402.195-.8.4-1.194.612l-.08.044c-.398.216-.79.442-1.18.677-.023.015-.047.03-.072.044-.384.235-.763.478-1.137.73l-.088.06c-.36.244-.718.498-1.07.76l-.125.094c-.334.25-.662.51-.987.776l-.166.137c-.307.256-.61.518-.908.787l-.195.177c-.14.136-.288.263-.43.398L9 8.583v.02C3.45 14.05 0 21.628 0 30c0 16.542 13.458 30 30 30s30-13.458 30-30c0-8.372-3.45-15.95-9-21.397zm-21.01 43.36l.006.007h-.016l.01-.008zm-7.98-11.52C24.086 38.244 26.955 37 30 37s5.914 1.245 7.99 3.442L30 50.452l-7.99-10.01zm17.23-1.568C36.806 36.405 33.506 35 30 35s-6.805 1.404-9.24 3.875l-9.355-11.718L20 20.28l9.014 7.212.002.097.304.147.54.4.154-.076.166.077.494-.396.326-.177v-.08l9-7.202 8.595 6.877-9.354 11.718zM11.18 9.285l.01-.01c1.654-1.5 3.487-2.808 5.463-3.884l.036-.018c.376-.204.758-.4 1.145-.588l.1-.048c.35-.168.706-.328 1.065-.482V18.52l-8 6.4V9.456c.06-.057.12-.117.18-.173zm10.66-6.07c.31-.093.622-.18.936-.265.133-.036.267-.072.4-.105.295-.074.59-.14.888-.205.153-.033.306-.068.46-.098.284-.056.57-.105.855-.153.166-.03.333-.06.5-.084.284-.042.57-.076.855-.11.17-.02.34-.042.51-.06.304-.03.612-.05.92-.07.15-.01.3-.023.452-.03.126-.007.255-.006.383-.01V24.92l-8-6.4V3.492c.17-.058.337-.118.508-.172.11-.035.22-.07.333-.104zm9.995-1.148c.308.02.616.04.92.07.17.017.34.04.51.06.286.033.57.067.854.11.167.024.334.054.5.082.287.047.572.096.855.152.154.03.307.065.46.098.298.064.595.132.888.205.134.034.267.07.4.105.315.084.627.172.936.266.11.034.22.07.332.104.17.055.34.115.508.172V18.52l-8 6.4V2.025c.128.004.257.003.384.01.15.007.3.022.45.032zm10.33 2.717c.388.188.77.383 1.147.588l.036.02c1.976 1.075 3.81 2.382 5.462 3.884l.01.008c.06.056.12.116.18.173V24.92l-8-6.4V4.254c.36.154.714.314 1.065.482l.1.048zM30 58C14.56 58 2 45.44 2 30c0-7.083 2.648-13.555 7-18.49v15.84l20.012 25.07.005.2v.012l.32.15.497.39.02-.01.007.006.155-.075.158.072.008-.006.02.007.467-.388.138-.077.195-.1v-.198L51 27.35V11.51c4.352 4.935 7 11.407 7 18.49 0 15.44-12.56 28-28 28z"/></svg>