<svg xmlns="http://www.w3.org/2000/svg" viewBox="0 0 57.967 57.967"><path d="M49.49 8.475c-9.058-9.057-22.66-10.85-33.53-5.4l-.01-.02-.878.48c-.052.03-.1.062-.153.09-.515.286-1.022.586-1.52.904-.05.03-.103.06-.153.094-.542.35-1.074.72-1.596 1.11-.063.047-.125.097-.188.145-.43.326-.854.668-1.27 1.023l-.347.298c-.465.41-.923.83-1.367 1.275s-.865.902-1.274 1.367c-.1.115-.2.23-.298.347-.355.415-.696.838-1.024 1.27-.048.063-.1.124-.147.188-.39.522-.76 1.054-1.11 1.595l-.095.154c-.318.5-.618 1.005-.902 1.518-.03.052-.062.1-.09.153l-.48.878.02.01c-5.452 10.87-3.657 24.474 5.4 33.53 5.653 5.653 13.08 8.48 20.506 8.48 4.47 0 8.938-1.032 13.022-3.08l.01.02.88-.48c.05-.028.098-.06.15-.09.514-.284 1.023-.585 1.523-.905.05-.03.1-.06.15-.093.54-.35 1.073-.72 1.595-1.11.065-.047.127-.098.19-.147.432-.327.854-.67 1.27-1.023.116-.1.232-.197.347-.298.465-.41.923-.83 1.367-1.274s.863-.902 1.272-1.367c.1-.116.2-.232.298-.348.355-.416.696-.84 1.024-1.27.048-.064.1-.125.147-.19.39-.52.76-1.054 1.11-1.595l.095-.152c.318-.5.618-1.006.903-1.52.03-.052.062-.1.09-.153l.48-.878-.02-.01c5.452-10.87 3.658-24.473-5.4-33.53zM28.982 1.993c6.914 0 13.828 2.632 19.092 7.896 8.415 8.414 10.096 21.045 5.057 31.153l-13.188-7.21c1.943-4.4 1.125-9.737-2.476-13.338-3.602-3.602-8.937-4.42-13.34-2.477L16.922 4.83c3.787-1.886 7.924-2.837 12.063-2.837zM51.17 44.355c-.243.352-.495.696-.755 1.036-.08.106-.16.21-.242.314-.248.314-.505.622-.767.925-.087.1-.17.202-.26.302-.347.39-.702.77-1.07 1.14s-.752.725-1.14 1.07c-.1.09-.203.174-.304.26-.303.263-.61.52-.925.768-.104.082-.208.162-.313.242-.34.26-.685.512-1.036.756l-.224.156c-.435.295-.878.58-1.33.85l-7.206-13.18c.66-.438 1.29-.947 1.87-1.53.583-.58 1.092-1.208 1.53-1.87l13.18 7.206c-.27.452-.555.895-.85 1.33-.05.075-.104.15-.157.225zm-16.103-7.45c-.065.05-.132.097-.198.145-.343.248-.698.482-1.075.69l-.04.023-.18.098c-3.765 1.944-8.514 1.342-11.664-1.81-3.15-3.15-3.752-7.895-1.81-11.658l.103-.19.017-.03c.208-.378.443-.735.693-1.08l.144-.195c.266-.348.547-.68.854-.988.307-.307.64-.59.988-.854.065-.05.132-.097.198-.146.342-.248.697-.48 1.073-.688.013-.008.026-.017.04-.024l.18-.098c1.435-.74 3.013-1.114 4.59-1.114 2.562 0 5.123.975 7.072 2.924 3.15 3.15 3.753 7.896 1.812 11.66l-.104.19-.017.028c-.208.38-.443.736-.693 1.08-.048.065-.095.132-.144.196-.266.348-.547.68-.854.988-.304.306-.637.588-.985.853zM6.64 13.83c.05-.074.103-.148.155-.223.244-.352.496-.697.756-1.036.08-.104.16-.208.243-.312.248-.314.505-.622.767-.925.087-.1.17-.203.26-.303.347-.39.702-.77 1.07-1.14s.752-.725 1.14-1.07c.1-.09.203-.174.304-.26.303-.263.61-.52.925-.768.103-.082.207-.162.312-.242.34-.26.684-.512 1.036-.756.075-.052.15-.106.225-.157.435-.295.878-.58 1.33-.85l7.205 13.182c-.66.436-1.29.945-1.87 1.527s-1.092 1.21-1.53 1.87L5.79 15.162c.27-.45.556-.894.85-1.33zM9.89 48.073C1.476 39.657-.204 27.026 4.834 16.918l13.188 7.21c-1.943 4.4-1.125 9.737 2.476 13.338 2.34 2.34 5.412 3.51 8.485 3.51 1.658 0 3.31-.353 4.854-1.034l7.21 13.188c-10.11 5.038-22.74 3.358-31.155-5.058z"/><path d="M26.155 26.152c-.756.755-1.172 1.76-1.172 2.828s.416 2.073 1.172 2.828c.755.756 1.76 1.172 2.828 1.172s2.073-.416 2.828-1.172c.757-.755 1.173-1.76 1.173-2.828s-.416-2.073-1.172-2.828c-1.508-1.51-4.145-1.51-5.655 0zm4.242 4.243c-.756.756-2.072.756-2.828 0-.38-.378-.587-.88-.587-1.414s.208-1.035.586-1.413.88-.586 1.413-.586 1.036.21 1.414.587.586.88.586 1.414-.208 1.037-.586 1.415z"/></svg>