<svg xmlns="http://www.w3.org/2000/svg" viewBox="0 0 60 60"><path d="M30 0C13.458 0 0 13.458 0 30s13.458 30 30 30 30-13.458 30-30S46.542 0 30 0zm0 58C14.56 58 2 45.44 2 30S14.56 2 30 2s28 12.56 28 28-12.56 28-28 28z"/><path d="M23.165 8.46c.537-.13.868-.67.74-1.207-.13-.537-.67-.866-1.207-.74-3.935.947-7.522 2.956-10.376 5.81s-4.862 6.44-5.808 10.375c-.13.536.202 1.076.74 1.206.077.02.156.027.233.027.45 0 .86-.307.972-.766.858-3.575 2.684-6.836 5.276-9.43s5.854-4.416 9.43-5.275zM52.747 36.096c-.538-.13-1.077.2-1.206.74-.858 3.574-2.684 6.835-5.276 9.428s-5.854 4.418-9.43 5.277c-.537.13-.868.67-.74 1.207.11.46.522.767.973.767.077 0 .156-.01.234-.027 3.937-.946 7.524-2.955 10.378-5.81s4.862-6.44 5.81-10.375c.127-.536-.204-1.076-.74-1.206z"/><path d="M24.452 13.286c.538-.125.873-.663.747-1.2-.126-.538-.666-.878-1.2-.747-3.09.72-5.905 2.28-8.142 4.52-2.237 2.235-3.8 5.05-4.52 8.14-.126.537.21 1.075.747 1.2.076.02.152.026.228.026.454 0 .865-.312.973-.773.635-2.725 2.014-5.207 3.986-7.18s4.456-3.352 7.18-3.987zM48.66 36c.127-.536-.208-1.074-.746-1.2-.538-.132-1.075.21-1.2.748-.635 2.725-2.014 5.207-3.986 7.18s-4.455 3.352-7.18 3.986c-.538.125-.873.663-.747 1.2.108.462.52.773.974.773.075 0 .15-.008.228-.026 3.09-.72 5.904-2.28 8.14-4.52 2.237-2.235 3.8-5.05 4.52-8.14z"/><path d="M26.495 16.925c-.12-.54-.653-.88-1.19-.763-4.557.997-8.146 4.586-9.143 9.143-.118.54.224 1.072.763 1.19.072.016.144.023.215.023.46 0 .873-.318.976-.786.83-3.796 3.82-6.786 7.617-7.617.538-.118.88-.65.762-1.19zM43.838 34.695c.118-.54-.224-1.072-.763-1.19-.54-.118-1.072.222-1.19.763-.83 3.796-3.82 6.786-7.617 7.617-.54.118-.88.65-.763 1.19.103.468.516.786.976.786.072 0 .144-.007.216-.022 4.556-.997 8.145-4.586 9.142-9.143zM38.08 30c0-4.455-3.625-8.08-8.08-8.08s-8.08 3.625-8.08 8.08 3.625 8.08 8.08 8.08 8.08-3.625 8.08-8.08zM30 36.08c-3.353 0-6.08-2.728-6.08-6.08s2.728-6.08 6.08-6.08 6.08 2.728 6.08 6.08-2.727 6.08-6.08 6.08z"/></svg>