<svg xmlns="http://www.w3.org/2000/svg" viewBox="0 0 59 59"><path d="M8 42.58V3.5c0-.553-.447-1-1-1s-1 .447-1 1v39.08c-3.386.488-6 3.4-6 6.92 0 3.86 3.14 7 7 7s7-3.14 7-7c0-3.52-2.614-6.432-6-6.92zM7 54.5c-2.757 0-5-2.243-5-5s2.243-5 5-5 5 2.243 5 5-2.243 5-5 5zM23 30.58V3.5c0-.553-.447-1-1-1s-1 .447-1 1v27.08c-3.386.488-6 3.4-6 6.92s2.614 6.432 6 6.92V55.5c0 .553.447 1 1 1s1-.447 1-1V44.42c3.386-.488 6-3.4 6-6.92s-2.614-6.432-6-6.92zM22 42.5c-2.757 0-5-2.243-5-5s2.243-5 5-5 5 2.243 5 5-2.243 5-5 5zM38 18.58V3.5c0-.553-.447-1-1-1s-1 .447-1 1v15.08c-3.386.488-6 3.4-6 6.92s2.614 6.432 6 6.92V55.5c0 .553.447 1 1 1s1-.447 1-1V32.42c3.386-.488 6-3.4 6-6.92s-2.614-6.432-6-6.92zM37 30.5c-2.757 0-5-2.243-5-5s2.243-5 5-5 5 2.243 5 5-2.243 5-5 5zM59 13.5c0-3.52-2.614-6.432-6-6.92V3.5c0-.553-.447-1-1-1s-1 .447-1 1v3.08c-3.386.488-6 3.4-6 6.92s2.614 6.432 6 6.92V55.5c0 .553.447 1 1 1s1-.447 1-1V20.42c3.386-.488 6-3.4 6-6.92zm-7 5c-2.757 0-5-2.243-5-5s2.243-5 5-5 5 2.243 5 5-2.243 5-5 5z"/><path d="M53 10.5h-2c-.553 0-1 .447-1 1s.447 1 1 1h2c.553 0 1-.447 1-1s-.447-1-1-1zM38 22.5h-2c-.553 0-1 .447-1 1s.447 1 1 1h2c.553 0 1-.447 1-1s-.447-1-1-1zM38 26.5h-2c-.553 0-1 .447-1 1s.447 1 1 1h2c.553 0 1-.447 1-1s-.447-1-1-1zM23 34.5h-2c-.553 0-1 .447-1 1s.447 1 1 1h2c.553 0 1-.447 1-1s-.447-1-1-1zM23 38.5h-2c-.553 0-1 .447-1 1s.447 1 1 1h2c.553 0 1-.447 1-1s-.447-1-1-1zM8 46.5H6c-.553 0-1 .447-1 1s.447 1 1 1h2c.553 0 1-.447 1-1s-.447-1-1-1zM8 50.5H6c-.553 0-1 .447-1 1s.447 1 1 1h2c.553 0 1-.447 1-1s-.447-1-1-1zM53 14.5h-2c-.553 0-1 .447-1 1s.447 1 1 1h2c.553 0 1-.447 1-1s-.447-1-1-1z"/></svg>