<svg xmlns="http://www.w3.org/2000/svg" viewBox="0 0 60 60"><path d="M59 0H1C.448 0 0 .447 0 1v58c0 .553.448 1 1 1h58c.552 0 1-.447 1-1V1c0-.553-.448-1-1-1zm-1 58H2V2h56v56z"/><path d="M6 51h4v3c0 .553.448 1 1 1s1-.447 1-1v-3h4c.552 0 1-.447 1-1V38c0-.553-.448-1-1-1h-4V6c0-.553-.448-1-1-1s-1 .447-1 1v31H6c-.552 0-1 .447-1 1v12c0 .553.448 1 1 1zm1-12h8v10H7V39zM25 37h4v17c0 .553.448 1 1 1s1-.447 1-1V37h4c.552 0 1-.447 1-1V24c0-.553-.448-1-1-1h-4V6c0-.553-.448-1-1-1s-1 .447-1 1v17h-4c-.552 0-1 .447-1 1v12c0 .553.448 1 1 1zm1-12h8v10h-8V25zM44 23h4v31c0 .553.448 1 1 1s1-.447 1-1V23h4c.552 0 1-.447 1-1V10c0-.553-.448-1-1-1h-4V6c0-.553-.448-1-1-1s-1 .447-1 1v3h-4c-.552 0-1 .447-1 1v12c0 .553.448 1 1 1zm1-12h8v10h-8V11z"/></svg>