<svg xmlns="http://www.w3.org/2000/svg" viewBox="0 0 54 54"><path d="M13 36H9V1c0-.553-.448-1-1-1S7 .447 7 1v35H3c-.552 0-1 .447-1 1v12c0 .553.448 1 1 1h4v3c0 .553.448 1 1 1s1-.447 1-1v-3h4c.552 0 1-.447 1-1V37c0-.553-.448-1-1-1zm-1 12H4V38h8v10zM32 20h-4V1c0-.553-.448-1-1-1s-1 .447-1 1v19h-4c-.552 0-1 .447-1 1v12c0 .553.448 1 1 1h4v19c0 .553.448 1 1 1s1-.447 1-1V34h4c.552 0 1-.447 1-1V21c0-.553-.448-1-1-1zm-1 12h-8V22h8v10zM51 4h-4V1c0-.553-.448-1-1-1s-1 .447-1 1v3h-4c-.552 0-1 .447-1 1v12c0 .553.448 1 1 1h4v35c0 .553.448 1 1 1s1-.447 1-1V18h4c.552 0 1-.447 1-1V5c0-.553-.448-1-1-1zm-1 12h-8V6h8v10z"/></svg>