<svg xmlns="http://www.w3.org/2000/svg" viewBox="0 0 60 60"><path d="M12 53c3.86 0 7-3.14 7-7 0-3.52-2.613-6.432-6-6.92V8c0-.553-.448-1-1-1s-1 .447-1 1v31.08c-3.387.488-6 3.4-6 6.92 0 3.86 3.14 7 7 7zm0-12c2.757 0 5 2.243 5 5s-2.243 5-5 5-5-2.243-5-5 2.243-5 5-5zM47 20.92V52c0 .553.448 1 1 1s1-.447 1-1V20.92c3.387-.488 6-3.4 6-6.92 0-3.86-3.14-7-7-7s-7 3.14-7 7c0 3.52 2.613 6.432 6 6.92zM48 9c2.757 0 5 2.243 5 5s-2.243 5-5 5-5-2.243-5-5 2.243-5 5-5zM29 35.92V52c0 .553.448 1 1 1s1-.447 1-1V35.92c3.387-.488 6-3.4 6-6.92s-2.613-6.432-6-6.92V8c0-.553-.448-1-1-1s-1 .447-1 1v14.08c-3.387.488-6 3.4-6 6.92s2.613 6.432 6 6.92zM30 24c2.757 0 5 2.243 5 5s-2.243 5-5 5-5-2.243-5-5 2.243-5 5-5z"/><path d="M59 0H1C.448 0 0 .447 0 1v58c0 .553.448 1 1 1h58c.552 0 1-.447 1-1V1c0-.553-.448-1-1-1zm-1 58H2V2h56v56z"/></svg>