<svg xmlns="http://www.w3.org/2000/svg" viewBox="0 0 60 60"><path d="M59 0H1C.447 0 0 .447 0 1v58c0 .553.447 1 1 1h58c.553 0 1-.447 1-1V1c0-.553-.447-1-1-1zm-1 58H2V2h56v56z"/><path d="M6 12h3v4c0 .553.447 1 1 1h12c.553 0 1-.447 1-1v-4h31c.553 0 1-.447 1-1s-.447-1-1-1H23V6c0-.553-.447-1-1-1H10c-.553 0-1 .447-1 1v4H6c-.553 0-1 .447-1 1s.447 1 1 1zm5-5h10v8H11V7zM6 31h17v4c0 .553.447 1 1 1h12c.553 0 1-.447 1-1v-4h17c.553 0 1-.447 1-1s-.447-1-1-1H37v-4c0-.553-.447-1-1-1H24c-.553 0-1 .447-1 1v4H6c-.553 0-1 .447-1 1s.447 1 1 1zm19-5h10v8H25v-8zM6 50h31v4c0 .553.447 1 1 1h12c.553 0 1-.447 1-1v-4h3c.553 0 1-.447 1-1s-.447-1-1-1h-3v-4c0-.553-.447-1-1-1H38c-.553 0-1 .447-1 1v4H6c-.553 0-1 .447-1 1s.447 1 1 1zm33-5h10v8H39v-8z"/></svg>