<svg xmlns="http://www.w3.org/2000/svg" viewBox="0 0 60 60"><path d="M7 4c0-.553-.447-1-1-1s-1 .447-1 1v35H0v14h5v3c0 .553.447 1 1 1s1-.447 1-1v-3h5V39H7V4zm3 47H2V41h8v10zM23 4c0-.553-.447-1-1-1s-1 .447-1 1v25h-5v14h5v13c0 .553.447 1 1 1s1-.447 1-1V43h5V29h-5V4zm3 37h-8V31h8v10zM39 4c0-.553-.447-1-1-1s-1 .447-1 1v15h-5v14h5v23c0 .553.447 1 1 1s1-.447 1-1V33h5V19h-5V4zm3 27h-8V21h8v10zM60 7h-5V4c0-.553-.447-1-1-1s-1 .447-1 1v3h-5v14h5v35c0 .553.447 1 1 1s1-.447 1-1V21h5V7zm-2 12h-8V9h8v10z"/><path d="M20 34c0 .553.447 1 1 1h2c.553 0 1-.447 1-1s-.447-1-1-1h-2c-.553 0-1 .447-1 1zM39 27h-2c-.553 0-1 .447-1 1s.447 1 1 1h2c.553 0 1-.447 1-1s-.447-1-1-1zM36 24c0 .553.447 1 1 1h2c.553 0 1-.447 1-1s-.447-1-1-1h-2c-.553 0-1 .447-1 1zM55 15h-2c-.553 0-1 .447-1 1s.447 1 1 1h2c.553 0 1-.447 1-1s-.447-1-1-1zM52 12c0 .553.447 1 1 1h2c.553 0 1-.447 1-1s-.447-1-1-1h-2c-.553 0-1 .447-1 1zM23 37h-2c-.553 0-1 .447-1 1s.447 1 1 1h2c.553 0 1-.447 1-1s-.447-1-1-1zM4 44c0 .553.447 1 1 1h2c.553 0 1-.447 1-1s-.447-1-1-1H5c-.553 0-1 .447-1 1zM7 47H5c-.553 0-1 .447-1 1s.447 1 1 1h2c.553 0 1-.447 1-1s-.447-1-1-1z"/></svg>