<svg xmlns="http://www.w3.org/2000/svg" viewBox="0 0 54 54"><path d="M1 9h3v4c0 .553.447 1 1 1h12c.553 0 1-.447 1-1V9h35c.553 0 1-.447 1-1s-.447-1-1-1H18V3c0-.553-.447-1-1-1H5c-.553 0-1 .447-1 1v4H1c-.553 0-1 .447-1 1s.447 1 1 1zm5-5h10v8H6V4zM53 26H34v-4c0-.553-.447-1-1-1H21c-.553 0-1 .447-1 1v4H1c-.553 0-1 .447-1 1s.447 1 1 1h19v4c0 .553.447 1 1 1h12c.553 0 1-.447 1-1v-4h19c.553 0 1-.447 1-1s-.447-1-1-1zm-21 5H22v-8h10v8zM53 45h-3v-4c0-.553-.447-1-1-1H37c-.553 0-1 .447-1 1v4H1c-.553 0-1 .447-1 1s.447 1 1 1h35v4c0 .553.447 1 1 1h12c.553 0 1-.447 1-1v-4h3c.553 0 1-.447 1-1s-.447-1-1-1zm-5 5H38v-8h10v8z"/></svg>