<svg xmlns="http://www.w3.org/2000/svg" viewBox="0 0 60 60"><path d="M14 19c3.52 0 6.432-2.614 6.92-6H52c.553 0 1-.447 1-1s-.447-1-1-1H20.92c-.488-3.386-3.4-6-6.92-6-3.86 0-7 3.14-7 7s3.14 7 7 7zm0-12c2.757 0 5 2.243 5 5s-2.243 5-5 5-5-2.243-5-5 2.243-5 5-5zM8 49h31.08c.488 3.386 3.4 6 6.92 6 3.86 0 7-3.14 7-7s-3.14-7-7-7c-3.52 0-6.432 2.614-6.92 6H8c-.553 0-1 .447-1 1s.447 1 1 1zm38-6c2.757 0 5 2.243 5 5s-2.243 5-5 5-5-2.243-5-5 2.243-5 5-5zM8 31h16.08c.488 3.386 3.4 6 6.92 6s6.432-2.614 6.92-6H52c.553 0 1-.447 1-1s-.447-1-1-1H37.92c-.488-3.386-3.4-6-6.92-6s-6.432 2.614-6.92 6H8c-.553 0-1 .447-1 1s.447 1 1 1zm23-6c2.757 0 5 2.243 5 5s-2.243 5-5 5-5-2.243-5-5 2.243-5 5-5z"/><path d="M59 0H1C.447 0 0 .447 0 1v58c0 .553.447 1 1 1h58c.553 0 1-.447 1-1V1c0-.553-.447-1-1-1zm-1 58H2V2h56v56z"/></svg>