<svg xmlns="http://www.w3.org/2000/svg" viewBox="0 0 56 56"><path d="M8 41.08V2c0-.553-.448-1-1-1s-1 .447-1 1v39.08c-3.387.488-6 3.4-6 6.92 0 3.86 3.14 7 7 7s7-3.14 7-7c0-3.52-2.613-6.432-6-6.92zM7 53c-2.757 0-5-2.243-5-5s2.243-5 5-5 5 2.243 5 5-2.243 5-5 5zM29 20.695V2c0-.553-.448-1-1-1s-1 .447-1 1v18.632c-3.602.396-6.414 3.456-6.414 7.16S23.398 34.56 27 34.955V54c0 .553.448 1 1 1s1-.447 1-1V34.89c3.4-.576 6-3.535 6-7.097s-2.6-6.52-6-7.098zM27.793 33c-2.87 0-5.207-2.336-5.207-5.207s2.335-5.207 5.207-5.207S33 24.922 33 27.793 30.664 33 27.793 33zM56 8c0-3.86-3.14-7-7-7s-7 3.14-7 7c0 3.52 2.613 6.432 6 6.92V54c0 .553.448 1 1 1s1-.447 1-1V14.92c3.387-.488 6-3.4 6-6.92zm-7 5c-2.757 0-5-2.243-5-5s2.243-5 5-5 5 2.243 5 5-2.243 5-5 5z"/></svg>