<svg xmlns="http://www.w3.org/2000/svg" viewBox="0 0 56 56"><path d="M8 14c3.52 0 6.432-2.614 6.92-6H54c.553 0 1-.447 1-1s-.447-1-1-1H14.92c-.488-3.386-3.4-6-6.92-6-3.86 0-7 3.14-7 7s3.14 7 7 7zM8 2c2.757 0 5 2.243 5 5s-2.243 5-5 5-5-2.243-5-5 2.243-5 5-5zM48 42c-3.52 0-6.432 2.614-6.92 6H2c-.552 0-1 .447-1 1s.448 1 1 1h39.08c.488 3.386 3.4 6 6.92 6 3.86 0 7-3.14 7-7s-3.14-7-7-7zm0 12c-2.757 0-5-2.243-5-5s2.243-5 5-5 5 2.243 5 5-2.243 5-5 5zM54 27H35.368c-.396-3.602-3.455-6.414-7.16-6.414-3.707 0-6.766 2.813-7.162 6.414H2c-.552 0-1 .447-1 1s.448 1 1 1h19.11c.576 3.4 3.535 6 7.097 6 3.562 0 6.52-2.6 7.097-6H54c.553 0 1-.447 1-1s-.447-1-1-1zm-25.793 6C25.337 33 23 30.664 23 27.793s2.336-5.207 5.207-5.207 5.207 2.336 5.207 5.207S31.078 33 28.207 33z"/></svg>