<svg xmlns="http://www.w3.org/2000/svg" viewBox="0 0 55 55"><circle cx="7.5" cy="29" r="1"/><circle cx="7.5" cy="35" r="1"/><circle cx="10.5" cy="32" r="1"/><circle cx="16.5" cy="32" r="1"/><circle cx="13.5" cy="35" r="1"/><circle cx="19.5" cy="35" r="1"/><circle cx="22.5" cy="32" r="1"/><circle cx="28.5" cy="32" r="1"/><circle cx="25.5" cy="35" r="1"/><circle cx="31.5" cy="35" r="1"/><circle cx="34.5" cy="32" r="1"/><circle cx="40.5" cy="32" r="1"/><circle cx="37.5" cy="35" r="1"/><circle cx="43.5" cy="35" r="1"/><circle cx="46.5" cy="32" r="1"/><circle cx="49.5" cy="29" r="1"/><circle cx="16.5" cy="38" r="1"/><circle cx="22.5" cy="38" r="1"/><circle cx="28.5" cy="38" r="1"/><circle cx="34.5" cy="38" r="1"/><circle cx="40.5" cy="38" r="1"/><path d="M52.43 8.652c-.01-.025-.018-.05-.03-.072-.01-.02-.014-.044-.025-.064C51.155 3.64 40.607 0 27.5 0S3.844 3.64 2.625 8.516c-.01.02-.016.043-.026.064-.012.024-.02.047-.03.072-.04.11-.07.224-.07.348v37c0 .162.043.315.117.45C3.797 51.347 14.364 55 27.5 55c13.106 0 23.655-3.64 24.875-8.516.08-.143.125-.308.125-.484V9c0-.124-.03-.24-.07-.348zm-5.298 28.59C46.96 37.1 46.744 37 46.5 37c-.552 0-1 .448-1 1 0 .01.006.02.006.03-2.005.848-4.567 1.573-7.544 2.098-.14-.075-.292-.128-.462-.128-.294 0-.55.132-.734.333-1.357.206-2.795.37-4.303.482-.09-.46-.476-.815-.963-.815-.526 0-.945.41-.985.926-.983.044-1.982.074-3.015.074-.34 0-.668-.013-1.004-.018-.01-.544-.45-.982-.996-.982-.527 0-.946.41-.985.928-1.418-.063-2.79-.164-4.09-.31-.152-.362-.508-.618-.925-.618-.322 0-.595.162-.778.398-2.872-.41-5.4-1.003-7.497-1.718.168-.18.275-.416.275-.68 0-.552-.448-1-1-1s-1 .448-1 1c0 .013.007.023.007.036C6.32 36.69 4.5 35.056 4.5 33.5c0-.113.013-.226.03-.338.01-.056-.008-.11-.008-.167.542-.012.978-.45.978-.995 0-.552-.448-1-1-1v-4c.527 0 .946-.41.985-.928 1.728 1.223 4.13 2.275 7.047 3.09.08.47.473.838.968.838.32 0 .59-.16.774-.393C18.097 30.493 22.62 31 27.5 31c5.674 0 10.863-.685 15.03-1.854.073.48.47.854.97.854.552 0 1-.448 1-1 0-.156-.043-.3-.106-.43 2.62-.9 4.702-2.015 6.106-3.28v7.427c-.042.143-.056.294-.03.445.018.112.03.225.03.338 0 .298-.09.6-.22.9-.183-.237-.457-.4-.78-.4-.552 0-1 .448-1 1 0 .408.246.756.596.91-.52.46-1.176.905-1.964 1.333zM50.5 21.748c-.008.03-.027.058-.032.09C49.9 25.298 40.536 29 27.5 29S5.1 25.297 4.532 21.838c-.005-.033-.024-.06-.032-.09v-8.48C7.93 16.43 15.744 19 27.5 19s19.57-2.57 23-5.732v8.48zM27.5 2c13.038 0 22.402 3.703 22.968 7.16v.007c.02.11.032.22.032.333 0 3.548-9.445 7.5-23 7.5s-23-3.952-23-7.5c0-.112.013-.222.03-.333l.002-.006C5.098 5.704 14.462 2 27.5 2zm22.968 43.838C49.9 49.298 40.536 53 27.5 53S5.1 49.297 4.532 45.838c-.008-.045-.02-.09-.032-.13v-8.44C7.93 40.43 15.744 43 27.5 43s19.57-2.57 23-5.732v8.435c-.014.044-.024.09-.032.135z"/></svg>