<svg xmlns="http://www.w3.org/2000/svg" viewBox="0 0 60 60"><path d="M35 0C23.85 0 14.43 2.588 11.215 6.475 4.67 8.077.885 10.775.145 13.51.063 13.657 0 13.818 0 14v37c0 .162.043.315.117.45C1.297 56.347 11.864 60 25 60c11.24 0 20.58-2.68 23.786-6.518 6.36-1.546 10.366-4.076 11.09-7 .08-.142.124-.307.124-.482V9.5C60 4.895 51.238 0 35 0zm12.805 39.348c-.04.1-.09.198-.143.297-.067.123-.142.246-.23.37-.067.092-.142.184-.22.276-.11.132-.23.263-.363.393-.082.08-.17.157-.26.236-.165.142-.336.284-.527.425-.082.06-.17.12-.257.18-.226.156-.462.31-.72.463l-.213.12c-.298.168-.61.335-.945.497l-.132.06c-.375.178-.767.352-1.186.52l-.036.014c-2.27.906-5.176 1.67-8.56 2.17-.018 0-.035.003-.052.006-.658.097-1.333.183-2.026.26l-.346.03c-.605.064-1.217.122-1.847.168-.288.02-.59.03-.883.05-.474.027-.943.058-1.43.075-.793.024-1.603.04-2.43.04s-1.637-.016-2.432-.044c-.486-.017-.955-.05-1.43-.076-.292-.017-.594-.028-.882-.05-.63-.045-1.242-.103-1.847-.166-.115-.012-.234-.02-.347-.032-.693-.076-1.368-.163-2.026-.26-.017 0-.034-.003-.05-.006-3.386-.5-6.29-1.263-8.562-2.17l-.036-.014c-.42-.168-.813-.342-1.187-.52l-.132-.06c-.335-.162-.646-.328-.944-.497-.07-.04-.144-.08-.212-.12-.26-.152-.495-.307-.72-.463-.087-.06-.176-.12-.258-.18-.19-.14-.362-.283-.526-.426-.09-.078-.18-.156-.26-.236-.134-.13-.252-.26-.363-.392-.078-.092-.153-.184-.22-.277-.087-.122-.162-.245-.23-.368-.054-.1-.102-.198-.143-.297-.05-.12-.088-.242-.116-.363-.037-.16-.078-.32-.078-.482 0-.113.013-.226.03-.338.026-.15.012-.302-.03-.445v-7.424c.028.026.063.05.092.077.218.192.44.383.69.567C6.55 33.787 14.082 36 25 36c10.872 0 18.386-2.196 22.17-5.028.3-.22.573-.447.83-.678v7.423c-.042.143-.056.294-.03.445.017.112.03.225.03.338 0 .16-.04.323-.08.485-.028.12-.066.242-.115.363zM2.6 18.798c.3.235.625.468.976.695.073.047.155.093.23.14.295.183.606.362.933.538.12.066.24.13.366.194.365.186.748.367 1.15.542.067.03.127.06.194.087.47.2.967.39 1.485.573.143.05.293.1.44.15.412.138.838.27 1.28.4.158.046.314.094.477.138.585.162 1.19.316 1.823.458.087.02.18.036.27.055.558.122 1.138.235 1.734.34.2.037.406.07.612.105.567.093 1.15.178 1.75.256.154.02.3.043.457.062.743.09 1.513.167 2.304.233.195.016.398.028.596.042.633.046 1.28.084 1.942.114l.727.03c.862.03 1.74.05 2.65.05s1.788-.02 2.65-.05l.727-.03c.662-.03 1.31-.07 1.942-.115.197-.015.4-.026.595-.042.79-.065 1.56-.143 2.305-.233.156-.02.303-.042.457-.062.6-.078 1.182-.163 1.75-.256.206-.034.41-.068.613-.104.596-.106 1.176-.22 1.735-.34.088-.02.182-.037.27-.056.633-.142 1.237-.297 1.822-.458.163-.045.32-.092.478-.138.44-.13.867-.262 1.28-.4l.44-.15c.517-.184 1.016-.374 1.484-.573.066-.028.126-.058.192-.087.403-.176.786-.356 1.15-.542.126-.064.248-.128.368-.193.327-.174.638-.353.932-.537.076-.047.158-.093.23-.14.352-.227.676-.46.976-.696.075-.06.142-.12.215-.18.13-.108.267-.215.387-.324v7.424c-.042.143-.056.294-.03.445.017.112.03.225.03.338 0 .16-.04.323-.08.485-.027.12-.066.24-.115.363-.04.1-.09.198-.143.297-.067.123-.142.246-.23.37-.067.092-.142.184-.22.276-.11.132-.23.263-.363.393-.082.08-.17.157-.26.236-.165.142-.336.284-.527.425-.082.06-.17.12-.257.18-.226.156-.462.31-.72.463l-.213.12c-.298.168-.61.335-.945.497l-.132.06c-.375.178-.767.352-1.186.52l-.036.014c-2.27.906-5.176 1.67-8.56 2.17-.018 0-.035.003-.052.006-.658.097-1.333.183-2.026.26l-.346.03c-.605.064-1.217.122-1.847.168-.288.02-.59.03-.883.05-.474.027-.943.058-1.43.075-.793.024-1.603.04-2.43.04s-1.637-.016-2.432-.044c-.486-.017-.955-.05-1.43-.076-.292-.017-.594-.028-.882-.05-.63-.045-1.242-.103-1.847-.166-.115-.012-.234-.02-.347-.032-.693-.076-1.368-.163-2.026-.26-.017 0-.034-.003-.05-.006-3.386-.5-6.29-1.263-8.562-2.17l-.036-.014c-.42-.168-.813-.342-1.187-.52l-.132-.06c-.335-.162-.646-.328-.944-.497-.07-.04-.144-.08-.212-.12-.26-.152-.495-.307-.72-.463-.087-.06-.176-.12-.258-.18-.19-.14-.362-.283-.526-.426-.09-.078-.18-.156-.26-.236-.134-.13-.252-.26-.363-.392-.078-.092-.153-.184-.22-.277-.087-.122-.162-.245-.23-.368-.054-.1-.102-.198-.143-.297-.05-.12-.088-.242-.116-.363-.037-.16-.078-.32-.078-.482 0-.113.013-.226.03-.338.026-.15.012-.302-.03-.445v-7.424c.12.11.257.216.387.324.072.06.14.12.214.18zM50 39.09v-9.918l.126-.037c.4-.112.79-.227 1.168-.346l.013-.005c2.96-.936 5.22-2.1 6.693-3.427V33.5c0 .116-.015.232-.035.35-.016.095-.043.19-.072.287-.01.028-.015.056-.025.085-.036.105-.08.21-.133.315l-.02.04c-.827 1.614-3.464 3.2-7.27 4.378L50 39.09zm8-25.743V21.5c0 .116-.015.232-.035.35-.016.095-.043.19-.072.287-.01.028-.015.056-.025.085-.036.105-.08.21-.133.315l-.02.04c-.827 1.614-3.464 3.2-7.27 4.378L50 27.09v-9.918c.084-.023.16-.05.244-.072.23-.065.454-.133.677-.2.19-.057.38-.115.562-.174.228-.074.448-.15.667-.227.165-.06.333-.116.494-.175.23-.085.452-.174.673-.262.137-.055.28-.108.412-.164.255-.11.5-.22.74-.333.088-.04.18-.08.264-.12.324-.155.635-.315.93-.478.032-.018.058-.036.09-.053.26-.146.512-.295.75-.447.084-.054.16-.11.24-.163.176-.117.35-.235.512-.356.09-.065.17-.133.253-.2.14-.112.28-.224.41-.338.026-.023.056-.043.08-.065zM35 2c13.555 0 23 3.952 23 7.5 0 .133-.014.266-.04.4-.008.043-.025.086-.036.13-.023.09-.045.18-.08.27-.02.05-.046.103-.07.155-.036.08-.072.162-.118.243-.03.055-.068.11-.103.165-.05.078-.1.156-.157.233-.042.056-.09.112-.135.167-.062.076-.126.152-.196.227-.052.056-.108.112-.164.168-.075.074-.153.15-.236.223-.062.056-.126.112-.192.167-.088.073-.18.146-.275.22-.07.053-.143.108-.218.162-.102.072-.21.144-.317.216l-.24.158c-.117.073-.238.145-.36.216-.086.05-.17.1-.26.15-.13.072-.27.145-.41.218-.09.046-.176.093-.268.138-.153.076-.315.15-.476.225-.09.04-.172.082-.262.122-.213.094-.434.187-.66.278l-.13.055c-.274.11-.558.216-.85.32-.08.03-.168.058-.25.086-.214.075-.428.15-.65.22-.117.04-.24.074-.358.11-.16.05-.322.1-.487.148V14c0-.113-.027-.22-.065-.322-.014-.04-.027-.078-.046-.115-.002-.004-.003-.01-.006-.014-.284-1.178-1.122-2.28-2.396-3.28l-.02-.017c-.183-.143-.386-.28-.586-.418-3.547-2.51-10.075-4.48-19.335-4.786C26.71 5.017 25.86 5 25 5c-.854 0-1.703.017-2.545.048-2.498.083-4.787.29-6.884.594C19.446 3.612 26.274 2 35 2zM13.493 8.06c.252-.05.512-.093.77-.14.33-.06.665-.12 1.008-.175.3-.048.602-.093.906-.137.337-.048.68-.093 1.028-.136.294-.037.587-.075.885-.107.598-.065 1.208-.122 1.832-.17.237-.02.478-.03.717-.047.483-.032.97-.06 1.47-.08l.706-.03C23.534 7.02 24.258 7 25 7c.827 0 1.637.016 2.433.044.48.017.943.048 1.41.075.3.016.608.028.903.05.62.044 1.224.102 1.82.163.124.012.253.02.375.035.678.074 1.337.16 1.98.253.034.006.07.01.1.014 3.37.498 6.262 1.256 8.527 2.157l.077.03c.406.164.786.333 1.15.504l.168.078c.325.157.625.318.914.48.08.045.164.09.24.136.25.147.478.296.697.447.095.065.19.13.28.197.184.136.35.273.507.41.095.084.19.167.276.25.13.127.244.253.35.38.082.096.16.192.23.29.085.118.158.238.224.358.056.102.105.203.146.304.048.12.086.24.114.358.04.164.08.326.08.488 0 3.548-9.445 7.5-23 7.5S2 18.048 2 14.5c0-2.42 4.4-5.025 11.493-6.44zM25 58c-13.036 0-22.4-3.703-22.968-7.162-.008-.045-.018-.09-.032-.13v-8.415c.028.026.063.05.092.077.218.192.44.383.69.567C6.55 45.787 14.082 48 25 48c10.872 0 18.386-2.196 22.17-5.028.3-.22.573-.447.83-.678v8.41c-.014.043-.024.088-.032.134-.033.204-.103.41-.196.613-.036.08-.092.16-.137.238C45.825 54.878 36.97 58 25 58zm32.968-12.162c-.317 1.94-3.314 3.89-7.972 5.255C50 51.063 50 51.03 50 51v-9.828l.126-.037c.4-.112.79-.227 1.168-.346l.013-.005c2.96-.936 5.22-2.1 6.693-3.427v8.346c-.014.043-.024.088-.032.134z"/></svg>