<svg xmlns="http://www.w3.org/2000/svg" viewBox="0 0 55 55"><path d="M52.354 8.51C51.196 4.22 42.577 0 27.5 0S3.803 4.22 2.646 8.51c-.084.147-.146.308-.146.49v37c0 .162.043.315.117.45C3.797 51.347 14.364 55 27.5 55c13.106 0 23.655-3.64 24.875-8.516.08-.143.125-.308.125-.484V9c0-.182-.062-.343-.146-.49zM50.42 33.985c-.027.12-.066.24-.115.363-.04.1-.09.198-.143.297-.067.123-.142.246-.23.37-.067.092-.142.184-.22.276-.11.132-.23.263-.363.393-.082.08-.17.157-.26.236-.165.142-.336.284-.527.425-.082.06-.17.12-.257.18-.226.156-.462.31-.72.463l-.213.12c-.298.168-.61.335-.945.497l-.132.06c-.375.178-.767.352-1.186.52l-.036.014c-2.27.906-5.176 1.67-8.56 2.17-.018 0-.035.003-.052.006-.658.097-1.333.183-2.026.26l-.346.03c-.605.064-1.217.122-1.847.168-.288.02-.59.03-.883.05-.474.027-.943.058-1.43.075-.793.024-1.603.04-2.43.04s-1.637-.016-2.432-.044c-.486-.017-.955-.05-1.43-.076-.292-.017-.594-.028-.882-.05-.63-.045-1.242-.103-1.847-.166-.115-.012-.234-.02-.347-.032-.693-.076-1.368-.163-2.026-.26-.017 0-.034-.003-.05-.006-3.386-.5-6.29-1.263-8.562-2.17l-.036-.014c-.42-.168-.813-.342-1.187-.52l-.132-.06c-.335-.162-.646-.328-.944-.497-.07-.04-.144-.08-.212-.12-.26-.152-.495-.307-.72-.463-.087-.06-.176-.12-.258-.18-.19-.14-.362-.283-.526-.426-.09-.078-.18-.156-.26-.236-.134-.13-.252-.26-.363-.392-.078-.092-.153-.184-.22-.277-.087-.122-.162-.245-.23-.368-.054-.1-.102-.198-.143-.297-.05-.12-.088-.242-.116-.363-.037-.16-.078-.32-.078-.482 0-.113.013-.226.03-.338.026-.15.012-.302-.03-.445v-7.424c.028.026.063.05.092.077.218.192.44.383.69.567C9.05 28.787 16.582 31 27.5 31c10.872 0 18.386-2.196 22.17-5.028.3-.22.573-.447.83-.678v7.423c-.042.143-.056.294-.03.445.018.112.03.225.03.338 0 .16-.04.323-.08.485zm.08-20.692v7.424c-.042.143-.056.294-.03.445.018.112.03.225.03.338 0 .16-.04.323-.08.485-.027.12-.066.24-.115.363-.04.1-.09.198-.143.297-.067.123-.142.246-.23.37-.067.092-.142.184-.22.276-.11.132-.23.263-.363.393-.082.08-.17.157-.26.236-.165.142-.336.284-.527.425-.082.06-.17.12-.257.18-.226.156-.462.31-.72.463l-.213.12c-.298.168-.61.335-.945.497l-.132.06c-.375.178-.767.352-1.186.52l-.036.014c-2.27.906-5.176 1.67-8.56 2.17-.018 0-.035.003-.052.006-.658.097-1.333.183-2.026.26l-.346.03c-.605.064-1.217.122-1.847.168-.288.02-.59.03-.883.05-.474.027-.943.058-1.43.075-.793.024-1.603.04-2.43.04s-1.637-.016-2.432-.044c-.486-.017-.955-.05-1.43-.076-.292-.017-.594-.028-.882-.05-.63-.045-1.242-.103-1.847-.166-.115-.012-.234-.02-.347-.032-.693-.076-1.368-.163-2.026-.26-.017 0-.034-.003-.05-.006-3.386-.5-6.29-1.263-8.562-2.17l-.036-.014c-.42-.168-.813-.342-1.187-.52l-.132-.06c-.335-.162-.646-.328-.944-.497-.07-.04-.144-.08-.212-.12-.26-.152-.495-.307-.72-.463-.087-.06-.176-.12-.258-.18-.19-.14-.362-.283-.526-.426-.09-.078-.18-.156-.26-.236-.134-.13-.252-.26-.363-.392-.078-.092-.153-.184-.22-.277-.087-.122-.162-.245-.23-.368-.054-.1-.102-.198-.143-.297-.05-.12-.088-.242-.116-.363-.037-.16-.078-.32-.078-.482 0-.113.013-.226.03-.338.026-.15.012-.302-.03-.445v-7.424c.12.11.257.216.387.324.072.06.14.12.215.18.3.236.624.47.975.696.073.047.155.093.23.14.295.183.606.362.933.538.12.066.242.13.367.194.365.186.748.367 1.15.542.067.03.127.06.194.087.47.2.968.39 1.486.573.143.05.293.1.44.15.412.138.838.27 1.28.4.158.046.314.094.477.138.585.162 1.19.316 1.823.458.087.02.18.036.27.055.558.122 1.138.235 1.734.34.202.037.407.07.613.105.567.093 1.15.178 1.75.256.154.02.3.043.457.062.744.09 1.514.167 2.305.233.195.016.398.028.596.042.634.046 1.28.084 1.943.114l.727.03c.862.03 1.74.05 2.65.05s1.788-.02 2.65-.05l.727-.03c.662-.03 1.31-.07 1.942-.115.197-.015.4-.026.595-.042.79-.065 1.56-.143 2.305-.233.156-.02.303-.042.457-.062.6-.078 1.182-.163 1.75-.256.206-.034.41-.068.613-.104.596-.106 1.176-.22 1.735-.34.088-.02.182-.037.27-.056.633-.142 1.237-.297 1.822-.458.163-.045.32-.092.478-.138.44-.13.867-.262 1.28-.4l.44-.15c.517-.184 1.016-.374 1.484-.573.066-.028.126-.058.192-.087.403-.176.786-.356 1.15-.542.126-.064.248-.128.368-.193.327-.174.638-.353.932-.537.076-.047.158-.093.23-.14.352-.227.676-.46.976-.696.075-.06.142-.12.215-.18.13-.108.267-.215.387-.324zM27.5 2c13.555 0 23 3.952 23 7.5s-9.445 7.5-23 7.5-23-3.952-23-7.5S13.945 2 27.5 2zm23 43.703c-.014.044-.024.09-.032.135C49.9 49.298 40.536 53 27.5 53S5.1 49.297 4.532 45.838c-.008-.045-.02-.09-.032-.13v-8.415c.028.026.063.05.092.077.218.192.44.383.69.567C9.05 40.787 16.582 43 27.5 43c10.872 0 18.386-2.196 22.17-5.028.3-.22.573-.447.83-.678v8.41z"/></svg>