<svg xmlns="http://www.w3.org/2000/svg" viewBox="0 0 59.986 59.986"><path d="M59.972 20.164c.007-.04.01-.08.013-.123.002-.048 0-.095-.003-.144-.004-.042-.01-.082-.02-.123-.01-.048-.026-.094-.044-.14-.01-.024-.01-.05-.022-.072-.008-.016-.022-.03-.03-.046-.01-.017-.014-.035-.024-.052l-10-16c-.046-.073-.1-.14-.16-.197-.002 0-.003 0-.004-.002-.086-.08-.188-.14-.297-.185-.013-.006-.022-.018-.037-.024-.01-.004-.023-.002-.034-.005-.102-.035-.206-.058-.315-.058h-38c-.108 0-.21.023-.31.056-.01.003-.022 0-.032.005-.015.005-.024.017-.038.023-.104.043-.202.1-.287.175-.005.006-.012.01-.017.013-.06.058-.116.125-.162.198l-10 16c-.01.017-.014.036-.023.053-.01.017-.023.03-.03.047-.012.023-.014.048-.024.072-.017.046-.032.092-.043.14-.01.04-.016.082-.02.124-.007.05-.008.097-.006.145.003.043.007.083.014.124.008.048.02.095.037.142.014.04.028.077.046.115.01.02.012.04.022.057.016.03.04.05.058.078.014.02.022.044.04.064l28.988 35.985.006.007.005.007c.003.003.008.004.01.008.083.1.185.174.296.234.03.016.06.03.09.043.12.05.25.087.383.087.114 0 .23-.02.343-.06.017-.007.028-.02.045-.028.052-.02.092-.055.138-.084.076-.048.147-.098.206-.163.014-.015.035-.022.048-.038l29-36c.016-.02.024-.045.04-.065.018-.027.04-.05.057-.078.01-.018.012-.038.02-.056.02-.037.033-.074.046-.114.014-.047.028-.093.036-.142zM32.095 4.994h15.46l-4.86 13.044-10.6-13.045zm8.797 14H19.095L29.993 5.58l10.9 13.413zm-23.67-.87l-4.8-13.13h15.47l-10.67 13.13zm24.37 2.87L29.82 52.598l-11.55-31.607h23.325zm7.63-14.748l7.966 12.748H44.472l4.75-12.748zm-38.466.013l4.653 12.733H2.797L10.756 6.26zm5.384 14.733l10.84 29.664L3.082 20.993H16.14zm16.25 30.43l11.337-30.43h13.176L32.39 51.423z"/></svg>