<svg xmlns="http://www.w3.org/2000/svg" viewBox="0 0 60 60"><path d="M38.914 0H6.5v60h47V14.586L38.914 0zm.586 3.414L50.086 14H39.5V3.414zM8.5 58V2h29v14h14v42h-43z"/><path d="M16.5 17h9c.553 0 1-.447 1-1s-.447-1-1-1h-9c-.553 0-1 .447-1 1s.447 1 1 1zM16.5 25h5c.553 0 1-.447 1-1s-.447-1-1-1h-5c-.553 0-1 .447-1 1s.447 1 1 1zM31.5 25h7c.553 0 1-.447 1-1s-.447-1-1-1h-7c-.553 0-1 .447-1 1s.447 1 1 1zM25.79 23.3c-.19.18-.29.44-.29.7 0 .26.1.52.29.71.19.18.45.29.71.29s.52-.1.71-.3c.18-.18.29-.44.29-.7 0-.26-.11-.52-.29-.71-.38-.37-1.05-.37-1.42.01zM43.5 25c.26 0 .52-.11.71-.29.18-.19.29-.45.29-.71 0-.26-.11-.52-.29-.71-.38-.37-1.04-.37-1.42 0-.18.19-.29.45-.29.71 0 .26.11.52.29.71.19.18.45.29.71.29zM28.5 31h-7c-.553 0-1 .447-1 1s.447 1 1 1h7c.553 0 1-.447 1-1s-.447-1-1-1zM16.5 33c.26 0 .52-.11.71-.29.19-.19.29-.45.29-.71 0-.26-.1-.52-.29-.71-.38-.37-1.04-.37-1.42 0-.19.19-.29.44-.29.71 0 .26.11.52.29.71.19.18.45.29.71.29zM19.645 40.166c-2.19 1.14-2.927 3.32-3.196 5.582-.415-.347-.83-.693-1.243-1.04-.98-.82-2.402.586-1.414 1.415l2.806 2.35c.657.552 1.676.204 1.706-.706.073-2.166.175-4.742 2.348-5.873 1.142-.595.132-2.322-1.01-1.728zM26.295 44.155c-1.385.32-2.96 2.083-3.936.106-.57-1.153-2.296-.14-1.728 1.01.517 1.05 1.5 1.784 2.67 1.932.593.075 1.13-.01 1.687-.226.408-.16 1.936-1.308 2.266-.717.628 1.123 2.356.115 1.727-1.01-.537-.962-1.624-1.342-2.688-1.095zM46.745 34.513c-.233-.083-.336-.26-.377-.357-.04-.098-.093-.296.014-.52.485-1.022.282-2.2-.518-3-.8-.8-1.98-1.003-3-.518-.225.107-.423.054-.52.014-.1-.04-.274-.144-.357-.377C41.607 28.688 40.632 28 39.5 28s-2.108.688-2.487 1.755c-.083.233-.26.336-.357.377-.097.04-.296.094-.52-.014-1.02-.483-2.198-.282-3 .518-.8.8-1.003 1.978-.518 3 .106.224.054.422.014.52-.04.1-.144.274-.377.357-1.067.38-1.755 1.355-1.755 2.487s.688 2.108 1.755 2.487c.233.083.336.26.377.357.04.098.093.296-.014.52-.485 1.022-.282 2.2.518 3 .387.386.862.63 1.364.728v12.322l5-5 5 5V44.09c.502-.096.978-.34 1.364-.726.8-.8 1.003-1.978.518-3-.106-.224-.054-.422-.014-.52.04-.1.144-.274.377-.357 1.067-.38 1.755-1.355 1.755-2.487s-.688-2.108-1.755-2.487zM39.5 48.586l-3 3v-7.758c.01 0 .018.002.026.004.05.01.098.022.13.036.05.02.118.057.184.116.067.06.132.144.173.26C37.393 45.313 38.368 46 39.5 46s2.108-.688 2.487-1.755c.04-.117.106-.2.173-.26.067-.06.135-.097.184-.117.032-.013.08-.026.13-.036.007 0 .016-.003.025-.004v7.757l-3-3zm6.575-10.983c-.702.25-1.27.787-1.554 1.476-.285.688-.266 1.47.055 2.145.175.367-.03.63-.126.726-.08.082-.282.225-.562.17l-.22-.068c-.09-.04-.187-.063-.28-.092-.07-.022-.14-.052-.21-.07-.098-.02-.2-.027-.3-.038-.08-.01-.16-.026-.24-.028-.097-.002-.193.014-.29.022-.082.008-.166.006-.25.022-.176.033-.35.084-.52.154-.045.02-.082.048-.125.068-.124.06-.25.12-.362.197-.134.093-.257.203-.372.32-.013.012-.03.022-.043.036-.252.265-.45.583-.574.934-.133.382-.464.423-.6.423s-.467-.04-.603-.425c-.125-.352-.322-.67-.574-.934-.01-.01-.023-.017-.034-.028-.12-.12-.245-.23-.384-.327-.108-.075-.23-.13-.348-.19-.047-.022-.09-.054-.138-.074-.022-.01-.044-.01-.065-.02-.146-.055-.294-.102-.445-.13-.122-.025-.243-.03-.365-.037-.045-.002-.09-.013-.135-.013h-.008c-.374 0-.737.073-1.047.224l-.227.07c-.287.066-.496-.082-.578-.165-.097-.097-.3-.36-.126-.728.32-.674.34-1.455.054-2.145-.285-.688-.852-1.227-1.554-1.476-.383-.133-.424-.464-.424-.6s.04-.467.425-.603c.702-.25 1.27-.787 1.554-1.476.285-.688.266-1.47-.055-2.145-.175-.367.03-.63.126-.726.097-.098.358-.3.728-.127.673.32 1.455.342 2.145.054.688-.285 1.227-.852 1.476-1.554.133-.382.464-.423.6-.423s.467.04.603.425c.25.702.787 1.27 1.476 1.554.687.287 1.47.266 2.145-.055.366-.177.63.03.726.126.098.097.302.36.127.728-.32.674-.34 1.455-.054 2.145.285.688.852 1.227 1.554 1.476.382.133.423.464.423.6s-.04.467-.425.603z"/></svg>