<svg xmlns="http://www.w3.org/2000/svg" viewBox="0 0 51.997 51.997"><path d="M51.91 16.242c-.758-8.354-6.67-14.415-14.07-14.415-4.93 0-9.445 2.653-11.985 6.905-2.517-4.307-6.846-6.906-11.697-6.906-7.4 0-13.313 6.06-14.07 14.415-.06.37-.307 2.312.44 5.48 1.08 4.567 3.57 8.722 7.2 12.012l18.115 16.44 1.076-.96.027.01.016-.05L44.27 33.734c3.63-3.29 6.12-7.445 7.198-12.014.748-3.167.502-5.11.443-5.478zM25.52 47.178L9.072 32.25c-3.33-3.018-5.61-6.818-6.596-10.99-.708-2.997-.417-4.69-.416-4.7l.015-.102c.65-7.32 5.73-12.632 12.083-12.632 4.687 0 8.813 2.88 10.77 7.515l.066.156-8.133 8.133 14.886 1.983-11.392 10.443 8.447 5.28-3.28 9.842zm24-25.917c-.983 4.173-3.264 7.974-6.59 10.986L28.235 45.36l2.962-8.886-7.553-4.72L36.25 20.195 21.137 18.18l4.696-4.696.017.04.04-.097.816-.816-.332-.33.396-.94c1.927-4.564 6.27-7.514 11.07-7.514 6.35 0 11.432 5.313 12.095 12.727.003.017.294 1.71-.414 4.708z"/></svg>