<svg xmlns="http://www.w3.org/2000/svg" viewBox="0 0 58 58"><path d="M40.5 0v2h-28c-2.757 0-5 2.243-5 5 0 1.164.4 2.236 1.07 3.087C6.254 10.524 4.5 12.56 4.5 15c0 1.164.4 2.236 1.07 3.087C3.254 18.524 1.5 20.56 1.5 23c0 2.495 1.375 3.662 2.715 4.233C3.165 28.15 2.5 29.5 2.5 31c0 2.757 2.243 5 5 5h14.366l-.73 3.41c-.972 4.55-.333 9.717-.115 11.19.52 3.494 3.608 7.4 6.967 7.4h.24c1.595 0 4.273-.91 4.273-7 0-8.023 2.002-11.694 3.68-13.36 1.648-1.634 3.237-1.613 3.32-1.64h1v2h16V0h-16zm-.97 34c-.09-.007-2.418-.048-4.68 2.145C31.962 38.94 30.5 43.94 30.5 51c0 1.867-.295 5-2.274 5h-.24c-2.23 0-4.607-3.13-4.987-5.69-.208-1.393-.81-6.26.092-10.48L24.34 34H7.5c-1.654 0-3-1.346-3-3s1.346-3 3-3h10c.552 0 1-.447 1-1s-.448-1-1-1h-7c-.883 0-2.825-.04-3.854-.193C4.036 25.42 3.5 24.405 3.5 23c0-1.654 1.346-3 3-3h11c.552 0 1-.447 1-1s-.448-1-1-1h-8c-1.654 0-3-1.346-3-3s1.346-3 3-3h10c.552 0 1-.447 1-1s-.448-1-1-1h-7c-1.654 0-3-1.346-3-3s1.346-3 3-3h28v30h-.97zm14.97 2h-12V2h12v34z"/><path d="M48.5 15c2.757 0 5-2.243 5-5s-2.243-5-5-5-5 2.243-5 5 2.243 5 5 5zm0-8c1.654 0 3 1.346 3 3s-1.346 3-3 3-3-1.346-3-3 1.346-3 3-3z"/></svg>