<svg xmlns="http://www.w3.org/2000/svg" viewBox="0 0 44 44"><path d="M38.06 16H5.94C2.666 16 0 18.69 0 22s2.665 6 5.94 6H38.06C41.335 28 44 25.31 44 22s-2.665-6-5.94-6zm0 10H5.94C3.806 26 2 24.168 2 22s1.805-4 3.94-4H38.06C40.195 18 42 19.832 42 22s-1.805 4-3.94 4zM22 13c3.31 0 6-2.69 6-6s-2.69-6-6-6-6 2.69-6 6 2.69 6 6 6zm0-10c2.206 0 4 1.794 4 4s-1.794 4-4 4-4-1.794-4-4 1.794-4 4-4zM22 31c-3.31 0-6 2.69-6 6s2.69 6 6 6 6-2.69 6-6-2.69-6-6-6zm0 10c-2.206 0-4-1.794-4-4s1.794-4 4-4 4 1.794 4 4-1.794 4-4 4z"/></svg>