<svg xmlns="http://www.w3.org/2000/svg" viewBox="0 0 60.017 60.017"><path d="M59.144 3.73L56.294.88c-1.164-1.16-3.057-1.162-4.22 0l-3.127 3.127H0v56h56v-48.91l.305-.305 2.84-2.84c1.163-1.163 1.163-3.057 0-4.22zM20.047 36.76l3.22 3.22-4.428 1.207 1.207-4.428zm32.015-24.554L47.82 7.964l1.414-1.414 4.243 4.242-1.415 1.414zm-1.414 1.414L25.192 39.076l-4.242-4.242L46.406 9.378l4.242 4.242zM54 13.097v44.91H2v-52h44.947L18.83 34.127l-.19.188-2.12 7.78-1.226 1.225c-.39.39-.39 1.023 0 1.414.195.195.45.293.707.293s.513-.098.708-.293l1.226-1.226 7.78-2.123 26.35-26.35.447-.447 1.49-1.49zm3.73-6.558l-2.84 2.838-4.242-4.243 2.84-2.84c.383-.383 1.008-.382 1.392 0l2.85 2.85c.384.384.384 1.01 0 1.394z"/></svg>