<svg xmlns="http://www.w3.org/2000/svg" viewBox="0 0 56 56"><path d="M54.424 28.382c.1-.244.1-.52 0-.764-.05-.123-.125-.234-.217-.327l-12-11.997c-.39-.39-1.022-.39-1.413 0s-.39 1.023 0 1.414L51.087 27H20.5c-.55 0-1 .447-1 1s.45 1 1 1h30.587L40.794 39.293c-.39.39-.39 1.023 0 1.414.195.195.45.293.707.293s.513-.098.708-.293l12-12c.09-.09.165-.202.216-.325z"/><path d="M36.5 33c-.55 0-1 .447-1 1v20h-32V2h32v20c0 .553.45 1 1 1s1-.447 1-1V1c0-.553-.447-1-1-1h-34c-.55 0-1 .447-1 1v54c0 .553.45 1 1 1h34c.553 0 1-.447 1-1V34c0-.553-.447-1-1-1z"/></svg>