<svg xmlns="http://www.w3.org/2000/svg" viewBox="0 0 55 55"><path d="M53.924 24.382c.1-.244.1-.52 0-.764-.05-.123-.125-.234-.217-.327l-12-11.997c-.39-.39-1.022-.39-1.413 0s-.39 1.023 0 1.414L50.587 23H29c-.552 0-1 .447-1 1s.448 1 1 1h21.587L40.294 35.293c-.39.39-.39 1.023 0 1.414.195.195.45.293.707.293s.513-.098.708-.293l12-12c.09-.09.165-.202.216-.325z"/><path d="M36 29c-.552 0-1 .447-1 1v16H25V8c0-.436-.28-.82-.696-.953L8.442 2h26.56v16c0 .553.446 1 1 1s1-.447 1-1V1c0-.553-.448-1-1-1H2c-.033 0-.06.015-.092.018-.056.005-.105.018-.158.032-.094.025-.178.06-.26.108-.025.016-.056.016-.08.034-.032.023-.056.052-.084.077-.017.015-.035.03-.05.046-.077.082-.14.173-.185.273-.01.02-.014.04-.022.06C1.03.76 1 .877 1 1v46c0 .125.03.243.073.355.014.037.035.068.053.103.037.07.08.136.132.196.03.032.058.06.09.09.058.05.123.093.193.13.038.02.072.04.112.056.017.006.03.018.047.024l22 7c.097.03.2.046.3.046.21 0 .418-.066.59-.192.26-.188.41-.488.41-.808v-6h11c.554 0 1-.447 1-1V30c0-.553-.447-1-1-1zM23 52.633L3 46.27V2.366L23 8.73v43.903z"/></svg>