<svg xmlns="http://www.w3.org/2000/svg" viewBox="0 0 57 57"><path d="M56.575 27.683l-27-19c-.306-.216-.703-.242-1.036-.07-.332.17-.54.514-.54.887v17.777L1.575 8.694C1.27 8.48.872 8.454.54 8.624c-.332.173-.54.516-.54.89v37.974c0 .373.208.716.54.888.145.074.303.11.46.11.202 0 .403-.06.575-.18L28 29.722V47.5c0 .373.208.716.54.888.145.075.303.112.46.112.202 0 .404-.062.575-.183l27-19c.267-.186.425-.492.425-.817s-.158-.63-.425-.817zM2 45.563V11.438L26.262 28.5 2 45.562zm28 .01V11.427L54.263 28.5 30 45.573z"/></svg>