<svg xmlns="http://www.w3.org/2000/svg" viewBox="0 0 60 60"><path d="M53.707 58.293L51 55.586v-35l-.497-.497L46 15.585V0H6v52h5v5h38.586l2.707 2.707c.195.195.45.293.707.293s.512-.098.707-.293c.39-.39.39-1.023 0-1.414zM47.587 20H36V8.414l10 10L47.586 20zM8 50V2h36v11.586l-8.09-8.09L35.415 5H11v45H8zm5 5V7h21v15h15v31.586l-7.514-7.514c1.74-2.06 2.795-4.717 2.795-7.62 0-6.52-5.305-11.827-11.827-11.827S20.625 31.93 20.625 38.453 25.93 50.28 32.453 50.28c2.902 0 5.56-1.054 7.62-2.794L47.585 55H13zm19.453-6.72c-5.42 0-9.828-4.408-9.828-9.827s4.41-9.828 9.828-9.828 9.828 4.41 9.828 9.828-4.408 9.828-9.827 9.828z"/><path d="M26.625 36h6c.553 0 1-.447 1-1s-.447-1-1-1h-6c-.553 0-1 .447-1 1s.447 1 1 1zM38.625 40h-12c-.553 0-1 .447-1 1s.447 1 1 1h12c.553 0 1-.447 1-1s-.447-1-1-1z"/></svg>