<svg xmlns="http://www.w3.org/2000/svg" viewBox="0 0 59 59"><path d="M58 57c-4.41 0-8-3.59-8-8 0-.01-.005-.017-.005-.026C54.95 43.77 58 36.736 58 29 58 13.01 44.99 0 29 0S0 13.01 0 29s13.01 29 29 29c7.34 0 14.048-2.747 19.162-7.26C48.99 55.426 53.082 59 58 59c.553 0 1-.447 1-1s-.447-1-1-1zM2 29C2 14.112 14.112 2 29 2s27 12.112 27 27-12.112 27-27 27S2 43.888 2 29z"/><path d="M29 4C15.215 4 4 15.215 4 29s11.215 25 25 25 25-11.215 25-25S42.785 4 29 4zm0 48C16.317 52 6 41.683 6 29S16.317 6 29 6s23 10.317 23 23-10.317 23-23 23z"/><path d="M41 22c-.332 0-.656.03-.976.076l-.023-.04-.75.19c-.01.004-.018.008-.028.01-.37.098-.727.22-1.07.375l-.044.022c-.336.153-.66.328-.964.53-.008.006-.017.01-.024.016-.282.19-.546.402-.797.63-.05.045-.102.09-.152.137-.23.222-.45.46-.65.71-.042.055-.08.11-.123.166-.2.267-.385.542-.545.835l-.01.02c-.16.296-.294.61-.412.93-.02.058-.043.115-.063.173-.106.315-.19.64-.25.973l-.03.19c-.05.346-.087.698-.087 1.06s.036.714.09 1.062c.01.063.016.125.028.188.06.333.144.658.25.973.02.058.042.114.063.17.118.322.252.636.413.933l.01.02c.16.292.346.567.544.832.04.055.08.11.124.166.2.252.418.49.65.71.05.048.102.093.153.14.252.226.515.44.798.628l.025.015c.305.202.628.377.964.53.014.008.028.016.043.022.343.153.7.276 1.07.373l.028.01.75.192.024-.04c.32.044.644.075.976.075 3.86 0 7-3.14 7-7s-3.14-7-7-7zm-1 7c0 1.58-.344 3.146-1 4.577-.25-.11-.487-.24-.713-.388-.08-.053-.154-.113-.232-.17-.163-.12-.32-.248-.468-.386-.068-.063-.135-.127-.198-.193-.17-.176-.325-.364-.467-.563-.025-.036-.055-.067-.08-.104-.16-.237-.293-.49-.41-.754-.033-.076-.06-.155-.09-.232-.077-.203-.143-.412-.194-.627-.022-.085-.044-.17-.06-.26-.053-.292-.09-.592-.09-.9s.037-.608.09-.9c.017-.09.04-.175.06-.26.05-.216.117-.425.195-.628.03-.077.056-.156.09-.23.116-.264.25-.518.41-.755.023-.036.054-.068.08-.104.14-.2.296-.388.465-.564.064-.068.13-.13.198-.194.147-.14.304-.266.468-.386.077-.056.15-.116.232-.17.227-.146.464-.277.714-.387.654 1.43.998 2.998.998 4.577zm1 5h-.014c.66-1.58 1.014-3.282 1.014-5s-.355-3.42-1.014-5H41c2.757 0 5 2.243 5 5s-2.243 5-5 5zM22.48 33.344c.042-.054.08-.11.123-.165.198-.266.384-.54.544-.833l.012-.022c.16-.297.293-.61.41-.93.02-.058.043-.114.063-.172.106-.315.19-.64.25-.974l.03-.188c.05-.347.087-.7.087-1.062s-.036-.715-.09-1.062c-.01-.063-.016-.125-.028-.187-.06-.332-.144-.657-.25-.973-.02-.058-.042-.114-.063-.172-.118-.32-.25-.634-.412-.93l-.012-.022c-.16-.292-.346-.568-.544-.833-.04-.055-.08-.11-.123-.165-.2-.252-.418-.49-.65-.71-.05-.048-.102-.093-.153-.14-.252-.226-.515-.44-.798-.628l-.025-.014c-.305-.202-.628-.377-.964-.53l-.044-.023c-.343-.153-.7-.277-1.07-.374l-.028-.01-.75-.192-.023.04c-.32-.043-.643-.074-.975-.074-3.86 0-7 3.14-7 7s3.14 7 7 7c.332 0 .656-.03.976-.076l.023.04.75-.19c.01-.004.018-.008.028-.01.37-.098.727-.22 1.07-.375l.044-.023c.336-.153.66-.33.964-.53l.023-.015c.282-.19.545-.402.797-.63.05-.045.102-.09.152-.137.23-.222.45-.46.65-.71zm-.57-3.443c-.017.09-.04.175-.06.26-.05.216-.117.425-.195.628-.03.077-.056.156-.09.23-.116.264-.25.518-.41.755-.023.036-.054.068-.08.104-.14.2-.296.388-.465.564-.064.068-.13.13-.198.194-.147.14-.304.266-.468.386-.077.056-.15.116-.232.17-.227.146-.464.277-.714.387C18.344 32.147 18 30.58 18 29s.344-3.146 1-4.577c.25.11.487.24.713.388.08.053.154.113.232.17.163.12.32.248.468.386.068.063.135.127.198.193.17.176.325.364.467.563.025.036.055.067.08.104.16.237.293.49.41.754.033.076.06.155.09.232.077.203.143.412.194.627.022.085.044.17.06.26.053.292.09.592.09.9s-.037.608-.09.9zM12 29c0-2.757 2.243-5 5-5h.014C16.354 25.58 16 27.283 16 29s.355 3.42 1.014 5H17c-2.757 0-5-2.243-5-5zM22.035 18l.192.75.01.028c.097.37.22.727.374 1.07.008.014.016.028.022.043.153.337.33.66.53.965l.016.024c.19.28.402.545.63.797.045.05.09.102.137.152.222.23.46.45.71.65.055.042.11.082.166.123.267.2.542.385.835.545l.02.01c.296.16.61.294.93.412.058.02.114.043.172.063.315.106.64.19.973.25l.188.03c.348.05.7.087 1.062.087s.714-.036 1.062-.09c.063-.01.125-.016.188-.028.333-.06.658-.144.973-.25.058-.02.114-.042.172-.063.32-.118.635-.252.932-.413l.02-.01c.292-.16.567-.346.833-.545.055-.04.11-.08.165-.124.252-.2.49-.417.71-.65.048-.05.093-.1.14-.152.226-.25.44-.515.628-.797l.015-.025c.202-.305.377-.628.53-.964.008-.014.016-.028.022-.043.153-.343.277-.7.374-1.07l.01-.03.192-.75-.04-.022c.043-.32.074-.643.074-.975 0-3.86-3.14-7-7-7s-7 3.14-7 7c0 .332.03.656.076.976l-.04.023zm11.154 1.713c-.053.08-.113.154-.17.23-.12.164-.248.32-.386.47-.063.066-.127.134-.193.197-.176.168-.364.324-.563.466-.036.025-.067.055-.104.08-.237.16-.49.293-.754.41-.076.033-.155.06-.232.09-.203.077-.412.143-.627.194-.085.02-.17.043-.26.06-.292.053-.592.09-.9.09s-.608-.037-.9-.09c-.09-.017-.175-.04-.26-.06-.216-.05-.425-.117-.628-.195-.077-.03-.155-.056-.23-.09-.264-.116-.518-.25-.755-.41-.036-.023-.068-.054-.104-.08-.2-.14-.388-.297-.564-.465-.068-.064-.13-.13-.194-.198-.138-.147-.266-.304-.386-.468-.056-.077-.116-.15-.17-.23-.146-.228-.278-.465-.387-.715 2.86-1.31 6.292-1.31 9.154 0-.11.25-.24.487-.388.713zM29 12c2.757 0 5 2.243 5 5l-.002.018c-3.165-1.302-6.832-1.302-9.996 0L24 17c0-2.757 2.243-5 5-5zM35.965 40l-.192-.75-.01-.027c-.097-.37-.22-.727-.374-1.07l-.023-.045c-.153-.336-.33-.66-.53-.964l-.015-.024c-.19-.283-.402-.546-.63-.798-.045-.05-.09-.102-.137-.152-.222-.233-.46-.45-.71-.65-.055-.043-.11-.082-.166-.123-.266-.198-.54-.384-.834-.544l-.022-.012c-.297-.16-.61-.293-.93-.41-.057-.02-.114-.043-.172-.063-.315-.106-.64-.19-.974-.25l-.187-.03c-.345-.05-.698-.087-1.06-.087s-.715.036-1.062.09c-.063.01-.125.016-.187.028-.332.06-.657.144-.973.25-.058.02-.114.042-.17.063-.322.118-.635.25-.932.412l-.022.012c-.292.16-.567.345-.832.544-.054.04-.11.08-.164.124-.252.2-.49.417-.71.65-.048.05-.093.1-.14.152-.226.25-.44.515-.628.798l-.014.024c-.202.305-.378.628-.53.964l-.023.045c-.152.343-.276.7-.373 1.07-.003.01-.008.018-.01.028l-.192.75.04.023c-.044.318-.075.642-.075.974 0 3.86 3.14 7 7 7s7-3.14 7-7c0-.332-.03-.656-.076-.976l.04-.023zM24.81 38.288c.053-.08.113-.154.17-.23.12-.164.248-.32.386-.47.063-.066.127-.134.193-.197.176-.168.364-.324.563-.466.036-.025.067-.055.104-.08.237-.16.49-.293.754-.41.076-.033.155-.06.232-.09.203-.077.412-.143.627-.194.085-.02.17-.043.26-.06.292-.053.592-.09.9-.09s.608.037.9.09c.09.017.175.04.26.06.216.05.425.117.628.195.077.03.155.056.23.09.264.116.518.25.755.41.036.023.068.054.104.08.2.14.388.297.564.465.068.064.13.13.194.198.138.147.266.304.386.468.056.077.116.15.17.23.146.228.278.465.387.715-2.86 1.31-6.292 1.31-9.154 0 .11-.25.24-.487.388-.713zM29 46c-2.757 0-5-2.243-5-5v-.014c1.58.66 3.282 1.014 5 1.014s3.42-.355 5-1.014V41c0 2.757-2.243 5-5 5z"/></svg>