<svg xmlns="http://www.w3.org/2000/svg" viewBox="0 0 58.999 58.999"><path d="M29.083 26.038c-.53.154-.836.708-.683 1.24.027.092 2.697 9.59 1.962 30.686-.02.553.412 1.016.964 1.034h.036c.536 0 .98-.424.998-.964.747-21.414-1.925-30.92-2.038-31.313-.153-.53-.706-.832-1.24-.682zM54.228 16.48C49.992 6.47 40.232 0 29.362 0c-3.587 0-7.085.7-10.396 2.083-1.834.765-3.567 1.675-5.15 2.704-.464.302-.596.92-.295 1.384.303.464.923.596 1.385.295 1.483-.964 3.108-1.817 4.83-2.536C22.804 2.647 26.042 2 29.363 2c10.064 0 19.102 5.99 23.023 15.26 1.63 3.853 2.51 10.95 2.89 14.837.052.517.486.902.995.902.032 0 .065-.003.1-.006.548-.054.95-.543.896-1.093-.477-4.885-1.39-11.528-3.038-15.42zM10.85 9.71c.395-.386.398-1.02.01-1.413-.386-.393-1.02-.397-1.413-.01C4.07 13.585-1.288 23.437 3.73 40.284c.13.435.526.715.958.715.094 0 .19-.015.285-.043.53-.157.83-.714.673-1.243C1.9 27.132 3.698 16.758 10.85 9.71z"/><path d="M30.13 6.014c-3.06-.12-6.038.432-8.853 1.606C11.47 11.71 6.257 22.494 9.15 32.704c.29 1.02.585 2.107.744 3.19.358 2.448.377 6.955.377 14.104 0 .553.448 1 1 1s1-.447 1-1c0-7.458-.018-11.804-.397-14.396-.176-1.202-.49-2.36-.8-3.444-2.616-9.236 2.1-18.992 10.974-22.693 2.548-1.063 5.26-1.546 8.012-1.454 7.11.257 15.17 6.525 17.6 13.69 2.105 6.2 2.123 16.76 1.862 26.27-.015.553.42 1.013.973 1.028.542-.01 1.012-.42 1.027-.973.265-9.69.238-20.47-1.967-26.97C46.838 13.05 38.125 6.3 30.13 6.016z"/><path d="M29.362 12c-1.087 0-2.17.117-3.218.35-.54.118-.88.65-.76 1.19.118.54.645.874 1.19.762.908-.2 1.846-.302 2.787-.302 5.234 0 9.934 3.114 11.973 7.935 2.43 5.74 2.59 14.953 2.028 31.03-.02.55.413 1.015.965 1.033h.036c.537 0 .98-.424 1-.964.583-16.723.405-25.758-2.186-31.88C40.824 15.595 35.4 12 29.362 12zM21.935 16.337c.452-.317.562-.94.244-1.393-.317-.452-.942-.563-1.394-.244-5.15 3.616-7.388 10.563-5.565 17.295.022.073 2.052 7.462 2.052 19.004 0 .552.447 1 1 1s1-.448 1-1c0-11.814-2.038-19.233-2.123-19.536-1.602-5.914.322-11.993 4.785-15.127zM39.272 48.006c.004-.553-.44-1.003-.993-1.007h-.008c-.55 0-.996.442-1 .992-.005.752.02 1.85.047 3.036.038 1.725.082 3.68.04 4.937-.02.552.41 1.015.964 1.033h.035c.535 0 .978-.424.997-.965.046-1.313 0-3.3-.04-5.05-.026-1.163-.05-2.24-.045-2.977z"/><path d="M29.362 19c-1.062 0-2.098.208-3.08.618-3.893 1.624-5.784 6.015-4.4 10.214.753 2.29 1.39 14.272 1.39 26.167 0 .552.447 1 1 1s1-.448 1-1c0-10.708-.57-23.996-1.49-26.793-1.054-3.197.353-6.526 3.27-7.743.737-.308 1.514-.464 2.31-.464 2.415 0 4.584 1.438 5.53 3.67 1.866 4.42 2.42 12.42 2.557 18.353.012.544.457.977 1 .977h.022c.552-.013.99-.47.977-1.023-.142-6.106-.727-14.375-2.72-19.093C35.474 20.917 32.582 19 29.36 19z"/></svg>