<svg xmlns="http://www.w3.org/2000/svg" viewBox="0 0 60 60"><path d="M46.714 25l10.61-15.434c.21-.306.233-.703.06-1.032C57.213 8.206 56.872 8 56.5 8h-30V4c0-.553-.447-1-1-1h-21V1c0-.553-.447-1-1-1s-1 .447-1 1v58c0 .553.447 1 1 1s1-.447 1-1V34h11.026c-.635.838-1.026 1.87-1.026 3 0 2.757 2.243 5 5 5h37c.37 0 .712-.206.885-.534.173-.33.15-.727-.06-1.032L46.714 25zM4.5 5h20v27h-20V5zm15 35c-1.654 0-3-1.346-3-3s1.346-3 3-3h6c.553 0 1-.447 1-1V10h28.1l-9.924 14.434c-.234.34-.234.792 0 1.133L54.6 40H19.5z"/></svg>