<svg xmlns="http://www.w3.org/2000/svg" viewBox="0 0 60 60"><path d="M51.37 3.146c-.458-.185-11.358-4.452-19.84.045-6.72 3.568-18.515.892-21.53.118V1c0-.553-.447-1-1-1S8 .447 8 1v3c0 .014.007.026.008.04 0 .012-.008.022-.008.034V59c0 .553.447 1 1 1s1-.447 1-1V35.375c2.273.567 7.227 1.632 12.368 1.632 3.557 0 7.2-.51 10.1-2.05 7.653-4.06 18.057.005 18.16.046.31.124.658.086.933-.102.275-.184.44-.494.44-.826v-30c0-.41-.25-.776-.63-.928zM50 32.666c-3.26-1.04-11.646-3.097-18.47.524-6.718 3.566-18.51.892-21.53.118V5.375c3.853.96 15.38 3.343 22.47-.417 6.565-3.483 15.157-.985 17.53-.18v27.887z"/></svg>