<svg xmlns="http://www.w3.org/2000/svg" viewBox="0 0 60 60"><path d="M51.676 21.93C45.916 16.17 38.26 13 30.116 13s-15.803 3.17-21.562 8.93l-7.94 7.942 7.71 7.71c5.76 5.76 13.416 8.932 21.56 8.932s15.803-3.17 21.562-8.93l7.94-7.942-7.71-7.71zM50.03 36.17c-5.38 5.38-12.535 8.345-20.145 8.345S15.12 41.55 9.738 36.168L3.44 29.87l6.528-6.526C15.35 17.964 22.505 15 30.115 15s14.765 2.963 20.146 8.345l6.298 6.297-6.527 6.526z"/><path d="M29.67 16.97c-7.064 0-12.812 5.748-12.812 12.813s5.748 12.813 12.813 12.813 12.814-5.748 12.814-12.813S36.734 16.97 29.67 16.97zm0 23.626c-5.962 0-10.812-4.85-10.812-10.813 0-5.962 4.85-10.813 10.813-10.813 5.963 0 10.814 4.85 10.814 10.813 0 5.962-4.85 10.813-10.813 10.813zM29.265 11.706c.092.093.203.166.326.217.123.05.252.077.383.077s.26-.027.382-.077c.123-.05.233-.124.326-.217l4-4c.39-.39.39-1.022 0-1.413s-1.023-.39-1.414 0l-2.293 2.293V1c0-.552-.447-1-1-1s-1 .448-1 1v7.586L26.68 6.293c-.39-.39-1.023-.39-1.414 0s-.39 1.023 0 1.414l4 4zM30.68 48.294c-.09-.093-.202-.166-.325-.217-.244-.1-.52-.1-.764 0-.122.05-.232.124-.325.217l-4 4c-.39.39-.39 1.022 0 1.413.196.195.452.293.708.293s.512-.098.707-.293l2.293-2.293V59c0 .552.447 1 1 1s1-.448 1-1v-7.586l2.293 2.293c.195.195.45.293.707.293s.512-.098.707-.293c.39-.39.39-1.023 0-1.414l-4-4z"/></svg>