<svg xmlns="http://www.w3.org/2000/svg" viewBox="0 0 59.911 59.911"><path d="M59.605 23.4c-.24-.282-.593-.444-.965-.444H56V8.723c0-.975-.793-1.768-1.768-1.768H23.566l-2.485-4.14c-.316-.53-.897-.86-1.515-.86H5.767C4.793 1.955 4 2.75 4 3.723v19.232H1.27c-.37 0-.72.16-.962.44s-.35.652-.294 1.02L4.93 56.87c.092.618.632 1.085 1.258 1.085h47.534c.626 0 1.166-.467 1.256-1.08l4.918-32.455c.057-.367-.05-.74-.29-1.02zM6 3.955h13.434l2.485 4.14c.316.53.897.86 1.515.86H54v14h-1v-4h-1v-3h-1v-3H9v3H8v3H7v4H6v-19zm3 17h42v2H9v-2zm1-3h40v1H10v-1zm39-2H11v-1h38v1zm4.095 40H6.815l-4.696-31H57.79l-4.697 31z"/></svg>