<svg xmlns="http://www.w3.org/2000/svg" viewBox="0 0 60 60"><path d="M26.525 10.5l-4.712-6.582-.298-.418H0v53h60v-46H26.525zM58 12.5v5H31.537l-3.58-5H58zm-56 42v-49h18.485l5 7h.012l4.69 6.55c.195.273.502.418.813.42v.03h27v35H2z"/><path d="M36 29.5c0-3.31-2.69-6-6-6s-6 2.69-6 6c0 .553.447 1 1 1s1-.447 1-1c0-2.206 1.794-4 4-4s4 1.794 4 4v4H20v16h20v-16h-4v-4zm2 18H22v-12h16v12z"/><path d="M30 36.5c-2.206 0-4 1.794-4 4 0 1.86 1.28 3.41 3 3.858V45.5c0 .553.447 1 1 1s1-.447 1-1v-1.142c1.72-.447 3-2 3-3.858 0-2.206-1.794-4-4-4zm0 6c-1.103 0-2-.897-2-2s.897-2 2-2 2 .897 2 2-.897 2-2 2z"/></svg>