<svg xmlns="http://www.w3.org/2000/svg" viewBox="0 0 60 60"><path d="M57.49 27H54v-6.268C54 19.226 52.774 18 51.268 18H50V0H10v2H7v2H4v7H2.732C1.226 11 0 12.226 0 13.732V57.42h.006c-.005.562.17 1.113.522 1.574.49.64 1.232 1.006 2.037 1.006h44.76c1.156 0 2.174-.78 2.448-1.813L60 30.15v-.178C60 28.25 58.944 27 57.49 27zm-6.222-7c.404 0 .732.328.732.732V27h-2v-7h1.268zM48 2v25H12.73c-.232 0-.456.04-.673.098-.018.005-.04.003-.057.008V2h36zM10 4v25.585l-.063.173L9 32.326V4h1zM6 6h1v31.81l-1 2.74V6zm-4 7.732c0-.404.33-.732.732-.732H4v32.943l-2 5.455V13.732zm45.868 43.852c-.065.245-.29.416-.544.416H2.564c-.242 0-.384-.14-.447-.222-.063-.082-.16-.256-.123-.408L4 51.87l3-8.224 3-8.225v.004l1.932-5.3.068-.186.16-.44.026-.08c.066-.246.29-.418.545-.418H57.49c.38 0 .477.546.5.82L47.87 57.583z"/><path d="M18 17h24c.552 0 1-.447 1-1s-.448-1-1-1H18c-.552 0-1 .447-1 1s.448 1 1 1zM18 10h10c.552 0 1-.447 1-1s-.448-1-1-1H18c-.552 0-1 .447-1 1s.448 1 1 1zM18 24h24c.552 0 1-.447 1-1s-.448-1-1-1H18c-.552 0-1 .447-1 1s.448 1 1 1z"/></svg>