<svg xmlns="http://www.w3.org/2000/svg" viewBox="0 0 60 60"><path d="M56.98 11.5H28.02V6.52c0-1.665-1.355-3.02-3.02-3.02H3.02C1.353 3.5 0 4.854 0 6.52v46.96c0 1.665 1.354 3.02 3.02 3.02h53.96c1.665 0 3.02-1.354 3.02-3.02V14.52c0-1.666-1.354-3.02-3.02-3.02zM58 53.48c0 .563-.457 1.02-1.02 1.02H3.02c-.563 0-1.02-.457-1.02-1.02V22.5h56v30.98zM2 20.5V6.52c0-.563.457-1.02 1.02-1.02H25c.562 0 1.02.457 1.02 1.02v6.98h30.96c.563 0 1.02.457 1.02 1.02v5.98H2z"/><path d="M19 33.5h14c.552 0 1-.447 1-1s-.448-1-1-1H19c-.552 0-1 .447-1 1s.448 1 1 1zM19 39.5h22c.552 0 1-.447 1-1s-.448-1-1-1H19c-.552 0-1 .447-1 1s.448 1 1 1zM19 45.5h22c.552 0 1-.447 1-1s-.448-1-1-1H19c-.552 0-1 .447-1 1s.448 1 1 1z"/></svg>