<svg xmlns="http://www.w3.org/2000/svg" viewBox="0 0 59.911 59.911"><path d="M59.605 23.4c-.24-.282-.593-.444-.965-.444h-2.685V8.723c0-.975-.793-1.768-1.768-1.768H23.522l-2.485-4.14c-.317-.53-.898-.86-1.516-.86H5.724c-.975 0-1.768.793-1.768 1.768v19.232H1.27c-.37 0-.72.16-.962.44s-.35.652-.294 1.02l4.918 32.462c.097.625.625 1.078 1.256 1.078h47.534c.632 0 1.16-.453 1.257-1.08l4.916-32.455c.057-.367-.05-.74-.29-1.02zM5.955 3.955H19.39l2.485 4.14c.317.53.898.86 1.516.86h30.566v14h-2v-7h-44v7h-2v-19zm44 19h-40v-5h40v5zm3.14 33H6.816l-4.696-31h55.673l-4.697 31z"/></svg>