<svg xmlns="http://www.w3.org/2000/svg" viewBox="0 0 60 60"><path d="M26.525 10.5l-4.618-6.45-.392-.55H0v53h60v-46H26.525zM58 12.5v5H31.536l-3.58-5H58zm-56 42v-49h18.485l5 7h.012l4.69 6.55c.195.273.5.418.813.42v.03h27v35H2z"/><path d="M34 51.5h21v-14H34v14zm2-12h17v10H36v-10z"/><path d="M39 43.5h4c.552 0 1-.447 1-1s-.448-1-1-1h-4c-.552 0-1 .447-1 1s.448 1 1 1zM47 43.5h1c.552 0 1-.447 1-1s-.448-1-1-1h-1c-.552 0-1 .447-1 1s.448 1 1 1zM50 45.5H39c-.552 0-1 .447-1 1s.448 1 1 1h11c.552 0 1-.447 1-1s-.448-1-1-1z"/></svg>