<svg xmlns="http://www.w3.org/2000/svg" viewBox="0 0 60 60"><path d="M57.49 21.5H54v-6.268c0-1.507-1.226-2.732-2.732-2.732H26.515l-5-7H2.732C1.226 5.5 0 6.726 0 8.232V51.92h.006c-.005.562.17 1.113.522 1.574.49.64 1.232 1.006 2.037 1.006h44.76c1.155 0 2.173-.78 2.45-1.813L60 24.65v-.178c0-1.722-1.056-2.972-2.51-2.972zM2 8.232c0-.404.33-.732.732-.732h17.753l5 7h25.782c.404 0 .732.328.732.732V21.5H12.73c-.143 0-.286.012-.425.036-.973.163-1.782.873-2.023 1.776L2 45.9V8.23zm45.87 43.85c-.067.246-.292.418-.546.418H2.564c-.242 0-.384-.14-.447-.222-.063-.082-.16-.256-.123-.408l10.19-27.953c.067-.245.292-.417.546-.417H57.49c.38 0 .477.546.502.82L47.87 52.082z"/></svg>