<svg xmlns="http://www.w3.org/2000/svg" viewBox="0 0 60 60"><path d="M57.49 21.5H55v-7h-2v-4H25.086l-3.57-5H2.73C1.226 5.5 0 6.726 0 8.232V51.92h.006c-.005.562.17 1.113.522 1.574.49.64 1.232 1.006 2.037 1.006h44.76c1.155 0 2.173-.78 2.45-1.813L60 24.65v-.178c0-1.722-1.056-2.972-2.51-2.972zm-4.49 0h-8v-1c0-.553-.448-1-1-1s-1 .447-1 1v1h-5v-1c0-.553-.448-1-1-1s-1 .447-1 1v1h-5v-1c0-.553-.448-1-1-1s-1 .447-1 1v1h-5v-1c0-.553-.448-1-1-1s-1 .447-1 1v1h-5v-1c0-.553-.448-1-1-1s-1 .447-1 1v1h-2.27c-.142 0-.283.012-.42.035-.5.083-.95.315-1.31.64V16.5h42v5zM5 37.793V22.5h5.695c-.188.243-.335.516-.414.813l-.316.87L5 37.793zM9 20.5H6.414L7 19.914l2-2V20.5zm42-8v2H9.586L7 17.086V12.5h44zM2 8.232c0-.404.33-.732.732-.732h17.753l2.143 3H5v8.586l-2 2V43.17L2 45.9V8.23zm45.87 43.85c-.067.246-.292.418-.546.418H2.564c-.242 0-.384-.14-.447-.222-.063-.082-.16-.256-.123-.408L3 49.112 12.16 24l.026-.083c.066-.245.29-.417.545-.417H57.49c.38 0 .477.546.502.82L47.87 52.082z"/></svg>