<svg xmlns="http://www.w3.org/2000/svg" viewBox="0 0 52.077 52.077"><path d="M51.04 7c0-4.596-12.578-7-25-7s-25 2.404-25 7c0 1.042.65 1.97 1.795 2.783l17.204 23.54V50.85c0 .43.255.814.65.98l.687.246L32.04 41.413v-8.087L49.223 9.81v-.013c1.155-.817 1.815-1.75 1.815-2.797zm-25-5c14.04 0 23 2.96 23 5 0 .422-.405.883-1.136 1.35l-.05-.007.016.027C45.033 10.15 37.133 12 26.04 12 14.933 12 7.03 10.148 4.2 8.365l.017-.027-.412-.245c-.49-.378-.766-.75-.766-1.093 0-2.04 8.96-5 23-5zm4 38.586l-8 8V34h8v6.586zM30.532 32h-8.987L6.616 11.567C11.437 13.174 18.762 14 26.038 14c7.275 0 14.6-.826 19.423-2.432L30.533 32z"/></svg>