<svg xmlns="http://www.w3.org/2000/svg" viewBox="0 0 53 53"><path d="M46.5 9.557C46.5 7.597 44.904 6 42.943 6H33.5V3c0-1.654-1.346-3-3-3h-8c-1.654 0-3 1.346-3 3v3h-9.443C8.097 6 6.5 7.596 6.5 9.557V14h2v35.27c0 2.057 1.673 3.73 3.73 3.73h28.54c2.057 0 3.73-1.673 3.73-3.73V14h2V9.557zM21.5 3c0-.552.45-1 1-1h8c.55 0 1 .448 1 1v3h-10V3zm21 46.27c0 .955-.776 1.73-1.73 1.73H12.23c-.955 0-1.73-.775-1.73-1.73V14h32v35.27zm2-37.27h-36V9.557C8.5 8.697 9.198 8 10.057 8H42.943c.86 0 1.557.698 1.557 1.557V12z"/><circle cx="14.5" cy="21" r="1"/><circle cx="14.5" cy="27" r="1"/><circle cx="17.5" cy="18" r="1"/><circle cx="23.5" cy="18" r="1"/><circle cx="17.5" cy="24" r="1"/><circle cx="23.5" cy="24" r="1"/><circle cx="20.5" cy="21" r="1"/><circle cx="26.5" cy="21" r="1"/><circle cx="20.5" cy="27" r="1"/><circle cx="26.5" cy="27" r="1"/><circle cx="29.5" cy="18" r="1"/><circle cx="35.5" cy="18" r="1"/><circle cx="29.5" cy="24" r="1"/><circle cx="35.5" cy="24" r="1"/><circle cx="32.5" cy="21" r="1"/><circle cx="38.5" cy="21" r="1"/><circle cx="32.5" cy="27" r="1"/><circle cx="38.5" cy="27" r="1"/><circle cx="14.5" cy="33" r="1"/><circle cx="14.5" cy="39" r="1"/><circle cx="17.5" cy="30" r="1"/><circle cx="23.5" cy="30" r="1"/><circle cx="17.5" cy="36" r="1"/><circle cx="23.5" cy="36" r="1"/><circle cx="20.5" cy="33" r="1"/><circle cx="26.5" cy="33" r="1"/><circle cx="20.5" cy="39" r="1"/><circle cx="26.5" cy="39" r="1"/><circle cx="29.5" cy="30" r="1"/><circle cx="35.5" cy="30" r="1"/><circle cx="29.5" cy="36" r="1"/><circle cx="35.5" cy="36" r="1"/><circle cx="32.5" cy="33" r="1"/><circle cx="38.5" cy="33" r="1"/><circle cx="32.5" cy="39" r="1"/><circle cx="38.5" cy="39" r="1"/><circle cx="14.5" cy="45" r="1"/><circle cx="17.5" cy="42" r="1"/><circle cx="23.5" cy="42" r="1"/><circle cx="17.5" cy="48" r="1"/><circle cx="23.5" cy="48" r="1"/><circle cx="20.5" cy="45" r="1"/><circle cx="26.5" cy="45" r="1"/><circle cx="29.5" cy="42" r="1"/><circle cx="35.5" cy="42" r="1"/><circle cx="29.5" cy="48" r="1"/><circle cx="35.5" cy="48" r="1"/><circle cx="32.5" cy="45" r="1"/><circle cx="38.5" cy="45" r="1"/></svg>