<svg xmlns="http://www.w3.org/2000/svg" viewBox="0 0 60 60"><path d="M49.416 10.2c-.572-.76-1.405-1.25-2.346-1.383l-9.352-1.314.417-2.97c.11-.792-.093-1.58-.577-2.223s-1.185-1.056-1.977-1.167L27.66.03c-.79-.11-1.58.094-2.22.577-.642.483-1.057 1.185-1.168 1.976l-.418 2.97-9.35-1.313c-1.942-.272-3.745 1.085-4.017 3.026l-.62 4.4 8.354 1.175-5.854 5.856c-.09.09-.144.198-.204.305h-1.03v37.272c0 2.057 1.673 3.73 3.73 3.73H43.4c2.057 0 3.73-1.674 3.73-3.73V19h-5v-2.8l7.346 1.033.618-4.4c.133-.94-.108-1.876-.68-2.634zM26.253 2.86c.037-.26.175-.494.39-.656.214-.16.478-.23.74-.193l7.922 1.114c.262.037.496.176.658.39.162.215.23.478.193.74l-.417 2.97-9.904-1.392.417-2.97zm-7.778 12.554L22.06 19h-7.17l3.585-3.586zM35.132 16v3h-1v-3h-10v2.243l-5.32-5.32L40.703 16h-5.57zm5 2v1h-3v-1h3zm-8 0v1h-6v-1h6zm13 3v35.27c0 .955-.776 1.73-1.73 1.73h-28.54c-.954 0-1.73-.775-1.73-1.73V21h32zm2.985-8.444l-.34 2.418-35.65-5.01.34-2.42c.12-.85.904-1.44 1.758-1.324l9.35 1.314 8.602 1.21 14.615 2.053c.412.058.776.272 1.026.604.25.334.357.744.3 1.156z"/><circle cx="17.132" cy="28" r="1"/><circle cx="17.132" cy="34" r="1"/><circle cx="20.132" cy="25" r="1"/><circle cx="26.132" cy="25" r="1"/><circle cx="20.132" cy="31" r="1"/><circle cx="26.132" cy="31" r="1"/><circle cx="23.132" cy="28" r="1"/><circle cx="29.132" cy="28" r="1"/><circle cx="23.132" cy="34" r="1"/><circle cx="29.132" cy="34" r="1"/><circle cx="32.132" cy="25" r="1"/><circle cx="38.132" cy="25" r="1"/><circle cx="32.132" cy="31" r="1"/><circle cx="38.132" cy="31" r="1"/><circle cx="35.132" cy="28" r="1"/><circle cx="41.132" cy="28" r="1"/><circle cx="35.132" cy="34" r="1"/><circle cx="41.132" cy="34" r="1"/><circle cx="17.132" cy="40" r="1"/><circle cx="17.132" cy="46" r="1"/><circle cx="20.132" cy="37" r="1"/><circle cx="26.132" cy="37" r="1"/><circle cx="20.132" cy="43" r="1"/><circle cx="26.132" cy="43" r="1"/><circle cx="23.132" cy="40" r="1"/><circle cx="29.132" cy="40" r="1"/><circle cx="23.132" cy="46" r="1"/><circle cx="29.132" cy="46" r="1"/><circle cx="32.132" cy="37" r="1"/><circle cx="38.132" cy="37" r="1"/><circle cx="32.132" cy="43" r="1"/><circle cx="38.132" cy="43" r="1"/><circle cx="35.132" cy="40" r="1"/><circle cx="41.132" cy="40" r="1"/><circle cx="35.132" cy="46" r="1"/><circle cx="41.132" cy="46" r="1"/><circle cx="17.132" cy="52" r="1"/><circle cx="20.132" cy="49" r="1"/><circle cx="26.132" cy="49" r="1"/><circle cx="20.132" cy="55" r="1"/><circle cx="26.132" cy="55" r="1"/><circle cx="23.132" cy="52" r="1"/><circle cx="29.132" cy="52" r="1"/><circle cx="32.132" cy="49" r="1"/><circle cx="38.132" cy="49" r="1"/><circle cx="32.132" cy="55" r="1"/><circle cx="38.132" cy="55" r="1"/><circle cx="35.132" cy="52" r="1"/><circle cx="41.132" cy="52" r="1"/></svg>