<svg xmlns="http://www.w3.org/2000/svg" viewBox="0 0 57 57"><path d="M57 12.002H41.74c.816-1.165 1.26-2.55 1.26-4.007 0-1.875-.726-3.633-2.043-4.95-2.73-2.73-7.17-2.73-9.9 0l-2.828 2.83-2.83-2.83c-2.728-2.73-7.17-2.73-9.898 0-1.317 1.317-2.043 3.075-2.043 4.95 0 1.458.443 2.842 1.258 4.007H0v14h5v30h48v-30h4v-14zM32.472 4.46c1.95-1.95 5.122-1.95 7.07 0C40.483 5.4 41 6.653 41 7.994c0 1.34-.518 2.596-1.457 3.535l-.472.472H24.93l4.713-4.714 2.83-2.83zm-15.556 7.07c-.94-.94-1.457-2.195-1.457-3.535 0-1.34.517-2.596 1.456-3.536 1.95-1.95 5.122-1.95 7.07 0l2.83 2.828-3.536 3.535c-.207.207-.397.44-.58.69-.055.072-.108.15-.16.228-.06.09-.123.168-.18.26h-4.972l-.472-.47zM2 24.002v-10h26v10H2zm26 2v12H7v-12h21zm-21 14h21v14H7v-14zm23 14v-14h21v14H30zm21-16H30v-12h21v12zm4-14H30v-10h25v10z"/></svg>