<svg xmlns="http://www.w3.org/2000/svg" viewBox="0 0 58 58"><path d="M56.924 36.82v-.016C57.62 34.32 58 31.704 58 29s-.38-5.32-1.075-7.804v-.016c-.003-.008-.01-.013-.01-.02-.262-.927-.567-1.834-.915-2.72v-.33c0-.36-.2-.662-.487-.838-.352-.792-.735-1.565-1.154-2.318.174.15.392.248.64.248.552 0 1-.447 1-1v-.977c0-.553-.448-1-1-1s-1 .447-1 1v.977c0 .06.024.11.034.168-.07-.12-.145-.24-.218-.36l-.04-.064c-.07-.113-.135-.228-.206-.34-.01-.016-.027-.024-.037-.04-.65-1.03-1.36-2.022-2.133-2.96-.007-.01-.01-.022-.016-.032-.2-.24-.4-.48-.607-.713-.015-.016-.036-.023-.052-.04-.798-.902-1.65-1.754-2.555-2.552-.015-.015-.02-.035-.038-.05-.234-.204-.47-.406-.71-.603-.008-.006-.017-.007-.025-.013-.94-.774-1.934-1.485-2.968-2.137-.016-.01-.024-.027-.04-.038-.11-.07-.224-.135-.335-.202l-.064-.04c-.12-.073-.243-.15-.366-.22.063.01.12.035.188.035h.977c.55 0 1-.447 1-1s-.45-1-1-1h-.978c-.552 0-1 .447-1 1 0 .253.102.477.256.653-.76-.423-1.54-.81-2.34-1.166C40.554 2.2 40.252 2 39.892 2h-.328c-.888-.35-1.796-.654-2.724-.915-.006 0-.01-.006-.017-.008h-.012C34.322.38 31.705 0 29 0s-5.322.38-7.808 1.077h-.013c-.007 0-.01.006-.018.008-.928.26-1.836.566-2.724.915h-.33c-.36 0-.66.2-.837.487-.79.352-1.564.735-2.317 1.154.15-.174.248-.392.248-.64 0-.553-.447-1-1-1h-.976c-.552 0-1 .447-1 1s.448 1 1 1h.977c.06 0 .113-.024.17-.034-.118.07-.234.142-.35.212l-.084.05c-.11.068-.223.133-.333.2-.016.01-.024.027-.04.038-1.03.653-2.023 1.363-2.963 2.136-.008.006-.018.008-.026.014-.24.198-.48.4-.713.607-.016.015-.022.034-.036.05-.904.798-1.758 1.65-2.556 2.555-.015.016-.035.022-.05.038-.206.234-.408.472-.607.713-.006.008-.007.02-.014.028-.772.938-1.48 1.93-2.132 2.96-.01.017-.03.026-.04.043l-.21.35-.02.034c-.078.127-.156.253-.23.38.01-.06.036-.12.036-.186v-.977c0-.552-.448-1-1-1s-1 .448-1 1v.978c0 .553.448 1 1 1 .253 0 .477-.102.653-.256-.423.76-.81 1.54-1.166 2.34-.286.175-.487.477-.487.837v.328c-.348.887-.654 1.795-.914 2.72-.002.01-.008.014-.01.02v.017C.38 23.68 0 26.295 0 29s.38 5.32 1.075 7.804v.016c.003.01.01.016.012.025.26.925.565 1.83.913 2.717v.33c0 .36.2.66.487.837.352.79.735 1.564 1.154 2.317-.174-.15-.393-.248-.64-.248-.552 0-1 .446-1 1v.976c0 .553.448 1 1 1s1-.447 1-1V43.8c0-.06-.024-.11-.034-.168.074.126.15.25.227.374l.022.036c.072.118.14.237.214.353.015.026.038.045.056.07.646 1.02 1.35 2.002 2.114 2.932.007.01.01.02.016.03.2.242.4.48.607.714.014.017.034.022.05.037.798.905 1.652 1.758 2.557 2.557.015.015.02.035.038.05.234.204.47.406.71.603.01.007.02.01.028.015.94.773 1.932 1.483 2.965 2.135.016.01.024.027.04.038.11.07.224.135.335.202l.064.04c.12.073.242.15.366.22-.063-.012-.12-.037-.188-.037h-.977c-.55 0-1 .447-1 1s.45 1 1 1h.978c.552 0 1-.447 1-1 0-.252-.102-.477-.256-.653.76.423 1.54.81 2.34 1.166.175.286.477.487.837.487h.328c.888.35 1.796.654 2.724.915.006 0 .01.006.017.008.006.002.012 0 .02.002C23.682 57.62 26.296 58 29 58s5.317-.38 7.8-1.075c.008 0 .014 0 .02-.002.007 0 .01-.006.018-.008.928-.26 1.836-.566 2.724-.915h.33c.36 0 .66-.2.837-.487.79-.352 1.565-.735 2.317-1.154-.15.174-.248.392-.248.64 0 .553.447 1 1 1h.976c.552 0 1-.447 1-1s-.448-1-1-1H43.8c-.06 0-.113.024-.17.034.118-.07.234-.142.35-.212l.084-.05c.11-.068.223-.133.333-.2.016-.01.024-.027.04-.038 1.03-.65 2.022-1.36 2.96-2.132.01-.007.02-.01.03-.017.24-.198.48-.4.713-.607.016-.014.022-.034.037-.05.905-.8 1.76-1.654 2.56-2.56.013-.013.032-.018.045-.033.206-.234.408-.472.607-.713.006-.01.007-.02.014-.03.765-.93 1.468-1.91 2.114-2.932.018-.024.04-.043.057-.07.072-.114.14-.23.21-.347l.022-.036c.077-.127.155-.253.23-.38-.012.06-.037.118-.037.185v.977c0 .552.448 1 1 1s1-.448 1-1v-.978c0-.553-.448-1-1-1-.253 0-.477.102-.653.256.423-.76.81-1.54 1.166-2.34.286-.175.487-.477.487-.837v-.328c.348-.885.652-1.79.913-2.717.002-.01.01-.015.01-.025zm-4.852 6.19c-2.248 3.69-5.354 6.797-9.04 9.048-.03.02-.062.038-.093.057-1.76 1.065-3.654 1.932-5.646 2.576l-2.79-11.155c4.154-1.58 7.453-4.878 9.032-9.03l11.156 2.788c-.648 2-1.518 3.903-2.59 5.67l-.03.048zm-37.02 9.1l-.075-.046c-3.687-2.25-6.796-5.36-9.045-9.048l-.035-.058c-1.07-1.766-1.94-3.666-2.588-5.665l11.155-2.79c1.578 4.154 4.878 7.453 9.03 9.032L20.708 54.69c-1.996-.645-3.892-1.513-5.655-2.58zM5.928 14.99c2.248-3.69 5.354-6.797 9.04-9.048.03-.02.062-.038.093-.057 1.76-1.065 3.654-1.932 5.646-2.576l2.79 11.155c-4.154 1.58-7.453 4.878-9.032 9.03L3.308 20.708c.648-2 1.518-3.903 2.59-5.67l.03-.048zm7.947 10.42c-.274 1.154-.435 2.352-.435 3.59s.16 2.436.435 3.59L2.765 35.37C2.27 33.325 2 31.194 2 29s.27-4.325.766-6.368l11.11 2.777zM15.44 29c0-7.477 6.083-13.56 13.56-13.56S42.56 21.523 42.56 29 36.477 42.56 29 42.56 15.44 36.477 15.44 29zM42.948 5.89l.075.046c3.683 2.248 6.788 5.352 9.036 9.034l.052.088c1.066 1.76 1.933 3.655 2.578 5.648l-11.156 2.79c-1.578-4.154-4.878-7.453-9.03-9.032L37.29 3.308c1.997.647 3.893 1.515 5.656 2.583zM56 29c0 2.194-.27 4.325-.766 6.368l-11.11-2.777c.275-1.154.436-2.352.436-3.59s-.16-2.436-.435-3.59l11.11-2.778C55.73 24.675 56 26.806 56 29zM35.368 2.766l-2.777 11.11c-1.154-.275-2.352-.436-3.59-.436s-2.436.16-3.59.435L22.63 2.765C24.675 2.27 26.806 2 29 2s4.325.27 6.368.766zM22.632 55.234l2.777-11.11c1.154.274 2.352.435 3.59.435s2.436-.162 3.59-.436l2.778 11.11C33.325 55.73 31.194 56 29 56s-4.325-.27-6.368-.766zM3.958 5.64c.292 0 .583-.13.78-.374.16-.198.34-.378.534-.533.432-.345.503-.974.16-1.405-.346-.433-.975-.504-1.407-.16-.31.248-.595.53-.846.844-.347.43-.28 1.06.152 1.406.184.148.405.22.626.22zM3 10.304c.552 0 1-.447 1-1v-.978c0-.553-.448-1-1-1s-1 .447-1 1v.978c0 .552.448 1 1 1zM8.34 4h.976c.552 0 1-.447 1-1s-.448-1-1-1H8.34c-.553 0-1 .447-1 1s.447 1 1 1zM54 8.34v.977c0 .553.448 1 1 1s1-.447 1-1V8.34c0-.554-.448-1-1-1s-1 .446-1 1zM53.268 5.27c.198.25.49.378.783.378.22 0 .44-.07.624-.218.432-.345.503-.974.16-1.405-.25-.312-.534-.597-.846-.848-.43-.344-1.06-.276-1.406.154-.346.432-.277 1.062.154 1.407.196.16.375.338.532.534zM48.696 4h.977c.552 0 1-.447 1-1s-.448-1-1-1h-.977c-.552 0-1 .447-1 1s.448 1 1 1zM53.263 52.734c-.16.198-.34.378-.534.533-.433.345-.504.974-.16 1.405.198.248.49.377.783.377.22 0 .438-.072.623-.22.31-.247.596-.53.847-.843.346-.43.278-1.06-.153-1.406-.43-.343-1.06-.274-1.407.154zM49.66 54h-.976c-.552 0-1 .447-1 1s.448 1 1 1h.977c.553 0 1-.447 1-1s-.447-1-1-1zM55 47.696c-.552 0-1 .447-1 1v.978c0 .553.448 1 1 1s1-.447 1-1v-.978c0-.552-.448-1-1-1zM9.304 54h-.977c-.552 0-1 .447-1 1s.448 1 1 1h.977c.552 0 1-.447 1-1s-.448-1-1-1zM4 49.66v-.977c0-.553-.448-1-1-1s-1 .447-1 1v.978c0 .554.448 1 1 1s1-.446 1-1zM4.732 52.73c-.345-.434-.974-.503-1.405-.16-.432.345-.503.974-.16 1.405.25.312.534.597.846.848.185.147.406.22.625.22.292 0 .583-.128.78-.374.346-.432.277-1.062-.154-1.407-.196-.16-.375-.338-.532-.534z"/></svg>