<svg xmlns="http://www.w3.org/2000/svg" viewBox="0 0 59.049 59.049"><path d="M11.285 41.39c.184.146.404.218.623.218.294 0 .585-.13.783-.377.345-.43.274-1.06-.158-1.404-.8-.638-1.577-1.33-2.305-2.06L2.83 30.368l7.628-7.63c7.334-7.332 18.003-9.835 27.84-6.533.522.173 1.09-.107 1.266-.63.175-.523-.106-1.09-.63-1.267-10.562-3.545-22.016-.857-29.89 7.016L0 30.368l8.812 8.812c.78.782 1.614 1.525 2.473 2.21zM50.237 21.325c-1.348-1.348-2.826-2.564-4.394-3.616-.458-.308-1.08-.186-1.388.272-.308.458-.185 1.08.273 1.388 1.46.98 2.838 2.113 4.094 3.37l7.398 7.397-7.63 7.63c-7.384 7.384-18.512 9.88-28.35 6.355-.52-.187-1.094.084-1.28.604-.186.52.084 1.092.604 1.28 3.182 1.14 6.49 1.692 9.776 1.692 7.62 0 15.124-2.977 20.665-8.518l9.043-9.043-8.81-8.812z"/><path d="M30.54 41.774c-2.154 0-4.252-.598-6.07-1.73-.468-.29-1.085-.148-1.378.32-.292.47-.148 1.086.32 1.378 2.136 1.33 4.6 2.032 7.127 2.032 7.443 0 13.5-6.056 13.5-13.5 0-2.685-.788-5.28-2.276-7.502-.308-.46-.93-.582-1.387-.275-.46.308-.582.93-.275 1.387 1.267 1.893 1.937 4.102 1.937 6.39 0 6.342-5.16 11.5-11.5 11.5zM30.54 18.774c2.064 0 4.088.553 5.854 1.6.474.28 1.088.125 1.37-.35.28-.476.125-1.09-.35-1.37-2.075-1.23-4.452-1.88-6.876-1.88-7.444 0-13.5 6.056-13.5 13.5 0 2.084.462 4.083 1.374 5.94.174.355.53.56.9.56.146 0 .297-.032.438-.1.496-.245.7-.844.458-1.34-.776-1.58-1.17-3.283-1.17-5.06 0-6.34 5.16-11.5 11.5-11.5zM54.62 5.567c-.39-.39-1.022-.39-1.413 0l-46.5 46.5c-.39.39-.39 1.023 0 1.414.195.196.45.294.707.294s.512-.098.707-.293l46.5-46.5c.392-.39.392-1.022 0-1.413z"/></svg>