<svg xmlns="http://www.w3.org/2000/svg" viewBox="0 0 59.066 59.066"><path d="M52.844 27.116c-.432-.72-1.155-1.116-2.04-1.116h-.01c-1.668.006-3.674.667-5.236 1.724-1.44.975-3.53 2.782-5.293 5.863-.33.578-.874.97-1.455 1.063-.002-.134 0-.287 0-.432 0-.31 0-.677-.013-1.083V11c0-2.206-1.794-4-4-4s-4 1.794-4 4v15.5c0 .275-.225.5-.5.5s-.5-.225-.5-.5V4c0-2.206-1.794-4-4-4s-4 1.794-4 4v22.5c0 .275-.225.5-.5.5s-.5-.225-.5-.5v-18c0-1.93-1.57-3.5-3.5-3.5s-3.5 1.57-3.5 3.5v20c0 .275-.225.5-.5.5s-.5-.225-.5-.5V16c0-1.93-1.57-3.5-3.51-3.5-1.93 0-3.5 1.57-3.5 3.5l.002 27.197c.967 13.983 9.544 15.87 17.807 15.87 6.846 0 12.995-3.397 16.027-8.825.39-.63 1.445-2.29 2.696-4.254 3.128-4.914 5.748-9.04 6.135-9.775.863-1.634 1.826-2.91 2.784-3.693.866-.708 1.396-1.61 1.827-2.404.223-.413.417-1.93-.223-3zm-1.588 2.143c-.4.728-.777 1.3-1.282 1.71-1.18.965-2.285 2.414-3.287 4.31-.38.723-3.794 6.086-6.053 9.635-1.258 1.976-2.318 3.642-2.733 4.314-2.7 4.833-8.18 7.837-14.303 7.837-10.542 0-15.123-4.06-15.81-13.938V16c0-.827.673-1.5 1.51-1.5.827 0 1.5.673 1.5 1.5v12.5c0 1.38 1.12 2.5 2.5 2.5s2.5-1.12 2.5-2.5v-20c0-.827.673-1.5 1.5-1.5s1.5.673 1.5 1.5v18c0 1.38 1.12 2.5 2.5 2.5s2.5-1.12 2.5-2.5V4c0-1.103.897-2 2-2s2 .897 2 2v22.5c0 1.38 1.12 2.5 2.5 2.5s2.5-1.12 2.5-2.5V11c0-1.103.897-2 2-2s2 .897 2 2v22.166c.013.41.012.758.012 1.05-.003.895-.004 1.54.49 2.024.412.403.947.428 1.325.432 1.36-.03 2.655-.833 3.376-2.092 1.572-2.748 3.41-4.344 4.678-5.2 1.232-.833 2.85-1.375 4.123-1.38h.005c.214 0 .263.063.292.1.197.25.206.88.16 1.16z"/></svg>