<svg xmlns="http://www.w3.org/2000/svg" viewBox="0 0 58.365 58.365"><path d="M57.863 26.632l-8.68-8.06V5.364h-10v3.92L29.182 0 .502 26.632c-.405.376-.43 1.01-.053 1.414.375.404 1.008.427 1.414.052l3.32-3.082v33.35h48v-33.35l3.318 3.08c.192.18.437.268.68.268.27 0 .537-.107.733-.32.376-.403.352-1.036-.052-1.412zM41.183 7.365h6v9.35l-6-5.572V7.365zm-18 49V35.302c0-.517.42-.937.936-.937h10.125c.517 0 .937.42.937.937v21.063h-12zm28 0h-14V35.302c0-1.62-1.318-2.937-2.938-2.937H24.12c-1.62 0-2.938 1.317-2.938 2.937v21.063h-14V23.158l22-20.43 14.28 13.26 5.72 5.312 2 1.857v33.208z"/></svg>