<svg xmlns="http://www.w3.org/2000/svg" viewBox="0 0 58.365 58.365"><path d="M57.863 26.632L29.183 0 .502 26.632c-.405.376-.43 1.01-.053 1.414.374.404 1.01.427 1.413.052l3.32-3.082v33.35h48v-33.35l3.318 3.08c.193.18.438.268.682.268.27 0 .536-.107.732-.32.377-.403.353-1.036-.05-1.412zm-6.68 29.733h-44V23.158l22-20.43 22 20.43v33.207z"/><path d="M13.182 35.365h14v-14h-14v14zm2-12h10v10h-10v-10zM45.182 21.365h-14v14h14v-14zm-2 12h-10v-10h10v10zM13.182 53.365h14v-14h-14v14zm2-12h10v10h-10v-10zM45.182 39.365h-14v14h14v-14zm-2 12h-10v-10h10v10z"/></svg>