<svg xmlns="http://www.w3.org/2000/svg" viewBox="0 0 60 60"><circle cx="30" cy="26" r="1"/><circle cx="33" cy="24" r="1"/><circle cx="27" cy="24" r="1"/><circle cx="24" cy="22" r="1"/><circle cx="36" cy="22" r="1"/><circle cx="39" cy="20" r="1"/><circle cx="21" cy="20" r="1"/><circle cx="30" cy="22" r="1"/><circle cx="30" cy="34" r="1"/><circle cx="30" cy="37" r="1"/><circle cx="30" cy="40" r="1"/><circle cx="30" cy="43" r="1"/><circle cx="30" cy="46" r="1"/><circle cx="30" cy="49" r="1"/><path d="M54 58h-3v-4h-5V43.778c0-2.7-1.342-5.208-3.59-6.706L31.804 30l10.608-7.072C44.66 21.43 46 18.922 46 16.222V6h5V2h3c.552 0 1-.447 1-1s-.448-1-1-1H6c-.552 0-1 .447-1 1s.448 1 1 1h3v4h5v10.222c0 2.7 1.342 5.208 3.59 6.706L28.196 30 17.59 37.072C15.34 38.57 14 41.078 14 43.778V54H9v4H6c-.552 0-1 .447-1 1s.448 1 1 1h48c.552 0 1-.447 1-1s-.448-1-1-1zM11 4V2h38v2H11zm7.698 17.264C17.008 20.137 16 18.252 16 16.222V6h28v10.222c0 2.03-1.01 3.915-2.698 5.042L30 28.798l-11.302-7.534zM16 43.778c0-2.03 1.01-3.915 2.698-5.042L30 31.202l11.302 7.534C42.992 39.863 44 41.748 44 43.778V54H16V43.778zM11 56h38v2H11v-2z"/></svg>