<svg xmlns="http://www.w3.org/2000/svg" viewBox="0 0 60 60"><path d="M50 54h-5v-6c0-7.59-4.147-14.44-10.714-18C40.853 26.44 45 19.59 45 12V6h5c1.654 0 3-1.346 3-3s-1.346-3-3-3H10C8.346 0 7 1.346 7 3s1.346 3 3 3h5v6c0 7.59 4.147 14.44 10.714 18C19.147 33.56 15 40.41 15 48v6h-5c-1.654 0-3 1.346-3 3s1.346 3 3 3h40c1.654 0 3-1.346 3-3s-1.346-3-3-3zM10 4c-.55 0-1-.448-1-1s.45-1 1-1h40c.55 0 1 .448 1 1s-.45 1-1 1H10zm7 8V6h26v6c0 7.427-4.39 14.078-11.203 17h-3.595C21.392 26.078 17 19.427 17 12zm0 36c0-7.427 4.39-14.078 11.203-17h3.595C38.608 33.922 43 40.573 43 48v6c0-.552-.448-1-1-1s-1 .448-1 1h-2c0-.552-.448-1-1-1s-1 .448-1 1h-2c0-.552-.448-1-1-1s-1 .448-1 1h-2c0-.552-.448-1-1-1s-1 .448-1 1h-2c0-.552-.448-1-1-1s-1 .448-1 1h-2c0-.552-.448-1-1-1s-1 .448-1 1h-2c0-.552-.448-1-1-1s-1 .448-1 1v-6zm33 10H10c-.55 0-1-.448-1-1s.45-1 1-1h40c.55 0 1 .448 1 1s-.45 1-1 1z"/><circle cx="20" cy="52" r="1"/><circle cx="24" cy="52" r="1"/><circle cx="28" cy="52" r="1"/><circle cx="32" cy="52" r="1"/><circle cx="36" cy="52" r="1"/><circle cx="40" cy="52" r="1"/><circle cx="22" cy="50" r="1"/><circle cx="26" cy="50" r="1"/><circle cx="30" cy="33" r="1"/><circle cx="24" cy="22" r="1"/><circle cx="28" cy="22" r="1"/><circle cx="32" cy="22" r="1"/><circle cx="36" cy="22" r="1"/><circle cx="34" cy="20" r="1"/><circle cx="36" cy="18" r="1"/><circle cx="26" cy="20" r="1"/><circle cx="30" cy="20" r="1"/><circle cx="24" cy="18" r="1"/><circle cx="26" cy="24" r="1"/><circle cx="28" cy="26" r="1"/><circle cx="32" cy="26" r="1"/><circle cx="30" cy="24" r="1"/><circle cx="34" cy="24" r="1"/><circle cx="30" cy="36" r="1"/><circle cx="30" cy="39" r="1"/><circle cx="30" cy="42" r="1"/><circle cx="30" cy="45" r="1"/><circle cx="30" cy="48" r="1"/><circle cx="34" cy="50" r="1"/><circle cx="38" cy="50" r="1"/></svg>