<svg xmlns="http://www.w3.org/2000/svg" viewBox="0 0 60 60"><circle cx="35" cy="52" r="1"/><circle cx="39" cy="52" r="1"/><circle cx="43" cy="52" r="1"/><circle cx="33" cy="33" r="1"/><circle cx="35" cy="22" r="1"/><circle cx="39" cy="22" r="1"/><circle cx="37" cy="20" r="1"/><circle cx="39" cy="18" r="1"/><circle cx="35" cy="26" r="1"/><circle cx="33" cy="24" r="1"/><circle cx="37" cy="24" r="1"/><circle cx="33" cy="36" r="1"/><circle cx="33" cy="39" r="1"/><circle cx="33" cy="42" r="1"/><circle cx="33" cy="45" r="1"/><circle cx="33" cy="48" r="1"/><circle cx="37" cy="50" r="1"/><circle cx="41" cy="50" r="1"/><path d="M24 11h-5c-.552 0-1 .447-1 1s.448 1 1 1h5c.552 0 1-.447 1-1s-.448-1-1-1zM24 18H14c-.552 0-1 .447-1 1s.448 1 1 1h10c.552 0 1-.447 1-1s-.448-1-1-1zM24 25H9c-.552 0-1 .447-1 1s.448 1 1 1h15c.552 0 1-.447 1-1s-.448-1-1-1zM24 32H5c-.552 0-1 .447-1 1s.448 1 1 1h19c.552 0 1-.447 1-1s-.448-1-1-1zM24 39H11c-.552 0-1 .447-1 1s.448 1 1 1h13c.552 0 1-.447 1-1s-.448-1-1-1zM24 46h-7c-.552 0-1 .447-1 1s.448 1 1 1h7c.552 0 1-.447 1-1s-.448-1-1-1zM53 54h-5v-6c0-7.59-4.147-14.44-10.714-18C43.853 26.44 48 19.59 48 12V6h5c1.654 0 3-1.346 3-3s-1.346-3-3-3H30c-.552 0-1 .447-1 1s.448 1 1 1h23c.55 0 1 .448 1 1s-.45 1-1 1H30c-.552 0-1 .447-1 1s.448 1 1 1h16v6c0 7.49-4.467 14.193-11.38 17.075h-.003s0 .002-.002.002c-.01.005-.018.014-.03.02-.106.05-.207.113-.292.198-.07.07-.117.155-.162.24-.015.03-.04.05-.053.08v.003c-.05.12-.076.25-.076.383s.027.263.076.383v.003c.047.11.115.205.193.29.02.022.046.04.07.062.07.062.143.112.225.152.02.01.03.026.05.034C41.532 33.804 46 40.508 46 48v6c0-.552-.448-1-1-1s-1 .448-1 1h-2c0-.552-.448-1-1-1s-1 .448-1 1h-2c0-.552-.448-1-1-1s-1 .448-1 1h-2c0-.552-.448-1-1-1s-1 .448-1 1h-2c-.552 0-1 .447-1 1s.448 1 1 1h23c.55 0 1 .448 1 1s-.45 1-1 1H30c-.552 0-1 .447-1 1s.448 1 1 1h23c1.654 0 3-1.346 3-3s-1.346-3-3-3z"/></svg>