<svg xmlns="http://www.w3.org/2000/svg" viewBox="0 0 60 60"><path d="M14 36.182h14v-10H14v10zm2-2v-3h10v3H16zm10-6v1H16v-1h10zM14 40.182v12h14v-12H14zm6 2v3h-4v-3h4zm-4 5h4v3h-4v-3zm6 3v-3h4v3h-4zm4-5h-4v-3h4v3zM32 36.182h14v-10H32v10zm2-2v-1h10v1H34zm10-6v3H34v-3h10z"/><path d="M59 48.182c-.553 0-1 .448-1 1v1h-1v-1c0-.552-.447-1-1-1s-1 .448-1 1v1h-1V29.978c.52.234 1.073.363 1.626.363 1.073 0 2.14-.435 2.927-1.283.76-.818 1.145-1.925 1.057-3.038-.09-1.113-.644-2.146-1.522-2.834L32.722 3.346 30 .817 27.343 3.29 1.913 23.186c-.88.688-1.434 1.72-1.522 2.833-.087 1.112.298 2.22 1.058 3.037 1.194 1.286 3.02 1.61 4.553.922v20.203H5v-1c0-.552-.447-1-1-1s-1 .448-1 1v1H2v-1c0-.552-.447-1-1-1s-1 .448-1 1v9c0 .552.447 1 1 1s1-.448 1-1v-1h1v1c0 .552.447 1 1 1s1-.448 1-1v-1h1v2h48v-2h1v1c0 .552.447 1 1 1s1-.448 1-1v-1h1v1c0 .552.447 1 1 1s1-.448 1-1v-9c0-.553-.447-1-1-1zM2.912 27.695c-.385-.415-.572-.954-.527-1.518.045-.564.314-1.067.76-1.416L28.64 4.81 30 3.547l1.425 1.32 25.43 19.895c.446.35.716.853.76 1.417.046.564-.142 1.104-.526 1.518-.71.762-1.862.858-2.687.223l-.403-.31-24-18.5-23.61 18.2-.792.61c-.826.635-1.978.54-2.686-.223zM2 55.182v-3h1v3H2zm3 0v-3h1v3H5zm29 2v-15h10v15H34zm18 0h-6v-17H32v17H8v-28.59l22-16.96 22 16.96v28.59zm2-2v-3h1v3h-1zm3 0v-3h1v3h-1z"/></svg>