<svg xmlns="http://www.w3.org/2000/svg" viewBox="0 0 60 60"><path d="M52.29 44.29c-.18.19-.29.45-.29.71s.1.52.29.71c.19.18.45.29.71.29s.52-.11.71-.29c.18-.19.29-.45.29-.71s-.11-.52-.29-.71c-.37-.36-1.04-.37-1.42 0zM23.638 42.263L20 40.405v-.387c1.628-.89 2.773-2.354 3.412-4.365.97-.513 1.588-1.513 1.588-2.635v-1c0-.927-.43-1.786-1.15-2.35-.625-3.78-3.263-5.696-7.85-5.696-.217 0-.43.01-.636.025-.865.067-2.13-.003-3.224-.74-.41-.277-.72-.545-.917-.797-.336-.428-.9-.577-1.4-.37-.502.207-.797.71-.734 1.25.04.37.104.807.2 1.284.192.975.192.975-.08 1.558-.1.22-.227.49-.375.853-.33.81-.566 1.697-.7 2.646C7.424 30.246 7 31.1 7 32.02v1c0 1.122.62 2.122 1.588 2.636.64 2.012 1.784 3.477 3.412 4.365v.375l-3.77 1.857c-1.376.75-2.23 2.19-2.23 3.76v1.323c0 .803 0 2.683 10 2.683s10-1.88 10-2.683V46.09c0-1.63-.905-3.096-2.362-3.827zM24 47.11c-.623.378-3.16.907-8 .907s-7.377-.53-8-.908v-1.1c0-.835.456-1.603 1.15-1.983l3.86-1.9c.6-.294.99-.917.99-1.588v-1.805l-.604-.26c-1.517-.653-2.503-1.9-3.015-3.815l-.142-.532-.526-.164c-.42-.13-.712-.52-.712-.946v-1c0-.363.207-.7.54-.877l.47-.25.055-.527c.1-.94.308-1.804.622-2.57.133-.325.246-.568.338-.767.34-.73.462-1.105.377-1.876 1.175.672 2.587.96 4.122.842.155-.013.314-.02.477-.02 3.745 0 5.573 1.356 5.93 4.4l.062.522.466.245c.334.176.542.512.542.878v1c0 .427-.293.816-.712.946l-.526.164-.143.532c-.513 1.915-1.5 3.162-3.016 3.814l-.604.26v1.813c0 .666.37 1.27.964 1.575l3.768 1.924.007.004c.777.39 1.26 1.172 1.26 2.04v1.02zM31 29.018h10c.553 0 1-.447 1-1s-.447-1-1-1H31c-.553 0-1 .447-1 1s.447 1 1 1zM32 44.018h-1c-.553 0-1 .447-1 1s.447 1 1 1h1c.553 0 1-.447 1-1s-.447-1-1-1zM38 44.018h-2c-.553 0-1 .447-1 1s.447 1 1 1h2c.553 0 1-.447 1-1s-.447-1-1-1zM43 44.018h-1c-.553 0-1 .447-1 1s.447 1 1 1h1c.553 0 1-.447 1-1s-.447-1-1-1zM49 44.018h-2c-.553 0-1 .447-1 1s.447 1 1 1h2c.553 0 1-.447 1-1s-.447-1-1-1zM53 33.018H31c-.553 0-1 .447-1 1s.447 1 1 1h22c.553 0 1-.447 1-1s-.447-1-1-1zM53 39.018H31c-.553 0-1 .447-1 1s.447 1 1 1h22c.553 0 1-.447 1-1s-.447-1-1-1z"/><path d="M55.322 14H37V6.313C37 5.037 35.963 4 34.687 4h-9.375C24.037 4 23 5.037 23 6.313V14H4.678C2.098 14 0 16.1 0 18.678v32.645C0 53.9 2.1 56 4.678 56h50.645C57.9 56 60 53.9 60 51.322V18.678C60 16.098 57.9 14 55.322 14zM25 6.313c0-.172.14-.313.312-.313h9.375c.172 0 .313.14.313.313v13.375c0 .17-.14.312-.313.312h-9.375c-.17 0-.312-.14-.312-.312V6.313zm33 45.01C58 52.798 56.8 54 55.322 54H4.678C3.2 54 2 52.8 2 51.322V18.678C2 17.2 3.2 16 4.678 16H23v3.688C23 20.963 24.037 22 25.312 22h9.375C35.963 22 37 20.963 37 19.688V16h18.322C56.8 16 58 17.2 58 18.678v32.644z"/><path d="M30 15c2.206 0 4-1.794 4-4s-1.794-4-4-4-4 1.794-4 4 1.794 4 4 4zm0-6c1.103 0 2 .897 2 2s-.897 2-2 2-2-.897-2-2 .897-2 2-2z"/></svg>