<svg xmlns="http://www.w3.org/2000/svg" viewBox="0 0 60 60"><path d="M47 4H35l1.8-2.4c.332-.44.242-1.068-.2-1.4-.44-.33-1.068-.24-1.4.2L32.5 4h-4.882L25.894.553c-.247-.494-.848-.692-1.342-.447-.494.247-.694.848-.447 1.342L25.382 4H13c-1.654 0-3 1.346-3 3v50c0 1.654 1.346 3 3 3h34c1.654 0 3-1.346 3-3V7c0-1.654-1.346-3-3-3zM13 6h13.382l1 2C26.542 8.734 26 9.8 26 11c0 2.206 1.794 4 4 4s4-1.794 4-4-1.794-4-4-4c-.287 0-.566.033-.836.09L28.618 6H47c.552 0 1 .448 1 1v33h-8.148c-.305-1.183-1.095-2.194-2.21-2.752L34 35.388V35c1.628-.888 2.773-2.352 3.412-4.363C38.382 30.123 39 29.122 39 28v-1c0-.926-.43-1.785-1.15-2.35-.625-3.78-3.263-5.695-7.85-5.695-.217 0-.43.008-.636.024-.863.066-2.13-.004-3.224-.74-.41-.277-.718-.545-.915-.794-.336-.43-.9-.58-1.402-.373-.502.206-.797.708-.734 1.247.04.374.104.81.2 1.286.192.975.192.975-.08 1.558-.1.22-.227.49-.375.853-.33.81-.566 1.7-.7 2.647C21.424 25.228 21 26.084 21 27v1c0 1.122.62 2.123 1.588 2.637.64 2.012 1.784 3.476 3.412 4.364v.377l-3.77 1.858c-1.076.587-1.827 1.598-2.106 2.765H12V7c0-.552.448-1 1-1zm15.332 3.9l.773 1.547c.176.35.53.553.896.553.15 0 .304-.034.447-.105.494-.247.694-.848.447-1.342l-.77-1.54C31.168 9.078 32 9.94 32 11c0 1.103-.897 2-2 2s-2-.897-2-2c0-.406.123-.783.332-1.1zM27.01 37.11c.602-.295.99-.918.99-1.59V33.72l-.604-.26c-1.517-.654-2.503-1.9-3.015-3.814l-.142-.533-.526-.163c-.42-.13-.712-.52-.712-.947v-1c0-.362.207-.698.54-.876l.47-.25.055-.53c.1-.937.308-1.802.622-2.57.133-.324.246-.567.338-.766.34-.728.462-1.104.377-1.875 1.176.672 2.59.956 4.122.84.155-.012.314-.018.477-.018 3.745 0 5.573 1.356 5.93 4.398l.062.522.465.246c.334.18.543.516.543.88v1c0 .428-.293.817-.712.947l-.526.164-.143.534c-.513 1.913-1.5 3.16-3.016 3.814l-.604.26v1.812c0 .67.37 1.272.964 1.575l3.775 1.93c.43.215.77.556.99.966H22.224c.2-.418.522-.77.927-.988l3.858-1.903zM47 58H13c-.552 0-1-.448-1-1V42h36v15c0 .552-.448 1-1 1z"/><path d="M39 49H21c-.553 0-1 .447-1 1s.447 1 1 1h18c.553 0 1-.447 1-1s-.447-1-1-1zM25 47h10c.553 0 1-.447 1-1s-.447-1-1-1H25c-.553 0-1 .447-1 1s.447 1 1 1zM22 53h-1c-.553 0-1 .447-1 1s.447 1 1 1h1c.553 0 1-.447 1-1s-.447-1-1-1zM28 53h-2c-.553 0-1 .447-1 1s.447 1 1 1h2c.553 0 1-.447 1-1s-.447-1-1-1zM33 53h-1c-.553 0-1 .447-1 1s.447 1 1 1h1c.553 0 1-.447 1-1s-.447-1-1-1zM39 53h-2c-.553 0-1 .447-1 1s.447 1 1 1h2c.553 0 1-.447 1-1s-.447-1-1-1z"/></svg>