<svg xmlns="http://www.w3.org/2000/svg" viewBox="0 0 60 60"><path d="M47 4H35l1.8-2.4c.332-.44.242-1.068-.2-1.4-.443-.33-1.07-.24-1.4.2L32.5 4h-4.882L25.894.553c-.247-.494-.846-.692-1.342-.447-.494.247-.694.848-.447 1.342L25.382 4H13c-1.654 0-3 1.346-3 3v50c0 1.654 1.346 3 3 3h34c1.654 0 3-1.346 3-3V7c0-1.654-1.346-3-3-3zm1 53c0 .552-.448 1-1 1H13c-.55 0-1-.448-1-1V7c0-.552.45-1 1-1h13.382l1 2C26.542 8.734 26 9.8 26 11c0 2.206 1.794 4 4 4s4-1.794 4-4-1.794-4-4-4c-.287 0-.566.033-.836.09L28.618 6H47c.552 0 1 .448 1 1v50zM28.332 9.9l.773 1.547c.176.35.53.553.896.553.15 0 .304-.034.447-.105.494-.247.694-.848.447-1.342l-.77-1.54C31.168 9.078 32 9.94 32 11c0 1.103-.897 2-2 2s-2-.897-2-2c0-.406.123-.784.332-1.1z"/><path d="M30 23c-7.168 0-13 5.832-13 13 0 2.436.686 4.71 1.856 6.66l-.077.026.834 1.11c.022.03.047.053.07.082.257.337.53.66.82.97.05.057.1.116.155.17.304.317.623.62.96.903.035.032.068.066.104.097.343.283.7.548 1.072.796.19.127.388.238.584.355.19.114.38.228.576.332.22.116.445.22.672.324.19.087.382.17.578.25.227.09.454.174.686.25.22.074.44.137.664.2.216.058.43.12.65.166.275.06.555.104.836.147.178.027.354.062.534.082.468.05.942.08 1.424.08s.956-.03 1.424-.082c.18-.02.356-.055.534-.082.28-.043.56-.086.836-.147.22-.05.434-.11.65-.168.224-.062.446-.125.664-.198.232-.077.46-.162.686-.252.195-.078.387-.16.578-.25.227-.102.452-.207.672-.323.197-.105.386-.22.576-.333.196-.117.394-.228.584-.355.37-.248.73-.512 1.072-.796.036-.03.07-.065.105-.096.337-.284.655-.586.96-.902.054-.055.104-.115.157-.17.29-.31.562-.634.82-.97.022-.03.048-.054.07-.083l.834-1.11-.076-.026C42.314 40.71 43 38.435 43 36c0-7.168-5.832-13-13-13zm-3.025 17.61c-.638-.745-.975-1.638-.975-2.583V34c0-2.206 1.794-4 4-4s4 1.794 4 4v4.027c0 .944-.337 1.838-.976 2.584l-.966 1.13 5.806 1.936c-.22.227-.45.437-.687.642-.048.042-.092.087-.14.128-.158.132-.325.25-.49.372-.133.1-.26.206-.4.3l-.05.03C34.354 46.316 32.256 47 30 47s-4.353-.684-6.1-1.853l-.05-.03c-.137-.094-.266-.2-.4-.3-.164-.123-.33-.24-.488-.372-.05-.04-.093-.086-.14-.128-.237-.205-.468-.415-.688-.642l5.806-1.935-.965-1.13zM39.2 42.013l-3.86-1.286c.43-.838.66-1.763.66-2.7V34c0-3.31-2.69-6-6-6s-6 2.69-6 6v4.027c0 .937.23 1.86.66 2.7L20.8 42.01C19.665 40.282 19 38.22 19 36c0-6.065 4.935-11 11-11s11 4.935 11 11c0 2.22-.666 4.282-1.8 6.012z"/><circle cx="45.2" cy="19" r="1"/><circle cx="26.2" cy="19" r="1"/><circle cx="18.6" cy="19" r="1"/><circle cx="14.8" cy="19" r="1"/><circle cx="22.4" cy="19" r="1"/><circle cx="30" cy="19" r="1"/><circle cx="41.4" cy="19" r="1"/><circle cx="37.6" cy="19" r="1"/><circle cx="33.8" cy="19" r="1"/><circle cx="14.8" cy="54" r="1"/><circle cx="22.4" cy="54" r="1"/><circle cx="41.4" cy="54" r="1"/><circle cx="37.6" cy="54" r="1"/><circle cx="45.2" cy="54" r="1"/><circle cx="30" cy="54" r="1"/><circle cx="26.2" cy="54" r="1"/><circle cx="33.8" cy="54" r="1"/><circle cx="18.6" cy="54" r="1"/></svg>