<svg xmlns="http://www.w3.org/2000/svg" viewBox="0 0 60 60"><path d="M55.783 8H4.217C1.892 8 0 9.892 0 12.217v35.566C0 50.108 1.892 52 4.217 52h51.566C58.108 52 60 50.108 60 47.783V12.217C60 9.892 58.108 8 55.783 8zM3 16c.552 0 1-.448 1-1h4c0 .552.448 1 1 1s1-.448 1-1h4c0 .552.448 1 1 1s1-.448 1-1h4c0 .552.448 1 1 1s1-.448 1-1h4c0 .552.448 1 1 1s1-.448 1-1h4c0 .552.448 1 1 1s1-.448 1-1h4c0 .552.448 1 1 1s1-.448 1-1h4c0 .552.448 1 1 1s1-.448 1-1h4c0 .552.448 1 1 1s1-.448 1-1h4c0 .552.448 1 1 1s1-.448 1-1v6c0-.552-.448-1-1-1s-1 .448-1 1h-4c0-.552-.448-1-1-1s-1 .448-1 1h-4c0-.552-.448-1-1-1s-1 .448-1 1h-4c0-.552-.448-1-1-1s-1 .448-1 1h-4c0-.552-.448-1-1-1s-1 .448-1 1h-4c0-.552-.448-1-1-1s-1 .448-1 1h-4c0-.552-.448-1-1-1s-1 .448-1 1h-4c0-.552-.448-1-1-1s-1 .448-1 1h-4c0-.552-.448-1-1-1s-1 .448-1 1H4c0-.552-.448-1-1-1s-1 .448-1 1v-6c0 .552.448 1 1 1zm55 31.783C58 49.006 57.006 50 55.783 50H4.217C2.994 50 2 49.006 2 47.783V23h56v24.783zM2 13v-.783C2 10.994 2.994 10 4.217 10h51.566c1.223 0 2.217.994 2.217 2.217V13H2z"/><path d="M50.65 47H55V25H33v22h17.65zM39 45v-.005c0-.435.237-.834.58-1.022l2.58-1.27c.518-.258.84-.777.84-1.355v-1.422l-.604-.26c-.91-.393-1.506-1.152-1.82-2.322l-.142-.533-.526-.163c-.116-.036-.24-.15-.24-.313v-.667c0-.14.095-.242.184-.29l.47-.25.056-.53c.062-.594.192-1.14.39-1.62.087-.21.16-.368.22-.496.155-.332.25-.578.283-.854.732.305 1.56.428 2.44.357.096-.008.193-.012.292-.012 2.92 0 3.47 1.335 3.622 2.64l.062.52.465.247c.09.047.186.147.186.29v.667c0 .164-.124.277-.24.313l-.526.164-.143.534c-.313 1.17-.908 1.93-1.82 2.32l-.607.262v1.428c0 .57.315 1.087.824 1.347l2.52 1.287c.39.195.638.58.655 1.014H39zm-4-18h18v18h-2.003c-.018-1.194-.685-2.264-1.754-2.8l-2.118-1.082c.974-.623 1.676-1.56 2.094-2.8.684-.417 1.114-1.16 1.114-1.985v-.667c0-.677-.295-1.308-.793-1.745-.356-1.897-1.644-3.95-5.54-3.95-.152 0-.303.006-.45.018-.524.04-1.285 0-1.936-.438-.305-.204-.458-.36-.536-.46-.32-.404-.85-.542-1.324-.348-.473.195-.75.67-.692 1.176.03.257.073.557.14.886.083.42.09.54.085.573-.01.035-.066.16-.112.26-.07.15-.156.334-.257.58-.218.53-.375 1.105-.47 1.72-.49.438-.78 1.063-.78 1.73v.667c0 .826.432 1.568 1.116 1.984.417 1.235 1.115 2.17 2.083 2.793L38.662 42.2c-1.026.56-1.662 1.63-1.662 2.797V45h-2V27zM6 29h9c.553 0 1-.447 1-1s-.447-1-1-1H6c-.553 0-1 .447-1 1s.447 1 1 1zM19 29h9c.553 0 1-.447 1-1s-.447-1-1-1h-9c-.553 0-1 .447-1 1s.447 1 1 1zM6 34h1c.553 0 1-.447 1-1s-.447-1-1-1H6c-.553 0-1 .447-1 1s.447 1 1 1zM13 34c.553 0 1-.447 1-1s-.447-1-1-1h-2c-.553 0-1 .447-1 1s.447 1 1 1h2zM17 34h1c.553 0 1-.447 1-1s-.447-1-1-1h-1c-.553 0-1 .447-1 1s.447 1 1 1zM24 34c.553 0 1-.447 1-1s-.447-1-1-1h-2c-.553 0-1 .447-1 1s.447 1 1 1h2zM27.29 32.29c-.18.19-.29.44-.29.71 0 .27.11.52.29.71.19.18.45.29.71.29s.52-.11.71-.29c.18-.19.29-.45.29-.71s-.11-.52-.29-.71c-.37-.37-1.05-.37-1.42 0zM11.65 37.4c-2.19 1.14-2.927 3.32-3.195 5.582-.414-.347-.828-.693-1.24-1.04-.98-.82-2.403.586-1.415 1.414l2.806 2.35c.658.553 1.677.204 1.707-.706.073-2.166.175-4.742 2.348-5.873 1.143-.594.133-2.32-1.01-1.727z"/><path d="M24.906 40.372c-1.458-.092-3.592 2.155-4.716.153-.26-.464-.913-.638-1.368-.36-1.416.87-3.267 2.12-4.756.5-.873-.948-2.285.47-1.414 1.415 1.87 2.033 4.276 1.414 6.4.263.477.535 1.07.926 1.836 1.08.793.16 4.025-1.14 4.2-.9.752 1.03 2.488.032 1.727-1.01-.517-.706-.994-1.084-1.91-1.14z"/><circle cx="42" cy="18" r="1"/><circle cx="48" cy="18" r="1"/><circle cx="24" cy="18" r="1"/><circle cx="30" cy="18" r="1"/><circle cx="36" cy="18" r="1"/><circle cx="54" cy="18" r="1"/><circle cx="18" cy="18" r="1"/><circle cx="6" cy="18" r="1"/><circle cx="12" cy="18" r="1"/></svg>