<svg xmlns="http://www.w3.org/2000/svg" viewBox="0 0 60 60"><path d="M47 4H35l1.8-2.4c.332-.44.242-1.068-.2-1.4-.44-.33-1.068-.24-1.4.2L32.5 4h-4.882L25.894.553c-.248-.494-.848-.692-1.342-.447-.494.247-.694.848-.447 1.342L25.382 4H13c-1.654 0-3 1.346-3 3v50c0 1.654 1.346 3 3 3h34c1.654 0 3-1.346 3-3V7c0-1.654-1.346-3-3-3zm1 53c0 .552-.448 1-1 1H13c-.552 0-1-.448-1-1V7c0-.552.448-1 1-1h13.382l1 2C26.542 8.734 26 9.8 26 11c0 2.206 1.794 4 4 4s4-1.794 4-4-1.794-4-4-4c-.287 0-.566.033-.836.09L28.618 6H47c.552 0 1 .448 1 1v50zM28.332 9.9l.773 1.547c.176.35.53.553.896.553.15 0 .304-.034.447-.105.494-.247.694-.848.447-1.342l-.77-1.54C31.168 9.078 32 9.94 32 11c0 1.103-.897 2-2 2s-2-.897-2-2c0-.406.123-.783.332-1.1z"/><path d="M40 41H20c-.553 0-1 .447-1 1s.447 1 1 1h20c.553 0 1-.447 1-1s-.447-1-1-1zM40 46H20c-.553 0-1 .447-1 1s.447 1 1 1h20c.553 0 1-.447 1-1s-.447-1-1-1zM40 51H20c-.553 0-1 .447-1 1s.447 1 1 1h20c.553 0 1-.447 1-1s-.447-1-1-1zM36 37h4V17H20v20h16zm-10-2c0-2.206 1.794-4 4-4s4 1.794 4 4h-8zm1-9c0-1.654 1.346-3 3-3s3 1.346 3 3-1.346 3-3 3-3-1.346-3-3zm-5 9V19h16v16h-2c0-2.168-1.16-4.065-2.887-5.12C34.253 28.964 35 27.575 35 26c0-2.757-2.243-5-5-5s-5 2.243-5 5c0 1.574.746 2.964 1.887 3.88C25.16 30.936 24 32.833 24 35h-2z"/></svg>