<svg xmlns="http://www.w3.org/2000/svg" viewBox="0 0 60 60"><path d="M55.783 8H4.217C1.892 8 0 9.892 0 12.217v35.566C0 50.108 1.892 52 4.217 52h51.566C58.108 52 60 50.108 60 47.783V12.217C60 9.892 58.108 8 55.783 8zM58 47.783C58 49.006 57.006 50 55.783 50H4.217C2.994 50 2 49.006 2 47.783V12.217C2 10.994 2.994 10 4.217 10h51.566c1.223 0 2.217.994 2.217 2.217v35.566z"/><path d="M22.638 36.246L19 34.388V34c1.628-.888 2.773-2.352 3.412-4.363C23.382 29.123 24 28.122 24 27v-1c0-.926-.43-1.785-1.15-2.35-.625-3.78-3.263-5.695-7.85-5.695-.217 0-.43.008-.636.024-.864.07-2.13-.005-3.224-.74-.41-.277-.718-.545-.915-.794-.336-.43-.9-.58-1.402-.373-.502.206-.797.708-.734 1.247.04.374.104.81.2 1.286.192.975.192.975-.08 1.558-.1.22-.227.49-.375.853-.33.81-.566 1.7-.7 2.647C6.424 24.23 6 25.084 6 26v1c0 1.122.62 2.123 1.588 2.637C8.228 31.65 9.372 33.113 11 34v.377l-3.77 1.858c-1.375.75-2.23 2.19-2.23 3.758v1.325C5 42.12 5 44 15 44s10-1.88 10-2.682v-1.245c0-1.63-.905-3.096-2.362-3.827zM23 41.092c-.624.38-3.162.908-8 .908s-7.376-.528-8-.908v-1.1c0-.834.455-1.602 1.152-1.98l3.857-1.902c.6-.294.99-.917.99-1.588V32.72l-.605-.26c-1.517-.655-2.503-1.902-3.015-3.815l-.143-.533-.526-.164c-.417-.13-.71-.52-.71-.948v-1c0-.362.207-.698.54-.876l.47-.25.055-.53c.1-.937.308-1.802.622-2.57.133-.324.246-.567.338-.766.34-.728.462-1.104.377-1.875 1.176.672 2.59.958 4.122.84.155-.012.314-.018.477-.018 3.745 0 5.573 1.356 5.93 4.398l.062.522.465.246c.334.18.543.516.543.88v1c0 .428-.293.817-.712.947l-.526.164-.143.534c-.513 1.913-1.5 3.16-3.016 3.814l-.604.26v1.812c0 .67.37 1.272.964 1.575l3.775 1.93c.777.387 1.26 1.17 1.26 2.038v1.02zM30 23h10c.553 0 1-.447 1-1s-.447-1-1-1H30c-.553 0-1 .447-1 1s.447 1 1 1zM44 23h1c.553 0 1-.447 1-1s-.447-1-1-1h-1c-.553 0-1 .447-1 1s.447 1 1 1zM31 38h-1c-.553 0-1 .447-1 1s.447 1 1 1h1c.553 0 1-.447 1-1s-.447-1-1-1zM37 38h-2c-.553 0-1 .447-1 1s.447 1 1 1h2c.553 0 1-.447 1-1s-.447-1-1-1zM42 38h-1c-.553 0-1 .447-1 1s.447 1 1 1h1c.553 0 1-.447 1-1s-.447-1-1-1zM48 38h-2c-.553 0-1 .447-1 1s.447 1 1 1h2c.553 0 1-.447 1-1s-.447-1-1-1zM51.29 38.29c-.18.19-.29.45-.29.71s.11.52.29.71c.19.18.45.29.71.29s.52-.11.71-.29c.18-.19.29-.45.29-.71s-.11-.52-.29-.71c-.38-.37-1.05-.37-1.42 0zM52 27H30c-.553 0-1 .447-1 1s.447 1 1 1h22c.553 0 1-.447 1-1s-.447-1-1-1zM52 33H30c-.553 0-1 .447-1 1s.447 1 1 1h22c.553 0 1-.447 1-1s-.447-1-1-1z"/></svg>