<svg xmlns="http://www.w3.org/2000/svg" viewBox="0 0 57.746 57.746"><path d="M56.28 15.314c-.16-.238-2.92-4.216-8.28-6.257V4.873H0v48h48v-36.71c2.08-.174 4.475-.012 7.205.68l2.54.646-1.465-2.176zM46 50.874H2v-44h44v1.564c-.974-.246-2.014-.42-3.127-.502-.086-.007-.173-.008-.26-.014-.425-.026-.85-.05-1.295-.045-.582 0-1.165.024-1.75.08-.214.006-5.075.23-10.457 5.527l-6.117-6.118.056 20.435 20.434.057-6.23-6.23c.037-.044.086-.1.126-.15.077-.093.16-.19.252-.296.076-.085.164-.178.25-.27.086-.093.18-.19.278-.288.106-.107.214-.215.333-.327.104-.1.223-.2.337-.303.23-.203.477-.408.746-.617.13-.102.258-.203.398-.304.174-.125.363-.25.553-.375.14-.092.283-.183.43-.273.208-.127.42-.253.644-.375.152-.083.316-.16.474-.24.41-.206.848-.4 1.31-.58.197-.076.388-.155.594-.227.257-.088.53-.165.802-.242.237-.068.478-.13.726-.19.16-.038.328-.07.494-.105v34.41zm2-36.71v-.047l-1.13.15c-7.9 1.043-11.444 6.41-11.75 6.9-.016.022-.027.04-.03.042l-.41.67 3.962 3.962-13.6-.036-.035-13.6 4.134 4.135.708-.75c5.054-5.368 9.746-5.635 9.845-5.64.57-.053 1.136-.073 1.698-.07h.185c1.76.023 3.47.31 5.106.864l.928.313c2.248.907 3.954 2.18 5.122 3.26-1.713-.233-3.284-.264-4.73-.152z"/></svg>