<svg xmlns="http://www.w3.org/2000/svg" viewBox="0 0 60 60"><path d="M44.5 14.5C35.953 14.5 29 21.453 29 30c0 7.444-6.056 13.5-13.5 13.5S2 37.444 2 30s6.056-13.5 13.5-13.5c2.687 0 5.282.787 7.505 2.277.74.495 1.432 1.065 2.058 1.694.39.39 1.023.394 1.414.004.392-.39.393-1.023.003-1.415-.718-.722-1.513-1.376-2.36-1.945-2.555-1.71-5.536-2.615-8.62-2.615C6.953 14.5 0 21.453 0 30s6.953 15.5 15.5 15.5S31 38.547 31 30c0-7.444 6.056-13.5 13.5-13.5S58 22.556 58 30s-6.056 13.5-13.5 13.5c-3.605 0-6.995-1.403-9.544-3.952-.39-.39-1.023-.39-1.414 0s-.39 1.023 0 1.414C36.47 43.89 40.36 45.5 44.5 45.5 53.047 45.5 60 38.547 60 30s-6.953-15.5-15.5-15.5z"/></svg>