<svg xmlns="http://www.w3.org/2000/svg" viewBox="0 0 52 52"><path d="M26 0C11.663 0 0 11.663 0 26s11.663 26 26 26 26-11.663 26-26S40.337 0 26 0zm0 50C12.767 50 2 39.233 2 26S12.767 2 26 2s24 10.767 24 24-10.767 24-24 24z"/><path d="M26 37c-.553 0-1 .447-1 1v2c0 .553.447 1 1 1s1-.447 1-1v-2c0-.553-.447-1-1-1zM26.113 9h-.115c-2.116 0-4.106.815-5.615 2.304C18.847 12.82 18 14.842 18 17c0 .553.447 1 1 1s1-.447 1-1c0-1.618.635-3.136 1.787-4.272 1.153-1.137 2.688-1.765 4.3-1.727 3.16.045 5.868 2.753 5.912 5.914.028 2.084-1 4.002-2.752 5.132C26.588 23.762 25 26.794 25 30.158V33c0 .553.447 1 1 1s1-.447 1-1v-2.842c0-2.642 1.276-5.105 3.332-6.432 2.335-1.506 3.706-4.063 3.667-6.84C33.94 12.6 30.4 9.06 26.112 9z"/></svg>