<svg xmlns="http://www.w3.org/2000/svg" viewBox="0 0 56 56"><path d="M40 0c-8.822 0-16 7.178-16 16 0 3.285.998 6.34 2.702 8.884L.292 51.294c-.39.39-.39 1.022 0 1.413C.49 52.902.745 53 1 53s.512-.098.707-.293L6 48.414l7.293 7.293c.195.195.45.293.707.293s.512-.098.707-.293c.39-.39.39-1.023 0-1.414L7.414 47 11 43.414l5.293 5.293c.195.195.45.293.707.293s.512-.098.707-.293c.39-.39.39-1.023 0-1.414L12.414 42 16 38.414l7.293 7.293c.195.195.45.293.707.293s.512-.098.707-.293c.39-.39.39-1.023 0-1.414L17.414 37l10.522-10.522C30.872 29.853 35.186 32 40 32c8.822 0 16-7.178 16-16S48.822 0 40 0zm0 30c-7.72 0-14-6.28-14-14S32.28 2 40 2s14 6.28 14 14-6.28 14-14 14z"/></svg>