<svg xmlns="http://www.w3.org/2000/svg" viewBox="0 0 54.953 54.953"><circle cx="45.021" cy="25.976" r="1"/><circle cx="9.021" cy="25.976" r="1"/><circle cx="12.021" cy="28.976" r="1"/><circle cx="18.021" cy="28.976" r="1"/><circle cx="15.021" cy="31.976" r="1"/><circle cx="21.021" cy="31.976" r="1"/><circle cx="24.021" cy="34.976" r="1"/><circle cx="30.021" cy="34.976" r="1"/><circle cx="33.021" cy="31.976" r="1"/><circle cx="27.021" cy="37.976" r="1"/><circle cx="36.021" cy="28.976" r="1"/><circle cx="42.021" cy="28.976" r="1"/><circle cx="39.021" cy="31.976" r="1"/><path d="M45.56 32.796l9.393-5.367-9.656-5.484 9.656-5.517L27.477.825 0 16.43l9.656 5.516L0 27.43l9.656 5.516L0 38.43l27.477 15.697L54.954 38.43l-9.656-5.484.07-.04c.07-.027.13-.07.19-.11zM27.476 3.126l23.436 13.308-7.637 4.364-15.798 9.026L4.04 16.434l23.437-13.31zM11.13 23.408c.16.332.496.566.89.566.27 0 .513-.11.693-.283l2.262 1.292c-.53.025-.954.455-.954.99 0 .553.45 1 1 1s1-.447 1-1c0-.172-.054-.326-.13-.468l10.33 5.902c-.117.162-.2.35-.2.566 0 .552.45 1 1 1s1-.448 1-1c0-.05-.02-.094-.028-.143l10.052-5.743c.06.496.465.885.977.885.553 0 1-.448 1-1 0-.325-.164-.6-.405-.783l2.202-1.258c.068.015.132.04.204.04.445 0 .808-.293.94-.693l.32-.182 7.633 4.335-1.983 1.133c-.157-.347-.503-.59-.908-.59-.552 0-1 .447-1 1 0 .215.083.404.2.567l-3.946 2.254-6.388 3.65c.078-.142.134-.298.134-.472 0-.552-.448-1-1-1s-1 .448-1 1c0 .537.426.967.957.99l-2.264 1.294c-.18-.175-.423-.285-.694-.285-.552 0-1 .448-1 1 0 .08.028.15.046.226l-4.59 2.623-5.517-3.152c-.13-.4-.493-.695-.938-.695-.073 0-.138.027-.206.042l-2.2-1.257c.24-.183.406-.458.406-.784 0-.552-.448-1-1-1-.512 0-.92.39-.977.887L6.99 29.12c.008-.05.03-.093.03-.144 0-.552-.448-1-1-1-.24 0-.45.095-.62.235l-1.36-.775 7.09-4.026zM50.91 38.433l-23.436 13.39L4.04 38.434l7.634-4.335 15.803 9.027L43.28 34.1l7.632 4.334z"/></svg>