<svg xmlns="http://www.w3.org/2000/svg" viewBox="0 0 57.67 57.67"><path d="M54.162 3.508c-4.678-4.678-12.287-4.678-16.964 0l-9.07 9.07c-3.477 3.477-4.364 8.573-2.67 12.88-1.382-.54-2.865-.83-4.397-.83-3.21 0-6.224 1.243-8.48 3.5l-9.07 9.07c-4.678 4.677-4.678 12.287 0 16.964 2.337 2.34 5.41 3.508 8.48 3.508s6.145-1.17 8.483-3.508l9.07-9.07c3.477-3.477 4.364-8.573 2.67-12.88 1.382.54 2.865.83 4.397.83 3.213 0 6.225-1.243 8.482-3.5l9.07-9.07c4.677-4.677 4.677-12.287 0-16.964zm-26.034 40.17l-9.07 9.07c-3.897 3.896-10.238 3.896-14.136 0-3.896-3.897-3.896-10.238 0-14.136l9.07-9.07c1.88-1.88 4.39-2.914 7.068-2.914 2.34 0 4.55.79 6.325 2.243l-8.59 8.59c-.39.39-.39 1.023 0 1.414.196.195.452.293.708.293s.512-.098.707-.293l8.588-8.588c3.21 3.922 2.988 9.733-.67 13.392zm24.62-24.62l-9.07 9.07c-1.88 1.88-4.39 2.914-7.07 2.914-2.34 0-4.55-.79-6.324-2.243l8.59-8.59c.39-.39.39-1.023 0-1.414s-1.024-.39-1.415 0l-8.59 8.588c-3.21-3.923-2.986-9.734.672-13.393l9.07-9.07C40.562 2.975 43.122 2 45.68 2c2.56 0 5.12.975 7.068 2.923 3.898 3.897 3.898 10.238 0 14.135z"/></svg>