<svg xmlns="http://www.w3.org/2000/svg" viewBox="0 0 60 60"><path d="M38.914 0H6.5v60h47V14.586L38.914 0zm.586 3.414L50.086 14H39.5V3.414zM8.5 58V2h29v14h14v42h-43z"/><path d="M42.5 21h-16c-.552 0-1 .447-1 1s.448 1 1 1h16c.552 0 1-.447 1-1s-.448-1-1-1zM22.875 18.22l-4.3 3.44-1.368-1.367c-.39-.39-1.023-.39-1.414 0s-.39 1.023 0 1.414l2 2c.194.194.45.293.707.293.22 0 .44-.072.624-.22l5-4c.432-.345.5-.974.156-1.405-.344-.432-.974-.5-1.405-.156zM42.5 32h-16c-.552 0-1 .447-1 1s.448 1 1 1h16c.552 0 1-.447 1-1s-.448-1-1-1zM22.875 29.22l-4.3 3.44-1.368-1.367c-.39-.39-1.023-.39-1.414 0s-.39 1.023 0 1.414l2 2c.194.194.45.293.707.293.22 0 .44-.072.624-.22l5-4c.432-.345.5-.974.156-1.405-.344-.432-.974-.5-1.405-.156zM42.5 43h-16c-.552 0-1 .447-1 1s.448 1 1 1h16c.552 0 1-.447 1-1s-.448-1-1-1zM22.875 40.22l-4.3 3.44-1.368-1.367c-.39-.39-1.023-.39-1.414 0s-.39 1.023 0 1.414l2 2c.194.194.45.293.707.293.22 0 .44-.072.624-.22l5-4c.432-.345.5-.974.156-1.405-.344-.432-.974-.5-1.405-.156z"/></svg>