<svg xmlns="http://www.w3.org/2000/svg" viewBox="0 0 57 57"><path d="M40.5 23V11.6C40.5 5.205 34.893 0 28 0S15.5 5.204 15.5 11.6V23h-9v34h44V23h-10zm-23-11.4C17.5 6.308 22.21 2 28 2s10.5 4.307 10.5 9.6V23h-21V11.6zM8.5 45h7.586L8.5 52.586V45zm.707 9.707L18.914 45h9.172l-10 10H8.5c.256 0 .512-.098.707-.293zM40.087 45l-10 10h-9.173l10-10h9.172zm8.413 0v3.586L42.086 55h-9.172l10-10H48.5zm-3.586 10l3.586-3.586V55h-3.586zM8.5 43V25h40v18h-40z"/><circle cx="46.5" cy="31" r="1"/><circle cx="46.5" cy="37" r="1"/><circle cx="28.5" cy="31" r="1"/><circle cx="31.5" cy="28" r="1"/><circle cx="31.5" cy="34" r="1"/><circle cx="34.5" cy="31" r="1"/><circle cx="40.5" cy="31" r="1"/><circle cx="37.5" cy="28" r="1"/><circle cx="43.5" cy="28" r="1"/><circle cx="37.5" cy="34" r="1"/><circle cx="43.5" cy="34" r="1"/><circle cx="28.5" cy="37" r="1"/><circle cx="31.5" cy="40" r="1"/><circle cx="34.5" cy="37" r="1"/><circle cx="40.5" cy="37" r="1"/><circle cx="37.5" cy="40" r="1"/><circle cx="43.5" cy="40" r="1"/><circle cx="22.5" cy="31" r="1"/><circle cx="25.5" cy="28" r="1"/><circle cx="25.5" cy="34" r="1"/><circle cx="22.5" cy="37" r="1"/><circle cx="25.5" cy="40" r="1"/><circle cx="10.5" cy="31" r="1"/><circle cx="16.5" cy="31" r="1"/><circle cx="13.5" cy="28" r="1"/><circle cx="19.5" cy="28" r="1"/><circle cx="13.5" cy="34" r="1"/><circle cx="19.5" cy="34" r="1"/><circle cx="10.5" cy="37" r="1"/><circle cx="16.5" cy="37" r="1"/><circle cx="13.5" cy="40" r="1"/><circle cx="19.5" cy="40" r="1"/></svg>