<svg xmlns="http://www.w3.org/2000/svg" viewBox="0 0 58 58"><path d="M29 30c-2.206 0-4 1.794-4 4v6c0 2.206 1.794 4 4 4s4-1.794 4-4v-6c0-2.206-1.794-4-4-4zm2 10c0 1.103-.897 2-2 2s-2-.897-2-2v-6c0-1.103.897-2 2-2s2 .897 2 2v6z"/><path d="M40 21.314V10.22C40 4.585 35.065 0 29 0S18 4.585 18 10.22v11.094C12.584 24.896 9 31.034 9 38c0 11.028 8.972 20 20 20s20-8.972 20-20c0-6.966-3.584-13.104-9-16.686zm-20-1.157V10.22C20 5.688 24.037 2 29 2s9 3.688 9 8.22v9.938c-.188-.095-.38-.18-.57-.268-.393-.184-.792-.356-1.198-.515-.26-.102-.523-.198-.787-.29-.26-.088-.518-.177-.782-.255-.437-.13-.88-.24-1.324-.34-.194-.044-.388-.085-.583-.123-.523-.1-1.05-.183-1.58-.242-.12-.013-.24-.02-.36-.032C30.214 18.036 29.608 18 29 18s-1.213.036-1.816.092c-.12.01-.24.02-.36.032-.53.06-1.056.14-1.58.242-.194.037-.388.08-.58.122-.446.1-.888.21-1.325.34-.265.08-.524.17-.783.257-.264.09-.527.187-.787.29-.407.157-.805.33-1.198.514-.192.088-.384.172-.572.267zM29 56c-9.925 0-18-8.075-18-18 0-6.537 3.515-12.255 8.743-15.408.92-.554 1.88-1.02 2.873-1.4.176-.068.353-.134.53-.196.274-.095.548-.186.825-.268.34-.1.686-.187 1.034-.266.254-.058.51-.11.765-.156.368-.067.74-.127 1.117-.17.17-.022.34-.04.512-.055.528-.046 1.06-.08 1.6-.08s1.072.034 1.6.08c.172.017.342.035.513.055.377.044.75.104 1.118.17.257.048.512.1.766.157.348.08.693.167 1.033.266.276.08.55.173.823.268.18.062.355.128.53.195.993.38 1.954.848 2.874 1.402C43.485 25.745 47 31.462 47 38c0 9.925-8.075 18-18 18z"/></svg>