<svg xmlns="http://www.w3.org/2000/svg" viewBox="0 0 54 54"><path d="M43 20.113V14.5C43 6.505 35.822 0 27 0S11 6.505 11 14.5v5.613c-3.4.586-6 3.55-6 7.117v19.542C5 50.757 8.243 54 12.23 54h29.54c3.987 0 7.23-3.243 7.23-7.23V27.23c0-3.567-2.6-6.53-6-7.117zM13 14.5C13 7.607 19.28 2 27 2s14 5.607 14 12.5V20H13v-5.5zm34 32.27c0 2.884-2.346 5.23-5.23 5.23H12.23C9.345 52 7 49.654 7 46.77V27.23C7 24.345 9.346 22 12.23 22h29.54c2.884 0 5.23 2.346 5.23 5.23v19.54z"/><path d="M27 28c-2.206 0-4 1.794-4 4v6c0 2.206 1.794 4 4 4s4-1.794 4-4v-6c0-2.206-1.794-4-4-4zm2 10c0 1.103-.897 2-2 2s-2-.897-2-2v-6c0-1.103.897-2 2-2s2 .897 2 2v6z"/></svg>