<svg xmlns="http://www.w3.org/2000/svg" viewBox="0 0 60 60"><path d="M36 16c0-3.31-2.69-6-6-6s-6 2.69-6 6v5h-5v19h22V21h-5v-5zm-10 0c0-2.206 1.794-4 4-4s4 1.794 4 4v5h-8v-5zm13 7v15H21V23h18z"/><path d="M29 32.858V35c0 .553.448 1 1 1s1-.447 1-1v-2.142c1.72-.447 3-2 3-3.858 0-2.206-1.794-4-4-4s-4 1.794-4 4c0 1.86 1.28 3.41 3 3.858zM30 27c1.103 0 2 .897 2 2s-.897 2-2 2-2-.897-2-2 .897-2 2-2z"/><path d="M30 0C15.112 0 3 12.112 3 27c0 14.11 10.88 25.72 24.69 26.895l-4.397 4.398c-.39.39-.39 1.023 0 1.414.195.195.45.293.707.293s.512-.098.707-.293l6-6c.092-.09.165-.202.216-.325.1-.244.1-.52 0-.764-.05-.123-.124-.233-.217-.326l-6-6c-.39-.39-1.022-.39-1.413 0s-.39 1.024 0 1.415l4.164 4.164C14.862 50.594 5 39.928 5 27 5 13.215 16.215 2 30 2s25 11.215 25 25c0 6.633-2.57 12.88-7.238 17.593-.39.393-.386 1.026.007 1.415.39.387 1.024.385 1.413-.007C54.223 40.91 57 34.164 57 27 57 12.112 44.888 0 30 0z"/></svg>