<svg xmlns="http://www.w3.org/2000/svg" viewBox="0 0 60 60"><path d="M36 14c0-3.31-2.69-6-6-6s-6 2.69-6 6v1c0 .553.448 1 1 1s1-.447 1-1v-1c0-2.206 1.794-4 4-4s4 1.794 4 4v7H19v19h22V21h-5v-7zm3 24H21V23h18v15z"/><path d="M30 25c-2.206 0-4 1.794-4 4 0 1.86 1.28 3.41 3 3.858V35c0 .553.448 1 1 1s1-.447 1-1v-2.142c1.72-.447 3-2 3-3.858 0-2.206-1.794-4-4-4zm0 6c-1.103 0-2-.897-2-2s.897-2 2-2 2 .897 2 2-.897 2-2 2z"/><path d="M30 0C15.112 0 3 12.112 3 27c0 14.11 10.88 25.72 24.69 26.895l-4.397 4.398c-.39.39-.39 1.023 0 1.414.195.195.45.293.707.293s.512-.098.707-.293l6-6c.092-.09.165-.202.216-.325.1-.244.1-.52 0-.764-.05-.123-.124-.233-.217-.326l-6-6c-.39-.39-1.022-.39-1.413 0s-.39 1.024 0 1.415l4.164 4.164C14.862 50.594 5 39.928 5 27 5 13.215 16.215 2 30 2s25 11.215 25 25c0 6.633-2.57 12.88-7.238 17.593-.39.393-.386 1.026.007 1.415.39.387 1.024.385 1.413-.007C54.223 40.91 57 34.164 57 27 57 12.112 44.888 0 30 0z"/></svg>