<svg xmlns="http://www.w3.org/2000/svg" viewBox="0 0 56 56"><path d="M25.293 39.293c-.39.39-.39 1.023 0 1.414.195.195.45.293.707.293s.512-.098.707-.293l12-12c.092-.09.165-.202.216-.325.1-.244.1-.52 0-.764-.05-.123-.125-.234-.217-.327l-12-11.997c-.39-.39-1.022-.39-1.413 0s-.39 1.023 0 1.414L35.586 27H5c-.553 0-1 .447-1 1s.447 1 1 1h30.586L25.293 39.293z"/><path d="M51 0H14c-.553 0-1 .447-1 1v21c0 .553.447 1 1 1s1-.447 1-1V2h35v52H15V34c0-.553-.447-1-1-1s-1 .447-1 1v21c0 .553.447 1 1 1h37c.553 0 1-.447 1-1V1c0-.553-.447-1-1-1z"/></svg>