<svg xmlns="http://www.w3.org/2000/svg" viewBox="0 0 56.598 56.598"><path d="M31.02 21.428l-.002.002L.092 52.355l4.243 4.242 40.34-40.342-4.24-4.242-9.415 9.415zM4.334 53.77L2.92 52.355 31.725 23.55l1.414 1.414L4.333 53.77zm30.22-30.22l-1.414-1.414 7.294-7.294 1.414 1.414-7.294 7.294zM40.506 9c.552 0 1-.447 1-1V1c0-.553-.448-1-1-1s-1 .447-1 1v7c0 .553.448 1 1 1zM40.506 23c-.552 0-1 .447-1 1v7c0 .553.448 1 1 1s1-.447 1-1v-7c0-.553-.448-1-1-1zM55.506 15h-7c-.552 0-1 .447-1 1s.448 1 1 1h7c.552 0 1-.447 1-1s-.448-1-1-1zM25.506 17h7c.552 0 1-.447 1-1s-.448-1-1-1h-7c-.552 0-1 .447-1 1s.448 1 1 1zM46.506 11c.256 0 .512-.098.707-.293l4.95-4.95c.39-.39.39-1.023 0-1.414s-1.023-.39-1.414 0l-4.95 4.95c-.392.39-.392 1.023 0 1.414.194.195.45.293.706.293zM47.213 21.293c-.39-.39-1.023-.39-1.414 0s-.392 1.023 0 1.414l4.95 4.95c.194.195.45.293.706.293s.512-.098.707-.293c.39-.39.39-1.023 0-1.414l-4.95-4.95zM33.8 10.707c.194.195.45.293.706.293s.512-.098.707-.293c.39-.39.39-1.023 0-1.414l-4.95-4.95c-.39-.39-1.023-.39-1.414 0s-.392 1.023 0 1.414l4.95 4.95z"/></svg>