<svg xmlns="http://www.w3.org/2000/svg" viewBox="0 0 60 60"><path d="M27 3C12.112 3 0 15.112 0 30s12.112 27 27 27h21V41H27c-6.065 0-11-4.935-11-11s4.935-11 11-11h21V3H27zm19 52h-7V43h7v12zM14 30c0 7.168 5.832 13 13 13h10v12H27C13.215 55 2 43.785 2 30S13.215 5 27 5h10v12H27c-7.168 0-13 5.832-13 13zm32-13h-7V5h7v12zM54 8h1c.552 0 1-.447 1-1s-.448-1-1-1h-1c-.552 0-1 .447-1 1s.448 1 1 1zM50 8h1c.552 0 1-.447 1-1s-.448-1-1-1h-1c-.552 0-1 .447-1 1s.448 1 1 1zM58 8h1c.552 0 1-.447 1-1s-.448-1-1-1h-1c-.552 0-1 .447-1 1s.448 1 1 1zM55 14h-1c-.552 0-1 .447-1 1s.448 1 1 1h1c.552 0 1-.447 1-1s-.448-1-1-1zM50 16h1c.552 0 1-.447 1-1s-.448-1-1-1h-1c-.552 0-1 .447-1 1s.448 1 1 1zM59 14h-1c-.552 0-1 .447-1 1s.448 1 1 1h1c.552 0 1-.447 1-1s-.448-1-1-1zM51 11c0 .553.448 1 1 1h1c.552 0 1-.447 1-1s-.448-1-1-1h-1c-.552 0-1 .447-1 1zM55 11c0 .553.448 1 1 1h1c.552 0 1-.447 1-1s-.448-1-1-1h-1c-.552 0-1 .447-1 1zM55 45h-1c-.552 0-1 .447-1 1s.448 1 1 1h1c.552 0 1-.447 1-1s-.448-1-1-1zM50 47h1c.552 0 1-.447 1-1s-.448-1-1-1h-1c-.552 0-1 .447-1 1s.448 1 1 1zM59 45h-1c-.552 0-1 .447-1 1s.448 1 1 1h1c.552 0 1-.447 1-1s-.448-1-1-1zM55 53h-1c-.552 0-1 .447-1 1s.448 1 1 1h1c.552 0 1-.447 1-1s-.448-1-1-1zM51 53h-1c-.552 0-1 .447-1 1s.448 1 1 1h1c.552 0 1-.447 1-1s-.448-1-1-1zM59 53h-1c-.552 0-1 .447-1 1s.448 1 1 1h1c.552 0 1-.447 1-1s-.448-1-1-1zM54 50c0-.553-.448-1-1-1h-1c-.552 0-1 .447-1 1s.448 1 1 1h1c.552 0 1-.447 1-1zM58 50c0-.553-.448-1-1-1h-1c-.552 0-1 .447-1 1s.448 1 1 1h1c.552 0 1-.447 1-1z"/></svg>