<svg xmlns="http://www.w3.org/2000/svg" viewBox="0 0 60 60"><path d="M27 19h33V3H27C12.112 3 0 15.112 0 30s12.112 27 27 27h33V41H27c-6.065 0-11-4.935-11-11s4.935-11 11-11zm31-2H46V5h12v12zm0 38H46V43h12v12zM14 30c0 7.168 5.832 13 13 13h17v12H27C13.215 55 2 43.785 2 30S13.215 5 27 5h17v12H27c-7.168 0-13 5.832-13 13z"/><path d="M49 12h2v2c0 .553.447 1 1 1s1-.447 1-1v-2h2c.553 0 1-.447 1-1s-.447-1-1-1h-2V8c0-.553-.447-1-1-1s-1 .447-1 1v2h-2c-.553 0-1 .447-1 1s.447 1 1 1zM49 50h6c.553 0 1-.447 1-1s-.447-1-1-1h-6c-.553 0-1 .447-1 1s.447 1 1 1z"/></svg>