<svg xmlns="http://www.w3.org/2000/svg" viewBox="0 0 54 54"><path d="M53.516 1.143c-.3-.182-.674-.19-.983-.027L36 9.87 19.468 1.115c-.013-.007-.028-.01-.04-.015-.05-.022-.098-.04-.148-.054-.028-.008-.055-.017-.083-.023-.055-.01-.11-.015-.168-.017-.026 0-.05-.004-.077-.003-.054.003-.107.013-.16.025-.03.006-.06.01-.09.02-.006 0-.013 0-.02.003l-18 6C.276 7.188 0 7.57 0 8v43c0 .32.154.623.416.812.172.123.377.188.584.188.106 0 .213-.017.316-.052l17.646-5.882 16.657 6.86c.013.005.03.003.043.008.11.04.222.066.337.066.09 0 .18-.015.266-.04.028-.007.054-.02.082-.03.04-.015.082-.026.12-.046l17-9c.327-.173.532-.514.532-.884V2c0-.35-.184-.676-.484-.857zM2 8.72L18 3.39V30.38c-.43.078-.854.166-1.264.274-.534.142-.852.69-.71 1.223.12.448.523.744.966.744.084 0 .17-.01.257-.032.24-.064.5-.096.75-.148v11.84L2 49.612V8.722zm18 23.44c.32-.025.632-.066.96-.073.553-.012.99-.47.98-1.02-.012-.546-.457-.98-1-.98h-.022c-.31.007-.615.024-.918.045V3.662l15 7.94v21.194c-.714-.03-1.44-.115-2.2-.262-.545-.107-1.068.25-1.173.79s.25 1.068.792 1.173c.885.172 1.745.256 2.58.29v15.72L20 44.33V32.16zm32 10.237l-15 7.94v-15.66c.372-.168.62-.548.587-.98-.03-.373-.27-.673-.587-.82V11.602l15-7.94v38.735z"/><path d="M11 9c-2.757 0-5 2.243-5 5 0 2.415 1.72 4.434 4 4.9V21c0 .553.448 1 1 1s1-.447 1-1v-2.1c2.28-.466 4-2.485 4-4.9 0-2.757-2.243-5-5-5zm0 8c-1.654 0-3-1.346-3-3s1.346-3 3-3 3 1.346 3 3-1.346 3-3 3zM45.07 27.673c.12.047.243.068.364.068.4 0 .777-.24.932-.635.47-1.2.847-2.553 1.123-4.024.1-.54-.257-1.063-.8-1.166-.546-.09-1.065.257-1.167.8-.252 1.348-.595 2.58-1.02 3.663-.2.513.053 1.094.567 1.296zM12.805 32.342c-1.207.757-2.295 1.705-3.235 2.82-.356.422-.302 1.053.12 1.41.188.157.417.234.644.234.285 0 .567-.12.765-.355.805-.955 1.736-1.768 2.767-2.413.468-.294.61-.91.316-1.38-.293-.467-.91-.61-1.378-.315zM8.627 38.276c-.502-.23-1.096-.013-1.327.49-1.026 2.225-1.28 4.022-1.29 4.098-.076.547.306 1.05.853 1.125.046.006.093.01.138.01.492 0 .92-.363.99-.862.003-.016.232-1.597 1.126-3.534.23-.503.012-1.096-.49-1.328zM40.423 33.73c.153 0 .31-.036.454-.11 1.292-.66 2.43-1.6 3.384-2.786.347-.43.278-1.06-.153-1.406-.43-.343-1.06-.276-1.406.154-.775.967-1.695 1.726-2.734 2.257-.492.25-.687.853-.435 1.345.18.345.53.544.893.544zM29.17 31.432c-.44-.185-.7-.313-.716-.322-.065-.033-.134-.06-.205-.078-1.084-.278-2.15-.498-3.174-.654-.545-.086-1.056.29-1.14.837-.083.546.292 1.057.838 1.14.926.142 1.893.34 2.877.59.135.064.39.185.75.334.125.052.256.076.384.076.39 0 .763-.23.923-.614.213-.512-.027-1.098-.537-1.31zM46.923 19.93c.022.002.043.003.065.003.523 0 .963-.406.997-.937.062-.96.093-1.978.093-3.02 0-.347-.003-.7-.01-1.058-.01-.553-.49-.973-1.018-.982-.552.01-.992.466-.982 1.018.006.347.01.688.01 1.022 0 1-.03 1.973-.09 2.893-.034.55.384 1.025.935 1.06zM8.293 28.707c.195.195.45.293.707.293s.512-.098.707-.293L11 27.414l1.293 1.293c.195.195.45.293.707.293s.512-.098.707-.293c.39-.39.39-1.023 0-1.414L12.414 26l1.293-1.293c.39-.39.39-1.023 0-1.414s-1.023-.39-1.414 0L11 24.586l-1.293-1.293c-.39-.39-1.023-.39-1.414 0s-.39 1.023 0 1.414L9.586 26l-1.293 1.293c-.39.39-.39 1.023 0 1.414z"/></svg>