<svg xmlns="http://www.w3.org/2000/svg" viewBox="0 0 55.017 55.017"><path d="M51.688 23.013h-10.9c-.552 0-1 .447-1 1s.448 1 1 1h9.103l2.9 27H2.268l3.403-27h9.12c.552 0 1-.447 1-1s-.448-1-1-1H3.906L0 54.013h55.017l-3.33-31z"/><path d="M26.654 38.968c-.147.087-.304.164-.445.255-.22.142-.436.29-.647.445-.445.327-.54.953-.215 1.398.196.267.5.408.808.408.205 0 .412-.063.59-.193.18-.13.36-.256.55-.378.32-.208.66-.403 1.013-.58.467-.238.657-.792.46-1.27.01-.008.02-.014.026-.022 1.81-1.916 7.905-9.096 10.43-21.058.51-2.426.626-4.754.34-6.92-.86-6.574-4.944-10.05-11.812-10.05-6.866 0-10.95 3.476-11.813 10.05-.283 2.167-.168 4.495.344 6.92 2.5 11.846 8.5 18.998 10.37 20.996zm-8.73-27.654c.733-5.592 3.95-8.31 9.83-8.31 5.884 0 9.1 2.718 9.83 8.31.256 1.94.15 4.043-.315 6.247-2.27 10.754-7.68 17.577-9.515 19.647-1.837-2.072-7.246-8.898-9.514-19.646-.464-2.203-.57-4.305-.316-6.246z"/><path d="M27.755 19.925c4.05 0 7.346-3.295 7.346-7.346s-3.294-7.347-7.345-7.347-7.346 3.295-7.346 7.346 3.294 7.345 7.345 7.345zm0-12.69c2.947 0 5.346 2.397 5.346 5.345s-2.397 5.346-5.345 5.346-5.346-2.398-5.346-5.346 2.398-5.346 5.345-5.346zM31.428 37.17c-.54.114-.884.646-.77 1.187.1.47.516.79.978.79.07 0 .14-.006.21-.02.586-.125 1.22-.23 1.886-.314.548-.067.938-.567.87-1.115-.07-.55-.564-.945-1.116-.87-.723.09-1.416.205-2.058.342zM36.6 37.576c.02.537.465.957.997.957h.044l2.002-.084c.55-.026.98-.494.953-1.045-.025-.553-.54-.984-1.044-.954l-1.995.084c-.552.023-.98.49-.956 1.042zM22.433 42.177c-.514.388-1.045.76-1.58 1.107-.463.3-.595.92-.294 1.384.19.295.512.455.84.455.186 0 .374-.052.543-.16.573-.373 1.144-.773 1.695-1.19.44-.332.528-.96.196-1.4-.333-.437-.958-.53-1.4-.196zM44.72 35.583c-.338.237-.777.41-1.346.526-.54.11-.89.64-.777 1.18.098.474.514.8.98.8.066 0 .134-.008.202-.022.84-.174 1.525-.452 2.095-.853l.134-.098c.44-.334.526-.96.193-1.4-.334-.44-.96-.527-1.4-.195l-.083.06zM8.86 43.402c.145-.533-.17-1.082-.704-1.226-.53-.15-1.082.17-1.226.704-.126.464-.2.938-.225 1.405-.005.115-.008.23-.008.353 0 .196.01.392.03.587.052.515.486.898.993.898.033 0 .067-.002.103-.005.55-.057.95-.547.894-1.097-.014-.13-.02-.263-.02-.39 0-.082.003-.165.007-.247.016-.324.068-.655.156-.98zM44.698 27.81c-.794-.106-1.604-.04-2.386.18-.532.15-.84.703-.69 1.234.124.44.525.73.96.73.092 0 .183-.013.273-.04.52-.145 1.055-.19 1.575-.12.562.07 1.052-.312 1.125-.858.074-.55-.31-1.052-.857-1.126zM46.688 32.764c-.163.527.133 1.088.66 1.25.1.03.197.045.295.045.428 0 .823-.276.955-.706.1-.318.16-.64.183-.963.006-.082.01-.166.01-.25 0-.467-.087-.936-.256-1.39-.192-.52-.77-.782-1.285-.59-.52.19-.783.767-.59 1.284.085.232.13.467.13.696l-.004.117c-.012.166-.044.332-.098.507zM17.48 45.164c-.585.275-1.182.53-1.773.76-.515.197-.77.776-.572 1.292.153.396.53.64.933.64.12 0 .242-.02.36-.067.635-.246 1.275-.52 1.903-.814.5-.234.716-.83.48-1.33-.232-.5-.826-.718-1.33-.482zM10.2 41c.162 0 .326-.038.48-.12.287-.158.594-.256.91-.29.135-.016.273-.016.406.002.563.073 1.05-.313 1.122-.86.072-.548-.313-1.05-.86-1.122-.298-.04-.6-.04-.89-.008-.575.063-1.13.24-1.647.52-.484.266-.663.872-.398 1.357.182.333.525.52.88.52zM9.993 48.842c.216.056.436.098.654.124.256.03.512.047.77.047.312 0 .626-.022.94-.062.547-.068.936-.568.866-1.116s-.567-.934-1.117-.867c-.404.052-.812.064-1.216.015-.132-.017-.264-.042-.394-.075-.535-.143-1.08.18-1.22.716-.137.535.183 1.08.717 1.22z"/></svg>