<svg xmlns="http://www.w3.org/2000/svg" viewBox="0 0 55 55"><path d="M54.584 2.19c-.26-.19-.597-.242-.9-.138l-17.73 5.91-16.725-3.935c-.043-.01-.084.004-.126 0-.107-.01-.214-.025-.32-.002l-18 4C.325 8.127 0 8.532 0 9v43c0 .305.138.59.375.78.18.145.4.22.625.22.072 0 .145-.007.217-.022l17.807-3.957 16.802 2.966c.058.01.116.016.174.016.12 0 .24-.024.352-.066.003 0 .007 0 .01-.002l18-7c.385-.15.638-.52.638-.933V3c0-.32-.154-.622-.416-.81zM2 9.8l16-3.555v40.95L2 50.755V9.802zm18-3.54l15 3.53v40.016l-15-2.646v-40.9zm33 37.055L37 49.54V9.72L53 4.39v38.93z"/></svg>