<svg xmlns="http://www.w3.org/2000/svg" viewBox="0 0 57 57"><path d="M52 3c-2.757 0-5 2.243-5 5v2.268L7.964 22.645C7.78 20.607 6.084 19 4 19c-2.206 0-4 1.794-4 4v11c0 2.206 1.794 4 4 4 2.084 0 3.78-1.607 3.964-3.645l3.368 1.068c-.506.455-.913 1.03-1.138 1.722-.328 1.014-.24 2.097.246 3.05.486.955 1.313 1.66 2.326 1.988l14.27 4.623c.403.13.818.195 1.23.195.625 0 1.246-.147 1.82-.44.953-.486 1.66-1.313 1.987-2.326.235-.727.25-1.49.063-2.214L47 46.732V49c0 2.757 2.243 5 5 5s5-2.243 5-5V8c0-2.757-2.243-5-5-5zM30.172 43.616c-.164.506-.518.92-.995 1.162-.477.244-1.02.287-1.523.125l-14.27-4.623c-.506-.164-.92-.517-1.162-.995-.244-.478-.29-1.02-.125-1.523.274-.846 1.06-1.384 1.905-1.384.203 0 .41.03.613.097l14.27 4.623c1.05.34 1.627 1.47 1.287 2.518zM6 34c0 1.103-.897 2-2 2s-2-.897-2-2V23c0-1.103.897-2 2-2s2 .897 2 2v11zm2-1.732v-7.535l39-12.366v32.268L8 32.268zM55 49c0 1.654-1.346 3-3 3s-3-1.346-3-3V8c0-1.654 1.346-3 3-3s3 1.346 3 3v41z"/></svg>