<svg xmlns="http://www.w3.org/2000/svg" viewBox="0 0 60 60"><path d="M42 10c-2.206 0-4 1.794-4 4v1.267L6.955 25.05C6.73 23.336 5.275 22 3.5 22 1.57 22 0 23.57 0 25.5v9C0 36.43 1.57 38 3.5 38c1.776 0 3.23-1.335 3.455-3.05l2.134.67c-.317.347-.57.76-.724 1.233-.578 1.783.402 3.705 2.187 4.283l11.415 3.698c.348.112.7.166 1.045.166 1.435 0 2.772-.917 3.238-2.354.172-.53.192-1.068.108-1.584L38 44.732V46c0 2.206 1.794 4 4 4s4-1.794 4-4V14c0-2.206-1.794-4-4-4zM24.348 42.03c-.238.736-1.03 1.14-1.764.902L11.17 39.234c-.736-.238-1.14-1.03-.902-1.764.24-.734 1.03-1.137 1.763-.9l11.418 3.698c.734.238 1.137 1.03.9 1.763zM5 34.5c0 .827-.673 1.5-1.5 1.5S2 35.327 2 34.5v-9c0-.827.673-1.5 1.5-1.5s1.5.673 1.5 1.5v9zm2-1.634v-5.732l31-9.77v25.272l-31-9.77zM44 46c0 1.103-.897 2-2 2s-2-.897-2-2V14c0-1.103.897-2 2-2s2 .897 2 2v32zM55 29h-1c-.553 0-1 .447-1 1s.447 1 1 1h1c.553 0 1-.447 1-1s-.447-1-1-1zM50 31h1c.553 0 1-.447 1-1s-.447-1-1-1h-1c-.553 0-1 .447-1 1s.447 1 1 1zM59 29h-1c-.553 0-1 .447-1 1s.447 1 1 1h1c.553 0 1-.447 1-1s-.447-1-1-1zM52.828 16.536c.256 0 .512-.098.707-.293l.707-.707c.39-.39.39-1.023 0-1.414s-1.023-.39-1.414 0l-.707.707c-.39.39-.39 1.022 0 1.413.196.195.452.293.708.293zM55.657 13.707c.256 0 .512-.098.707-.293l.707-.707c.392-.39.392-1.023 0-1.414s-1.022-.39-1.413 0L54.95 12c-.39.39-.39 1.023 0 1.414.196.195.45.293.707.293zM50 19.364c.256 0 .512-.098.707-.293l.707-.706c.39-.39.39-1.023 0-1.414s-1.023-.39-1.414 0l-.707.707c-.39.39-.39 1.023 0 1.414.195.197.45.294.707.294zM50.632 23.1l-.948.316c-.524.175-.807.74-.632 1.265.14.42.53.685.948.685.104 0 .212-.017.316-.052l.948-.316c.524-.175.807-.74.632-1.265s-.74-.808-1.264-.632zM53.795 24.1c.104 0 .212-.017.316-.052l.95-.316c.523-.175.806-.74.63-1.265s-.74-.808-1.264-.632l-.948.316c-.524.176-.807.742-.632 1.266.14.42.53.684.95.684zM56.64 22.15c.14.42.53.684.95.684.104 0 .21-.017.315-.05l.948-.316c.524-.175.808-.74.634-1.265-.175-.524-.742-.806-1.265-.634l-.948.314c-.524.176-.807.742-.633 1.265zM56.364 46.586c-.39-.39-1.023-.39-1.414 0s-.39 1.023 0 1.414l.707.707c.196.195.45.293.707.293s.512-.098.707-.293c.392-.39.392-1.023 0-1.414l-.706-.707zM53.535 43.757c-.39-.39-1.023-.39-1.414 0s-.39 1.023 0 1.414l.708.708c.195.195.45.293.707.293s.512-.097.707-.292c.39-.39.39-1.023 0-1.414l-.707-.707zM50.707 40.93c-.39-.392-1.023-.392-1.414 0s-.39 1.022 0 1.413l.707.707c.195.195.45.293.707.293s.512-.098.707-.293c.39-.39.39-1.023 0-1.414l-.707-.707zM53.48 37.85l.947.315c.104.035.212.052.316.052.42 0 .81-.265.948-.684.176-.523-.106-1.09-.63-1.265l-.95-.316c-.52-.177-1.09.108-1.264.632s.108 1.09.633 1.265zM51.265 35.004l-.948-.316c-.523-.177-1.09.108-1.265.632s.107 1.09.632 1.265l.948.316c.104.036.212.053.316.053.42 0 .81-.265.948-.684.175-.525-.107-1.09-.63-1.266zM58.854 37.532l-.948-.315c-.522-.173-1.09.11-1.265.634-.173.524.11 1.09.635 1.266l.948.315c.104.035.21.052.315.052.42 0 .81-.265.95-.685.173-.524-.11-1.09-.634-1.265z"/></svg>