<svg xmlns="http://www.w3.org/2000/svg" viewBox="0 0 56 56"><path d="M28 0C12.56 0 0 12.56 0 28s12.56 28 28 28 28-12.56 28-28S43.44 0 28 0zm0 54C13.663 54 2 42.336 2 28S13.663 2 28 2s26 11.664 26 26-11.663 26-26 26z"/><path d="M15 17h26c.553 0 1-.448 1-1s-.447-1-1-1H15c-.553 0-1 .448-1 1s.447 1 1 1zM45 31H11c-.553 0-1 .448-1 1s.447 1 1 1h34c.553 0 1-.448 1-1s-.447-1-1-1zM45 23H11c-.553 0-1 .448-1 1s.447 1 1 1h34c.553 0 1-.448 1-1s-.447-1-1-1zM41 39H15c-.553 0-1 .448-1 1s.447 1 1 1h26c.553 0 1-.448 1-1s-.447-1-1-1z"/></svg>