<svg xmlns="http://www.w3.org/2000/svg" viewBox="0 0 58 58"><path d="M44 28c-.552 0-1 .447-1 1v6c0 7.72-6.28 14-14 14s-14-6.28-14-14v-6c0-.553-.448-1-1-1s-1 .447-1 1v6c0 8.485 6.644 15.43 15 15.95V56h-5c-.552 0-1 .447-1 1s.448 1 1 1h12c.552 0 1-.447 1-1s-.448-1-1-1h-5v-5.05c8.356-.52 15-7.466 15-15.95v-6c0-.553-.448-1-1-1z"/><path d="M29 46c6.065 0 11-4.935 11-11V11c0-6.065-4.935-11-11-11S18 4.935 18 11v24c0 6.065 4.935 11 11 11zM22.47 4.826c.155.1.33.174.53.174.552 0 1-.448 1-1 0-.148-.036-.286-.094-.412C25.356 2.588 27.11 2 29 2s3.644.59 5.094 1.588C34.036 3.714 34 3.852 34 4c0 .552.448 1 1 1 .2 0 .375-.073.53-.174.59.623 1.09 1.33 1.485 2.1-.002.026-.015.048-.015.074 0 .32.16.59.392.774C37.78 8.777 38 9.862 38 11v1c-.552 0-1 .448-1 1s.448 1 1 1v4c-.552 0-1 .448-1 1s.448 1 1 1v4c-.552 0-1 .448-1 1s.448 1 1 1v4c-.552 0-1 .448-1 1s.448 1 1 1v3c0 .343-.023.68-.06 1.012-.523.033-.94.457-.94.988 0 .377.217.693.525.864-.766 2.272-2.413 4.137-4.536 5.192 0-.02.01-.036.01-.056 0-.552-.448-1-1-1s-1 .448-1 1c0 .27.11.515.285.695-.73.192-1.494.305-2.285.305s-1.554-.113-2.285-.305c.175-.18.285-.424.285-.695 0-.552-.448-1-1-1s-1 .448-1 1c0 .02.01.036.01.056-2.122-1.056-3.77-2.92-4.535-5.192.308-.17.525-.487.525-.864 0-.53-.417-.955-.94-.988-.037-.333-.06-.67-.06-1.012v-3c.552 0 1-.448 1-1s-.448-1-1-1v-4c.552 0 1-.448 1-1s-.448-1-1-1v-4c.552 0 1-.448 1-1s-.448-1-1-1v-4c.552 0 1-.448 1-1s-.448-1-1-1v-1c0-1.138.22-2.223.608-3.226C20.84 7.59 21 7.32 21 7c0-.026-.013-.048-.015-.074.394-.77.894-1.477 1.484-2.1z"/><circle cx="29" cy="4" r="1"/><circle cx="26" cy="7" r="1"/><circle cx="26" cy="13" r="1"/><circle cx="23" cy="10" r="1"/><circle cx="29" cy="10" r="1"/><circle cx="23" cy="16" r="1"/><circle cx="29" cy="16" r="1"/><circle cx="32" cy="7" r="1"/><circle cx="32" cy="13" r="1"/><circle cx="35" cy="10" r="1"/><circle cx="35" cy="16" r="1"/><circle cx="26" cy="19" r="1"/><circle cx="26" cy="25" r="1"/><circle cx="23" cy="22" r="1"/><circle cx="29" cy="22" r="1"/><circle cx="23" cy="28" r="1"/><circle cx="29" cy="28" r="1"/><circle cx="32" cy="19" r="1"/><circle cx="32" cy="25" r="1"/><circle cx="35" cy="22" r="1"/><circle cx="35" cy="28" r="1"/><circle cx="26" cy="31" r="1"/><circle cx="26" cy="37" r="1"/><circle cx="23" cy="34" r="1"/><circle cx="29" cy="34" r="1"/><circle cx="23" cy="40" r="1"/><circle cx="29" cy="40" r="1"/><circle cx="32" cy="31" r="1"/><circle cx="32" cy="37" r="1"/><circle cx="35" cy="34" r="1"/><circle cx="35" cy="40" r="1"/></svg>