<svg xmlns="http://www.w3.org/2000/svg" viewBox="0 0 54 54"><path d="M41.824 0H12.176C5.462 0 0 5.462 0 12.176v29.648C0 48.538 5.462 54 12.176 54h29.648C48.538 54 54 48.538 54 41.824V12.176C54 5.462 48.538 0 41.824 0zM52 41.824C52 47.436 47.435 52 41.824 52H12.176C6.566 52 2 47.436 2 41.824V12.176C2 6.564 6.565 2 12.176 2h29.648C47.434 2 52 6.564 52 12.176v29.648z"/><path d="M42.87 8.866l-22 2.856c-.497.065-.87.49-.87.992V36.737c-1.37-1.328-3.326-2.165-5.5-2.165-4.136 0-7.5 3.013-7.5 6.715S10.364 48 14.5 48s7.5-3.012 7.5-6.714V20.878l20-2.598v12.01c-1.357-1.318-3.285-2.147-5.43-2.147-4.095 0-7.427 3.013-7.427 6.715s3.333 6.714 7.428 6.714c4.097 0 7.43-3.012 7.43-6.714V9.857c0-.288-.124-.562-.34-.75-.217-.19-.506-.28-.79-.24zM14.5 46C11.467 46 9 43.886 9 41.286s2.467-4.715 5.5-4.715 5.5 2.116 5.5 4.716S17.533 46 14.5 46zM22 18.86v-5.267l20-2.597v5.266l-20 2.6zm14.57 20.71c-2.992 0-5.427-2.113-5.427-4.713s2.435-4.715 5.428-4.715S42 32.258 42 34.857s-2.436 4.714-5.43 4.714z"/></svg>