<svg xmlns="http://www.w3.org/2000/svg" viewBox="0 0 60 60"><path d="M43.844 13.013l-19 3c-.486.076-.844.495-.844.987v19.68C22.83 35.642 21.246 35 19.5 35c-3.584 0-6.5 2.69-6.5 6s2.916 6 6.5 6c3.533 0 6.41-2.617 6.492-5.86 0-.014.008-.025.008-.038V23.854l17-2.684v9.51C41.83 29.643 40.246 29 38.5 29c-3.584 0-6.5 2.69-6.5 6s2.916 6 6.5 6 6.5-2.69 6.5-6V14c0-.292-.128-.57-.35-.76-.223-.19-.516-.273-.806-.227zM19.5 45c-2.48 0-4.5-1.794-4.5-4s2.02-4 4.5-4 4.5 1.794 4.5 4-2.02 4-4.5 4zM26 21.83v-3.976l17-2.685v3.975L26 21.83zM38.5 39c-2.48 0-4.5-1.794-4.5-4s2.02-4 4.5-4 4.5 1.794 4.5 4-2.02 4-4.5 4z"/><path d="M60 14h-4v-4h-4V6H8v4H4v4H0v32h4v4h4v4h44v-4h4v-4h4V14zM2 44V16h2v28H2zm4 4V12h2v36H6zm44 4H10V8h40v44zm4-4h-2V12h2v36zm4-4h-2V16h2v28z"/></svg>