<svg xmlns="http://www.w3.org/2000/svg" viewBox="0 0 60 60"><path d="M10 4H0v52h60V4H10zM8 54H2V6h6v48zm50 0H10V6h48v48z"/><path d="M21.5 47c3.533 0 6.41-2.617 6.492-5.86 0-.014.008-.025.008-.038V23.854l17-2.684v9.51C43.83 29.642 42.246 29 40.5 29c-3.584 0-6.5 2.69-6.5 6s2.916 6 6.5 6 6.5-2.69 6.5-6V14c0-.292-.128-.57-.35-.76-.223-.19-.51-.274-.807-.228l-19 3c-.485.077-.843.496-.843.988v19.68C24.83 35.642 23.246 35 21.5 35c-3.584 0-6.5 2.69-6.5 6s2.916 6 6.5 6zm19-8c-2.48 0-4.5-1.794-4.5-4s2.02-4 4.5-4 4.5 1.794 4.5 4-2.02 4-4.5 4zM28 17.854l17-2.685v3.975L28 21.83v-3.976zM21.5 37c2.48 0 4.5 1.794 4.5 4s-2.02 4-4.5 4-4.5-1.794-4.5-4 2.02-4 4.5-4z"/></svg>