<svg xmlns="http://www.w3.org/2000/svg" viewBox="0 0 59.986 59.986"><path d="M51.213 8.78c-11.696-11.697-30.73-11.696-42.426 0C3.12 14.446 0 21.98 0 29.993S3.12 45.54 8.787 51.206c5.848 5.85 13.53 8.772 21.213 8.772s15.365-2.924 21.213-8.772c11.697-11.697 11.697-30.73 0-42.426zM10.2 10.194C15.66 4.736 22.83 2.007 30 2.007c6.858 0 13.713 2.504 19.074 7.498L42 16.58V10.1c0-1.127-.584-2.134-1.563-2.693-.978-.56-2.143-.553-3.115.02-.063.036-.12.08-.174.13L23.906 19.884c-.15.072-.313.11-.48.11h-8.323c-1.71 0-3.104 1.392-3.104 3.103V35.89c0 1.71 1.39 3.104 3.103 3.104h4.482L9.51 49.068C4.665 43.868 2 37.138 2 29.993c0-7.48 2.913-14.51 8.2-19.8zm11.386 26.8h-6.482c-.608 0-1.104-.496-1.104-1.105V23.095c0-.608.495-1.104 1.104-1.104h8.324c.55 0 1.095-.147 1.572-.428.063-.036.122-.08.176-.13L38.42 9.103c.465-.227.868-.054 1.025.036.166.097.555.382.555.96v8.478L21.586 36.993zM40 21.406v27.48c0 .576-.39.86-.556.957-.158.09-.562.262-1.025.037L25.174 37.55c-.054-.05-.113-.094-.176-.13-.225-.132-.467-.23-.714-.3L40 21.407zm9.8 28.385c-10.68 10.68-27.91 10.904-38.874.69l11.488-11.49h1.013c.166 0 .33.038.48.11l13.24 12.328c.054.05.113.094.175.13.492.29 1.033.435 1.574.435.53 0 1.058-.138 1.54-.415.98-.56 1.564-1.567 1.564-2.693v-29.48l8.488-8.488c10.216 10.964 9.99 28.192-.69 38.872z"/></svg>