<svg xmlns="http://www.w3.org/2000/svg" viewBox="0 0 58 58"><path d="M44.5 28c-.552 0-1 .447-1 1v6c0 7.72-6.28 14-14 14s-14-6.28-14-14v-6c0-.553-.448-1-1-1s-1 .447-1 1v6c0 8.485 6.644 15.43 15 15.95V56h-5c-.552 0-1 .447-1 1s.448 1 1 1h12c.552 0 1-.447 1-1s-.448-1-1-1h-5v-5.05c8.356-.52 15-7.466 15-15.95v-6c0-.553-.448-1-1-1z"/><path d="M29.5 46c6.065 0 11-4.935 11-11V11c0-6.065-4.935-11-11-11s-11 4.935-11 11v24c0 6.065 4.935 11 11 11zm-9-35c0-4.963 4.038-9 9-9s9 4.037 9 9v24c0 4.963-4.038 9-9 9s-9-4.037-9-9V11zM52.207 4.293c-.39-.39-1.023-.39-1.414 0l-9 9c-.39.39-.39 1.023 0 1.414.195.195.45.293.707.293s.512-.098.707-.293l9-9c.39-.39.39-1.023 0-1.414z"/><path d="M37.207 20.707c.39-.39.39-1.023 0-1.414s-1.023-.39-1.414 0l-14 14c-.39.39-.39 1.023 0 1.414.195.195.45.293.707.293s.512-.098.707-.293l14-14zM12.793 42.293l-7 7c-.39.39-.39 1.023 0 1.414.195.195.45.293.707.293s.512-.098.707-.293l7-7c.39-.39.39-1.023 0-1.414s-1.023-.39-1.414 0z"/></svg>