<svg xmlns="http://www.w3.org/2000/svg" viewBox="0 0 60 60"><path d="M44.394 13.09L8.634 29.504c-.4.184-.633.605-.575 1.04s.392.783.825.855l15.833 2.653L26.528 49c.053.44.388.792.823.866.058.01.114.015.17.015.375 0 .726-.21.896-.555l17.29-34.882c.19-.38.118-.837-.177-1.14s-.754-.39-1.136-.212zM28.11 45.44l-1.496-12.37c-.054-.44-.39-.792-.828-.865l-13.362-2.24L42.66 16.088l-14.55 29.35z"/><path d="M30 0C13.458 0 0 13.458 0 30s13.458 30 30 30 30-13.458 30-30S46.542 0 30 0zm0 58C14.56 58 2 45.44 2 30S14.56 2 30 2s28 12.56 28 28-12.56 28-28 28z"/></svg>