<svg xmlns="http://www.w3.org/2000/svg" viewBox="0 0 55 55"><path d="M49 0c-3.31 0-6 2.69-6 6 0 1.035.263 2.01.726 2.86l-9.83 9.83C32.543 17.633 30.847 17 29 17s-3.542.634-4.898 1.688l-7.67-7.67C16.786 10.425 17 9.74 17 9c0-2.206-1.794-4-4-4S9 6.794 9 9s1.794 4 4 4c.74 0 1.424-.215 2.02-.567l7.668 7.67C21.634 21.457 21 23.152 21 25s.634 3.542 1.688 4.897L10.024 42.562C8.958 41.595 7.55 41 6 41c-3.31 0-6 2.69-6 6s2.69 6 6 6 6-2.69 6-6c0-1.035-.263-2.01-.726-2.86l12.83-12.83c1.105.86 2.44 1.437 3.897 1.62v10.16c-2.832.478-5 2.942-5 5.91 0 3.31 2.692 6 6 6s6-2.69 6-6c0-2.967-2.166-5.43-5-5.91V32.93c1.46-.183 2.793-.76 3.9-1.62l7.668 7.67C41.215 39.576 41 40.26 41 41c0 2.206 1.794 4 4 4s4-1.794 4-4-1.794-4-4-4c-.74 0-1.424.215-2.02.567l-7.668-7.67C36.366 28.543 37 26.848 37 25s-.634-3.542-1.688-4.897l9.665-9.665C46.042 11.405 47.45 12 49 12c3.31 0 6-2.69 6-6s-2.69-6-6-6zM11 9c0-1.103.897-2 2-2s2 .897 2 2-.897 2-2 2-2-.897-2-2zM6 51c-2.206 0-4-1.794-4-4s1.794-4 4-4 4 1.794 4 4-1.794 4-4 4zm27-2c0 2.206-1.794 4-4 4s-4-1.794-4-4 1.794-4 4-4 4 1.794 4 4zm-4-18c-3.31 0-6-2.69-6-6s2.69-6 6-6 6 2.69 6 6-2.69 6-6 6zm18 10c0 1.103-.897 2-2 2s-2-.897-2-2 .897-2 2-2 2 .897 2 2zm2-31c-2.206 0-4-1.794-4-4s1.794-4 4-4 4 1.794 4 4-1.794 4-4 4z"/></svg>