<svg xmlns="http://www.w3.org/2000/svg" viewBox="0 0 60 60"><path d="M31 16H17v14h14V16zm-2 12H19V18h10v10zM52 16H36c-.553 0-1 .447-1 1s.447 1 1 1h16c.553 0 1-.447 1-1s-.447-1-1-1zM52 22H36c-.553 0-1 .447-1 1s.447 1 1 1h16c.553 0 1-.447 1-1s-.447-1-1-1zM52 28H36c-.553 0-1 .447-1 1s.447 1 1 1h16c.553 0 1-.447 1-1s-.447-1-1-1zM52 34H19c-.553 0-1 .447-1 1s.447 1 1 1h33c.553 0 1-.447 1-1s-.447-1-1-1zM34 40H19c-.553 0-1 .447-1 1s.447 1 1 1h15c.553 0 1-.447 1-1s-.447-1-1-1zM34 46H19c-.553 0-1 .447-1 1s.447 1 1 1h15c.553 0 1-.447 1-1s-.447-1-1-1zM34 52H19c-.553 0-1 .447-1 1s.447 1 1 1h15c.553 0 1-.447 1-1s-.447-1-1-1zM39 54h14V40H39v14zm2-12h10v10H41V42z"/><path d="M59 13c0-.017-.01-.03-.01-.048V0H11v30H1v24c0 3.31 2.69 6 6 6h46c3.303 0 5.99-2.688 5.99-5.99V13.048c0-.017.01-.03.01-.048zM56.99 2v10H13V2h43.99zM3 54V32h8v22c0 2.206-1.794 4-4 4s-4-1.794-4-4zm50 4H11.47c.015-.018.026-.04.04-.057.205-.233.39-.482.557-.745.027-.042.052-.084.078-.128.162-.27.305-.552.423-.848.016-.04.03-.082.045-.123.115-.307.21-.623.273-.95.006-.03.008-.06.014-.09.062-.344.1-.698.1-1.06V14h43.99v40.01c0 2.2-1.79 3.99-3.99 3.99z"/><path d="M47 4H23v6h24V4zm-2 4H25V6h20v2z"/></svg>