<svg xmlns="http://www.w3.org/2000/svg" viewBox="0 0 60 60"><path d="M15 19h9c.553 0 1-.447 1-1s-.447-1-1-1h-9c-.553 0-1 .447-1 1s.447 1 1 1zM15 26h5c.553 0 1-.447 1-1s-.447-1-1-1h-5c-.553 0-1 .447-1 1s.447 1 1 1zM28 26h7c.553 0 1-.447 1-1s-.447-1-1-1h-7c-.553 0-1 .447-1 1s.447 1 1 1zM24.71 25.71c.18-.19.29-.45.29-.71 0-.26-.11-.52-.29-.71-.38-.37-1.04-.37-1.42 0-.18.19-.29.45-.29.71 0 .26.11.52.29.71.19.19.44.29.71.29.26 0 .52-.11.71-.29zM39 26c.27 0 .52-.11.71-.29.18-.19.29-.45.29-.71 0-.26-.11-.52-.29-.71-.38-.37-1.04-.37-1.42 0-.18.19-.29.45-.29.71 0 .26.11.52.29.71.19.19.44.29.71.29zM18 32c0 .553.447 1 1 1h7c.553 0 1-.447 1-1s-.447-1-1-1h-7c-.553 0-1 .447-1 1zM15.71 32.71c.19-.19.29-.45.29-.71 0-.26-.1-.52-.29-.71-.38-.37-1.04-.37-1.42 0-.19.19-.29.44-.29.71 0 .26.11.52.29.71.19.18.45.29.71.29s.52-.11.71-.29zM20.525 37.137c-2.19 1.14-2.927 3.32-3.196 5.582l-1.242-1.04c-.98-.822-2.402.585-1.414 1.414l2.806 2.35c.658.552 1.676.204 1.707-.706.073-2.166.175-4.742 2.348-5.873 1.142-.596.132-2.323-1.01-1.728zM27.175 41.125c-1.385.32-2.96 2.083-3.936.106-.57-1.153-2.296-.14-1.728 1.01.518 1.05 1.5 1.784 2.67 1.932.593.075 1.13-.01 1.687-.226.408-.16 1.936-1.308 2.266-.717.628 1.123 2.356.116 1.727-1.01-.537-.962-1.624-1.342-2.688-1.095z"/><path d="M55.015 0h-4.03c-1.298 0-2.395.84-2.804 2H32V1c0-.553-.447-1-1-1h-9c-.553 0-1 .447-1 1v1H2v58h49v-4.484l1 1.75V59c0 .553.447 1 1 1s1-.447 1-1v-1.734l4-7V2.985C58 1.34 56.66 0 55.015 0zM50 9h6v2h-6V9zM30 2v3h-7V2h7zm-9 2v3h11V4h5v4H16V4h5zm-6 6h24V9h5v44H9V9h5v1h1zm34 48H4V4h10v3H7v48h39V7h-7V4h9v46.266l1 1.75V58zm1.723-7h4.554L53 54.984l-2-3.5-.277-.484zM56 49h-6V13h6v36zM50 7V2.985c0-.543.442-.985.985-.985h4.03c.543 0 .985.442.985.985V7h-6z"/></svg>