<svg xmlns="http://www.w3.org/2000/svg" viewBox="0 0 60 60"><path d="M41.5 2h-6V1c0-.553-.447-1-1-1h-9c-.553 0-1 .447-1 1v1h-19v58h49V2h-13zm11 36.586l-1 1V5h-9V4h10v34.586zM36.086 55H10.5V7h7v3h25V7h7v34.586L36.086 55zM49.5 44.414V55H38.914L49.5 44.414zM33.5 2v3h-7V2h7zm-9 2v3h11V4h5v4h-21V4h5zm-17 0h10v1h-9v52h25.586l-1 1H7.5V4zm28.414 54l1-1H51.5V42.414l1-1V58H35.914z"/><path d="M16.5 18h9c.553 0 1-.447 1-1s-.447-1-1-1h-9c-.553 0-1 .447-1 1s.447 1 1 1zM16.5 26h5c.553 0 1-.447 1-1s-.447-1-1-1h-5c-.553 0-1 .447-1 1s.447 1 1 1zM38.5 24h-7c-.553 0-1 .447-1 1s.447 1 1 1h7c.553 0 1-.447 1-1s-.447-1-1-1zM25.79 24.29c-.19.19-.29.44-.29.71 0 .27.11.52.29.71.19.18.44.29.71.29.27 0 .52-.1.71-.29.18-.19.29-.45.29-.71 0-.26-.11-.52-.29-.71-.38-.37-1.04-.37-1.42 0zM44.21 24.29c-.37-.37-1.04-.37-1.42 0-.19.19-.29.44-.29.71 0 .27.11.52.29.71.19.18.44.29.71.29.27 0 .52-.11.71-.29.18-.19.29-.45.29-.71 0-.26-.11-.52-.29-.71zM28.5 32h-7c-.553 0-1 .447-1 1s.447 1 1 1h7c.553 0 1-.447 1-1s-.447-1-1-1zM16.5 34c.27 0 .52-.11.71-.29.18-.19.29-.45.29-.71 0-.26-.11-.52-.29-.71-.37-.37-1.05-.37-1.42 0-.18.19-.29.44-.29.71 0 .27.11.52.29.71.19.18.44.29.71.29zM19.645 41.166c-2.19 1.14-2.927 3.32-3.196 5.582-.415-.347-.83-.693-1.243-1.04-.98-.82-2.402.586-1.414 1.415l2.806 2.35c.657.552 1.676.204 1.706-.706.073-2.166.175-4.742 2.348-5.873 1.142-.595.132-2.322-1.01-1.728zM26.295 45.155c-1.385.32-2.96 2.083-3.936.106-.57-1.153-2.296-.14-1.728 1.01.517 1.05 1.5 1.784 2.67 1.932.593.075 1.13-.01 1.687-.226.408-.16 1.936-1.308 2.266-.717.628 1.123 2.356.115 1.727-1.01-.537-.962-1.624-1.342-2.688-1.095z"/></svg>