<svg xmlns="http://www.w3.org/2000/svg" viewBox="0 0 58 58"><path d="M3 43c.552 0 1-.447 1-1 0-1.654 1.346-3 3-3s3 1.346 3 3c0 .553.448 1 1 1s1-.447 1-1c0-2.757-2.243-5-5-5s-5 2.243-5 5c0 .553.448 1 1 1zM3 37c.552 0 1-.447 1-1 0-1.654 1.346-3 3-3s3 1.346 3 3c0 .553.448 1 1 1s1-.447 1-1c0-2.757-2.243-5-5-5s-5 2.243-5 5c0 .553.448 1 1 1zM3 31c.552 0 1-.447 1-1 0-1.654 1.346-3 3-3s3 1.346 3 3c0 .553.448 1 1 1s1-.447 1-1c0-2.757-2.243-5-5-5s-5 2.243-5 5c0 .553.448 1 1 1zM3 25c.552 0 1-.447 1-1 0-1.654 1.346-3 3-3s3 1.346 3 3c0 .553.448 1 1 1s1-.447 1-1c0-2.757-2.243-5-5-5s-5 2.243-5 5c0 .553.448 1 1 1zM4 18c0-1.654 1.346-3 3-3s3 1.346 3 3c0 .553.448 1 1 1s1-.447 1-1c0-2.757-2.243-5-5-5s-5 2.243-5 5c0 .553.448 1 1 1s1-.447 1-1z"/><path d="M52.003.004H19V0H6v7.1c-2.28.466-4 2.485-4 4.9 0 .553.448 1 1 1s1-.447 1-1c0-1.654 1.346-3 3-3s3 1.346 3 3c0 .553.448 1 1 1s1-.447 1-1c0-2.415-1.72-4.434-4-4.9V2h9v54H8v-7c0-.553-.448-1-1-1s-1 .447-1 1v1.815C4.84 50.4 4 49.302 4 48c0-1.654 1.346-3 3-3s3 1.346 3 3c0 .553.448 1 1 1s1-.447 1-1c0-2.757-2.243-5-5-5s-5 2.243-5 5c0 2.415 1.72 4.434 4 4.9V58h46.003C54.207 58 56 56.207 56 54.004V4C56 1.797 54.207.004 52.003.004zM19 56V2.004h24V56H19zm26 0V2.004h3V56h-3zm9-1.996c0 1.1-.896 1.996-1.997 1.996H50V2.004h2.003C53.103 2.004 54 2.9 54 4v50.004z"/></svg>