<svg xmlns="http://www.w3.org/2000/svg" viewBox="0 0 60 60"><path d="M15.5 17h13c.553 0 1-.447 1-1s-.447-1-1-1h-13c-.553 0-1 .447-1 1s.447 1 1 1zM15.5 48h13c.553 0 1-.447 1-1s-.447-1-1-1h-13c-.553 0-1 .447-1 1s.447 1 1 1zM15.5 23h29c.553 0 1-.447 1-1s-.447-1-1-1h-29c-.553 0-1 .447-1 1s.447 1 1 1zM15.5 35h29c.553 0 1-.447 1-1s-.447-1-1-1h-29c-.553 0-1 .447-1 1s.447 1 1 1zM15.5 42h29c.553 0 1-.447 1-1s-.447-1-1-1h-29c-.553 0-1 .447-1 1s.447 1 1 1zM15.5 29h14c.553 0 1-.447 1-1s-.447-1-1-1h-14c-.553 0-1 .447-1 1s.447 1 1 1zM44.5 27h-7c-.553 0-1 .447-1 1s.447 1 1 1h7c.553 0 1-.447 1-1s-.447-1-1-1zM32.79 27.29c-.19.19-.29.44-.29.71 0 .26.11.52.29.71.19.19.44.29.71.29.27 0 .52-.11.71-.29.18-.19.29-.44.29-.71 0-.27-.1-.52-.29-.71-.38-.37-1.04-.38-1.42 0z"/><path d="M41.5 2h-6V1c0-.553-.447-1-1-1h-9c-.553 0-1 .447-1 1v1h-19v58h49V2h-13zm-8 0v3h-7V2h7zm-9 2v3h11V4h5v4h-21V4h5zm-7 5v1h25V7h7v48h-39V7h7v2zm35 49h-45V4h10v1h-9v52h43V5h-9V4h10v54z"/></svg>