<svg xmlns="http://www.w3.org/2000/svg" viewBox="0 0 59.864 59.864"><path d="M47.436 0H8.433v53.997h4v5.867l4-2.666 4 2.666v-5.868h27.003c2.204 0 3.997-1.793 3.997-3.996V3.997C51.433 1.792 49.64 0 47.436 0zM10.432 2h28v15.007h-28V2zm22 31.997c-.552 0-1 .448-1 1l.002.01H27.43l.002-.007c0-.556-.448-1.003-1-1.003s-1 .448-1 1l.002.01H21.43l.002-.007c0-.556-.448-1.003-1-1.003s-1 .448-1 1l.002.01H15.43l.002-.007c0-.556-.448-1.003-1-1.003s-1 .448-1 1l.002.01h-3.002v-16h.95c-.528.028-.95.456-.95.99 0 .552.448 1 1 1s1-.448 1-1c0-.534-.422-.962-.95-.99h5.9c-.528.028-.95.456-.95.99 0 .552.448 1 1 1s1-.448 1-1c0-.534-.422-.962-.95-.99h5.9c-.528.028-.95.456-.95.99 0 .552.448 1 1 1s1-.448 1-1c0-.534-.422-.962-.95-.99h5.9c-.528.028-.95.456-.95.99 0 .552.448 1 1 1s1-.448 1-1c0-.534-.422-.962-.95-.99h5.9c-.528.028-.95.456-.95.99 0 .552.448 1 1 1s1-.448 1-1c0-.534-.422-.962-.95-.99h2.95v2.99c-.552 0-1 .448-1 1s.448 1 1 1v4c-.552 0-1 .448-1 1s.448 1 1 1v4c-.552 0-1 .448-1 1l.002.01H33.43l.002-.007c0-.556-.448-1.003-1-1.003zm-14 22.13l-2-1.333-2 1.334v-2.132h4v2.132zm2-4.13h-10v-14.99h28v14.99h-18zm20 0V2h3v49.997h-3zm7-31c.552 0 1-.448 1-1 0-.534-.422-.962-.95-.99h1.95v16h-4v-16h1.95c-.528.028-.95.456-.95.99 0 .552.448 1 1 1zm2 29.003c0 1.1-.896 1.996-1.997 1.996h-2.003v-14.99h4V50zm-4-32.993V2h2.003c1.1 0 1.997.896 1.997 1.996v13.01h-4z"/><circle cx="14.432" cy="22.997" r="1"/><circle cx="20.432" cy="22.997" r="1"/><circle cx="26.432" cy="22.997" r="1"/><circle cx="32.432" cy="22.997" r="1"/><circle cx="11.432" cy="25.997" r="1"/><circle cx="17.432" cy="25.997" r="1"/><circle cx="11.432" cy="31.997" r="1"/><circle cx="17.432" cy="31.997" r="1"/><circle cx="14.432" cy="28.997" r="1"/><circle cx="20.432" cy="28.997" r="1"/><circle cx="23.432" cy="25.997" r="1"/><circle cx="29.432" cy="25.997" r="1"/><circle cx="23.432" cy="31.997" r="1"/><circle cx="29.432" cy="31.997" r="1"/><circle cx="26.432" cy="28.997" r="1"/><circle cx="32.432" cy="28.997" r="1"/><circle cx="35.432" cy="25.997" r="1"/><circle cx="35.432" cy="31.997" r="1"/><circle cx="47.432" cy="25.997" r="1"/><circle cx="47.432" cy="31.997" r="1"/></svg>