<svg xmlns="http://www.w3.org/2000/svg" viewBox="0 0 59 59"><path d="M26.5 2c1.654 0 3 1.346 3 3s-1.346 3-3 3c-.552 0-1 .447-1 1s.448 1 1 1c2.757 0 5-2.243 5-5s-2.243-5-5-5c-.552 0-1 .447-1 1s.448 1 1 1zM32.5 2c1.654 0 3 1.346 3 3s-1.346 3-3 3c-.552 0-1 .447-1 1s.448 1 1 1c2.757 0 5-2.243 5-5s-2.243-5-5-5c-.552 0-1 .447-1 1s.448 1 1 1z"/><path d="M43.4 4c-.466-2.28-2.485-4-4.9-4-.552 0-1 .447-1 1s.448 1 1 1c1.654 0 3 1.346 3 3s-1.346 3-3 3c-.552 0-1 .447-1 1s.448 1 1 1c2.414 0 4.434-1.72 4.9-4h10.1v10h-1c-.552 0-1 .447-1 1s.448 1 1 1h1v8h-1c-.552 0-1 .447-1 1s.448 1 1 1h1v8h-1c-.552 0-1 .447-1 1s.448 1 1 1h1v7h-12v12h-36v-9h1c.552 0 1-.447 1-1s-.448-1-1-1h-1v-8h1c.552 0 1-.447 1-1s-.448-1-1-1h-1v-8h1c.552 0 1-.447 1-1s-.448-1-1-1h-1v-8h1c.552 0 1-.447 1-1s-.448-1-1-1h-1V6h14c.552 0 1-.447 1-1s-.448-1-1-1h-1.816c.414-1.162 1.514-2 2.816-2 1.654 0 3 1.346 3 3s-1.346 3-3 3c-.552 0-1 .447-1 1s.448 1 1 1c2.757 0 5-2.243 5-5s-2.243-5-5-5c-2.414 0-4.434 1.72-4.9 4H3.5v55h52V4H43.4zm.1 43h8.586L43.5 55.586V47zm1.415 10l8.585-8.585V57h-8.585z"/><path d="M30.5 16h-2c-.552 0-1 .447-1 1s.448 1 1 1h2c.552 0 1-.447 1-1s-.448-1-1-1zM24.5 16h-2c-.552 0-1 .447-1 1s.448 1 1 1h2c.552 0 1-.447 1-1s-.448-1-1-1zM18.5 16h-2c-.552 0-1 .447-1 1s.448 1 1 1h2c.552 0 1-.447 1-1s-.448-1-1-1zM40.5 18h2c.552 0 1-.447 1-1s-.448-1-1-1h-2c-.552 0-1 .447-1 1s.448 1 1 1zM46.5 18h2c.552 0 1-.447 1-1s-.448-1-1-1h-2c-.552 0-1 .447-1 1s.448 1 1 1zM36.5 16h-2c-.552 0-1 .447-1 1s.448 1 1 1h2c.552 0 1-.447 1-1s-.448-1-1-1zM13.5 17c0-.553-.448-1-1-1v-4c0-.553-.448-1-1-1s-1 .447-1 1v4c-.552 0-1 .447-1 1s.448 1 1 1v8c-.552 0-1 .447-1 1s.448 1 1 1v8c-.552 0-1 .447-1 1s.448 1 1 1v8c-.552 0-1 .447-1 1s.448 1 1 1v5c0 .553.448 1 1 1s1-.447 1-1v-5c.552 0 1-.447 1-1s-.448-1-1-1v-8c.552 0 1-.447 1-1s-.448-1-1-1v-8c.552 0 1-.447 1-1s-.448-1-1-1v-8c.552 0 1-.447 1-1zM36.5 26h-2c-.552 0-1 .447-1 1s.448 1 1 1h2c.552 0 1-.447 1-1s-.448-1-1-1zM30.5 26h-2c-.552 0-1 .447-1 1s.448 1 1 1h2c.552 0 1-.447 1-1s-.448-1-1-1zM18.5 26h-2c-.552 0-1 .447-1 1s.448 1 1 1h2c.552 0 1-.447 1-1s-.448-1-1-1zM24.5 26h-2c-.552 0-1 .447-1 1s.448 1 1 1h2c.552 0 1-.447 1-1s-.448-1-1-1zM46.5 28h2c.552 0 1-.447 1-1s-.448-1-1-1h-2c-.552 0-1 .447-1 1s.448 1 1 1zM40.5 28h2c.552 0 1-.447 1-1s-.448-1-1-1h-2c-.552 0-1 .447-1 1s.448 1 1 1zM40.5 38h2c.552 0 1-.447 1-1s-.448-1-1-1h-2c-.552 0-1 .447-1 1s.448 1 1 1zM46.5 38h2c.552 0 1-.447 1-1s-.448-1-1-1h-2c-.552 0-1 .447-1 1s.448 1 1 1zM36.5 36h-2c-.552 0-1 .447-1 1s.448 1 1 1h2c.552 0 1-.447 1-1s-.448-1-1-1zM30.5 36h-2c-.552 0-1 .447-1 1s.448 1 1 1h2c.552 0 1-.447 1-1s-.448-1-1-1zM18.5 36h-2c-.552 0-1 .447-1 1s.448 1 1 1h2c.552 0 1-.447 1-1s-.448-1-1-1zM24.5 36h-2c-.552 0-1 .447-1 1s.448 1 1 1h2c.552 0 1-.447 1-1s-.448-1-1-1zM24.5 46h-2c-.552 0-1 .447-1 1s.448 1 1 1h2c.552 0 1-.447 1-1s-.448-1-1-1zM36.5 46h-2c-.552 0-1 .447-1 1s.448 1 1 1h2c.552 0 1-.447 1-1s-.448-1-1-1zM30.5 46h-2c-.552 0-1 .447-1 1s.448 1 1 1h2c.552 0 1-.447 1-1s-.448-1-1-1zM18.5 46h-2c-.552 0-1 .447-1 1s.448 1 1 1h2c.552 0 1-.447 1-1s-.448-1-1-1z"/></svg>