<svg xmlns="http://www.w3.org/2000/svg" viewBox="0 0 55 55"><path d="M54.5 10c0-5.514-4.486-10-10-10-4.47 0-8.26 2.948-9.54 7H5.736C2.85 7 .5 9.35.5 12.235v37.53C.5 52.65 2.85 55 5.735 55h37.53c2.886 0 5.234-2.35 5.234-5.235V19.16c3.527-1.548 6-5.07 6-9.16zm-8 39.765C46.5 51.55 45.05 53 43.265 53H5.735C3.95 53 2.5 51.55 2.5 49.765v-37.53C2.5 10.45 3.95 9 5.735 9H34.55c-.032.33-.05.662-.05 1 0 5.514 4.486 10 10 10 .685 0 1.354-.07 2-.202v29.967zm.654-32.227c-.198.07-.398.13-.6.185-.035.01-.072.02-.108.028-.177.046-.355.085-.534.118-.092.017-.186.03-.28.043-.133.02-.268.04-.402.054-.24.02-.484.036-.73.036-4.41 0-8-3.59-8-8 0-.58.07-1.177.206-1.777C37.516 4.665 40.7 2 44.5 2c4.41 0 8 3.59 8 8 0 3.48-2.238 6.44-5.346 7.538z"/></svg>