<svg xmlns="http://www.w3.org/2000/svg" viewBox="0 0 60.064 60.064"><path d="M59.84 7.897c-.218-.268-.556-.393-.893-.353-.077.004-.15.017-.224.04L.738 23.353c-.426.116-.726.498-.738.94-.01.44.27.837.688.975l21.217 6.95-1.898 15.183c-.05.4.145.79.494.99.156.09.328.134.5.134.214 0 .43-.07.607-.206l7.765-5.945L36.18 52.1c.187.27.493.427.818.427.022 0 .045 0 .068-.002.35-.024.66-.23.82-.542l22.064-43c.184-.352.14-.778-.11-1.086zm-6.945 3.344L22.86 30.43 4.485 24.407l48.41-13.167zM22.288 45.28L23.67 34.23l4.555 6.507-5.937 4.546zm14.58 4.314l-12.45-17.786 32.1-20.508-19.65 38.294z"/></svg>