<svg xmlns="http://www.w3.org/2000/svg" viewBox="0 0 59.999 59.999"><path d="M51.675 21.93c-11.89-11.89-31.233-11.89-43.122 0l-7.94 7.94 7.71 7.71c5.76 5.76 13.417 8.932 21.562 8.932s15.8-3.17 21.56-8.93l7.94-7.942-7.71-7.71zM50.03 36.166c-5.38 5.38-12.535 8.345-20.145 8.345S15.12 41.55 9.74 36.167l-6.3-6.297 6.528-6.527c11.11-11.108 29.186-11.108 40.293 0l6.298 6.297-6.527 6.527z"/><path d="M29.67 16.97c-7.065 0-12.813 5.747-12.813 12.812s5.748 12.813 12.813 12.813 12.813-5.748 12.813-12.813S36.735 16.97 29.67 16.97zm0 23.624c-5.962 0-10.813-4.85-10.813-10.813 0-5.96 4.85-10.812 10.813-10.812s10.813 4.85 10.813 10.813c0 5.964-4.85 10.814-10.813 10.814zM25.857 6c.256 0 .512-.1.707-.294l2.293-2.293V11c0 .55.448 1 1 1s1-.45 1-1V3.412l2.293 2.293c.195.195.45.293.707.293s.512-.1.707-.294c.39-.39.39-1.023 0-1.414l-4-4C30.472.2 30.36.127 30.24.076c-.246-.1-.52-.1-.765 0-.122.05-.233.124-.325.216l-4 4c-.39.39-.39 1.023 0 1.414.195.195.45.293.707.293zM33.15 54.292l-2.293 2.293V49c0-.553-.448-1-1-1s-1 .447-1 1v7.585l-2.293-2.293c-.39-.39-1.023-.39-1.414 0s-.39 1.023 0 1.414l4 4c.092.092.203.165.325.216.122.05.252.077.382.077s.26-.028.382-.078c.12-.05.232-.124.324-.216l4-4c.39-.39.39-1.023 0-1.414s-1.024-.39-1.414 0z"/></svg>