<svg xmlns="http://www.w3.org/2000/svg" viewBox="0 0 60 60"><path d="M60 30c0-4.463-2.94-8.25-6.984-9.533 1.954-3.766 1.354-8.524-1.802-11.68-3.157-3.156-7.914-3.753-11.68-1.8C38.252 2.94 34.464 0 30 0c-4.463 0-8.25 2.94-9.533 6.986-3.767-1.953-8.525-1.353-11.68 1.8C5.63 11.944 5.03 16.7 6.985 20.467 2.94 21.75 0 25.537 0 30s2.94 8.25 6.985 9.533C5.032 43.3 5.63 48.057 8.787 51.213c1.95 1.95 4.51 2.924 7.07 2.924 1.585 0 3.17-.375 4.61-1.122C21.748 57.06 25.536 60 30 60s8.25-2.94 9.533-6.985c1.44.747 3.024 1.122 4.61 1.122 2.56 0 5.12-.975 7.07-2.924 3.156-3.156 3.756-7.914 1.802-11.68C57.06 38.25 60 34.463 60 30zM2 30c0-3.774 2.63-6.938 6.15-7.775.2.242.41.478.637.704l7.07 7.07-7.07 7.07c-.226.227-.436.463-.636.705C4.63 36.938 2 33.775 2 30zm16.687 0L20 28.687v2.627L18.687 30zM20 34.142V38h-9.313l6.586-6.586L20 34.142zm-2.728-5.556L10.687 22H20v3.858l-2.728 2.728zM10.202 49.8c-2.67-2.67-3.047-6.766-1.15-9.848.313.03.628.048.948.048h10v10c0 .32.018.635.048.948-3.083 1.897-7.18 1.52-9.847-1.15zM20 10v10H10c-.32 0-.635.02-.948.048-1.897-3.082-1.52-7.178 1.15-9.847 1.56-1.56 3.607-2.338 5.655-2.338 1.457 0 2.91.402 4.19 1.19-.03.313-.047.628-.047.948zm10-8c3.774 0 6.938 2.63 7.776 6.15-.242.2-.478.41-.704.637L30 15.857l-7.07-7.07c-.227-.226-.464-.436-.705-.636C23.062 4.63 26.225 2 30 2zm1.314 18h-2.627L30 18.687 31.314 20zM22 10.687l6.586 6.586L25.858 20H22v-9.313zM22 22h1.858L22 23.858V22zm0 14.142L23.858 38H22v-1.858zM22 40h3.858l2.728 2.728L22 49.313V40zm8 18c-3.774 0-6.938-2.63-7.776-6.15.242-.2.478-.41.704-.637L30 44.143l7.07 7.07c.227.226.464.436.705.636-.837 3.52-4 6.15-7.775 6.15zm-1.313-18h2.627L30 41.313 28.687 40zM38 49.313l-6.586-6.586L34.142 40H38v9.313zM38 38h-1.858L38 36.142V38zm0-4.686L33.314 38h-6.627L22 33.313v-6.627L26.687 22h6.627L38 26.686v6.628zm0-9.456L36.142 22H38v1.858zM38 20h-3.858l-2.728-2.728L38 10.687V20zm6.143-12.138c2.05 0 4.098.78 5.657 2.34 2.668 2.667 3.046 6.764 1.15 9.846-.314-.03-.63-.048-.95-.048H40V10c0-.32-.018-.635-.048-.948 1.28-.788 2.734-1.19 4.19-1.19zm-1.415 23.552L49.314 38H40v-3.858l2.728-2.728zm-2.728-.1v-2.628L41.314 30 40 31.314zm0-5.456V22h9.314l-6.586 6.586L40 25.858zm9.8 23.94c-2.67 2.67-6.766 3.047-9.848 1.15.03-.313.048-.628.048-.948V40h10c.32 0 .636-.02.95-.048 1.896 3.082 1.518 7.178-1.15 9.847zm2.05-12.023c-.2-.242-.41-.478-.636-.704L44.142 30l7.072-7.07c.226-.227.436-.463.636-.705C55.37 23.063 58 26.227 58 30s-2.63 6.937-6.15 7.775z"/></svg>