<svg xmlns="http://www.w3.org/2000/svg" viewBox="0 0 58 58"><path d="M54.63 10H3.37C1.512 10 0 11.512 0 13.37v35.26C0 50.488 1.512 52 3.37 52h51.26c1.858 0 3.37-1.512 3.37-3.37V13.37c0-1.858-1.512-3.37-3.37-3.37zM56 48.63c0 .756-.614 1.37-1.37 1.37H3.37C2.614 50 2 49.386 2 48.63V13.37c0-.756.614-1.37 1.37-1.37h51.26c.756 0 1.37.614 1.37 1.37v35.26z"/><path d="M30 14c-9.374 0-17 7.626-17 17s7.626 17 17 17 17-7.626 17-17-7.626-17-17-17zm0 32c-8.27 0-15-6.73-15-15s6.73-15 15-15 15 6.73 15 15-6.73 15-15 15zM20 8h19c.553 0 1-.447 1-1s-.447-1-1-1H20c-.553 0-1 .447-1 1s.447 1 1 1z"/></svg>