<svg xmlns="http://www.w3.org/2000/svg" viewBox="0 0 52 52"><path d="M14 24.138c3.07 0 5.57-2.498 5.57-5.568 0-3.072-2.5-5.57-5.57-5.57s-5.57 2.498-5.57 5.57c0 3.07 2.5 5.568 5.57 5.568zM14 15c1.968 0 3.57 1.602 3.57 3.57s-1.602 3.568-3.57 3.568-3.57-1.6-3.57-3.568S12.033 15 14 15z"/><path d="M1 0v52h50V0H1zm2 2h46v26.727l-10.324-9.464c-.196-.18-.454-.268-.72-.262-.265.013-.515.13-.694.326l-9.794 10.727-4.743-4.743c-.374-.373-.972-.392-1.368-.044L4.622 40H3V2zm46 48H3v-8h46v8zM7.65 40l14.323-12.61 10.302 10.3c.39.39 1.023.39 1.414 0s.39-1.023 0-1.414L28.88 31.47l9.18-10.055L49 31.44V40H7.65z"/></svg>