<svg xmlns="http://www.w3.org/2000/svg" viewBox="0 0 57 57"><path d="M5 53h47V19H5v34zm45-2H8.65l14.323-12.61 10.302 10.3c.39.39 1.023.39 1.414 0s.39-1.023 0-1.414L29.88 42.47l9.18-10.055L50 42.44V51zM7 21h43v18.727l-10.324-9.464c-.196-.18-.458-.28-.72-.262-.265.013-.515.13-.694.326l-9.794 10.727-4.743-4.743c-.374-.373-.972-.39-1.368-.044L7 49.786V21z"/><path d="M15 24c-3.07 0-5.57 2.498-5.57 5.57 0 3.07 2.5 5.567 5.57 5.567s5.57-2.498 5.57-5.568c0-3.072-2.5-5.57-5.57-5.57zm0 9.138c-1.968 0-3.57-1.6-3.57-3.568S13.033 26 15 26s3.57 1.602 3.57 3.57-1.602 3.568-3.57 3.568z"/><path d="M49.38 15c-1.79-1.586-11.313-9.958-16.748-13.415C31.72.615 30.434 0 29 0s-2.72.615-3.632 1.585C19.933 5.042 10.41 13.415 8.62 15H1v42h55V15h-6.62zM26.07 4.37c.008-.044.027-.084.038-.126.145-.535.415-.95.66-1.224.005-.005.006-.012.01-.018C27.33 2.392 28.117 2 29 2s1.672.39 2.22 1.002c.006.005.007.012.012.018.245.275.515.69.66 1.225.01.042.03.082.04.125.042.194.068.404.068.63 0 1.654-1.346 3-3 3s-3-1.346-3-3c0-.226.026-.436.07-.63zM24 4.95V5c0 2.757 2.243 5 5 5s5-2.243 5-5v-.05c4.17 3.033 9.504 7.58 12.345 10.05h-34.69C14.495 12.53 19.83 7.983 24 4.95zM54 55H3V17h51v38z"/></svg>