<svg xmlns="http://www.w3.org/2000/svg" viewBox="0 0 57.502 57.502"><path d="M20.832 12.125c-5.204 0-9.438 4.233-9.438 9.438S15.628 31 20.832 31s9.438-4.233 9.438-9.438-4.234-9.437-9.438-9.437zm0 16.875c-4.1 0-7.438-3.337-7.438-7.438s3.337-7.438 7.438-7.438 7.438 3.337 7.438 7.438S24.933 29 20.832 29z"/><path d="M52.05 13.078C50.93 4.522 45.61 0 36.67 0c-8.656 0-12.434 3.722-14.084 7.065-.57-.04-1.152-.065-1.754-.065-8.94 0-14.26 4.522-15.38 13.078-.374 2.84-.223 5.897.45 9.088 3.338 15.823 11.395 25.31 13.784 27.84.297.315.715.496 1.146.496.43 0 .85-.18 1.146-.495 1.52-1.61 5.34-6.055 8.774-13.15 2.166 3.27 4.015 5.348 4.77 6.148.298.316.716.498 1.147.498.432 0 .85-.182 1.145-.496 2.39-2.532 10.446-12.023 13.783-27.84.674-3.19.826-6.25.453-9.09zM20.83 55.3C18.65 52.9 11 43.64 7.86 28.755c-.627-2.97-.77-5.8-.427-8.416C8.42 12.814 12.928 9 20.833 9c3.306 0 6.01.677 8.12 2.005 3.814 2.513 4.947 7.06 5.277 9.585.044.328.077.662.105 1.005l.008.09c.024.325.04.66.052 1.008.042 1.935-.147 3.96-.59 6.06C30.663 43.64 23.015 52.9 20.83 55.3zm9.81-45.59C31.965 7.997 34.204 7 36.812 7c4.1 0 7.438 3.337 7.438 7.438s-3.336 7.438-7.437 7.438c-.148 0-.297-.006-.453-.017-.032-.6-.072-1.2-.15-1.78-.615-4.71-2.51-8.187-5.57-10.37zm19.003 12.044C46.503 36.634 38.856 45.896 36.67 48.3c-.948-1.04-2.822-3.264-4.926-6.596 1.576-3.598 3.012-7.775 4.016-12.538.384-1.82.578-3.592.622-5.31.144.006.29.02.43.02 5.205 0 9.44-4.234 9.44-9.44S42.017 5 36.81 5c-3.335 0-6.206 1.366-7.893 3.686-1.248-.62-2.644-1.068-4.185-1.345C26.795 3.81 30.79 2 36.67 2c7.904 0 12.41 3.814 13.398 11.338.344 2.616.2 5.447-.425 8.416z"/></svg>