<svg xmlns="http://www.w3.org/2000/svg" viewBox="0 0 60 60"><path d="M31.354 26c3.86 0 7-3.14 7-7s-3.14-7-7-7-7 3.14-7 7 3.14 7 7 7zm0-12c2.757 0 5 2.243 5 5s-2.243 5-5 5-5-2.243-5-5 2.243-5 5-5z"/><path d="M31.177 54.757L46.517 32.6c5.755-7.672 4.922-20.28-1.78-26.982C41.115 1.995 36.3 0 31.177 0s-9.938 1.995-13.56 5.617C10.914 12.32 10.08 24.93 15.813 32.57l15.364 22.187zM19.03 7.03C22.276 3.788 26.59 2 31.178 2s8.9 1.787 12.146 5.03c6.05 6.05 6.794 17.438 1.573 24.4l-13.72 19.813L17.437 31.4c-5.2-6.932-4.455-18.32 1.595-24.37zM1 57.586l-.707.707c-.39.39-.39 1.023 0 1.414.195.195.45.293.707.293s.512-.098.707-.293L2.414 59c.39-.39.39-1.023 0-1.414s-1.023-.39-1.414 0zM8.616 52c-.552 0-1 .447-1 1s.448 1 1 1h1.82c.552 0 1-.447 1-1s-.448-1-1-1h-1.82zM6.275 53.725c-.39-.39-1.023-.39-1.414 0l-1.286 1.287c-.39.39-.39 1.023 0 1.414.195.195.45.293.707.293s.513-.1.708-.294l1.287-1.287c.39-.392.39-1.025 0-1.415zM19.54 52c-.553 0-1 .447-1 1s.447 1 1 1h1.82c.55 0 1-.447 1-1s-.45-1-1-1h-1.82zM14.077 52c-.552 0-1 .447-1 1s.448 1 1 1h1.82c.553 0 1-.447 1-1s-.447-1-1-1h-1.82zM25 52c-.552 0-1 .447-1 1s.448 1 1 1h1c.552 0 1-.447 1-1s-.448-1-1-1h-1z"/><path d="M1 53.758c.256 0 .512-.098.707-.293l3.876-3.876c.095-.096.2-.18.35-.273l.192-.104c.035-.02.07-.042.106-.058l.375-.115c.13-.025.263-.04.395-.04h15c.552 0 1-.447 1-1s-.448-1-1-1H7c-.256 0-.52.026-.79.08-.097.02-.19.048-.28.078l-.13.04c-.113.03-.225.063-.327.105-.12.05-.23.11-.342.173l-.094.052c-.085.043-.17.087-.257.146-.222.147-.427.316-.612.5L.292 52.052c-.39.392-.39 1.024 0 1.415.196.195.452.293.708.293zM58.293 48.707c.256 0 .512-.098.707-.293l.707-.707c.39-.39.39-1.023 0-1.414s-1.023-.39-1.414 0l-.707.707c-.39.39-.39 1.023 0 1.414.195.195.45.293.707.293zM54.566 50.02l-1.51 1.51c-.39.39-.39 1.023 0 1.414.195.195.45.293.707.293s.512-.098.707-.293l1.51-1.51c.39-.39.39-1.023 0-1.414s-1.023-.39-1.414 0zM47.675 52c-.553 0-1 .447-1 1s.447 1 1 1h2.135c.553 0 1-.447 1-1s-.447-1-1-1h-2.135zM41.27 52c-.552 0-1 .447-1 1s.448 1 1 1h2.135c.552 0 1-.447 1-1s-.448-1-1-1H41.27zM36 52c-.552 0-1 .447-1 1s.448 1 1 1h1c.552 0 1-.447 1-1s-.448-1-1-1h-1z"/><path d="M58.293 52.535l-3.876 3.876c-.094.095-.197.18-.347.272l-.188.102c-.04.022-.08.047-.12.063-.03.013-.063.02-.096.03l-.278.083c-.127.026-.257.04-.388.04H7.89l-1.517 1.22c-.43.348-.5.978-.152 1.407.198.245.488.373.78.373.22 0 .442-.072.626-.22l.97-.78H53c.26 0 .524-.026.78-.078.1-.02.197-.05.294-.08l.125-.038c.11-.03.222-.064.334-.11.117-.05.227-.11.337-.172l.1-.054c.086-.043.17-.088.247-.14.22-.147.428-.316.614-.503l3.877-3.876c.39-.392.39-1.024 0-1.415s-1.023-.39-1.414 0zM39 48c0 .553.448 1 1 1h12.172l3.293-3.293c.39-.39.39-1.023 0-1.414s-1.023-.39-1.414 0L51.345 47H40c-.552 0-1 .447-1 1z"/></svg>