<svg xmlns="http://www.w3.org/2000/svg" viewBox="0 0 60 60"><path d="M45.467 14.116c-.326-.174-.723-.15-1.03.058l-22 15c-.273.186-.437.495-.437.826s.164.64.437.826l22 15c.17.115.366.174.563.174.16 0 .32-.038.467-.116.328-.173.533-.513.533-.884V15c0-.37-.205-.71-.533-.884zM44 43.106L24.775 30 44 16.893v26.214z"/><path d="M30 0C13.458 0 0 13.458 0 30s13.458 30 30 30 30-13.458 30-30S46.542 0 30 0zm0 58C14.56 58 2 45.44 2 30S14.56 2 30 2s28 12.56 28 28-12.56 28-28 28z"/><path d="M13 46h7V14h-7v32zm2-30h3v28h-3V16z"/></svg>