<svg xmlns="http://www.w3.org/2000/svg" viewBox="0 0 56.414 56.414"><path d="M56.414 11.09L45.3 0H31.294l-5.52 5.5C12.054 4.357.99 12.077.834 12.188c-.45.32-.554.945-.232 1.395.196.272.503.418.815.418.2 0 .404-.06.58-.187.14-.1 9.712-6.776 21.88-6.42L6 25.214l.007.008L0 31.214l25.146 25.2 10.04-10.012c2.062 1.08 4.46 1.612 6.834 1.61 3.5 0 6.935-1.137 9.1-3.303 7.368-7.368 4.444-15.45 3.444-17.633l1.85-1.845V11.09zM44.474 2l9.94 9.92V24.4L34.876 43.872c-4.084-2.928-5.327-8.422-3.493-15.626.137-.535-.187-1.08-.722-1.216-.536-.142-1.078.188-1.215.723-2.59 10.167.89 15.18 4 17.547l-2.294 2.286L8.837 25.224 26.516 7.59c4.198.48 8.63 1.866 13.046 4.667-.04.22-.068.446-.068.678 0 2.17 1.765 3.935 3.935 3.935s3.935-1.765 3.935-3.935S45.6 9 43.43 9c-1.217 0-2.292.566-3.014 1.436-4.09-2.557-8.187-3.982-12.118-4.622L32.12 2h12.353zm-2.66 11.8c.442.332 1.07.243 1.4-.2.33-.44.24-1.068-.2-1.4-.31-.23-.62-.434-.93-.65.35-.34.823-.55 1.345-.55 1.066 0 1.935.868 1.935 1.936 0 1.066-.868 1.935-1.936 1.935-.804 0-1.493-.49-1.786-1.19.057.042.114.077.17.12zM2.828 31.217l4.592-4.58 22.322 22.37-4.592 4.58-22.322-22.37zm46.88 12.076c-2.577 2.574-8.37 3.748-13.03 1.62l16.374-16.33c.995 2.475 2.605 8.76-3.345 14.71z"/></svg>