<svg xmlns="http://www.w3.org/2000/svg" viewBox="0 0 60 60"><path d="M50 32c2.757 0 5-2.243 5-5s-2.243-5-5-5-5 2.243-5 5 2.243 5 5 5zm0-8c1.654 0 3 1.346 3 3s-1.346 3-3 3-3-1.346-3-3 1.346-3 3-3zM42 43H18c-.553 0-1 .447-1 1s.447 1 1 1h24c.553 0 1-.447 1-1s-.447-1-1-1zM42 48H18c-.553 0-1 .447-1 1s.447 1 1 1h24c.553 0 1-.447 1-1s-.447-1-1-1z"/><path d="M51 17V0H9v17H0v34h6v3h3v6h42v-6h3v-3h6V17h-9zM11 2h38v15H11V2zM9 19h49v16H2V19h7zM8 52v-7c0-.553-.447-1-1-1s-1 .447-1 1v4H2V37h7v15H8zm41 6H11V37h38v21zm5-9v-4c0-.553-.447-1-1-1s-1 .447-1 1v7h-1V37h7v12h-4z"/></svg>