<svg xmlns="http://www.w3.org/2000/svg" viewBox="0 0 57.945 57.945"><path d="M50.157 9.178l2.012-2.012c.39-.39.39-1.023 0-1.414s-1.024-.39-1.415 0l-2.01 2.01C38.77-1.543 23.425-2.606 12.282 5.247c-1.96-1.753-4.973-1.707-6.855.176-1.882 1.882-1.93 4.895-.176 6.855-8.044 11.414-6.737 27.243 3.207 37.187 5.653 5.653 13.08 8.48 20.506 8.48s14.853-2.827 20.506-8.48c11.067-11.07 11.292-28.932.687-40.287zM6.84 6.838c.567-.568 1.32-.88 2.122-.88s1.555.313 2.12.88c.08.08.142.17.21.256l.06.077c.332.445.524.96.58 1.482v.006c.02.168.02.337.01.506 0 .016-.003.03-.004.047-.014.156-.038.31-.074.46-.01.037-.02.072-.032.108-.036.132-.08.262-.133.39-.03.067-.07.132-.105.197-.05.093-.094.187-.153.275-.105.155-.222.303-.36.44-.14.14-.292.262-.454.367-.012.008-.025.013-.036.02-.645.405-1.436.543-2.18.412-.02-.005-.042-.01-.062-.013-.135-.027-.267-.07-.398-.113-.08-.03-.16-.056-.237-.092-.057-.025-.11-.056-.165-.084-.13-.07-.256-.14-.376-.23l-.016-.012c-.11-.08-.22-.158-.317-.256-1.17-1.17-1.17-3.073 0-4.243zM48.055 48.05C37.527 58.58 20.398 58.58 9.87 48.05.626 38.807-.607 24.096 6.847 13.474c.212.1.43.177.655.245.038.01.076.024.114.034.216.06.435.108.66.14l.12.01c.188.022.374.056.566.056.482 0 .947-.09 1.397-.222.093-.027.186-.052.278-.084.156-.056.308-.118.457-.19.135-.062.265-.135.395-.21.11-.065.223-.126.33-.2.237-.165.467-.347.677-.558.217-.217.403-.454.572-.7.063-.094.116-.19.173-.287.09-.152.172-.306.245-.466.06-.128.114-.256.16-.388.045-.123.078-.25.112-.375.165-.605.214-1.23.148-1.85-.006-.055-.008-.11-.016-.164-.03-.208-.074-.41-.13-.613-.015-.06-.033-.12-.052-.18-.064-.208-.137-.41-.23-.608l-.005-.017C23.825-.418 38.042.588 47.315 9.192l-3.538 3.54c-8.622-7.875-22.03-7.668-30.37.67-8.578 8.58-8.578 22.535 0 31.113 4.29 4.29 9.923 6.434 15.557 6.434s11.268-2.146 15.557-6.435c3.462-3.46 5.647-8.01 6.243-12.87.82-.22 1.6-.63 2.243-1.272 1.948-1.95 1.948-5.122 0-7.07-.898-.9-2.056-1.363-3.234-1.434-.97-2.86-2.53-5.506-4.567-7.738l3.54-3.54c9.824 10.575 9.6 27.17-.69 37.46zm1.415-24.21c.767 0 1.535.292 2.12.876 1.17 1.17 1.17 3.073 0 4.243-.435.433-.97.704-1.533.816l-.29.03c-.447.043-.887-.01-1.293-.15-.01-.003-.02-.005-.03-.01-.183-.063-.356-.15-.522-.25-.022-.013-.047-.02-.07-.035-.18-.113-.35-.247-.504-.4-1.17-1.17-1.17-3.074 0-4.244.605-.604 1.318-.793 1.81-.845l.293-.03h.02zm-1.74-1.677c-.277.103-.544.235-.803.39-.054.03-.112.052-.165.085-.293.19-.573.407-.83.664-1.95 1.95-1.95 5.122 0 7.07.218.22.457.407.706.577.097.066.2.12.3.18.15.087.303.17.462.242.136.062.272.115.412.164.122.042.245.077.37.11.173.045.345.088.52.115.016.003.03.01.044.01-.604 4.282-2.585 8.272-5.643 11.33-7.8 7.8-20.486 7.8-28.285 0-7.798-7.798-7.798-20.486 0-28.284 3.9-3.9 9.02-5.848 14.143-5.848 4.81 0 9.605 1.74 13.4 5.177l-4.24 4.242c-2.542-2.206-5.752-3.42-9.16-3.42-3.743 0-7.26 1.453-9.898 4.093s-4.094 6.155-4.094 9.9 1.454 7.26 4.094 9.898 6.155 4.094 9.9 4.094 7.26-1.454 9.898-4.094 4.094-6.155 4.094-9.9c0-3.406-1.215-6.616-3.42-9.157l4.238-4.238c1.735 1.92 3.11 4.154 3.987 6.586l-.03.015zm-19.475 7.503c.195.195.45.293.707.293s.512-.1.707-.294l8.45-8.45c1.83 2.16 2.835 4.87 2.835 7.743 0 3.21-1.246 6.223-3.508 8.484s-5.275 3.508-8.485 3.508-6.224-1.246-8.485-3.508-3.508-5.275-3.508-8.485 1.245-6.225 3.507-8.486 5.275-3.508 8.485-3.508c2.873 0 5.584 1.004 7.744 2.835l-8.45 8.452c-.392.39-.392 1.023 0 1.414z"/></svg>