<svg xmlns="http://www.w3.org/2000/svg" viewBox="0 0 60 60"><path d="M56 4.5H33c-1.2 0-2.266.542-3 1.382-.734-.84-1.8-1.382-3-1.382H4c-2.206 0-4 1.794-4 4v39c0 2.206 1.794 4 4 4h22c1.157 0 3 1.373 3 3 0 .553.448 1 1 1s1-.447 1-1c0-1.627 1.843-3 3-3h22c2.206 0 4-1.794 4-4v-39c0-2.206-1.794-4-4-4zM29 50.66c-.908-.725-2-1.16-3-1.16H4c-1.103 0-2-.897-2-2v-39c0-1.103.897-2 2-2h23c1.103 0 2 .897 2 2v42.16zm29-3.16c0 1.103-.897 2-2 2H34c-1 0-2.092.436-3 1.16V8.5c0-1.103.897-2 2-2h23c1.103 0 2 .897 2 2v39z"/></svg>