<svg xmlns="http://www.w3.org/2000/svg" viewBox="0 0 60 60"><path d="M34.925 20l-8.513 6.19c-.447.325-.546.95-.22 1.397.194.27.5.412.81.412.203 0 .408-.064.586-.192L39.7 19l-12.112-8.81c-.448-.324-1.073-.226-1.396.222-.325.446-.227 1.072.22 1.396L34.926 18H23c-7.168 0-13 5.832-13 13 0 .553.447 1 1 1s1-.447 1-1c0-6.065 4.935-11 11-11h11.925z"/><path d="M30 0C13.458 0 0 13.458 0 30s13.458 30 30 30 30-13.458 30-30S46.542 0 30 0zm0 58C14.56 58 2 45.44 2 30S14.56 2 30 2s28 12.56 28 28-12.56 28-28 28z"/><path d="M48 28c-.553 0-1 .447-1 1 0 6.065-4.935 11-11 11H24.075l8.513-6.19c.447-.325.546-.95.22-1.397-.323-.447-.948-.546-1.395-.22L19.3 41l12.112 8.81c.178.128.383.19.587.19.31 0 .613-.143.81-.412.324-.446.226-1.072-.222-1.396L24.075 42H36c7.168 0 13-5.832 13-13 0-.553-.447-1-1-1z"/></svg>