<svg xmlns="http://www.w3.org/2000/svg" viewBox="0 0 60 60"><path d="M38.914 0H6.5v60h47V14.586L38.914 0zm.586 3.414L50.086 14H39.5V3.414zM8.5 58V2h29v14h14v42h-43z"/><path d="M34.5 37c.552 0 1-.447 1-1s-.448-1-1-1h-17c-.552 0-1 .447-1 1s.448 1 1 1h17zM44.5 30h-7c-.552 0-1 .447-1 1s.448 1 1 1h7c.552 0 1-.447 1-1s-.448-1-1-1zM21.5 31c0 .553.448 1 1 1h10c.552 0 1-.447 1-1s-.448-1-1-1h-10c-.552 0-1 .447-1 1zM16.79 30.29c-.18.19-.29.45-.29.71 0 .26.11.52.29.7.18.19.44.3.71.3s.52-.11.71-.29c.18-.19.29-.45.29-.71 0-.26-.11-.52-.29-.71-.37-.37-1.06-.36-1.42 0zM38.79 35.29c-.18.19-.29.44-.29.71 0 .27.1.52.29.71.19.18.45.29.71.29.26 0 .52-.11.71-.29.19-.19.29-.44.29-.71 0-.26-.11-.52-.29-.71-.38-.37-1.04-.37-1.42 0zM43.79 35.29c-.18.19-.29.44-.29.71 0 .27.1.52.29.71.19.18.45.29.71.29.26 0 .52-.11.71-.3.19-.19.29-.44.29-.7 0-.26-.11-.52-.29-.71-.38-.37-1.04-.37-1.42 0zM23.025 40.166c-2.19 1.14-2.927 3.32-3.196 5.582-.415-.347-.83-.693-1.243-1.04-.98-.82-2.402.586-1.414 1.415l2.806 2.35c.657.552 1.675.204 1.706-.706.073-2.166.175-4.742 2.348-5.873 1.143-.595.132-2.322-1.01-1.728zM36.455 44.108c-1.458-.092-3.592 2.155-4.716.153-.26-.463-.914-.637-1.37-.358-1.415.87-3.266 2.12-4.755.5-.873-.95-2.285.468-1.414 1.414 1.87 2.033 4.277 1.415 6.4.263.478.534 1.07.925 1.837 1.08.792.16 4.025-1.14 4.2-.9.752 1.028 2.488.03 1.727-1.01-.517-.707-.993-1.084-1.91-1.142zM28.666 23.963l.674-.48-.344-.75c-.312-.683-.813-1.213-1.45-1.533l-2.12-1.082c.975-.623 1.676-1.56 2.095-2.8.685-.418 1.116-1.16 1.116-1.985v-.667c0-.677-.294-1.308-.794-1.745-.357-1.897-1.644-3.95-5.54-3.95-.153 0-.303.006-.45.018-.524.043-1.286 0-1.938-.438-.303-.204-.458-.362-.534-.46-.317-.402-.85-.543-1.324-.35-.474.196-.752.67-.694 1.18.03.257.073.557.138.884.084.42.09.54.086.573-.008.035-.066.16-.112.26-.07.15-.156.334-.257.58-.217.53-.375 1.106-.47 1.72-.49.438-.78 1.063-.78 1.73v.667c0 .826.432 1.567 1.116 1.984.417 1.235 1.115 2.17 2.083 2.793L16.962 21.2c-.613.334-1.09.867-1.382 1.54l-.32.742.656.47c1.88 1.34 4.088 2.05 6.386 2.05 2.29 0 4.49-.704 6.364-2.037zm-10.65-1.056l2.445-1.204c.52-.257.843-.776.843-1.355v-1.422l-.604-.26c-.913-.393-1.507-1.152-1.82-2.322l-.143-.533-.527-.163c-.116-.036-.24-.15-.24-.313v-.667c0-.142.095-.242.184-.29l.47-.25.054-.528c.062-.596.193-1.14.39-1.623.087-.21.16-.368.22-.497.156-.332.25-.578.284-.855.73.305 1.56.425 2.44.358.095-.008.192-.012.29-.012 2.92 0 3.47 1.335 3.623 2.64l.06.522.467.245c.09.047.185.147.185.29v.667c0 .164-.125.277-.24.313l-.527.164-.143.534c-.313 1.17-.908 1.93-1.82 2.32l-.603.262v1.428c0 .57.315 1.086.825 1.347l2.414 1.234c-2.62 1.41-5.916 1.4-8.528-.027z"/></svg>