<svg xmlns="http://www.w3.org/2000/svg" viewBox="0 0 57 57"><path d="M56.46 8.625c-.332-.172-.73-.145-1.035.07L29 27.276V9.5c0-.373-.208-.716-.54-.888-.332-.172-.73-.146-1.035.07l-27 19C.158 27.87 0 28.175 0 28.5s.158.63.425.817l27 19c.172.122.373.183.575.183.157 0 .315-.037.46-.112.332-.172.54-.515.54-.888V29.723l26.425 18.583c.172.12.373.182.575.182.157 0 .315-.037.46-.112.332-.173.54-.516.54-.89V9.514c0-.373-.208-.716-.54-.888zM27 45.573L2.737 28.5 27 11.427v34.146zm28-.01L30.738 28.5 55 11.44V45.56z"/></svg>