<svg xmlns="http://www.w3.org/2000/svg" viewBox="0 0 60 60"><path d="M49.467 14.116c-.326-.174-.724-.15-1.03.058L28 28.108V15c0-.37-.205-.71-.533-.884-.326-.174-.723-.15-1.03.058l-22 15C4.163 29.36 4 29.67 4 30s.163.64.437.826l22 15c.168.115.366.174.563.174.16 0 .32-.038.467-.116.328-.173.533-.513.533-.884V31.892l20.437 13.934c.168.115.366.174.563.174.16 0 .32-.038.467-.116.328-.173.533-.513.533-.884V15c0-.37-.205-.71-.533-.884zM26 43.106L6.775 30 26 16.893v26.214zm22 0L28.775 30 48 16.893v26.214z"/><path d="M30 0C13.458 0 0 13.458 0 30s13.458 30 30 30 30-13.458 30-30S46.542 0 30 0zm0 58C14.56 58 2 45.44 2 30S14.56 2 30 2s28 12.56 28 28-12.56 28-28 28z"/></svg>