<svg xmlns="http://www.w3.org/2000/svg" viewBox="0 0 58.424 58.424"><path d="M57.417 14.49L43.007 0v8.652c-3.875.03-6.7.91-8.557 1.77H1.007v48h48V22.946l8.41-8.456zm-14.185-3.84c.243 0 .492.005.744.013l1.03.03V4.848l9.59 9.642-5.59 5.62-.948.952-3.052 3.07V18.526l-.765-.185c-.118-.03-2.942-.69-6.713.24-1.15.285-2.47.747-3.86 1.478-1.317.692-2.698 1.626-4.067 2.89-.906.836-1.808 1.813-2.68 2.96.115-2.534.85-6.372 3.76-9.92.672-.817 1.46-1.62 2.38-2.386.002 0 .042-.036.11-.09l.03-.025.098-.076.086-.064c.03-.023.07-.05.105-.075.05-.037.105-.075.166-.116.028-.02.06-.04.09-.06.086-.058.18-.117.283-.18.013-.01.028-.017.042-.026 1.445-.873 4.46-2.243 9.16-2.243zm3.775 14.306v31.468h-44v-44h28.358c-.07.06-.13.12-.198.18-.12.108-.236.214-.35.322-.125.117-.247.235-.367.353-.11.107-.218.216-.323.325-.116.12-.23.24-.34.36-.1.11-.2.218-.296.327-.106.122-.21.244-.313.367-.092.11-.183.22-.27.33-.1.122-.194.246-.288.37-.085.11-.168.22-.248.332-.09.124-.176.248-.26.372-.077.11-.153.223-.226.334-.082.125-.16.25-.238.375-.068.11-.136.22-.202.33-.075.128-.146.254-.217.38-.062.11-.122.22-.18.328-.068.128-.132.255-.196.382-.054.107-.108.215-.16.322-.06.128-.118.256-.175.383-.048.106-.096.21-.14.317-.055.127-.106.254-.157.38-.042.104-.084.21-.123.313-.048.127-.093.253-.137.38-.036.1-.072.2-.105.302-.042.126-.08.25-.12.377-.03.1-.062.198-.09.296-.036.125-.07.248-.103.37-.026.097-.052.193-.076.29-.032.124-.06.246-.09.37-.02.09-.042.18-.06.27-.028.125-.05.246-.075.368-.017.088-.035.175-.05.26-.022.123-.04.243-.06.363-.014.082-.028.164-.04.245-.018.12-.033.237-.048.354l-.03.233c-.014.117-.025.23-.036.345l-.02.216c-.01.114-.017.224-.025.335l-.014.203-.014.323-.008.186-.006.313-.003.165c-.002.104 0 .204 0 .303v.144l.01.278c0 .045 0 .093.003.137.004.09.01.175.013.26l.006.116c.005.085.01.163.018.24l.007.098.02.226.008.072.023.203.006.053.025.192v.02c.018.116.032.203.043.263l.003.018.012.063.5 2.573 1.34-2.253c4.446-7.467 10.112-9.137 13.61-9.374 1.046-.07 1.9-.014 2.468.055v8.817l4-4.02z"/></svg>