<svg xmlns="http://www.w3.org/2000/svg" viewBox="0 0 60 60"><path d="M10.5 7.07c-2.48 0-4.5 2.018-4.5 4.5s2.02 4.5 4.5 4.5 4.5-2.02 4.5-4.5-2.02-4.5-4.5-4.5zm0 7c-1.378 0-2.5-1.122-2.5-2.5s1.122-2.5 2.5-2.5 2.5 1.12 2.5 2.5-1.122 2.5-2.5 2.5z"/><circle cx="50" cy="10.069" r="1"/><circle cx="46" cy="10.069" r="1"/><circle cx="52" cy="13.069" r="1"/><circle cx="48" cy="13.069" r="1"/><circle cx="42" cy="10.069" r="1"/><circle cx="44" cy="13.069" r="1"/><circle cx="38" cy="10.069" r="1"/><circle cx="40" cy="13.069" r="1"/><circle cx="34" cy="10.069" r="1"/><circle cx="36" cy="13.069" r="1"/><path d="M60 17.46V5.677c0-2.54-2.067-4.608-4.608-4.608H4.608C2.068 1.07 0 3.135 0 5.676V17.46c0 1.47.703 2.764 1.777 3.608C.703 21.913 0 23.208 0 24.678V36.46c0 2.54 2.067 4.608 4.608 4.608h50.784C57.932 41.068 60 39 60 36.46V24.677c0-1.47-.703-2.764-1.777-3.608C59.297 20.223 60 18.93 60 17.46zm-2 7.217V36.46c0 1.438-1.17 2.608-2.608 2.608H4.608C3.17 39.068 2 37.898 2 36.46V24.677c0-1.438 1.17-2.608 2.608-2.608H55.39c1.44 0 2.61 1.17 2.61 2.607zM4.608 20.07C3.17 20.07 2 18.9 2 17.46V5.677C2 4.24 3.17 3.07 4.608 3.07H55.39c1.44 0 2.61 1.17 2.61 2.607V17.46c0 1.438-1.17 2.608-2.608 2.608H4.608z"/><path d="M10.5 35.07c2.48 0 4.5-2.02 4.5-4.5s-2.02-4.5-4.5-4.5S6 28.086 6 30.57s2.02 4.5 4.5 4.5zm0-7c1.378 0 2.5 1.12 2.5 2.5s-1.122 2.5-2.5 2.5S8 31.947 8 30.57s1.122-2.5 2.5-2.5zM31.473 51.455c.23.13.44.288.626.47.194.192.447.287.7.287.258 0 .517-.1.713-.3.387-.395.38-1.027-.014-1.414-.312-.305-.66-.567-1.04-.783-.483-.27-1.09-.105-1.363.377-.272.48-.104 1.09.376 1.363zM31.504 56.666c-.225.132-.467.232-.72.3-.532.144-.848.692-.705 1.226.12.446.523.74.964.74.086 0 .173-.01.26-.034.423-.114.83-.283 1.206-.503.477-.278.64-.89.36-1.368-.277-.478-.89-.638-1.366-.36zM34 53.045c-.552 0-1 .47-1 1.023 0 .264-.034.524-.1.775-.144.533.174 1.08.707 1.224.086.023.173.034.258.034.442 0 .846-.294.966-.74.113-.42.17-.854.17-1.29v-.048c0-.553-.448-.977-1-.977zM28.51 56.672c-.227-.13-.436-.29-.62-.473-.393-.39-1.025-.387-1.415.003-.39.392-.388 1.025.004 1.414.31.308.658.574 1.037.79.157.09.327.133.496.133.347 0 .684-.18.87-.503.272-.48.106-1.09-.373-1.365zM28.667 49.25c-.42.115-.824.287-1.2.508-.476.28-.635.893-.355 1.37.187.315.52.492.863.492.172 0 .347-.044.506-.138.227-.133.468-.235.72-.305.532-.146.845-.697.698-1.23-.148-.53-.698-.842-1.23-.697zM27 54.07c0-.26.033-.514.097-.76.14-.534-.18-1.08-.716-1.22-.534-.138-1.08.18-1.22.716-.106.41-.16.835-.16 1.284l1 .002h-1c0 .553.447.988 1 .988.553 0 1-.458 1-1.01z"/><circle cx="50" cy="29.069" r="1"/><circle cx="46" cy="29.069" r="1"/><circle cx="52" cy="32.069" r="1"/><circle cx="48" cy="32.069" r="1"/><circle cx="42" cy="29.069" r="1"/><circle cx="44" cy="32.069" r="1"/><circle cx="38" cy="29.069" r="1"/><circle cx="40" cy="32.069" r="1"/><circle cx="34" cy="29.069" r="1"/><circle cx="36" cy="32.069" r="1"/><path d="M22 53.07h-1c-.552 0-1 .446-1 1s.448 1 1 1h1c.552 0 1-.448 1-1s-.448-1-1-1zM14 53.07h-1c-.552 0-1 .446-1 1s.448 1 1 1h1c.552 0 1-.448 1-1s-.448-1-1-1zM18 53.07h-1c-.552 0-1 .446-1 1s.448 1 1 1h1c.552 0 1-.448 1-1s-.448-1-1-1zM2 53.07H1c-.552 0-1 .446-1 1s.448 1 1 1h1c.552 0 1-.448 1-1s-.448-1-1-1zM6 53.07H5c-.552 0-1 .446-1 1s.448 1 1 1h1c.552 0 1-.448 1-1s-.448-1-1-1zM10 53.07H9c-.552 0-1 .446-1 1s.448 1 1 1h1c.552 0 1-.448 1-1s-.448-1-1-1zM39 53.07h-1c-.552 0-1 .446-1 1s.448 1 1 1h1c.552 0 1-.448 1-1s-.448-1-1-1zM47 53.07h-1c-.552 0-1 .446-1 1s.448 1 1 1h1c.552 0 1-.448 1-1s-.448-1-1-1zM43 53.07h-1c-.552 0-1 .446-1 1s.448 1 1 1h1c.552 0 1-.448 1-1s-.448-1-1-1zM59 53.07h-1c-.552 0-1 .446-1 1s.448 1 1 1h1c.552 0 1-.448 1-1s-.448-1-1-1zM51 53.07h-1c-.552 0-1 .446-1 1s.448 1 1 1h1c.552 0 1-.448 1-1s-.448-1-1-1zM55 53.07h-1c-.552 0-1 .446-1 1s.448 1 1 1h1c.552 0 1-.448 1-1s-.448-1-1-1zM31 47.07v-1c0-.554-.448-1-1-1s-1 .446-1 1v1c0 .552.448 1 1 1s1-.448 1-1zM29 42.07v1c0 .552.448 1 1 1s1-.448 1-1v-1c0-.554-.448-1-1-1s-1 .446-1 1z"/></svg>