<svg xmlns="http://www.w3.org/2000/svg" viewBox="0 0 60 60"><path d="M10.5 16c2.48 0 4.5-2.02 4.5-4.5S12.98 7 10.5 7 6 9.02 6 11.5 8.02 16 10.5 16zm0-7c1.378 0 2.5 1.12 2.5 2.5S11.878 14 10.5 14 8 12.88 8 11.5 9.122 9 10.5 9z"/><circle cx="50" cy="10" r="1"/><circle cx="46" cy="10" r="1"/><circle cx="52" cy="13" r="1"/><circle cx="48" cy="13" r="1"/><circle cx="42" cy="10" r="1"/><circle cx="44" cy="13" r="1"/><circle cx="38" cy="10" r="1"/><circle cx="40" cy="13" r="1"/><circle cx="34" cy="10" r="1"/><circle cx="36" cy="13" r="1"/><path d="M16.902 3h1.026c.552 0 1-.447 1-1s-.448-1-1-1h-1.026c-.552 0-1 .447-1 1s.448 1 1 1zM8.692 3h1.026c.552 0 1-.447 1-1s-.448-1-1-1H8.692c-.552 0-1 .447-1 1s.448 1 1 1zM13.823 20h-1.025c-.553 0-1 .447-1 1s.447 1 1 1h1.545c.553 0 1-.447 1-1s-.447-1-1-1h-.52zM12.797 3h1.026c.552 0 1-.447 1-1s-.448-1-1-1h-1.026c-.552 0-1 .447-1 1s.448 1 1 1zM21.007 3h1.026c.552 0 1-.447 1-1s-.448-1-1-1h-1.026c-.552 0-1 .447-1 1s.448 1 1 1zM41.53 3h1.026c.552 0 1-.447 1-1s-.448-1-1-1H41.53c-.552 0-1 .447-1 1s.448 1 1 1zM37.426 3h1.026c.552 0 1-.447 1-1s-.448-1-1-1h-1.026c-.552 0-1 .447-1 1s.448 1 1 1zM49.74 3h1.026c.552 0 1-.447 1-1s-.448-1-1-1H49.74c-.552 0-1 .447-1 1s.448 1 1 1zM53.845 3h1.026c.553 0 1-.447 1-1s-.447-1-1-1h-1.025c-.552 0-1 .447-1 1s.447 1 1 1zM33.32 3h1.027c.552 0 1-.447 1-1s-.448-1-1-1H33.32c-.55 0-1 .447-1 1s.45 1 1 1zM25.11 3h1.027c.552 0 1-.447 1-1s-.448-1-1-1H25.11c-.55 0-1 .447-1 1s.45 1 1 1zM29.216 3h1.026c.552 0 1-.447 1-1s-.448-1-1-1h-1.026c-.552 0-1 .447-1 1s.448 1 1 1zM45.635 3h1.026c.553 0 1-.447 1-1s-.447-1-1-1h-1.025c-.552 0-1 .447-1 1s.448 1 1 1zM4.608 3h1.005c.552 0 1-.447 1-1s-.448-1-1-1H4.587c-.552 0-.99.447-.99 1s.46 1 1.01 1zM57.49 20.497c.187.16.417.238.646.238.283 0 .565-.12.763-.353.283-.334.518-.705.696-1.102.227-.503.002-1.095-.5-1.322-.505-.226-1.097-.003-1.323.502-.102.225-.235.436-.398.627-.358.422-.307 1.053.114 1.41zM1 9.17c.552 0 1-.448 1-1V7.142c0-.553-.448-1-1-1s-1 .447-1 1V8.17c0 .552.448 1 1 1zM1 13.273c.552 0 1-.447 1-1v-1.026c0-.553-.448-1-1-1s-1 .447-1 1v1.026c0 .553.448 1 1 1zM22.553 20h-1.546c-.553 0-1 .447-1 1s.447 1 1 1h1.545c.553 0 1-.447 1-1s-.447-1-1-1zM54.87 20h-1.025c-.553 0-1 .447-1 1s.447 1 1 1H55.426v-.19l.006-.004V22c.552 0 .98-.447.98-1 0-.552-.47-1-1.022-1h-.52zM1 17.378c.552 0 1-.447 1-1v-1.025c0-.553-.448-1-1-1s-1 .447-1 1v1.025c0 .553.448 1 1 1zM59 9.706c-.552 0-1 .447-1 1v1.025c0 .554.448 1 1 1s1-.446 1-1v-1.024c0-.553-.448-1-1-1zM57.58 4.186c.19.293.51.452.836.452.188 0 .378-.053.547-.163.462-.303.59-.923.29-1.385-.24-.365-.53-.694-.86-.98-.42-.36-1.05-.31-1.41.108s-.313 1.05.106 1.41c.187.162.352.35.49.558zM59 13.81c-.552 0-1 .448-1 1v1.027c0 .553.448 1 1 1s1-.447 1-1V14.81c0-.552-.448-1-1-1zM.91 5.02c.133.062.274.09.414.09.38 0 .742-.216.91-.584.103-.225.237-.434.4-.62.36-.418.315-1.05-.103-1.41-.416-.364-1.048-.317-1.41.1-.286.33-.523.7-.705 1.1-.23.5-.008 1.095.494 1.325zM1.033 18.504c-.464.3-.6.918-.3 1.382.237.368.525.7.856.987.188.164.42.244.653.244.28 0 .56-.117.756-.346.36-.416.315-1.048-.102-1.41-.188-.16-.35-.35-.484-.557-.297-.463-.918-.598-1.38-.3zM59 5.6c-.552 0-1 .448-1 1v1.027c0 .553.448 1 1 1s1-.447 1-1V6.6c0-.552-.448-1-1-1zM15 30.5c0-2.48-2.02-4.5-4.5-4.5S6 28.02 6 30.5 8.02 35 10.5 35s4.5-2.02 4.5-4.5zM10.5 33C9.122 33 8 31.88 8 30.5S9.122 28 10.5 28s2.5 1.12 2.5 2.5-1.122 2.5-2.5 2.5z"/><circle cx="50" cy="29" r="1"/><circle cx="46" cy="29" r="1"/><circle cx="52" cy="32" r="1"/><circle cx="48" cy="32" r="1"/><circle cx="42" cy="29" r="1"/><circle cx="44" cy="32" r="1"/><circle cx="38" cy="29" r="1"/><circle cx="40" cy="32" r="1"/><circle cx="34" cy="29" r="1"/><circle cx="36" cy="32" r="1"/><path d="M46.156 41h1.026c.552 0 1-.447 1-1s-.448-1-1-1h-1.026c-.552 0-1 .447-1 1s.448 1 1 1zM42.05 41h1.027c.552 0 1-.447 1-1s-.448-1-1-1H42.05c-.55 0-1 .447-1 1s.45 1 1 1zM46.156 22h1.026c.553 0 1-.447 1-1s-.447-1-1-1h-1.546c-.553 0-1 .447-1 1s.447 1 1 1h.52zM57.58 23.186c.19.293.51.452.836.452.188 0 .378-.053.547-.163.462-.303.59-.923.29-1.385-.24-.365-.53-.694-.86-.98-.42-.358-1.05-.31-1.41.108-.36.42-.313 1.05.106 1.41.187.162.352.35.49.558zM49.74 22h1.546c.553 0 1-.447 1-1s-.447-1-1-1h-1.545c-.552 0-1 .447-1 1s.448 1 1 1zM36.426 21c0 .553.448 1 1 1H38.973c.553 0 1-.447 1-1s-.447-1-1-1h-1.546c-.553 0-1 .447-1 1zM50.26 41h1.027c.552 0 1-.447 1-1s-.448-1-1-1H50.26c-.55 0-1 .447-1 1s.448 1 1 1zM56.412 40c0-.553-.468-1-1.02-1h-1.027c-.552 0-1 .447-1 1s.448 1 1 1h1.062l.006-1v1c.552 0 .98-.448.98-1zM57.49 39.497c.187.16.417.238.646.238.283 0 .565-.12.763-.353.283-.334.518-.705.696-1.102.227-.503.002-1.095-.5-1.322-.505-.226-1.097-.003-1.323.502-.102.225-.235.436-.398.627-.358.422-.307 1.053.114 1.41zM42.05 22h1.026c.553 0 1-.447 1-1s-.447-1-1-1h-1.545c-.552 0-1 .447-1 1s.448 1 1 1h.52zM37.946 41h1.026c.552 0 1-.447 1-1s-.448-1-1-1h-1.026c-.552 0-1 .447-1 1s.448 1 1 1zM1 28.17c.552 0 1-.448 1-1v-1.027c0-.553-.448-1-1-1s-1 .447-1 1v1.026c0 .552.448 1 1 1zM1 36.378c.552 0 1-.447 1-1v-1.025c0-.553-.448-1-1-1s-1 .447-1 1v1.025c0 .553.448 1 1 1zM59 32.81c-.552 0-1 .448-1 1v1.027c0 .553.448 1 1 1s1-.447 1-1V33.81c0-.552-.448-1-1-1zM2.633 22.904c.36-.417.316-1.05-.102-1.41-.416-.362-1.048-.315-1.41.102-.287.33-.524.7-.706 1.1-.23.502-.008 1.096.495 1.325.133.062.274.09.414.09.38 0 .742-.216.91-.584.102-.225.237-.434.4-.622zM1.033 37.504c-.464.3-.6.918-.3 1.382.237.368.525.7.856.987.188.164.42.244.653.244.28 0 .56-.117.756-.346.36-.416.315-1.048-.102-1.41-.188-.16-.35-.35-.484-.557-.297-.463-.918-.598-1.38-.3zM33.32 22H34.868c.553 0 1-.447 1-1s-.447-1-1-1h-1.545c-.553 0-1 .447-1 1s.447 1 1 1zM59 28.706c-.552 0-1 .447-1 1v1.025c0 .554.448 1 1 1s1-.446 1-1v-1.024c0-.553-.448-1-1-1zM59 24.6c-.552 0-1 .448-1 1v1.027c0 .553.448 1 1 1s1-.447 1-1V25.6c0-.552-.448-1-1-1zM22.553 39h-1.026c-.552 0-1 .447-1 1s.448 1 1 1h1.026c.552 0 1-.447 1-1s-.448-1-1-1zM4.608 22h1.526c.553 0 1-.447 1-1s-.447-1-1-1H4.59c-.553 0-.99.447-.99 1s.458 1 1.01 1zM1 32.273c.552 0 1-.447 1-1v-1.026c0-.553-.448-1-1-1s-1 .447-1 1v1.026c0 .553.448 1 1 1zM13.318 41h1.026c.552 0 1-.447 1-1s-.448-1-1-1h-1.026c-.552 0-1 .447-1 1s.448 1 1 1zM16.902 22H18.45c.552 0 1-.447 1-1s-.448-1-1-1H16.903c-.553 0-1 .447-1 1s.447 1 1 1zM25.11 22h1.548c.553 0 1-.447 1-1s-.447-1-1-1h-1.546c-.553 0-1 .447-1 1s.447 1 1 1zM29.216 22h1.546c.553 0 1-.447 1-1s-.447-1-1-1h-1.545c-.553 0-1 .447-1 1s.447 1 1 1zM32.842 40c0 .553.448 1 1 1h1.026c.552 0 1-.447 1-1s-.448-1-1-1h-1.026c-.552 0-1 .447-1 1zM26.658 39h-1.026c-.552 0-1 .447-1 1s.448 1 1 1h1.026c.552 0 1-.447 1-1s-.448-1-1-1zM9.213 22h1.026c.552 0 1-.447 1-1s-.448-1-1-1H8.693c-.553 0-1 .447-1 1s.447 1 1 1h.52zM18.45 39h-1.027c-.552 0-1 .447-1 1s.448 1 1 1h1.026c.55 0 1-.447 1-1s-.45-1-1-1zM5.108 39c-.552 0-1 .447-1 1s.448 1 1 1h1.026c.552 0 1-.447 1-1s-.448-1-1-1H5.108zM9.213 39c-.552 0-1 .447-1 1s.448 1 1 1h1.026c.55 0 1-.447 1-1s-.45-1-1-1H9.212zM22 53H1c-.552 0-1 .447-1 1s.448 1 1 1h21c.552 0 1-.447 1-1s-.448-1-1-1zM59 53H38c-.552 0-1 .447-1 1s.448 1 1 1h21c.552 0 1-.447 1-1s-.448-1-1-1zM30.414 41h.35c.55 0 1-.447 1-1s-.45-1-1-1h-1.027c-.485 0-.87.352-.962.81l-4.982 4.983 1.414 1.414L30.414 41zM34.793 43.793l-5.254 5.254C27 49.283 25 51.4 25 54c0 2.757 2.243 5 5 5s5-2.243 5-5c0-2.048-1.24-3.807-3.006-4.58l4.213-4.213-1.414-1.414zM33 54c0 1.654-1.346 3-3 3s-3-1.346-3-3 1.346-3 3-3 3 1.346 3 3z"/></svg>