<svg xmlns="http://www.w3.org/2000/svg" viewBox="0 0 60 60"><path d="M10.5 6.5C8.02 6.5 6 8.52 6 11s2.02 4.5 4.5 4.5S15 13.48 15 11s-2.02-4.5-4.5-4.5zm0 7C9.122 13.5 8 12.38 8 11s1.122-2.5 2.5-2.5S13 9.62 13 11s-1.122 2.5-2.5 2.5z"/><circle cx="50" cy="9.5" r="1"/><circle cx="46" cy="9.5" r="1"/><circle cx="52" cy="12.5" r="1"/><circle cx="48" cy="12.5" r="1"/><circle cx="42" cy="9.5" r="1"/><circle cx="44" cy="12.5" r="1"/><circle cx="38" cy="9.5" r="1"/><circle cx="40" cy="12.5" r="1"/><circle cx="34" cy="9.5" r="1"/><circle cx="36" cy="12.5" r="1"/><path d="M60 16.892V5.108C60 2.568 57.933.5 55.392.5H4.608C2.068.5 0 2.567 0 5.108V16.89c0 1.47.703 2.765 1.777 3.61C.703 21.343 0 22.64 0 24.107V35.89c0 1.47.703 2.765 1.777 3.61C.703 40.343 0 41.64 0 43.107V54.89c0 2.543 2.067 4.61 4.608 4.61H55.39c2.542 0 4.61-2.067 4.61-4.608V43.108c0-1.47-.704-2.764-1.778-3.608C59.297 38.656 60 37.36 60 35.892V24.108c0-1.47-.703-2.764-1.777-3.608C59.297 19.656 60 18.36 60 16.892zm-2 26.216V54.89c0 1.44-1.17 2.61-2.608 2.61H4.608C3.17 57.5 2 56.33 2 54.89V43.108C2 41.67 3.17 40.5 4.608 40.5H55.39c1.44 0 2.61 1.17 2.61 2.608zm0-19V35.89c0 1.44-1.17 2.61-2.608 2.61H4.608C3.17 38.5 2 37.33 2 35.89V24.108C2 22.67 3.17 21.5 4.608 21.5H55.39c1.44 0 2.61 1.17 2.61 2.608zM4.608 19.5C3.17 19.5 2 18.33 2 16.892V5.108C2 3.67 3.17 2.5 4.608 2.5H55.39C56.83 2.5 58 3.67 58 5.108V16.89c0 1.44-1.17 2.61-2.608 2.61H4.608z"/><path d="M10.5 34.5c2.48 0 4.5-2.02 4.5-4.5s-2.02-4.5-4.5-4.5S6 27.52 6 30s2.02 4.5 4.5 4.5zm0-7c1.378 0 2.5 1.12 2.5 2.5s-1.122 2.5-2.5 2.5S8 31.38 8 30s1.122-2.5 2.5-2.5z"/><circle cx="50" cy="28.5" r="1"/><circle cx="46" cy="28.5" r="1"/><circle cx="52" cy="31.5" r="1"/><circle cx="48" cy="31.5" r="1"/><circle cx="42" cy="28.5" r="1"/><circle cx="44" cy="31.5" r="1"/><circle cx="38" cy="28.5" r="1"/><circle cx="40" cy="31.5" r="1"/><circle cx="34" cy="28.5" r="1"/><circle cx="36" cy="31.5" r="1"/><path d="M10.5 53.5c2.48 0 4.5-2.02 4.5-4.5s-2.02-4.5-4.5-4.5S6 46.52 6 49s2.02 4.5 4.5 4.5zm0-7c1.378 0 2.5 1.12 2.5 2.5s-1.122 2.5-2.5 2.5S8 50.38 8 49s1.122-2.5 2.5-2.5z"/><circle cx="50" cy="47.5" r="1"/><circle cx="46" cy="47.5" r="1"/><circle cx="52" cy="50.5" r="1"/><circle cx="48" cy="50.5" r="1"/><circle cx="42" cy="47.5" r="1"/><circle cx="44" cy="50.5" r="1"/><circle cx="38" cy="47.5" r="1"/><circle cx="40" cy="50.5" r="1"/><circle cx="34" cy="47.5" r="1"/><circle cx="36" cy="50.5" r="1"/></svg>