<svg xmlns="http://www.w3.org/2000/svg" viewBox="0 0 60 60"><path d="M10.5 7C8.02 7 6 9.02 6 11.5S8.02 16 10.5 16s4.5-2.02 4.5-4.5S12.98 7 10.5 7zm0 7C9.122 14 8 12.88 8 11.5S9.122 9 10.5 9s2.5 1.12 2.5 2.5-1.122 2.5-2.5 2.5z"/><circle cx="50" cy="10" r="1"/><circle cx="46" cy="10" r="1"/><circle cx="52" cy="13" r="1"/><circle cx="48" cy="13" r="1"/><circle cx="42" cy="10" r="1"/><circle cx="44" cy="13" r="1"/><circle cx="38" cy="10" r="1"/><circle cx="40" cy="13" r="1"/><circle cx="34" cy="10" r="1"/><circle cx="36" cy="13" r="1"/><path d="M60 17.392V5.608C60 3.068 57.933 1 55.392 1H4.608C2.068 1 0 3.067 0 5.608V17.39c0 1.47.703 2.766 1.777 3.61C.703 21.844 0 23.14 0 24.608V36.39C0 38.934 2.067 41 4.608 41H29v8.1c-1.956.4-3.5 1.944-3.9 3.9H1c-.552 0-1 .447-1 1s.448 1 1 1h24.1c.466 2.28 2.485 4 4.9 4s4.434-1.72 4.9-4H59c.552 0 1-.447 1-1s-.448-1-1-1H34.9c-.4-1.956-1.944-3.5-3.9-3.9V41h24.392C57.932 41 60 38.933 60 36.392V24.608c0-1.47-.703-2.764-1.777-3.608C59.297 20.156 60 18.86 60 17.392zM33 54c0 1.654-1.346 3-3 3s-3-1.346-3-3 1.346-3 3-3 3 1.346 3 3zm25-29.392V36.39c0 1.44-1.17 2.61-2.608 2.61H4.608C3.17 39 2 37.83 2 36.392V24.608C2 23.17 3.17 22 4.608 22H55.39c1.44 0 2.61 1.17 2.61 2.608zM4.608 20C3.17 20 2 18.83 2 17.392V5.608C2 4.17 3.17 3 4.608 3H55.39C56.83 3 58 4.17 58 5.608V17.39c0 1.44-1.17 2.61-2.608 2.61H4.608z"/><path d="M10.5 35c2.48 0 4.5-2.02 4.5-4.5S12.98 26 10.5 26 6 28.02 6 30.5 8.02 35 10.5 35zm0-7c1.378 0 2.5 1.12 2.5 2.5S11.878 33 10.5 33 8 31.88 8 30.5 9.122 28 10.5 28z"/><circle cx="50" cy="29" r="1"/><circle cx="46" cy="29" r="1"/><circle cx="52" cy="32" r="1"/><circle cx="48" cy="32" r="1"/><circle cx="42" cy="29" r="1"/><circle cx="44" cy="32" r="1"/><circle cx="38" cy="29" r="1"/><circle cx="40" cy="32" r="1"/><circle cx="34" cy="29" r="1"/><circle cx="36" cy="32" r="1"/></svg>