<svg xmlns="http://www.w3.org/2000/svg" viewBox="0 0 60 60"><path d="M29.988 38c3.86 0 7-3.14 7-7s-3.14-7-7-7-7 3.14-7 7 3.14 7 7 7zm0-12c2.757 0 5 2.243 5 5s-2.243 5-5 5-5-2.243-5-5 2.243-5 5-5z"/><circle cx="29.988" cy="31" r="1"/><path d="M0 0V60H60V0H0zm37.35 2c-.382.056-.715.332-.82.73l-.802 2.988c-1.543-.37-3.123-.594-4.728-.666V2h6.35zM29 5.046c-1.614.062-3.204.283-4.756.653l-.796-2.97c-.106-.397-.44-.673-.82-.73H29v3.046zM22.572 2c-.114-.01-.23-.01-.348.022-.534.143-.85.69-.707 1.225l.802 2.994c-1.518.493-2.986 1.12-4.388 1.878l-1.577-2.732c-.276-.48-.89-.644-1.366-.366-.48.276-.643.888-.367 1.366l1.59 2.75c-1.337.858-2.6 1.826-3.768 2.905L10.19 9.788c-.39-.39-1.022-.39-1.413 0s-.39 1.023 0 1.414l2.253 2.254c-1.084 1.16-2.074 2.41-2.94 3.748l-2.714-1.568c-.48-.278-1.092-.113-1.37.366-.275.48-.11 1.09.367 1.366l2.7 1.56c-.655 1.206-1.21 2.47-1.666 3.78-.057.08-.115.16-.147.26-.022.067-.016.134-.023.2-.247.756-.465 1.523-.64 2.306-.12.54.22 1.073.76 1.193.542.123 1.073-.218 1.193-.758.102-.458.237-.904.366-1.352l13.252 4.306c.103.034.207.05.31.05.42 0 .813-.27.95-.69.17-.525-.117-1.09-.642-1.26l-13.233-4.3C10.953 13.813 19.563 7.436 29 7.045V21c0 .553.448 1 1 1s1-.447 1-1V7.053c9.505.458 18.113 6.83 21.457 15.594L39.19 26.96c-.526.17-.814.734-.643 1.26.137.422.53.69.95.69.103 0 .208-.016.31-.05l13.28-4.314c.13.46.265.92.367 1.393.1.468.515.79.977.79.07 0 .14-.008.212-.023.54-.115.884-.647.768-1.188-.18-.844-.418-1.667-.684-2.478-.006-.026 0-.052-.01-.077-.01-.036-.037-.06-.052-.094-.463-1.374-1.042-2.698-1.73-3.963l2.67-1.54c.48-.277.642-.89.366-1.367-.276-.48-.887-.644-1.366-.366l-2.688 1.552c-.867-1.337-1.86-2.586-2.953-3.745l2.24-2.238c.39-.39.39-1.023 0-1.414s-1.024-.39-1.415 0l-2.246 2.246c-1.17-1.073-2.437-2.037-3.778-2.89l1.59-2.757c.277-.48.113-1.09-.365-1.366-.48-.276-1.09-.11-1.367.367L42.04 8.13c-1.402-.752-2.87-1.377-4.387-1.868l.808-3.013c.144-.534-.172-1.083-.706-1.226-.122-.034-.244-.036-.362-.024H58v36.325c-1.308-.46-2.288-1.585-2.508-3.015l-.51-3.31H48.8l-.74 3.842c-.248 1.286-1.084 2.313-2.294 2.813s-2.527.367-3.613-.367l-3.24-2.193-4.37 4.372 1.98 2.7c.78 1.065.958 2.435.476 3.663-.483 1.23-1.545 2.112-2.842 2.36L31 49.8v6.183l3.31.51c1.027.158 1.9.708 2.485 1.508h-13.59c.586-.798 1.46-1.348 2.486-1.507l3.31-.51V49.8l-3.156-.608c-1.297-.25-2.36-1.132-2.84-2.36-.483-1.23-.305-2.6.476-3.663l1.98-2.702-4.372-4.372-3.24 2.193c-1.083.735-2.4.87-3.61.367s-2.048-1.527-2.296-2.814L11.202 32H5.016l-.51 3.31c-.22 1.43-1.2 2.555-2.507 3.015V2h20.572zM3.112 58c-.433-.422-.805-.89-1.112-1.398v-7.204C3.264 47.296 5.54 46 8 46c3.86 0 7 3.14 7 7 0 1.882-.766 3.684-2.113 5H3.112zm12.348 0c.987-1.47 1.54-3.203 1.54-5 0-4.963-4.038-9-9-9-2.252 0-4.372.86-6 2.322v-5.906c2.326-.516 4.112-2.382 4.484-4.802L6.734 34h2.815l.426 2.22c.37 1.93 1.677 3.532 3.494 4.284 1.816.753 3.873.543 5.5-.56l1.87-1.268 1.992 1.99-.965 1.317c-1.19 1.62-1.46 3.706-.726 5.576.735 1.87 2.352 3.215 4.326 3.595L27 51.45v2.817l-1.614.248c-2.037.313-3.694 1.622-4.476 3.484h-5.45zm19.154-3.484L33 54.268v-2.816l1.535-.295c1.974-.38 3.59-1.724 4.325-3.596.734-1.87.463-3.954-.726-5.574l-.966-1.317 1.99-1.992 1.872 1.268c1.628 1.103 3.685 1.31 5.5.56 1.816-.753 3.122-2.355 3.493-4.285L50.45 34h2.817l.25 1.614c.37 2.42 2.158 4.286 4.483 4.802v5.906C56.372 44.86 54.252 44 52 44c-4.962 0-9 4.037-9 9 0 1.797.552 3.53 1.54 5h-5.45c-.782-1.863-2.44-3.172-4.476-3.484zM47.114 58C45.765 56.684 45 54.882 45 53c0-3.86 3.14-7 7-7 2.46 0 4.735 1.296 6 3.397v7.205c-.306.507-.678.976-1.112 1.397h-9.775z"/></svg>