<svg xmlns="http://www.w3.org/2000/svg" viewBox="0 0 54 54"><path d="M53.188 23.518l-3.128-.602c-1.842-.354-3.35-1.607-4.035-3.354-.686-1.745-.433-3.69.677-5.203l1.964-2.68c.292-.397.25-.95-.1-1.298L44.324 6.14c-.34-.34-.87-.39-1.268-.12l-2.638 1.785c-1.552 1.052-3.505 1.23-5.224.482-1.72-.75-2.916-2.305-3.2-4.158L31.487.846C31.413.36 30.994 0 30.5 0h-6c-.48 0-.892.34-.982.812l-.777 4.04c-.346 1.8-1.564 3.296-3.26 3.997-1.693.703-3.612.506-5.13-.522L10.944 6.02c-.397-.268-.93-.218-1.268.12l-4.243 4.243c-.35.35-.39.9-.1 1.3l1.964 2.678c1.11 1.513 1.362 3.458.677 5.204-.686 1.745-2.194 3-4.036 3.353L.81 23.52c-.47.088-.81.5-.81.98v6c0 .493.36.913.848.988l3.283.505c1.854.285 3.41 1.48 4.158 3.2.75 1.72.57 3.673-.482 5.226L6.02 43.056c-.27.396-.218.93.12 1.268l4.243 4.242c.35.348.9.393 1.298.1l2.68-1.964c1.512-1.11 3.457-1.365 5.202-.677 1.746.685 3 2.193 3.354 4.035l.602 3.13c.09.47.503.81.982.81h6c.494 0 .914-.36.988-.848l.355-2.31c.292-1.895 1.523-3.464 3.294-4.197 1.77-.73 3.75-.495 5.297.64l1.884 1.38c.4.294.95.25 1.298-.1l4.242-4.24c.34-.34.39-.872.12-1.27l-1.785-2.637c-1.052-1.553-1.232-3.506-.482-5.225.75-1.72 2.305-2.916 4.16-3.2l3.28-.506c.49-.074.85-.494.85-.987v-6c0-.48-.34-.892-.812-.982zM52 29.642l-2.435.375c-2.535.39-4.66 2.026-5.687 4.378-1.025 2.35-.78 5.022.66 7.146l1.323 1.955-3.05 3.052-1.193-.874c-2.115-1.55-4.822-1.875-7.246-.874-2.42 1.003-4.106 3.148-4.504 5.74L29.642 52h-4.316l-.446-2.316c-.484-2.52-2.2-4.583-4.588-5.52-2.385-.938-5.047-.59-7.115.925l-1.987 1.456-3.052-3.052 1.324-1.954c1.438-2.123 1.685-4.795.66-7.146-1.027-2.35-3.153-3.987-5.688-4.377L2 29.642v-4.315l2.317-.445c2.52-.484 4.582-2.2 5.52-4.587.937-2.388.59-5.048-.926-7.117L7.455 11.19l3.052-3.052 2.723 1.845c2.076 1.407 4.7 1.675 7.017.713 2.317-.96 3.984-3.004 4.458-5.468L25.325 2h4.317l.375 2.435c.39 2.535 2.027 4.66 4.378 5.687 2.35 1.026 5.022.778 7.146-.66l1.955-1.322 3.052 3.052-1.457 1.986c-1.517 2.068-1.863 4.73-.925 7.117.937 2.388 3 4.103 5.52 4.587l2.315.444v4.316z"/><path d="M27.5 17C21.71 17 17 21.71 17 27.5S21.71 38 27.5 38 38 33.29 38 27.5 33.29 17 27.5 17zm0 19c-4.687 0-8.5-3.813-8.5-8.5s3.813-8.5 8.5-8.5 8.5 3.813 8.5 8.5-3.813 8.5-8.5 8.5z"/><path d="M27.5 22c-3.033 0-5.5 2.468-5.5 5.5s2.467 5.5 5.5 5.5 5.5-2.468 5.5-5.5-2.467-5.5-5.5-5.5zm0 9c-1.93 0-3.5-1.57-3.5-3.5s1.57-3.5 3.5-3.5 3.5 1.57 3.5 3.5-1.57 3.5-3.5 3.5z"/></svg>