<svg xmlns="http://www.w3.org/2000/svg" viewBox="0 0 60 60"><path d="M57.947 40.887c.126-.322.247-.645.362-.972.063-.183.126-.367.186-.552.145-.44.28-.884.404-1.332.02-.07.045-.14.064-.21.002-.008 0-.016.003-.024C59.637 35.31 60 32.696 60 30 60 13.458 46.542 0 30 0S0 13.458 0 30c0 2.845.407 5.595 1.15 8.205.003.01 0 .022.004.032.014.048.032.095.046.143.142.486.295.966.46 1.442.035.1.067.202.102.3.19.526.39 1.046.606 1.558.114.27.24.532.36.798.095.205.186.41.285.614.18.372.37.737.564 1.1l.09.17C6.66 49.866 11.303 54.3 16.99 57.028c.007.002.015.006.022.01.362.173.728.338 1.098.497.17.074.34.145.513.216.303.124.607.247.916.362.296.11.597.212.898.314.188.062.37.134.56.194.01.003.02.002.03.004C23.86 59.518 26.874 60 30 60c3.262 0 6.402-.53 9.344-1.498.01-.003.02 0 .032-.005.078-.026.152-.057.23-.083.42-.143.836-.294 1.248-.454.177-.07.354-.137.53-.21.325-.133.646-.275.965-.42 6.794-3.06 12.16-8.504 15.124-15.3.062-.14.127-.278.187-.42.1-.238.193-.48.287-.723zM4.664 41.905c-.12-.257-.24-.517-.352-.778-.124-.288-.243-.58-.358-.872-.06-.152-.122-.302-.18-.455-.18-.487-.352-.98-.507-1.48.166-.126.33-.24.496-.356l3.152 5.46c-.348.28-.652.604-.934.948-.396-.66-.765-1.34-1.108-2.035-.07-.144-.14-.288-.208-.432zm14.124-3.55L14.56 43.05c-1.724-1.123-3.925-1.39-5.91-.62l-3.155-5.466c4.423-2.113 9.562-1.465 13.293 1.392zm3.29 3.75c1.153 1.994 1.716 4.2 1.716 6.39v.011c0 1.45-.256 2.89-.745 4.265l-5.764-2.565c.44-1.617.26-3.4-.642-4.963-.177-.306-.38-.587-.597-.853l4.222-4.69c.68.717 1.294 1.512 1.81 2.404zm-1.49 14.263c-.18-.064-.356-.132-.534-.2-1.776-.676-3.464-1.53-5.047-2.538.585-.457 1.076-1 1.462-1.6l5.763 2.566c-.36.662-.775 1.3-1.26 1.903-.127-.045-.257-.086-.386-.132zM8.74 44.588c2.157-1.248 4.926-.504 6.172 1.653 1.245 2.158.503 4.926-1.654 6.173l-.013.007c-.087-.065-.17-.136-.257-.202-.383-.293-.755-.597-1.12-.908-.194-.164-.387-.328-.575-.497-.382-.343-.755-.696-1.117-1.06-.218-.218-.43-.444-.64-.67-.2-.215-.396-.433-.59-.654-.32-.366-.63-.74-.93-1.12-.193-.244-.385-.49-.57-.74-.102-.14-.2-.28-.298-.42.39-.647.934-1.182 1.593-1.562zm14.266 12.528c.583-.81 1.08-1.666 1.48-2.556.01-.015.02-.026.028-.042.004-.008.002-.017.005-.025.705-1.588 1.114-3.28 1.23-4.993H27c.552 0 1-.447 1-1s-.448-1-1-1h-1.244c-.127-1.883-.616-3.754-1.48-5.51l1.08-.623c.48-.276.642-.888.366-1.366-.277-.478-.89-.642-1.366-.365l-1.09.63c-.684-1.022-1.47-1.94-2.35-2.734-.008-.006-.01-.015-.018-.022-.01-.01-.025-.012-.036-.02-.514-.46-1.06-.874-1.626-1.252l.63-1.09c.276-.48.112-1.09-.366-1.367-.48-.277-1.09-.114-1.366.365l-.624 1.08c-1.723-.842-3.597-1.344-5.51-1.476V32.5c0-.553-.448-1-1-1s-1 .447-1 1v1.26c-2.187.145-4.374.76-6.396 1.93-.3.172-.595.368-.89.57C2.253 34.245 2 32.152 2 30 2 14.56 14.56 2 30 2s28 12.56 28 28c0 2.002-.215 3.954-.617 5.838-2.22-1.53-4.774-2.398-7.383-2.578V32c0-.553-.448-1-1-1s-1 .447-1 1v1.25c-1.886.126-3.758.614-5.51 1.472l-.624-1.08c-.276-.478-.888-.642-1.366-.365-.48.276-.642.888-.366 1.366l.63 1.09c-1.637 1.096-2.987 2.472-4.03 4.03l-1.09-.63c-.48-.277-1.09-.113-1.366.366-.276.478-.112 1.09.366 1.365l1.08.623c-.843 1.723-1.345 3.597-1.477 5.51H33c-.552 0-1 .447-1 1s.448 1 1 1h1.26c.044.68.13 1.36.27 2.036.002.014-.003.027 0 .04.002.01.01.02.012.03.315 1.47.855 2.92 1.646 4.29.323.56.704 1.103 1.116 1.632-2.33.632-4.777.974-7.304.974-2.414 0-4.757-.307-6.994-.884zm33.806-19.054c-.112.374-.236.743-.362 1.11-.05.14-.092.283-.143.423-.122.336-.258.665-.392.995-.202.49-.413.978-.642 1.455-.016.034-.03.07-.048.103-.318.657-.666 1.296-1.032 1.923-1.752-2.316-4.847-3.184-7.543-2.14l-3.147-5.45c1.74-.83 3.608-1.266 5.477-1.266 2.798 0 5.58.916 7.873 2.702l-.04.146zm-13.63 16.632c-.326.175-.655.345-.988.507-.26.126-.523.244-.787.36-.174.08-.344.162-.52.236-.48.202-.965.39-1.458.565-.025.01-.05.017-.073.026-.556-.634-1.037-1.3-1.435-1.99-.515-.892-.895-1.822-1.175-2.77l6.17-1.31c.123.32.264.635.44.94.502.868 1.206 1.576 2.024 2.124-.64.424-1.3.826-1.978 1.197-.074.04-.147.08-.22.117zm-1.42-17.23l3.156 5.466c-1.66 1.335-2.527 3.375-2.418 5.43l-6.18 1.313c-.608-4.66 1.4-9.434 5.443-12.208zm7.23 6.02c1.563 0 3.084.81 3.92 2.255.034.06.067.12.1.186-.106.152-.214.3-.322.45-.187.26-.38.515-.576.768-.292.375-.593.743-.903 1.103-.186.218-.374.436-.567.648-.24.26-.483.516-.732.767-.15.152-.304.3-.458.45-.425.41-.863.808-1.313 1.192-.17.143-.336.286-.508.426-.16.13-.323.255-.485.38-.864-.386-1.584-1.03-2.06-1.852-1.244-2.157-.502-4.925 1.654-6.17.71-.41 1.487-.605 2.252-.605z"/><path d="M38.692 31.33c.623-2.322.303-4.748-.898-6.83-.228-.394-.49-.76-.77-1.11l7.585-7.585c.91 1.01 1.736 2.125 2.443 3.35 1.732 3 2.638 6.432 2.62 9.924-.003.55.443 1 .995 1.004h.005c.55 0 .997-.444 1-.995.008-1.598-.17-3.18-.504-4.726l2.272-.61c.534-.143.85-.69.707-1.225-.144-.535-.693-.854-1.226-.708l-2.27.608c-.368-1.168-.836-2.302-1.4-3.393l2.03-1.172c.48-.276.643-.888.367-1.366-.275-.48-.888-.645-1.365-.367l-2.045 1.18c-.67-1.046-1.406-2.028-2.22-2.92l1.658-1.657c.39-.39.39-1.023 0-1.414s-1.023-.39-1.414 0l-1.653 1.653c-.912-.832-1.893-1.568-2.92-2.223l1.176-2.036c.276-.48.113-1.09-.366-1.366-.48-.277-1.09-.113-1.366.366l-1.18 2.042c-1.09-.562-2.224-1.023-3.39-1.393l.613-2.288c.143-.533-.174-1.082-.707-1.225-.537-.147-1.082.174-1.225.707l-.613 2.287c-1.193-.263-2.406-.43-3.632-.49V5c0-.553-.448-1-1-1s-1 .447-1 1v2.352c-1.217.054-2.434.2-3.64.465l-.606-2.258c-.143-.534-.688-.855-1.225-.708-.534.143-.85.69-.708 1.225l.606 2.263c-1.15.366-2.278.85-3.383 1.42l-1.18-2.044c-.276-.48-.887-.644-1.365-.366-.48.276-.642.888-.366 1.366l1.172 2.03c-1.04.666-2.012 1.414-2.91 2.236l-1.66-1.66c-.39-.39-1.023-.39-1.414 0s-.39 1.023 0 1.414l1.664 1.664c-.825.91-1.57 1.883-2.228 2.913l-2.043-1.18c-.48-.276-1.09-.112-1.366.367-.277.48-.113 1.09.365 1.366l2.045 1.18c-.56 1.086-1.03 2.22-1.403 3.388l-2.28-.612c-.532-.145-1.083.174-1.226.707-.142.532.174 1.08.708 1.224l2.28.612c-.337 1.535-.52 3.115-.515 4.72 0 .553.45.998 1 .998h.003c.552-.002 1-.45.997-1.003-.015-4.963 1.852-9.68 5.076-13.266l7.57 7.57c-.766.957-1.337 2.067-1.664 3.287-.623 2.322-.303 4.748.898 6.83 1.202 2.08 3.143 3.57 5.464 4.192.775.207 1.562.31 2.344.31 1.56 0 3.098-.408 4.485-1.21 2.084-1.2 3.573-3.14 4.195-5.463zM25.5 21.206c-.395.228-.76.49-1.11.768l-7.58-7.58c1.017-.92 2.132-1.747 3.345-2.447 7.573-4.373 16.868-3.118 23.037 2.445l-7.577 7.577c-.957-.765-2.067-1.336-3.286-1.663-2.324-.62-4.747-.302-6.83.9zm2.688 14.553c-1.806-.483-3.315-1.642-4.25-3.26s-1.183-3.506-.7-5.312 1.643-3.314 3.262-4.25c1.08-.622 2.275-.94 3.488-.94.608 0 1.22.08 1.823.242 1.807.483 3.316 1.642 4.25 3.26s1.184 3.506.7 5.312-1.642 3.314-3.26 4.25c-1.62.934-3.504 1.185-5.312.698z"/></svg>