<svg xmlns="http://www.w3.org/2000/svg" viewBox="0 0 54 54"><path d="M27 13c-7.72 0-14 6.28-14 14s6.28 14 14 14 14-6.28 14-14-6.28-14-14-14zm0 26c-6.617 0-12-5.383-12-12s5.383-12 12-12 12 5.383 12 12-5.383 12-12 12z"/><path d="M51.22 21h-2.018c-.515-1.912-1.272-3.742-2.26-5.457l1.426-1.426c.525-.525.814-1.224.814-1.966s-.29-1.44-.814-1.966L43.815 5.63c-1.05-1.048-2.88-1.05-3.933 0l-1.426 1.427C36.74 6.07 34.91 5.313 33 4.797V2.78C33 1.247 31.753 0 30.22 0h-6.44C22.247 0 21 1.247 21 2.78v2.018c-1.91.515-3.74 1.272-5.457 2.26l-1.426-1.426c-1.05-1.052-2.883-1.05-3.933 0L5.63 10.185c-.524.525-.813 1.224-.813 1.967 0 .742.29 1.44.814 1.966l1.427 1.426C6.07 17.258 5.312 19.088 4.797 21H2.78C1.247 21 0 22.247 0 23.78v6.44C0 31.752 1.247 33 2.78 33h2.018c.515 1.91 1.272 3.74 2.26 5.457l-1.426 1.426c-.525.525-.814 1.224-.814 1.966s.29 1.44.814 1.966l4.553 4.553c1.05 1.05 2.882 1.05 3.933 0l1.426-1.427c1.717.987 3.546 1.745 5.457 2.26v2.018C21 52.755 22.25 54 23.78 54h6.44c1.533 0 2.78-1.246 2.78-2.78v-2.017c1.91-.515 3.74-1.272 5.457-2.26l1.426 1.426c1.052 1.05 2.882 1.05 3.933 0l4.553-4.554c.524-.525.813-1.224.813-1.967 0-.743-.29-1.44-.814-1.967l-1.427-1.426c.987-1.717 1.745-3.546 2.26-5.457h2.018c1.534 0 2.78-1.247 2.78-2.78v-6.44c0-1.533-1.247-2.78-2.78-2.78zm.78 9.22c0 .43-.35.78-.78.78h-3.592l-.18.773c-.52 2.237-1.4 4.36-2.613 6.31l-.42.675 2.54 2.54c.304.304.304.8 0 1.103L42.4 46.955c-.303.304-.798.306-1.103 0l-2.54-2.54-.673.42c-1.95 1.215-4.073 2.094-6.31 2.614l-.774.18v3.592c0 .43-.35.78-.78.78h-6.44c-.43 0-.78-.35-.78-.78v-3.592l-.773-.18c-2.237-.52-4.36-1.4-6.31-2.613l-.675-.42-2.54 2.54c-.305.305-.8.303-1.103 0L7.045 42.4c-.305-.304-.305-.8 0-1.103l2.54-2.54-.42-.673c-1.215-1.95-2.094-4.073-2.614-6.31L6.372 31H2.78c-.43 0-.78-.35-.78-.78v-6.44c0-.43.35-.78.78-.78h3.592l.18-.773c.52-2.238 1.4-4.36 2.613-6.31l.42-.675-2.54-2.54c-.304-.304-.304-.8 0-1.103L11.6 7.045c.303-.304.798-.306 1.103 0l2.54 2.54.673-.42c1.95-1.215 4.073-2.094 6.31-2.614l.774-.18V2.78c0-.43.35-.78.78-.78h6.44c.43 0 .78.35.78.78v3.592l.773.18c2.237.52 4.36 1.4 6.31 2.613l.675.42 2.54-2.54c.305-.305.8-.303 1.103 0l4.554 4.554c.305.304.305.8 0 1.103l-2.54 2.54.42.673c1.215 1.95 2.094 4.072 2.614 6.31l.18.774h3.592c.43 0 .78.35.78.78v6.44z"/><path d="M27 17c-5.514 0-10 4.486-10 10s4.486 10 10 10 10-4.486 10-10-4.486-10-10-10zm0 18c-4.41 0-8-3.59-8-8s3.59-8 8-8 8 3.59 8 8-3.59 8-8 8z"/></svg>