<svg xmlns="http://www.w3.org/2000/svg" viewBox="0 0 54 54"><path d="M51.22 21h-5.052c-.812 0-1.48-.447-1.792-1.197s-.153-1.54.42-2.114l3.572-3.572c.525-.525.814-1.224.814-1.966 0-.743-.29-1.44-.814-1.967l-4.553-4.553c-1.05-1.05-2.88-1.052-3.933 0l-3.57 3.57c-.575.574-1.367.734-2.115.422-.75-.31-1.197-.98-1.197-1.792V2.78C33 1.247 31.753 0 30.22 0h-6.44C22.247 0 21 1.247 21 2.78v5.052c0 .812-.447 1.48-1.197 1.792-.748.313-1.54.152-2.114-.42L14.117 5.63c-1.052-1.052-2.883-1.05-3.933 0l-4.553 4.553c-.525.525-.814 1.224-.814 1.967 0 .742.29 1.44.814 1.966l3.572 3.57c.573.575.73 1.365.42 2.115S8.644 21 7.832 21H2.78C1.247 21 0 22.247 0 23.78v6.44C0 31.752 1.247 33 2.78 33h5.052c.812 0 1.48.447 1.792 1.197s.153 1.54-.42 2.114l-3.572 3.572c-.525.525-.814 1.224-.814 1.966 0 .743.29 1.44.814 1.967l4.553 4.553c1.05 1.05 2.88 1.053 3.933 0l3.57-3.572c.575-.573 1.364-.73 2.115-.42.75.31 1.197.98 1.197 1.792v5.052c0 1.533 1.247 2.78 2.78 2.78h6.44C31.75 54 33 52.753 33 51.22v-5.052c0-.812.446-1.48 1.196-1.792.75-.312 1.54-.153 2.114.42l3.57 3.572c1.053 1.052 2.884 1.05 3.934 0l4.553-4.553c.525-.525.814-1.224.814-1.967 0-.742-.288-1.44-.813-1.966l-3.572-3.57c-.573-.575-.73-1.365-.42-2.115S45.355 33 46.168 33h5.052c1.533 0 2.78-1.247 2.78-2.78v-6.44c0-1.533-1.247-2.78-2.78-2.78zm.78 9.22c0 .43-.35.78-.78.78h-5.052c-1.624 0-3.02.932-3.64 2.432-.622 1.5-.295 3.146.854 4.294l3.572 3.57c.305.306.305.8 0 1.105L42.4 46.955c-.303.304-.798.306-1.103 0l-3.57-3.572c-1.15-1.15-2.795-1.474-4.295-.854S31 44.544 31 46.168v5.052c0 .43-.35.78-.78.78h-6.44c-.43 0-.78-.35-.78-.78v-5.052c0-1.624-.932-3.02-2.432-3.64-.503-.21-1.02-.31-1.533-.31-1.014 0-1.997.4-2.76 1.163l-3.572 3.573c-.306.306-.8.304-1.104 0L7.045 42.4c-.305-.305-.305-.8 0-1.104l3.572-3.57c1.148-1.15 1.476-2.795.854-4.295-.62-1.498-2.016-2.43-3.64-2.43H2.78c-.43 0-.78-.35-.78-.78v-6.44c0-.43.35-.78.78-.78h5.052c1.624 0 3.02-.932 3.64-2.432.622-1.5.295-3.146-.854-4.294l-3.572-3.57c-.305-.306-.305-.8 0-1.105L11.6 7.045c.303-.305.798-.305 1.103 0l3.57 3.57c1.148 1.148 2.793 1.477 4.295.855C22.068 10.85 23 9.457 23 7.833V2.78c0-.43.35-.78.78-.78h6.44c.43 0 .78.35.78.78v5.052c0 1.624.932 3.02 2.432 3.64 1.502.622 3.146.294 4.294-.854l3.57-3.57c.307-.306.802-.306 1.105 0l4.554 4.552c.305.305.305.8 0 1.104l-3.572 3.57c-1.148 1.15-1.476 2.795-.854 4.295.62 1.5 2.016 2.43 3.64 2.43h5.052c.43 0 .78.35.78.78v6.44z"/><path d="M27 18c-4.963 0-9 4.037-9 9s4.037 9 9 9 9-4.037 9-9-4.037-9-9-9zm0 16c-3.86 0-7-3.14-7-7s3.14-7 7-7 7 3.14 7 7-3.14 7-7 7z"/></svg>