<svg xmlns="http://www.w3.org/2000/svg" viewBox="0 0 60 60"><path d="M59 31c.553 0 1-.447 1-1s-.447-1-1-1h-3.028c-.06-1.59-.26-3.183-.616-4.76l2.915-.78c.534-.143.85-.69.708-1.225s-.69-.848-1.225-.707l-2.92.783c-.468-1.507-1.078-2.99-1.838-4.43l2.62-1.514c.48-.276.643-.888.366-1.366-.276-.48-.89-.644-1.365-.366l-2.62 1.513c-.868-1.38-1.848-2.65-2.92-3.807l2.138-2.138c.39-.39.39-1.023 0-1.414s-1.023-.39-1.414 0l-2.134 2.133C46.48 9.825 45.2 8.855 43.853 8.01l1.514-2.622c.276-.48.112-1.09-.367-1.366-.478-.276-1.09-.114-1.366.366l-1.516 2.626c-1.42-.746-2.905-1.36-4.432-1.832l.786-2.933c.143-.533-.174-1.082-.707-1.225-.53-.14-1.082.174-1.225.707l-.786 2.932c-1.558-.354-3.15-.564-4.754-.628V1c0-.553-.447-1-1-1s-1 .447-1 1v3.03c-1.59.058-3.183.258-4.76.615l-.78-2.916c-.142-.535-.69-.85-1.225-.708-.533.143-.85.69-.707 1.225l.783 2.922c-1.507.466-2.99 1.075-4.43 1.836l-1.514-2.62c-.277-.48-.89-.643-1.366-.366-.48.276-.643.888-.366 1.366l1.513 2.62c-1.38.868-2.65 1.848-3.807 2.92l-2.138-2.138c-.39-.39-1.023-.39-1.414 0s-.39 1.023 0 1.414l2.133 2.133C9.825 13.52 8.855 14.8 8.01 16.148l-2.622-1.514c-.478-.278-1.09-.113-1.366.366-.276.48-.112 1.09.366 1.366l2.626 1.516c-.746 1.42-1.36 2.905-1.832 4.432l-2.932-.786c-.53-.14-1.082.174-1.225.707s.174 1.082.707 1.225l2.932.786c-.355 1.558-.565 3.15-.63 4.754H1c-.553 0-1 .447-1 1s.447 1 1 1h3.028c.06 1.59.26 3.183.616 4.76l-2.915.78c-.534.143-.85.69-.708 1.225.12.447.523.74.965.74.086 0 .173-.01.26-.033l2.92-.783c.468 1.507 1.078 2.99 1.838 4.43l-2.62 1.514c-.478.276-.642.887-.365 1.366.186.32.52.5.867.5.17 0 .342-.043.5-.134l2.626-1.517c.868 1.378 1.844 2.65 2.915 3.808l-2.14 2.14c-.392.392-.392 1.024 0 1.415.194.195.45.293.706.293s.512-.098.707-.293l2.144-2.143c1.186 1.096 2.46 2.072 3.806 2.917l-1.517 2.627c-.276.48-.112 1.09.366 1.366.156.09.328.134.498.134.346 0 .682-.18.867-.5l1.52-2.632c1.42.746 2.903 1.36 4.43 1.832l-.788 2.94c-.143.532.174 1.08.707 1.224.087.023.174.034.26.034.44 0 .846-.294.965-.74l.787-2.942c1.558.355 3.148.567 4.752.632V59c0 .553.446 1 1 1s1-.447 1-1v-3.035c1.588-.06 3.18-.264 4.755-.62l.784 2.926c.118.448.522.742.964.742.086 0 .173-.01.26-.034.533-.143.85-.69.707-1.225l-.783-2.926c1.507-.467 2.99-1.08 4.43-1.84l1.516 2.627c.186.32.52.5.867.5.17 0 .342-.043.5-.134.478-.276.642-.888.365-1.366l-1.513-2.62c1.38-.868 2.65-1.848 3.807-2.92l2.137 2.138c.195.195.45.293.707.293s.512-.098.707-.293c.392-.39.392-1.023 0-1.414l-2.132-2.133c1.097-1.186 2.067-2.466 2.913-3.813l2.623 1.514c.157.09.33.134.5.134.345 0 .68-.18.866-.5.275-.48.11-1.09-.367-1.366l-2.626-1.516c.746-1.42 1.36-2.905 1.832-4.432l2.93.786c.088.023.175.034.26.034.442 0 .847-.294.966-.74.143-.534-.174-1.083-.707-1.226l-2.933-.786c.354-1.56.564-3.15.63-4.754H59zM42 50.784c-11.17 6.448-25.42 2.866-32.262-7.93l11.296-6.523c2.11 2.992 5.498 4.666 8.986 4.666 1.864 0 3.753-.474 5.48-1.47 1.424-.824 2.585-1.926 3.475-3.19L50.26 42.85c-2.01 3.177-4.786 5.93-8.26 7.934zM18 9.216c3.474-2.006 7.245-3.03 11-3.18V19.06c-1.54.138-3.074.593-4.5 1.415-4.96 2.864-6.84 9.032-4.48 14.133L8.737 41.12C2.808 29.798 6.83 15.665 18 9.217zm16.5 28.577c-4.3 2.48-9.813 1.002-12.293-3.294-2.48-4.298-1.003-9.812 3.294-12.293 4.296-2.482 9.812-1.004 12.293 3.294 2.48 4.298 1.003 9.812-3.294 12.293zm5.475-3.19c1.44-3.134 1.402-6.894-.45-10.102-1.852-3.207-5.09-5.12-8.524-5.44V6.04c7.93.342 15.53 4.59 19.784 11.96 4.255 7.37 4.14 16.077.47 23.117l-11.28-6.514z"/><path d="M31.553 24.205c-1.545-.415-3.164-.2-4.553.6-1.388.8-2.38 2.095-2.795 3.643-.414 1.548-.2 3.165.6 4.553s2.095 2.38 3.643 2.796c.517.14 1.04.207 1.563.207 1.04 0 2.066-.273 2.99-.807 1.39-.8 2.38-2.095 2.796-3.643.414-1.548.2-3.165-.6-4.553s-2.095-2.38-3.643-2.795zm2.31 6.83c-.276 1.032-.938 1.894-1.863 2.428s-2.002.675-3.035.4c-1.032-.276-1.894-.938-2.428-1.863-.534-.926-.677-2.003-.4-3.035s.938-1.894 1.863-2.428c.616-.356 1.3-.538 1.994-.538.347 0 .696.045 1.04.137 1.033.276 1.895.938 2.43 1.863.533.926.676 2.003.4 3.035z"/></svg>