<svg xmlns="http://www.w3.org/2000/svg" viewBox="0 0 60 60"><path d="M59 16h-2.05c-.22-3.108-1.455-5.934-3.38-8.154l1.138-1.14c.39-.39.39-1.022 0-1.413s-1.023-.39-1.414 0l-1.14 1.14c-2.22-1.927-5.046-3.16-8.153-3.382V1c0-.553-.447-1-1-1s-1 .447-1 1v2.05c-3.107.222-5.933 1.456-8.153 3.382l-1.14-1.14c-.39-.39-1.022-.39-1.413 0s-.39 1.024 0 1.415l1.14 1.14c-1.927 2.22-3.16 5.046-3.382 8.153H27c-.552 0-1 .447-1 1s.448 1 1 1h2.05c.222 3.108 1.456 5.934 3.382 8.154l-1.14 1.14c-.11.11-.182.245-.23.385-1.16-1.053-2.45-1.957-3.855-2.68l.708-1.594c.224-.505-.003-1.096-.508-1.32-.506-.223-1.095.004-1.32.508l-.71 1.595C23.393 23.432 21.248 23 19 23c-1.948 0-3.82.32-5.58.896l-.488-1.258c-.2-.515-.78-.77-1.294-.57-.515.2-.77.78-.57 1.295l.492 1.267C7.87 26.314 4.85 29.2 3 32.795l-1.594-.708c-.505-.223-1.095.004-1.32.508-.224.505.003 1.096.508 1.32l1.595.708C1.432 36.61 1 38.753 1 41c0 1.948.32 3.82.896 5.58l-1.258.488c-.515.2-.77.78-.57 1.294C.222 48.758.6 49 1 49c.12 0 .244-.02.363-.068l1.267-.492c1.684 3.69 4.57 6.71 8.165 8.562l-.708 1.593c-.224.505.003 1.096.508 1.32.13.058.27.085.405.085.383 0 .75-.222.915-.594l.71-1.595C14.608 58.57 16.752 59 19 59c1.948 0 3.82-.32 5.58-.896l.488 1.258c.154.396.532.638.932.638.12 0 .243-.02.362-.068.515-.2.77-.78.57-1.294l-.492-1.267c3.69-1.683 6.71-4.57 8.56-8.164l1.594.708c.132.06.27.086.406.086.383 0 .75-.222.915-.594.224-.505-.003-1.096-.508-1.32l-1.595-.708C36.568 45.392 37 43.248 37 41c0-1.948-.32-3.82-.896-5.58l1.258-.488c.515-.2.77-.78.57-1.294-.2-.515-.775-.772-1.294-.57l-1.267.493c-.775-1.7-1.808-3.254-3.05-4.622.14-.048.275-.12.387-.23l1.14-1.14c2.22 1.927 5.046 3.16 8.153 3.382V33c0 .553.448 1 1 1s1-.447 1-1v-2.05c3.108-.222 5.934-1.456 8.154-3.382l1.198 1.198c.195.195.45.293.707.293s.51-.1.706-.294c.39-.39.39-1.023 0-1.414l-1.198-1.198c1.926-2.22 3.16-5.047 3.38-8.154H59c.552 0 1-.447 1-1s-.447-1-1-1zm-40 9c1.96 0 3.828.37 5.565 1.018l-4.91 11.048C19.44 37.03 19.225 37 19 37c-2.206 0-4 1.794-4 4 0 .16.03.31.047.465l-11.29 4.39C3.27 44.323 3 42.693 3 41c0-8.822 7.178-16 16-16zm-1.856 16.732c0-.003 0-.006-.002-.01 0 0-.002 0-.003-.003-.087-.225-.14-.466-.14-.72 0-1.103.897-2 2-2 .28 0 .544.058.786.162.01.004.015.013.024.017h.012C20.515 39.497 21 40.19 21 41c0 1.103-.897 2-2 2-.844 0-1.563-.527-1.856-1.268zm-12.647 5.98l11.267-4.38C16.49 44.337 17.667 45 19 45c.16 0 .31-.03.465-.047l4.39 11.29C22.323 56.73 20.693 57 19 57c-6.423 0-11.96-3.813-14.503-9.287zm21.217 7.792l-4.382-11.267C22.338 43.51 23 42.334 23 41c0-1.265-.602-2.38-1.52-3.115l4.915-11.06C31.502 29.5 35 34.845 35 41c0 6.423-3.812 11.96-9.286 14.504zM43 29c-6.617 0-12-5.383-12-12S36.384 5 43 5s12 5.383 12 12-5.383 12-12 12z"/><path d="M43 13c-2.206 0-4 1.794-4 4s1.794 4 4 4 4-1.794 4-4-1.794-4-4-4zm0 6c-1.103 0-2-.897-2-2s.897-2 2-2 2 .897 2 2-.897 2-2 2z"/></svg>