<svg xmlns="http://www.w3.org/2000/svg" viewBox="0 0 60 60"><path d="M59 31c.553 0 1-.447 1-1s-.447-1-1-1h-3.025c-.062-1.63-.276-3.218-.625-4.757l2.92-.783c.534-.143.85-.69.708-1.225-.142-.533-.69-.848-1.225-.707l-2.915.78c-.034-.11-.073-.216-.11-.325v-.017c-.003-.006-.008-.01-.01-.017-.462-1.414-1.04-2.774-1.727-4.07l2.623-1.514c.48-.276.643-.888.366-1.366-.278-.48-.892-.644-1.367-.366l-2.626 1.516c-.858-1.357-1.835-2.63-2.922-3.802l2.146-2.146c.392-.39.392-1.023 0-1.414s-1.022-.39-1.413 0l-2.146 2.146c-1.17-1.087-2.443-2.064-3.8-2.922l1.516-2.626c.277-.48.113-1.09-.366-1.366-.478-.276-1.09-.114-1.366.366L42.12 7.008c-1.406-.744-2.886-1.367-4.43-1.846l.782-2.915c.143-.533-.174-1.082-.707-1.225-.53-.14-1.082.174-1.225.707l-.783 2.92c-1.54-.35-3.128-.563-4.757-.625V1c0-.553-.447-1-1-1s-1 .447-1 1v3.025c-1.63.062-3.218.275-4.757.625l-.783-2.92c-.143-.535-.69-.85-1.225-.708-.533.143-.85.69-.707 1.225l.78 2.915c-1.542.48-3.022 1.102-4.428 1.846l-1.514-2.622c-.277-.48-.89-.643-1.366-.366-.48.276-.643.888-.366 1.366l1.516 2.626c-1.357.858-2.63 1.835-3.803 2.922L10.2 8.788c-.39-.39-1.022-.39-1.413 0s-.39 1.023 0 1.414l2.146 2.146c-1.086 1.172-2.063 2.445-2.92 3.802l-2.627-1.516c-.478-.278-1.09-.113-1.366.366-.276.48-.112 1.09.366 1.366l2.622 1.514c-.686 1.296-1.264 2.656-1.726 4.07l-.01.016c-.002.006 0 .01-.002.017-.035.11-.075.217-.11.326l-2.914-.782c-.53-.14-1.082.174-1.225.707s.175 1.082.708 1.225l2.92.783c-.347 1.54-.56 3.128-.623 4.757H1c-.553 0-1 .447-1 1s.447 1 1 1h3.025c.062 1.63.276 3.218.625 4.757l-2.92.783c-.534.143-.85.69-.708 1.225.12.447.523.74.965.74.086 0 .173-.01.26-.033l2.915-.78c.48 1.542 1.102 3.022 1.846 4.428l-2.622 1.514c-.48.276-.643.887-.366 1.366.186.32.52.5.867.5.17 0 .342-.043.5-.134L8.01 43.85c.858 1.357 1.835 2.63 2.922 3.802l-2.146 2.146c-.39.39-.39 1.023 0 1.414.195.195.45.293.707.293s.512-.098.707-.293l2.146-2.146c.736.682 1.51 1.322 2.323 1.916.02.015.03.037.05.052.027.02.06.028.088.045.438.315.886.618 1.344.908l-1.516 2.626c-.276.48-.112 1.09.366 1.366.157.09.33.134.5.134.345 0 .68-.18.866-.5l1.514-2.622c1.406.744 2.886 1.367 4.43 1.846l-.782 2.915c-.143.533.174 1.082.707 1.225.087.023.174.034.26.034.44 0 .846-.294.965-.74l.783-2.922c1.54.35 3.13.563 4.757.625V59c0 .553.447 1 1 1s1-.447 1-1v-3.025c1.63-.062 3.218-.275 4.757-.625l.782 2.92c.12.448.523.742.965.742.086 0 .173-.01.26-.034.533-.143.85-.69.707-1.225l-.78-2.915c1.542-.48 3.022-1.102 4.428-1.846l1.514 2.622c.186.32.52.5.867.5.17 0 .342-.043.5-.134.478-.276.642-.888.365-1.366l-1.516-2.626c.458-.29.906-.593 1.344-.91.03-.016.06-.024.088-.044.02-.014.03-.036.048-.052.81-.594 1.586-1.234 2.323-1.916l2.146 2.146c.196.195.452.293.708.293s.512-.098.707-.293c.39-.39.39-1.023 0-1.414l-2.146-2.146c1.085-1.172 2.063-2.446 2.92-3.802l2.627 1.516c.157.09.33.134.5.134.345 0 .68-.18.866-.5.276-.48.112-1.09-.366-1.366l-2.622-1.514c.744-1.406 1.367-2.886 1.846-4.43l2.916.782c.087.023.174.034.26.034.44 0 .846-.294.965-.74.144-.534-.173-1.083-.706-1.226l-2.92-.783c.348-1.54.562-3.13.624-4.757H59zM44.893 48.8L37.238 38.26C39.538 36.244 41 33.292 41 30c0-.836-.102-1.648-.28-2.43l12.39-4.027c.576 2.056.89 4.22.89 6.457 0 7.61-3.564 14.4-9.107 18.8zM30 54c-4.907 0-9.474-1.483-13.28-4.02l7.66-10.542C26.025 40.423 27.944 41 30 41s3.974-.577 5.622-1.562l7.658 10.54C39.474 52.52 34.907 54 30 54zM6 30c0-2.237.314-4.4.89-6.458l12.39 4.026c-.178.784-.28 1.596-.28 2.432 0 3.293 1.462 6.244 3.76 8.262L15.107 48.8C9.564 44.4 6 37.61 6 30zM29 6.025V19.05c-4.094.37-7.546 2.99-9.107 6.614L7.505 21.64C10.795 12.812 19.14 6.43 29 6.024zM52.495 21.64l-12.388 4.025c-1.56-3.624-5.013-6.243-9.107-6.614V6.026c9.86.407 18.204 6.788 21.495 15.614zM30 39c-4.963 0-9-4.037-9-9s4.037-9 9-9 9 4.037 9 9-4.037 9-9 9z"/><circle cx="30" cy="30" r="1"/></svg>