<svg xmlns="http://www.w3.org/2000/svg" viewBox="0 0 58.995 58.995"><path d="M39.927 41.93c-.524.523-.975 1.1-1.365 1.708l-17.28-10.49c.457-1.143.716-2.387.716-3.692 0-1.305-.26-2.55-.715-3.693l17.284-10.41c1.775 2.79 4.887 4.647 8.43 4.647 5.515 0 10-4.486 10-10s-4.485-10-10-10-10 4.486-10 10c0 1.256.244 2.454.668 3.562L20.358 23.985c-1.788-2.724-4.866-4.53-8.36-4.53-5.515 0-10 4.487-10 10s4.485 10 10 10c3.494 0 6.57-1.804 8.36-4.528L37.66 45.43c-.43 1.126-.663 2.33-.663 3.57 0 2.67 1.04 5.183 2.93 7.07 1.948 1.95 4.51 2.925 7.07 2.925s5.122-.975 7.07-2.924c1.89-1.888 2.93-4.4 2.93-7.07s-1.04-5.183-2.93-7.07c-3.898-3.9-10.24-3.9-14.14 0zM46.997 2c4.412 0 8 3.59 8 8s-3.588 8-8 8-8-3.59-8-8 3.59-8 8-8zm-35 35.456c-4.41 0-8-3.59-8-8s3.59-8 8-8 8 3.59 8 8-3.588 8-8 8zm40.657 17.2c-3.12 3.12-8.194 3.12-11.313 0C39.83 53.147 39 51.137 39 49s.832-4.146 2.343-5.657c1.56-1.56 3.61-2.34 5.658-2.34s4.097.78 5.657 2.34c1.51 1.51 2.343 3.52 2.343 5.657s-.832 4.146-2.344 5.657z"/></svg>