<svg xmlns="http://www.w3.org/2000/svg" viewBox="0 0 58 58"><path d="M54.32 37.84c.442-1.922.68-3.88.68-5.84 0-9.095-4.63-17.377-12.39-22.153-.472-.29-1.086-.143-1.375.327-.29.47-.143 1.086.327 1.376C48.724 15.96 53 23.604 53 32c0 1.726-.2 3.45-.573 5.147C51.967 37.05 51.49 37 51 37c-3.86 0-7 3.14-7 7s3.14 7 7 7 7-3.14 7-7c0-2.66-1.49-4.976-3.68-6.16zM51 49c-2.757 0-5-2.243-5-5s2.243-5 5-5 5 2.243 5 5-2.243 5-5 5zM38.17 54.182C35.257 55.388 32.17 56 29 56c-6.385 0-12.527-2.575-17.017-7.092C13.23 47.643 14 45.91 14 44c0-3.86-3.14-7-7-7s-7 3.14-7 7 3.14 7 7 7c1.226 0 2.378-.32 3.38-.875C15.26 55.135 21.995 58 29 58c3.435 0 6.778-.663 9.936-1.97.51-.212.753-.797.542-1.308-.21-.51-.797-.75-1.307-.54zM2 44c0-2.757 2.243-5 5-5s5 2.243 5 5-2.243 5-5 5-5-2.243-5-5zM4 31.213l.07.003c.522 0 .96-.402.998-.93.712-10.09 7.586-18.52 17.22-21.314C23.142 11.874 25.825 14 29 14c3.86 0 7-3.14 7-7s-3.14-7-7-7c-3.85 0-6.985 3.127-7 6.975C11.42 9.922 3.85 19.12 3.074 30.145c-.04.55.376 1.03.927 1.068zM29 2c2.757 0 5 2.243 5 5s-2.243 5-5 5-5-2.243-5-5 2.243-5 5-5z"/></svg>