<svg xmlns="http://www.w3.org/2000/svg" viewBox="0 0 60 60"><path d="M30 0C13.458 0 0 13.458 0 30s13.458 30 30 30 30-13.458 30-30S46.542 0 30 0zm0 58C14.56 58 2 45.44 2 30S14.56 2 30 2s28 12.56 28 28-12.56 28-28 28z"/><path d="M39 20c3.31 0 6-2.69 6-6s-2.69-6-6-6c-3.13 0-5.705 2.41-5.973 5.474L18.96 23.788c-.874-.5-1.883-.788-2.96-.788-3.31 0-6 2.69-6 6s2.69 6 6 6c1.077 0 2.086-.29 2.96-.788l14.066 10.314C33.296 47.59 35.87 50 39 50c3.31 0 6-2.69 6-6s-2.69-6-6-6c-2.69 0-4.972 1.78-5.73 4.223l-12.717-9.325C21.453 31.848 22 30.488 22 29s-.548-2.848-1.448-3.898l12.716-9.325C34.028 18.22 36.31 20 39 20zm0-10c2.206 0 4 1.794 4 4s-1.794 4-4 4-4-1.794-4-4 1.794-4 4-4zM12 29c0-2.206 1.794-4 4-4s4 1.794 4 4-1.794 4-4 4-4-1.794-4-4zm27 11c2.206 0 4 1.794 4 4s-1.794 4-4 4-4-1.794-4-4 1.794-4 4-4z"/></svg>