<svg xmlns="http://www.w3.org/2000/svg" viewBox="0 0 49.7 49.7"><path d="M27 13.85h9v8.964l13.7-9.964L36 2.886v8.964h-9c-7.168 0-13 5.832-13 13 0 6.065-4.935 11-11 11H1c-.553 0-1 .447-1 1s.447 1 1 1h2c7.168 0 13-5.832 13-13 0-6.065 4.935-11 11-11zm11-7.036l8.3 6.036-8.3 6.036V6.814zM1 13.85h2c2.713 0 5.318.994 7.336 2.8.19.17.43.254.667.254.274 0 .548-.112.745-.333.368-.41.333-1.043-.078-1.41-2.385-2.135-5.464-3.31-8.67-3.31H1c-.553 0-1 .447-1 1s.447 1 1 1zM36 35.85h-9c-2.685 0-5.27-.976-7.278-2.748-.41-.365-1.044-.327-1.41.09-.366.413-.327 1.045.088 1.41 2.374 2.095 5.43 3.248 8.6 3.248h9v8.964l13.7-9.964L36 26.886v8.964zm2-5.036l8.3 6.036-8.3 6.036V30.814z"/></svg>