<svg xmlns="http://www.w3.org/2000/svg" viewBox="0 0 60 60"><path d="M11 19h2c2.713 0 5.318.994 7.336 2.8.19.17.43.254.667.254.274 0 .548-.112.745-.333.368-.41.333-1.043-.078-1.41C19.285 18.174 16.206 17 13 17h-2c-.553 0-1 .447-1 1s.447 1 1 1zM36.19 9.412c-.324.446-.226 1.072.222 1.396L44.925 17H37c-7.168 0-13 5.832-13 13 0 6.065-4.935 11-11 11h-2c-.553 0-1 .447-1 1s.447 1 1 1h2c7.168 0 13-5.832 13-13 0-6.065 4.935-11 11-11h7.925l-8.513 6.19c-.447.325-.546.95-.22 1.397.194.27.5.412.81.412.203 0 .408-.064.586-.192L49.7 18 37.588 9.19c-.448-.324-1.072-.226-1.397.222zM36.19 33.412c-.324.446-.226 1.072.222 1.396L44.925 41H37c-2.685 0-5.27-.976-7.278-2.748-.41-.365-1.044-.326-1.41.09-.366.413-.327 1.045.088 1.41C30.773 41.847 33.828 43 37 43h7.925l-8.513 6.19c-.447.325-.546.95-.22 1.397.194.27.5.412.81.412.203 0 .408-.064.586-.192L49.7 42l-12.112-8.81c-.448-.324-1.072-.226-1.397.222z"/><path d="M30 0C13.458 0 0 13.458 0 30s13.458 30 30 30 30-13.458 30-30S46.542 0 30 0zm0 58C14.56 58 2 45.44 2 30S14.56 2 30 2s28 12.56 28 28-12.56 28-28 28z"/></svg>