<svg xmlns="http://www.w3.org/2000/svg" viewBox="0 0 52 52"><path d="M52 26C52 11.663 40.337 0 26 0S0 11.663 0 26c0 5.153 1.513 9.956 4.108 14h-.11L5.2 41.6c3.874 5.16 9.345 8.59 15.483 9.852l.17.035c.343.068.687.13 1.034.185.154.025.31.046.465.068.28.04.56.077.84.107.253.027.507.046.76.066.207.016.41.036.618.047.474.025.95.04 1.43.04s.956-.015 1.43-.04c.207-.012.41-.032.617-.048.254-.02.508-.04.76-.066.282-.03.56-.068.84-.107.156-.023.312-.044.466-.07.347-.053.69-.116 1.035-.184.057-.01.113-.023.17-.035 6.137-1.26 11.608-4.692 15.482-9.85l1.202-1.6h-.11C50.487 35.956 52 31.153 52 26zM2 26C2 12.767 12.767 2 26 2s24 10.767 24 24c0 5.222-1.682 10.056-4.525 14H6.525C3.682 36.056 2 31.222 2 26zm26.463 23.874c-.088.01-.177.013-.265.02-.315.03-.63.057-.948.073-.415.02-.83.033-1.25.033s-.835-.012-1.25-.033c-.318-.016-.633-.043-.948-.072-.088-.008-.177-.012-.265-.02C17.44 49.25 12.013 46.33 8.13 42h35.74c-3.883 4.33-9.31 7.25-15.407 7.874z"/></svg>