<svg xmlns="http://www.w3.org/2000/svg" viewBox="0 0 60 60"><path d="M48.937 21l8.994-8.094c.258-.23.406-.56.406-.906 0-.345-.148-.676-.402-.902L48.937 3H29.664V1c0-.553-.448-1-1-1s-1 .447-1 1v2H10.06C8.19 3 6.666 4.525 6.666 6.398v11.206C6.665 19.476 8.188 21 10.06 21h17.605v2H11.063l-8.998 8.098c-.255.23-.4.558-.4.902s.145.672.4.903L11.064 41h16.6v18c0 .553.45 1 1 1s1-.447 1-1V41H50.27c1.873 0 3.396-1.523 3.396-3.396V26.396c0-1.873-1.523-3.396-3.396-3.396H29.664v-2h19.273zm2.727 5.396v11.207c0 .77-.626 1.396-1.396 1.396H11.83l-7.777-7 7.778-7H50.27c.77 0 1.396.626 1.396 1.396zm-43-8.792V6.397C8.664 5.627 9.29 5 10.06 5h38.108l7.778 7-7.778 7H10.06c-.77 0-1.396-.626-1.396-1.396z"/></svg>