<svg xmlns="http://www.w3.org/2000/svg" viewBox="0 0 60 60"><path d="M37.563 29.174l-22-15c-.307-.208-.704-.23-1.03-.058-.328.173-.533.513-.533.884v30c0 .37.205.71.533.884.146.078.307.116.467.116.197 0 .394-.06.563-.174l22-15c.273-.186.437-.495.437-.826s-.164-.64-.437-.826zM16 43.107V16.893L35.225 30 16 43.107z"/><path d="M30 0C13.458 0 0 13.458 0 30s13.458 30 30 30 30-13.458 30-30S46.542 0 30 0zm0 58C14.56 58 2 45.44 2 30S14.56 2 30 2s28 12.56 28 28-12.56 28-28 28z"/><path d="M40 46h7V14h-7v32zm2-30h3v28h-3V16z"/></svg>