<svg xmlns="http://www.w3.org/2000/svg" viewBox="0 0 60 60"><path d="M35.5 30.995c-.55 0-1 .447-1 1V46h-30V8h30v13.998c0 .553.45 1 1 1s1-.447 1-1V4.405C36.5 1.977 34.526 0 32.096 0H6.905C4.478 0 2.502 1.977 2.502 4.405v51.19C2.5 58.022 4.478 60 6.907 60h25.19c2.428 0 4.404-1.977 4.404-4.405v-23.6c0-.553-.447-1-1-1zM6.907 2h25.19C33.42 2 34.5 3.08 34.5 4.405V6h-30V4.405C4.5 3.08 5.58 2 6.906 2zm25.19 56H6.905C5.58 58 4.5 56.92 4.5 55.595V48h30v7.595C34.5 56.92 33.423 58 32.096 58z"/><path d="M19.5 49c-2.205 0-4 1.794-4 4s1.795 4 4 4 4-1.794 4-4-1.794-4-4-4zm0 6c-1.102 0-2-.897-2-2s.898-2 2-2 2 .897 2 2-.896 2-2 2zM15.5 5h4c.553 0 1-.447 1-1s-.447-1-1-1h-4c-.55 0-1 .447-1 1s.448 1 1 1zM22.5 5h1c.553 0 1-.447 1-1s-.447-1-1-1h-1c-.55 0-1 .447-1 1s.448 1 1 1zM57.424 27.382c.1-.244.1-.52 0-.764-.05-.123-.125-.234-.217-.327l-12-11.997c-.39-.39-1.022-.39-1.413 0s-.39 1.023 0 1.414L54.087 26H18.5c-.55 0-1 .447-1 1s.45 1 1 1h35.587L43.794 38.293c-.39.39-.39 1.023 0 1.414.195.195.45.293.707.293s.513-.098.708-.293l12-12c.09-.09.165-.202.216-.325z"/></svg>