<svg xmlns="http://www.w3.org/2000/svg" viewBox="0 0 60 60"><path d="M17 49c-2.206 0-4 1.794-4 4s1.794 4 4 4 4-1.794 4-4-1.794-4-4-4zm0 6c-1.103 0-2-.897-2-2s.897-2 2-2 2 .897 2 2-.897 2-2 2zM13 5h4c.552 0 1-.447 1-1s-.448-1-1-1h-4c-.552 0-1 .447-1 1s.448 1 1 1zM20 5h1c.552 0 1-.447 1-1s-.448-1-1-1h-1c-.552 0-1 .447-1 1s.448 1 1 1zM54 47c0-.553-.448-1-1-1s-1 .447-1 1v1c0 .553.448 1 1 1s1-.447 1-1v-1zM54 35c0-.553-.448-1-1-1s-1 .447-1 1v1c0 .553.448 1 1 1s1-.447 1-1v-1zM54 43c0-.553-.448-1-1-1s-1 .447-1 1v1c0 .553.448 1 1 1s1-.447 1-1v-1zM54 39c0-.553-.448-1-1-1s-1 .447-1 1v1c0 .553.448 1 1 1s1-.447 1-1v-1zM54 31c0-.553-.448-1-1-1s-1 .447-1 1v1c0 .553.448 1 1 1s1-.447 1-1v-1zM54 51c0-.553-.448-1-1-1s-1 .447-1 1v1c0 .553.448 1 1 1s1-.447 1-1v-1zM53 54c-.552 0-1 .447-1 1v1c0 .553.448 1 1 1s1-.447 1-1v-1c0-.553-.448-1-1-1zM38.043 58h-.994c-.553 0-1 .447-1 1s.447 1 1 1h.993c.552 0 1-.447 1-1s-.448-1-1-1z"/><path d="M34.07 58h-.793l.005-.01c.124-.19.23-.39.324-.596.023-.05.046-.1.067-.152.02-.046.043-.09.06-.136.014-.038.008-.076.017-.114.15-.44.25-.906.25-1.397V28.857c.296-.175.5-.49.5-.857 0-.365-.207-.672-.5-.846V4.404C34 1.978 32.024 0 29.595 0H4.405C1.975 0 0 1.977 0 4.405v51.19C0 58.022 1.976 60 4.405 60h25.69c.15 0 .292-.04.42-.1.586-.126 1.125-.37 1.6-.703.095.455.478.803.96.803h.994c.55 0 1-.447 1-1s-.45-1-1-1zM2 8h30v37.998H2V8zm2.405-6h25.19C30.92 2 32 3.08 32 4.405V6H2V4.405C2 3.08 3.08 2 4.405 2zm25.19 56H4.405C3.08 58 2 56.92 2 55.595V48h30v7.593c0 .31-.064.603-.17.874-.068.173-.153.338-.26.49-.433.63-1.156 1.042-1.975 1.042zM42.018 58h-.994c-.552 0-1 .447-1 1s.448 1 1 1h.994c.552 0 1-.447 1-1s-.448-1-1-1zM45.443 29c.552 0 1-.447 1-1s-.448-1-1-1h-.994c-.553 0-1 .447-1 1s.447 1 1 1h.993zM37.494 29c.552 0 1-.447 1-1s-.448-1-1-1H36.5c-.552 0-1 .447-1 1s.448 1 1 1h.994zM45.992 58h-.994c-.552 0-1 .447-1 1s.448 1 1 1h.994c.552 0 1-.447 1-1s-.448-1-1-1zM41.468 29c.552 0 1-.447 1-1s-.448-1-1-1h-.994c-.552 0-1 .447-1 1s.448 1 1 1h.994zM53.94 58h-.994c-.552 0-1 .447-1 1s.448 1 1 1h.994c.552 0 1-.447 1-1s-.447-1-1-1zM59 41.73c-.552 0-1 .446-1 1v.993c0 .553.448 1 1 1s1-.447 1-1v-.994c0-.554-.448-1-1-1zM59 49.678c-.552 0-1 .447-1 1v.993c0 .554.448 1 1 1s1-.446 1-1v-.992c0-.553-.448-1-1-1zM59 45.703c-.552 0-1 .447-1 1v.993c0 .553.448 1 1 1s1-.447 1-1v-.993c0-.553-.448-1-1-1zM59 37.754c-.552 0-1 .447-1 1v.994c0 .553.448 1 1 1s1-.447 1-1v-.994c0-.553-.448-1-1-1zM59.933 30.636c-.096-.544-.61-.913-1.16-.81-.542.095-.906.613-.81 1.157.024.137.037.28.037.422v.395c0 .553.448 1 1 1s1-.447 1-1v-.395c0-.258-.023-.516-.067-.77zM49.417 29c.552 0 1-.447 1-1s-.448-1-1-1h-.994c-.552 0-1 .447-1 1s.448 1 1 1h.994zM59 33.78c-.552 0-1 .447-1 1v.993c0 .553.448 1 1 1s1-.447 1-1v-.993c0-.552-.448-1-1-1zM53.39 29c.553 0 1-.447 1-1s-.447-1-1-1h-.993c-.552 0-1 .447-1 1s.448 1 1 1h.994zM49.966 58h-.994c-.552 0-1 .447-1 1s.448 1 1 1h.994c.552 0 1-.447 1-1s-.447-1-1-1zM56.788 29.317c.157.09.33.133.498.133.346 0 .683-.18.868-.502.275-.48.11-1.09-.37-1.365-.373-.215-.775-.372-1.195-.47-.537-.122-1.075.214-1.2.752-.123.538.213 1.075.752 1.198.226.052.443.138.646.254zM59 53.65c-.552 0-1 .448-1 1v.994c0 .553.448.976 1 .976s1-.473 1-1.025v-.943c0-.553-.448-1-1-1zM57.108 57.464c-.182.148-.384.27-.6.357-.51.21-.755.795-.545 1.306.16.387.532.62.925.62.126 0 .255-.024.38-.075.396-.162.767-.383 1.1-.653.43-.35.495-.98.146-1.407-.347-.43-.977-.494-1.406-.146zM51.618 20.923c.122.05.252.077.382.077s.26-.026.382-.077c.123-.05.233-.124.326-.216l6-6c.39-.39.39-1.023 0-1.414s-1.024-.39-1.415 0L53 17.586V15c0-7.168-5.832-13-13-13-.552 0-1 .447-1 1s.448 1 1 1c6.065 0 11 4.935 11 11v2.586l-4.293-4.293c-.39-.39-1.023-.39-1.414 0s-.39 1.023 0 1.414l6 6c.092.092.202.165.325.216z"/></svg>