<svg xmlns="http://www.w3.org/2000/svg" viewBox="0 0 60 60"><path d="M35.5 30.995c-.553 0-1 .447-1 1V46h-30V8h30v13.998c0 .553.447 1 1 1s1-.447 1-1V4.405C36.5 1.977 34.523 0 32.095 0H6.905C4.477 0 2.5 1.977 2.5 4.405v51.19C2.5 58.022 4.477 60 6.905 60h25.19c2.428 0 4.404-1.977 4.404-4.405v-23.6c0-.553-.447-1-1-1zM6.905 2h25.19C33.42 2 34.5 3.08 34.5 4.405V6h-30V4.405C4.5 3.08 5.58 2 6.905 2zm25.19 56H6.905C5.58 58 4.5 56.92 4.5 55.595V48h30v7.595C34.5 56.92 33.42 58 32.095 58z"/><path d="M19.5 49c-2.206 0-4 1.794-4 4s1.794 4 4 4 4-1.794 4-4-1.794-4-4-4zm0 6c-1.103 0-2-.897-2-2s.897-2 2-2 2 .897 2 2-.897 2-2 2zM15.5 5h4c.553 0 1-.447 1-1s-.447-1-1-1h-4c-.553 0-1 .447-1 1s.447 1 1 1zM22.5 5h1c.553 0 1-.447 1-1s-.447-1-1-1h-1c-.553 0-1 .447-1 1s.447 1 1 1zM56.5 26H20.914l10.293-10.293c.39-.39.39-1.023 0-1.414s-1.023-.39-1.414 0l-12 12c-.092.092-.165.203-.216.326-.1.243-.1.52 0 .763.05.123.124.234.217.327l12 12c.194.192.45.29.706.29s.512-.098.707-.293c.39-.39.39-1.023 0-1.414L20.914 28H56.5c.553 0 1-.447 1-1s-.447-1-1-1z"/></svg>