<svg xmlns="http://www.w3.org/2000/svg" viewBox="0 0 60 60"><path d="M41.5 49c-2.206 0-4 1.794-4 4s1.794 4 4 4 4-1.794 4-4-1.794-4-4-4zm0 6c-1.103 0-2-.897-2-2s.897-2 2-2 2 .897 2 2-.897 2-2 2zM37.5 5h4c.552 0 1-.447 1-1s-.448-1-1-1h-4c-.552 0-1 .447-1 1s.448 1 1 1zM44.5 5h1c.552 0 1-.447 1-1s-.448-1-1-1h-1c-.552 0-1 .447-1 1s.448 1 1 1z"/><path d="M54.095 0h-25.19C26.475 0 24.5 1.977 24.5 4.405v9.534c-5.254 2.018-9 7.103-9 13.06 0 3.258 1.128 6.253 3.002 8.634L1.816 51.27c-.403.38-.424 1.012-.046 1.414.197.21.463.316.73.316.245 0 .49-.09.684-.27l16.663-15.616c1.33 1.27 2.907 2.276 4.653 2.947v15.535c0 2.43 1.976 4.405 4.405 4.405h25.19c2.428 0 4.404-1.977 4.404-4.405V4.405C58.5 1.977 56.523 0 54.094 0zm-25.19 2h25.19C55.42 2 56.5 3.08 56.5 4.405V6h-30V4.405C26.5 3.08 27.58 2 28.905 2zM17.5 27c0-5.34 3.507-9.87 8.336-11.423.158-.05.318-.09.477-.134.185-.05.37-.102.558-.144.163-.038.326-.068.49-.098.213-.04.427-.072.644-.1.136-.016.272-.035.408-.047.36-.033.72-.055 1.088-.055 6.617 0 12 5.383 12 12s-5.383 12-12 12c-.367 0-.73-.022-1.088-.055-.136-.013-.272-.03-.408-.048-.216-.027-.43-.06-.644-.1-.163-.03-.326-.06-.49-.096-.187-.04-.372-.092-.557-.143-.16-.044-.32-.083-.477-.134C21.006 36.87 17.5 32.34 17.5 27zm10.3 13.886c.07.01.142.025.214.033.49.05.984.08 1.486.08 7.72 0 14-6.28 14-14s-6.28-14-14-14c-.502 0-.997.03-1.486.08-.072.01-.142.025-.214.034-.422.05-.84.117-1.25.205l-.05.007V8h30v38h-30v-5.327c.017.003.033.004.05.008.41.09.828.155 1.25.206zM54.095 58h-25.19c-1.326 0-2.405-1.08-2.405-2.405V48h30v7.595C56.5 56.92 55.42 58 54.095 58z"/></svg>