<svg xmlns="http://www.w3.org/2000/svg" viewBox="0 0 60 60"><path d="M42.595 0h-25.19C14.977 0 13 1.977 13 4.405v51.19C13 58.022 14.977 60 17.405 60h25.19C45.022 60 47 58.023 47 55.595V4.405C47 1.977 45.023 0 42.595 0zM15 8h30v38H15V8zm2.405-6h25.19C43.92 2 45 3.08 45 4.405V6H15V4.405C15 3.08 16.08 2 17.405 2zm25.19 56h-25.19C16.08 58 15 56.92 15 55.595V48h30v7.595C45 56.92 43.92 58 42.595 58z"/><path d="M30 49c-2.206 0-4 1.794-4 4s1.794 4 4 4 4-1.794 4-4-1.794-4-4-4zm0 6c-1.103 0-2-.897-2-2s.897-2 2-2 2 .897 2 2-.897 2-2 2zM26 5h4c.553 0 1-.447 1-1s-.447-1-1-1h-4c-.553 0-1 .447-1 1s.447 1 1 1zM33 5h1c.553 0 1-.447 1-1s-.447-1-1-1h-1c-.553 0-1 .447-1 1s.447 1 1 1zM21.456 31.773l-.045.042.978.708c.032.023.066.042.098.065.193.138.39.268.593.396.122.078.246.153.37.226.192.112.383.222.58.324.164.086.333.164.502.243.168.078.332.16.504.232.335.14.676.263 1.02.374.12.04.245.068.366.103.26.075.52.144.783.202.136.03.272.055.41.08.27.05.54.092.814.125.123.015.246.032.37.044.397.036.797.06 1.2.06.403 0 .802-.024 1.2-.06.124-.013.246-.03.37-.045.274-.033.546-.074.816-.125.136-.025.27-.05.406-.08.267-.06.53-.13.792-.205.118-.034.238-.063.355-.1.345-.11.687-.235 1.024-.375.165-.068.323-.148.485-.223.175-.082.35-.163.523-.253.19-.1.375-.205.56-.313.132-.077.265-.157.396-.24.192-.122.382-.247.567-.378.034-.024.07-.045.105-.07l1.012-.73-.05-.045C41.276 29.372 43 25.887 43 22c0-7.168-5.832-13-13-13s-13 5.832-13 13c0 3.896 1.732 7.39 4.456 9.773zm5.864.883c-.396-.098-.786-.222-1.17-.365-.045-.016-.09-.03-.136-.05-.395-.152-.783-.326-1.16-.526l2.43-1.324c.745-.407 1.208-1.188 1.208-2.037v-1.688l-.233-.278c-.01-.01-.805-.987-1.105-2.294l-.134-.467-.34-.22.032-1.512.33-.298v-2.54l-.01-.13c0-.008-.07-.745.43-1.316.467-.532 1.354-.814 2.565-.814 1.198 0 2.08.276 2.55.8.517.57.446 1.312.444 1.33l-.008 2.227.033.505.33.298v1.45c0 .042-.04.07-.065.078l-.498.153-.16.497c-.223.692-.54 1.33-.942 1.898-.093.133-.18.246-.258.333l-.25.284v1.736c0 .884.49 1.68 1.28 2.074l2.584 1.292c-.015.008-.03.014-.044.02-.352.184-.715.344-1.084.485l-.19.07c-.374.134-.756.253-1.144.347l-.03.007c-1.713.407-3.522.4-5.233-.02-.006 0-.013-.002-.02-.004zM30 11c6.065 0 11 4.935 11 11 0 3.415-1.564 6.47-4.013 8.49-.05-.028-.096-.062-.146-.087l-3.46-1.73c-.108-.054-.178-.166-.178-.286v-1.005c.047-.062.095-.127.143-.195.438-.617.797-1.298 1.07-2.028.59-.376.962-1.028.962-1.754v-1.45c0-.417-.13-.824-.363-1.167v-1.68c.032-.362.072-1.69-.916-2.817-.87-.992-2.24-1.496-4.07-1.496s-3.198.504-4.068 1.496c-.987 1.127-.948 2.454-.916 2.816v1.68c-.234.342-.363.75-.363 1.166v1.45c0 .56.225 1.086.614 1.474.322 1.14.883 2.036 1.2 2.482v.99c0 .118-.065.226-.168.282l-3.232 1.764c-.037.02-.07.047-.107.068C20.553 28.446 19 25.4 19 22c0-6.065 4.935-11 11-11zM24 37h-8v8h28v-8H24zm-6 6v-4h4v4h-4zm24 0H24v-4h18v4z"/></svg>