<svg xmlns="http://www.w3.org/2000/svg" viewBox="0 0 60 60"><path d="M42.595 0h-25.19C14.977 0 13 1.977 13 4.405v51.19C13 58.022 14.977 60 17.405 60h25.19C45.022 60 47 58.023 47 55.595V4.405C47 1.977 45.023 0 42.595 0zM15 8h30v38H15V8zm2.405-6h25.19C43.92 2 45 3.08 45 4.405V6H15V4.405C15 3.08 16.08 2 17.405 2zm25.19 56h-25.19C16.08 58 15 56.92 15 55.595V48h30v7.595C45 56.92 43.92 58 42.595 58z"/><path d="M30 49c-2.206 0-4 1.794-4 4s1.794 4 4 4 4-1.794 4-4-1.794-4-4-4zm0 6c-1.103 0-2-.897-2-2s.897-2 2-2 2 .897 2 2-.897 2-2 2zM26 5h4c.553 0 1-.447 1-1s-.447-1-1-1h-4c-.553 0-1 .447-1 1s.447 1 1 1zM33 5h1c.553 0 1-.447 1-1s-.447-1-1-1h-1c-.553 0-1 .447-1 1s.447 1 1 1zM38 21c2.757 0 5-2.243 5-5s-2.243-5-5-5H22c-2.757 0-5 2.243-5 5v10.414L22.414 21H38zm-19 .586V16c0-1.654 1.346-3 3-3h16c1.654 0 3 1.346 3 3s-1.346 3-3 3H21.586L19 21.586zM38 28H22c-2.757 0-5 2.243-5 5s2.243 5 5 5h15.586L43 43.414V33c0-2.757-2.243-5-5-5zm3 10.586L38.414 36H22c-1.654 0-3-1.346-3-3s1.346-3 3-3h16c1.654 0 3 1.346 3 3v5.586z"/></svg>