<svg xmlns="http://www.w3.org/2000/svg" viewBox="0 0 60 60"><path d="M7 39c-2.206 0-4 1.794-4 4s1.794 4 4 4 4-1.794 4-4-1.794-4-4-4zm0 6c-1.103 0-2-.897-2-2s.897-2 2-2 2 .897 2 2-.897 2-2 2zM56 38c-.552 0-1 .447-1 1v4c0 .553.448 1 1 1s1-.447 1-1v-4c0-.553-.448-1-1-1zM56 45c-.552 0-1 .447-1 1v1c0 .553.448 1 1 1s1-.447 1-1v-1c0-.553-.448-1-1-1zM36 6h-1c-.552 0-1 .447-1 1s.448 1 1 1h1c.552 0 1-.447 1-1s-.448-1-1-1zM51 6c-.552 0-1 .447-1 1s.448 1 1 1h1c.552 0 1-.447 1-1s-.448-1-1-1h-1zM55 6c-.552 0-1 .447-1 1s.448 1 1 1h1c.552 0 1-.447 1-1s-.448-1-1-1h-1zM40 6h-1c-.552 0-1 .447-1 1s.448 1 1 1h1c.552 0 1-.447 1-1s-.448-1-1-1zM47 6c-.552 0-1 .447-1 1s.448 1 1 1h1c.552 0 1-.447 1-1s-.448-1-1-1h-1zM44 6h-1c-.552 0-1 .447-1 1s.448 1 1 1h1c.552 0 1-.447 1-1s-.448-1-1-1zM32 6h-1c-.552 0-1 .447-1 1s.448 1 1 1h1c.552 0 1-.447 1-1s-.448-1-1-1z"/><path d="M59.9 29.483c-.126-.585-.37-1.124-.702-1.598.454-.094.802-.478.802-.96v-.993c0-.553-.448-1-1-1s-1 .447-1 1v.792c-.012-.008-.025-.013-.037-.02-.178-.115-.363-.215-.555-.303-.058-.025-.114-.052-.173-.076-.044-.018-.085-.04-.13-.057-.035-.013-.07-.008-.107-.017-.444-.15-.91-.25-1.403-.25H28.852c-.173-.296-.487-.5-.856-.5-.367 0-.674.207-.848.5H4.405C1.975 26 0 27.977 0 30.405v25.19C0 58.022 1.976 60 4.405 60h51.19C58.024 60 60 58.023 60 55.595v-25.69c0-.152-.04-.293-.1-.422zM28.5 28H51.998v30H14V28h14.5zM2 55.595v-25.19C2 29.08 3.08 28 4.405 28H12v30H4.405C3.08 58 2 56.92 2 55.595zm56 0C58 56.92 56.92 58 55.595 58H54V28h1.595c.307 0 .597.063.867.168.177.07.346.156.503.265.624.435 1.035 1.155 1.035 1.972v25.19zM58 22.95c0 .553.448 1 1 1s1-.447 1-1v-.993c0-.553-.448-1-1-1s-1 .447-1 1v.993zM58 15.002c0 .553.448 1 1 1s1-.447 1-1v-.993c0-.554-.448-1-1-1s-1 .446-1 1V15zM46.703 2h.994c.552 0 1-.447 1-1s-.448-1-1-1h-.994c-.552 0-1 .447-1 1s.448 1 1 1zM54.652 2h.994c.552 0 .975-.447.975-1s-.472-1-1.024-1h-.943c-.552 0-1 .447-1 1s.447 1 1 1zM50.678 2h.993c.553 0 1-.447 1-1s-.447-1-1-1h-.992c-.552 0-1 .447-1 1s.447 1 1 1zM57.82 3.492c.16.387.532.62.926.62.126 0 .255-.023.38-.075.51-.21.754-.793.545-1.305-.162-.396-.382-.768-.653-1.102-.35-.43-.978-.494-1.407-.146-.43.348-.495.978-.147 1.406.15.183.27.385.357.602zM59 12.028c.552 0 1-.447 1-1v-.994c0-.553-.448-1-1-1s-1 .447-1 1v.994c0 .553.448 1 1 1zM58 18.977c0 .553.448 1 1 1s1-.447 1-1v-.993c0-.553-.448-1-1-1s-1 .447-1 1v.993zM59 5.06c-.552 0-1 .448-1 1v.994c0 .553.448 1 1 1s1-.447 1-1V6.06c0-.552-.448-1-1-1zM28 12.576c.552 0 1-.447 1-1v-.993c0-.553-.448-1-1-1s-1 .447-1 1v.993c0 .553.448 1 1 1zM28 16.55c.552 0 1-.446 1-1v-.993c0-.553-.448-1-1-1s-1 .447-1 1v.994c0 .554.448 1 1 1zM28 24.5c.552 0 1-.448 1-1v-.994c0-.553-.448-1-1-1s-1 .447-1 1v.993c0 .552.448 1 1 1zM42.73 2h.993c.552 0 1-.447 1-1s-.448-1-1-1h-.994c-.553 0-1 .447-1 1s.447 1 1 1zM28 8.602c.552 0 1-.447 1-1v-.994c0-.553-.448-1-1-1s-1 .447-1 1V7.6c0 .554.448 1.002 1 1.002zM28 20.525c.552 0 1-.447 1-1v-.994c0-.552-.448-1-1-1s-1 .448-1 1v.995c0 .553.448 1 1 1zM38.755 2h.993c.552 0 1-.447 1-1s-.448-1-1-1h-.993c-.552 0-1 .447-1 1s.448 1 1 1zM34.78 2h.994c.552 0 1-.447 1-1s-.448-1-1-1h-.994c-.552 0-1 .447-1 1s.448 1 1 1zM27.862 4.608c.076.018.152.025.227.025.454 0 .865-.313.972-.774.053-.23.14-.446.255-.65.275-.478.11-1.09-.37-1.364-.48-.275-1.09-.108-1.365.37-.214.373-.372.774-.47 1.192-.123.538.212 1.075.75 1.2zM30.81 2.052c.057 0 .115-.005.174-.016.137-.023.278-.036.42-.036h.396c.552 0 1-.447 1-1s-.448-1-1-1h-.395c-.26 0-.518.022-.77.067-.544.096-.907.614-.81 1.158.086.486.508.827.984.827zM4 22c.552 0 1-.447 1-1 0-6.065 4.935-11 11-11h2.586l-4.293 4.293c-.39.39-.39 1.023 0 1.414.195.195.45.293.707.293s.512-.098.707-.293l6-6c.092-.09.165-.202.216-.325.1-.244.1-.52 0-.764-.05-.123-.124-.234-.217-.326l-6-6c-.39-.39-1.022-.39-1.413 0s-.39 1.024 0 1.415L18.586 8H16C8.832 8 3 13.832 3 21c0 .553.448 1 1 1z"/></svg>