<svg xmlns="http://www.w3.org/2000/svg" viewBox="0 0 60 60"><path d="M20 49c-2.206 0-4 1.794-4 4s1.794 4 4 4 4-1.794 4-4-1.794-4-4-4zm0 6c-1.103 0-2-.897-2-2s.897-2 2-2 2 .897 2 2-.897 2-2 2zM17 5h4c.552 0 1-.447 1-1s-.448-1-1-1h-4c-.552 0-1 .447-1 1s.448 1 1 1zM24 5h1c.552 0 1-.447 1-1s-.448-1-1-1h-1c-.552 0-1 .447-1 1s.448 1 1 1z"/><path d="M56 12H38V4.405C38 1.977 36.024 0 33.595 0H8.405C5.975 0 4 1.977 4 4.405v51.19C4 58.022 5.976 60 8.405 60h25.19C36.024 60 38 58.023 38 55.595V33h18V12zM8.405 2h25.19C34.92 2 36 3.08 36 4.405V6H6V4.405C6 3.08 7.08 2 8.405 2zm25.19 56H8.405C7.08 58 6 56.92 6 55.595V48h30v7.595C36 56.92 34.92 58 33.595 58zM36 46H6V8h30v4H18v21h4v7l9.333-7H36v13zm18-15H30.667L24 36v-5h-4V14h34v17z"/><path d="M25 21h10c.552 0 1-.447 1-1s-.448-1-1-1H25c-.552 0-1 .447-1 1s.448 1 1 1zM24 25c0 .553.448 1 1 1h24c.552 0 1-.447 1-1s-.448-1-1-1H25c-.552 0-1 .447-1 1z"/></svg>