<svg xmlns="http://www.w3.org/2000/svg" viewBox="0 0 59.999 59.999"><path d="M36.176 50c-1.93 0-3.5 1.57-3.5 3.5s1.57 3.5 3.5 3.5 3.5-1.57 3.5-3.5-1.57-3.5-3.5-3.5zm0 5c-.827 0-1.5-.674-1.5-1.5s.673-1.5 1.5-1.5 1.5.672 1.5 1.5-.673 1.5-1.5 1.5zM40.676 37c2.206 0 4-1.795 4-4s-1.794-4-4-4-4 1.793-4 4 1.793 4 4 4zm0-6c1.103 0 2 .896 2 2s-.897 2-2 2-2-.898-2-2 .897-2 2-2zM16.676 12c.256 0 .512-.1.707-.294l2-2c.39-.39.39-1.023 0-1.414s-1.023-.39-1.414 0l-2 2c-.392.39-.392 1.023 0 1.414.194.195.45.293.706.293z"/><path d="M52.676 29.747c0-.88-.343-1.707-.965-2.33l-.556-.556c.95-.84 1.52-2.054 1.52-3.36 0-2.482-2.018-4.5-4.5-4.5-.18 0-.36.017-.54.04.023-.18.04-.358.04-.54 0-2.482-2.018-4.5-4.5-4.5-.18 0-.36.017-.54.04.023-.18.04-.358.04-.54 0-2.482-2.018-4.5-4.5-4.5-.18 0-.36.017-.54.04.023-.18.04-.358.04-.54 0-2.482-2.018-4.5-4.5-4.5-1.307 0-2.52.572-3.36 1.52l-.795-.794L25.255.963c-1.285-1.285-3.375-1.285-4.658 0L8.286 13.275c-1.283 1.285-1.283 3.374 0 4.66l3.763 3.762 4.91 4.91c-1.357.776-2.284 2.22-2.284 3.892 0 1.562.803 2.94 2.017 3.747.06.08.132.16.227.242l10.756 10.714V47h-2v13h26V47h-2v-3.03c1.913-1.62 3-3.952 3-6.47 0-1.74-.543-3.43-1.536-4.853l.57-.57c.623-.623.966-1.45.966-2.33zm-2-6.248c0 .767-.354 1.478-.937 1.946l-3.512-3.51c.468-.584 1.18-.938 1.947-.938 1.38 0 2.5 1.122 2.5 2.5zm-5-5c0 .767-.354 1.478-.937 1.946l-3.512-3.51c.468-.584 1.18-.938 1.947-.938 1.38 0 2.5 1.122 2.5 2.5zm-5-5c0 .767-.354 1.478-.937 1.946l-3.512-3.51c.468-.584 1.18-.938 1.947-.938 1.38 0 2.5 1.122 2.5 2.5zm-7.5-7.5c1.38 0 2.5 1.12 2.5 2.5 0 .767-.354 1.478-.937 1.946l-3.512-3.51c.468-.583 1.18-.937 1.948-.937zM9.7 16.52c-.504-.504-.504-1.325 0-1.83L22.012 2.378c.125-.125.27-.22.426-.282.07-.03.15-.028.223-.044.18-.038.355-.038.533 0 .074.016.153.015.223.044.155.063.3.157.426.282l2.35 2.35-14.143 14.14-2.35-2.347zM27.605 6.14l1.178 1.18 5 5 .573.572 4.427 4.427.573.572 4.427 4.427.573.572 5 5 .94.94c.505.505.505 1.325 0 1.83l-.437.438-11.875 11.875c-.503.504-1.326.506-1.83 0L28.178 35h.995c2.48 0 4.5-2.02 4.5-4.5s-2.02-4.5-4.5-4.5h-9.997l-5.716-5.717L27.605 6.14zm-8.97 21.92l.416-.046c.042-.006.083-.015.125-.015h10c1.38 0 2.5 1.12 2.5 2.5s-1.12 2.5-2.5 2.5H19.174c-1.38 0-2.5-1.122-2.5-2.5 0-1.194.842-2.19 1.96-2.44zM27.676 58v-9h8.427c3.073 0 5.574 2.5 5.574 5.573V58h-14zm22 0h-6v-3.427c0-2.206-.953-4.188-2.463-5.574h8.464v9zm.026-23.913c.635 1.02.976 2.202.976 3.412 0 2.054-.948 3.945-2.602 5.19l-.398.3V47h-18v-2.72l-.353-.298c-.045-.04-.093-.075-.18-.14l-8.877-8.844h5.085l9.39 9.39c.642.642 1.485.963 2.328.963.844 0 1.688-.32 2.33-.962l10.303-10.3z"/></svg>