<svg xmlns="http://www.w3.org/2000/svg" viewBox="0 0 60 60"><path d="M42.595 0h-25.19C14.977 0 13 1.977 13 4.405v51.19C13 58.022 14.977 60 17.405 60h25.19C45.022 60 47 58.023 47 55.595V4.405C47 1.977 45.023 0 42.595 0zM15 8h30v38H15V8zm2.405-6h25.19C43.92 2 45 3.08 45 4.405V6H15V4.405C15 3.08 16.08 2 17.405 2zm25.19 56h-25.19C16.08 58 15 56.92 15 55.595V48h30v7.595C45 56.92 43.92 58 42.595 58z"/><path d="M30 49c-2.206 0-4 1.794-4 4s1.794 4 4 4 4-1.794 4-4-1.794-4-4-4zm0 6c-1.103 0-2-.897-2-2s.897-2 2-2 2 .897 2 2-.897 2-2 2zM26 5h4c.553 0 1-.447 1-1s-.447-1-1-1h-4c-.553 0-1 .447-1 1s.447 1 1 1zM33 5h1c.553 0 1-.447 1-1s-.447-1-1-1h-1c-.553 0-1 .447-1 1s.447 1 1 1zM56.612 4.57c-.39-.392-1.023-.392-1.414 0s-.39 1.022 0 1.413c3.736 3.736 3.736 9.815 0 13.552-.39.39-.39 1.023 0 1.414.195.194.45.292.707.292s.512-.098.707-.293c4.516-4.516 4.516-11.865 0-16.38z"/><path d="M52.4 6.845c-.39-.39-1.022-.39-1.413 0s-.39 1.023 0 1.414c1.237 1.236 1.918 2.884 1.918 4.638s-.68 3.4-1.918 4.638c-.39.39-.39 1.023 0 1.414.195.195.45.293.707.293s.512-.098.707-.293c1.616-1.614 2.505-3.764 2.505-6.052s-.888-4.44-2.504-6.053zM4.802 5.983c.39-.39.39-1.023 0-1.414s-1.023-.392-1.414 0c-4.516 4.515-4.516 11.863 0 16.38.195.194.45.292.707.292s.512-.098.707-.293c.39-.392.39-1.024 0-1.415-3.737-3.736-3.737-9.815 0-13.552z"/><path d="M9.013 6.57c-.39-.392-1.023-.392-1.414 0-1.616 1.613-2.505 3.763-2.505 6.05s.89 4.44 2.504 6.054c.194.195.45.293.706.293s.512-.098.707-.293c.39-.39.39-1.023 0-1.414-1.237-1.237-1.918-2.885-1.918-4.64s.68-3.4 1.918-4.637c.39-.39.39-1.023 0-1.414z"/></svg>