<svg xmlns="http://www.w3.org/2000/svg" viewBox="0 0 60 60"><path d="M28.996 49c-2.206 0-4 1.794-4 4s1.794 4 4 4 4-1.794 4-4-1.795-4-4-4zm0 6c-1.103 0-2-.897-2-2s.897-2 2-2 2 .897 2 2-.897 2-2 2zM25.996 5h4c.552 0 1-.447 1-1s-.448-1-1-1h-4c-.552 0-1 .447-1 1s.447 1 1 1zM32.996 5h1c.552 0 1-.447 1-1s-.448-1-1-1h-1c-.552 0-1 .447-1 1s.447 1 1 1zM4.2 13.342l-.254-.944c-.143-.533-.69-.852-1.225-.707-.532.145-.85.692-.706 1.226l.253.944c.12.447.524.74.965.74.085 0 .173-.01.26-.033.533-.144.85-.692.707-1.225zM2.106 9.863c.55-.053.953-.54.9-1.09-.008-.08-.012-.16-.012-.24 0-.153.015-.304.042-.45.106-.543-.25-1.066-.792-1.17-.54-.1-1.066.25-1.17.793-.053.275-.08.555-.08.828 0 .142.008.285.022.43.05.516.484.904.994.904.032 0 .064 0 .096-.005zM6.73 22.788l-.254-.945c-.143-.533-.69-.854-1.224-.707-.534.143-.85.69-.708 1.225l.253.946c.12.446.523.74.965.74.085 0 .172-.01.26-.033.534-.143.85-.69.707-1.225zM11.792 41.68l-.253-.944c-.144-.534-.69-.854-1.226-.707-.533.143-.85.69-.707 1.224l.253.944c.12.447.524.74.965.74.085 0 .173-.01.26-.033.534-.144.85-.692.707-1.225zM5.464 18.064l-.253-.944c-.142-.534-.69-.854-1.224-.707-.533.144-.85.69-.707 1.225l.252.944c.12.447.524.74.965.74.085 0 .173-.01.26-.033.534-.144.85-.692.707-1.226zM4.615 6.223c.085 0 .172-.01.26-.034l.944-.254c.532-.143.85-.69.706-1.225-.143-.532-.69-.855-1.225-.706l-.944.253c-.533.143-.85.69-.707 1.225.12.446.523.74.965.74zM9.338 4.956c.085 0 .172-.01.26-.034l.943-.253c.534-.144.85-.692.708-1.226s-.688-.854-1.224-.707l-.944.253c-.533.143-.85.69-.707 1.225.12.446.523.74.965.74zM10.526 36.957l-.253-.945c-.143-.533-.69-.85-1.225-.707-.534.143-.85.69-.707 1.225l.254.945c.12.447.524.74.965.74.084 0 .172-.01.258-.033.535-.143.85-.692.708-1.225zM7.995 27.51l-.253-.943c-.143-.532-.69-.852-1.225-.707-.533.143-.85.69-.707 1.225l.253.944c.12.445.523.74.965.74.085 0 .172-.01.26-.034.533-.143.85-.692.707-1.225zM9.26 32.233l-.252-.944c-.143-.534-.69-.856-1.225-.708-.533.143-.85.69-.707 1.225l.253.944c.12.447.522.742.964.742.085 0 .172-.01.26-.034.533-.143.85-.69.707-1.225zM56.015 16.414c-.536-.146-1.082.173-1.225.707l-.253.945c-.143.533.173 1.08.707 1.225.087.023.174.034.26.034.44 0 .846-.294.965-.74l.252-.945c.142-.535-.174-1.082-.707-1.226zM57.28 11.69c-.538-.146-1.083.175-1.226.707l-.253.944c-.142.534.175 1.083.708 1.226.087.023.174.034.26.034.44 0 .845-.295.964-.74l.253-.945c.144-.533-.172-1.082-.706-1.225zM58.926 7.707c-.103-.54-.624-.892-1.17-.794-.542.104-.898.628-.794 1.17.028.147.043.298.042.45 0 .08-.004.16-.012.24-.052.55.35 1.038.9 1.09.032.005.064.006.096.006.51 0 .945-.39.995-.905.014-.145.02-.288.02-.43.002-.274-.024-.553-.077-.828zM49.46 4.67l.943.252c.087.023.174.034.26.034.44 0 .845-.295.964-.74.143-.534-.174-1.083-.707-1.226l-.944-.253c-.538-.147-1.082.174-1.225.707-.14.534.176 1.082.71 1.225zM54.182 5.936l.945.253c.087.022.174.033.26.033.44 0 .845-.295.964-.74.144-.535-.173-1.083-.706-1.226l-.945-.253c-.537-.148-1.084.174-1.226.707-.142.535.174 1.083.708 1.226zM54.75 21.137c-.536-.143-1.084.174-1.226.707l-.253.944c-.142.533.174 1.08.708 1.225.087.023.174.034.26.034.44 0 .846-.294.965-.74l.253-.945c.143-.534-.174-1.082-.707-1.225z"/><path d="M48.42 44.75c-.53-.14-1.08.174-1.224.708l-.19.712v-.172c0-.017-.01-.03-.01-.048v-3.815c0-.017.01-.03.01-.048v-.978c0-.018-.01-.032-.01-.05v-3.814c0-.017.01-.03.01-.048v-.978c0-.017-.01-.03-.01-.048v-3.815c0-.017.01-.03.01-.048v-.98c0-.016-.01-.03-.01-.047v-3.815c0-.017.01-.03.01-.048v-.978c0-.017-.01-.03-.01-.048V22.58c0-.018.01-.032.01-.05v-.98c0-.017-.01-.03-.01-.048v-3.815c0-.017.01-.03.01-.048v-.98c0-.017-.01-.03-.01-.048v-3.814c0-.017.01-.03.01-.048v-.98c0-.016-.01-.03-.01-.047V7.908c0-.017.01-.03.01-.048v-.98c0-.016-.01-.03-.01-.047V4.405C46.995 1.977 45.02 0 42.59 0H17.4c-2.428 0-4.404 1.977-4.404 4.405v41.76l-.19-.712c-.144-.533-.69-.855-1.226-.707-.533.143-.85.69-.707 1.225l.253.944c.143.532.688.853 1.225.707.298-.078.525-.284.647-.54v2.372c-.05.006-.1.002-.15.016-.533.143-.85.69-.707 1.225l.253.944c.085.318.32.552.604.664v3.29c0 2.428 1.976 4.404 4.405 4.404H42.59c2.43 0 4.405-1.977 4.405-4.405v-3.284c.29-.11.528-.345.614-.668l.252-.944c.143-.533-.174-1.082-.707-1.225-.054-.015-.106-.012-.16-.017V47.09c0-.006.004-.01.004-.016.12.26.35.468.65.548.533.143 1.08-.173 1.224-.707l.253-.945c.144-.528-.172-1.076-.706-1.22zM14.997 8h30v38h-30V8zM17.4 2h25.19c1.326 0 2.405 1.08 2.405 2.405V6h-30V4.405C14.995 3.08 16.075 2 17.4 2zm25.19 56H17.4c-1.325 0-2.404-1.08-2.404-2.405V48h30v7.595c0 1.326-1.08 2.405-2.406 2.405zM50.952 35.306c-.537-.147-1.082.174-1.225.707l-.253.944c-.143.533.174 1.082.707 1.225.088.023.175.034.26.034.442 0 .846-.295.965-.74l.253-.945c.144-.533-.173-1.082-.706-1.224z"/><path d="M49.687 40.028c-.537-.146-1.082.173-1.225.707l-.253.944c-.144.532.172 1.08.706 1.224.087.023.174.034.26.034.44 0 .846-.294.965-.74l.254-.945c.143-.533-.174-1.08-.707-1.225zM52.217 30.582c-.534-.148-1.082.174-1.224.707l-.253.944c-.143.534.174 1.082.708 1.225.086.022.173.033.26.033.44 0 .845-.295.964-.74l.253-.946c.142-.535-.175-1.082-.708-1.225zM53.483 25.86c-.537-.146-1.082.174-1.225.706l-.253.944c-.143.533.174 1.082.707 1.225.087.023.174.034.26.034.44 0 .845-.296.964-.742l.253-.944c.143-.533-.174-1.082-.707-1.225z"/></svg>