<svg xmlns="http://www.w3.org/2000/svg" viewBox="0 0 60 60"><path d="M36.437 7.413c-.978-.56-2.142-.553-3.115.02-.063.036-.12.08-.174.13L19.906 19.89c-.15.073-.313.11-.48.11h-8.323C9.393 20 8 21.393 8 23.104v12.793C8 37.607 9.392 39 11.104 39h8.324c.166 0 .33.037.48.11l13.24 12.327c.054.05.113.094.175.13.492.29 1.033.435 1.574.435.53 0 1.058-.138 1.542-.415.976-.56 1.56-1.566 1.56-2.693V10.106c0-1.127-.584-2.133-1.563-2.693zM36 48.893c0 .578-.39.863-.556.96-.158.09-.562.26-1.025.036L21.174 37.56c-.054-.052-.113-.096-.176-.132-.478-.28-1.02-.428-1.573-.428h-8.324C10.495 37 10 36.505 10 35.896V23.104c0-.61.495-1.104 1.104-1.104h8.324c.55 0 1.095-.147 1.572-.428.063-.036.122-.08.176-.13L34.42 9.11c.465-.227.868-.054 1.025.036.166.096.555.38.555.958v38.788zM40.293 20.293c-.39.39-.39 1.023 0 1.414 4.297 4.297 4.297 11.29 0 15.586-.39.39-.39 1.023 0 1.414.195.195.45.293.707.293s.512-.098.707-.293c5.077-5.077 5.077-13.337 0-18.414-.39-.39-1.023-.39-1.414 0z"/><path d="M30 0C13.458 0 0 13.458 0 30s13.458 30 30 30 30-13.458 30-30S46.542 0 30 0zm0 58C14.56 58 2 45.44 2 30S14.56 2 30 2s28 12.56 28 28-12.56 28-28 28z"/></svg>