<svg xmlns="http://www.w3.org/2000/svg" viewBox="0 0 52.026 52.026"><path d="M28.404 3.413c-.976-.552-2.13-.534-3.09.044-.046.027-.09.06-.13.093l-13.55 11.463H1c-.553 0-1 .447-1 1v19c0 .266.105.52.293.707s.44.293.707.293l10.61-.005 13.543 12.44c.05.046.104.086.16.12.493.297 1.038.446 1.583.446.517 0 1.033-.134 1.508-.402 1-.564 1.596-1.594 1.596-2.755V6.17c0-1.162-.597-2.192-1.596-2.757zM28 45.857c0 .43-.217.81-.58 1.015-.154.087-.547.255-1 .026L13 34.568v-4.555c0-.553-.447-1-1-1s-1 .447-1 1v3.996l-9 .003v-17h9v4c0 .553.447 1 1 1s1-.447 1-1v-4.536l13.405-11.34c.46-.242.86-.07 1.016.018.363.205.58.584.58 1.014v39.687zM38.797 7.066c-.523-.177-1.09.103-1.27.626-.176.522.104 1.09.627 1.27 7.1 2.41 11.872 9.062 11.872 16.552 0 7.483-4.762 14.136-11.85 16.554-.52.178-.8.746-.622 1.27.142.415.53.677.946.677.107 0 .216-.017.323-.054 7.896-2.692 13.202-10.105 13.202-18.445 0-8.35-5.315-15.762-13.228-18.45z"/><path d="M43.026 25.513c0-5.972-4.01-11.302-9.75-12.962-.532-.15-1.083.153-1.237.685-.154.53.15 1.085.683 1.238 4.89 1.413 8.304 5.953 8.304 11.04s-3.415 9.627-8.304 11.04c-.53.153-.837.708-.684 1.238.126.44.525.724.96.724.092 0 .185-.013.277-.04 5.74-1.66 9.75-6.99 9.75-12.96z"/></svg>