<svg xmlns="http://www.w3.org/2000/svg" viewBox="0 0 46.004 46.004"><path d="M29.893.402c-.976-.552-2.132-.534-3.09.044-.046.027-.09.06-.13.093L13.123 12H2.488c-.554 0-1 .447-1 1v19c0 .266.104.52.292.707s.44.292.707.292l10.61-.005 13.542 12.44c.05.046.104.086.16.12.493.297 1.038.446 1.583.446.517 0 1.033-.134 1.508-.402 1-.563 1.596-1.594 1.596-2.755V3.158c0-1.16-.598-2.19-1.597-2.756zm-.404 42.443c0 .43-.218.81-.58 1.015-.155.087-.548.255-1 .026l-13.42-12.33v-4.555c0-.552-.448-1-1-1s-1 .448-1 1v3.997l-9 .004V14h9v4c0 .554.446 1 1 1s1-.446 1-1v-4.535l13.404-11.34c.46-.242.86-.07 1.016.018.362.205.58.584.58 1.015v39.687zM34.766 9.54c-.532-.15-1.085.152-1.238.684-.153.53.152 1.085.684 1.238 4.89 1.413 8.304 5.953 8.304 11.04s-3.415 9.627-8.304 11.04c-.53.153-.837.708-.684 1.238.127.438.526.723.96.723.093 0 .186-.013.278-.04 5.74-1.66 9.75-6.99 9.75-12.96S40.505 11.2 34.765 9.54z"/></svg>