<svg xmlns="http://www.w3.org/2000/svg" viewBox="0 0 46.004 46.004"><path d="M36.406.402c-.976-.552-2.13-.534-3.09.044-.046.027-.09.06-.13.093L19.636 12H9.002c-.553 0-1 .447-1 1v19c0 .266.105.52.293.707s.44.292.707.292l10.61-.005 13.543 12.44c.05.046.104.086.16.12.493.297 1.038.446 1.583.446.517 0 1.033-.134 1.508-.402 1-.563 1.596-1.594 1.596-2.755V3.158c0-1.16-.597-2.19-1.596-2.756zm-.404 42.443c0 .43-.217.81-.58 1.015-.154.087-.547.255-1 .026l-13.42-12.33v-4.555c0-.552-.447-1-1-1s-1 .448-1 1v3.997l-9 .004V14h9v4c0 .554.447 1 1 1s1-.446 1-1v-4.535l13.405-11.34c.46-.242.86-.07 1.016.018.362.205.58.584.58 1.015v39.687z"/></svg>