<svg xmlns="http://www.w3.org/2000/svg" viewBox="0 0 54 54"><path d="M46.414 26l7.293-7.293c.39-.39.39-1.023 0-1.414s-1.023-.39-1.414 0L45 24.586l-7.293-7.293c-.39-.39-1.023-.39-1.414 0s-.39 1.023 0 1.414L43.586 26l-7.293 7.293c-.39.39-.39 1.023 0 1.414.195.195.45.293.707.293s.512-.098.707-.293L45 27.414l7.293 7.293c.195.195.45.293.707.293s.512-.098.707-.293c.39-.39.39-1.023 0-1.414L46.414 26zM28.404 4.4c-.975-.552-2.13-.534-3.09.044-.046.027-.09.06-.13.093L11.634 16H1c-.553 0-1 .447-1 1v19c0 .266.105.52.293.707S.733 37 1 37l10.61-.005 13.543 12.44c.05.046.104.086.16.12.493.297 1.038.446 1.583.446.517 0 1.033-.133 1.508-.4 1-.565 1.596-1.595 1.596-2.756V7.156c0-1.16-.597-2.19-1.596-2.756zM28 46.844c0 .43-.217.81-.58 1.015-.154.086-.547.254-1 .025L13 35.555V31c0-.553-.447-1-1-1s-1 .447-1 1v3.996L2 35V18h9v4c0 .553.447 1 1 1s1-.447 1-1v-4.536l13.405-11.34c.46-.242.86-.07 1.016.018.363.205.58.583.58 1.014v39.688z"/></svg>