<svg xmlns="http://www.w3.org/2000/svg" viewBox="0 0 60 60"><path d="M34.437 7.413c-.98-.56-2.143-.553-3.115.02-.063.036-.12.08-.174.13L17.906 19.89c-.15.073-.313.11-.48.11H9.105C7.392 20 6 21.393 6 23.104v12.793C6 37.607 7.392 39 9.104 39h8.324c.166 0 .33.037.48.11l13.24 12.327c.054.05.113.094.175.13.492.29 1.033.435 1.574.435.53 0 1.058-.138 1.54-.415.98-.56 1.563-1.566 1.563-2.693V10.106c0-1.127-.584-2.133-1.563-2.693zM34 48.893c0 .578-.39.863-.556.96-.158.09-.562.26-1.025.036L19.174 37.56c-.054-.052-.113-.096-.176-.132-.478-.28-1.02-.428-1.573-.428H9.104C8.494 37 8 36.505 8 35.896V23.104C8 22.494 8.495 22 9.104 22h8.324c.55 0 1.095-.147 1.572-.428.063-.036.122-.08.176-.13L32.42 9.11c.465-.227.868-.054 1.025.036.166.096.555.38.555.958v38.788zM43.248 17.293c-.39-.39-1.023-.39-1.414 0s-.39 1.023 0 1.414c6.238 6.238 6.238 16.39 0 22.628-.39.39-.39 1.023 0 1.414.195.194.45.292.707.292s.513-.098.708-.293c7.018-7.02 7.018-18.438 0-25.457z"/><path d="M39.707 20.293c-.39-.39-1.023-.39-1.414 0s-.39 1.023 0 1.414c4.297 4.297 4.297 11.29 0 15.586-.39.39-.39 1.023 0 1.414.195.195.45.293.707.293s.512-.098.707-.293c5.077-5.077 5.077-13.337 0-18.414z"/><path d="M46.183 12.293c-.39-.39-1.023-.39-1.414 0s-.392 1.023 0 1.414C49.124 18.062 51.523 23.85 51.523 30s-2.4 11.938-6.755 16.293c-.392.39-.392 1.023 0 1.414.194.195.45.293.706.293s.512-.098.707-.293c4.734-4.733 7.34-11.02 7.34-17.707s-2.606-12.974-7.34-17.707z"/><path d="M30 0C13.458 0 0 13.458 0 30s13.458 30 30 30 30-13.458 30-30S46.542 0 30 0zm0 58C14.56 58 2 45.44 2 30S14.56 2 30 2s28 12.56 28 28-12.56 28-28 28z"/></svg>