<svg xmlns="http://www.w3.org/2000/svg" viewBox="0 0 60 60"><path d="M39.81 26.287L58.66 9.752c.133-.117.233-.268.29-.436l.124-.375c.593-.746.926-1.566.926-2.44 0-.102-.02-.2-.03-.3.043-.23-.006-.467-.124-.674C58.924 2.316 53.504 0 46.5 0c-6.946 0-12.335 2.28-13.323 5.447-.007.01-.02.014-.027.024L30 10.533l-3.15-5.06c-.007-.01-.02-.015-.027-.025C25.835 2.28 20.446 0 13.5 0 5.804 0 0 2.794 0 6.5c0 .874.333 1.694.926 2.44l.125.376c.057.168.157.32.29.436l18.85 16.535L.15 58.472c-.26.42-.175.97.203 1.29C.54 59.923.77 60 1 60c.235 0 .47-.083.66-.248L30 34.892l28.34 24.86c.19.165.425.248.66.248.23 0 .46-.08.647-.237.378-.32.464-.87.202-1.29L39.81 26.286zM46.5 2c6.476 0 11.065 2.165 11.46 4.215l.01.074s.002 0 .002.002c.01.07.028.14.028.208 0 .405-.173.82-.497 1.224-.023.022-.053.036-.075.06-.684.8-2.004 1.605-3.858 2.208h-.004c-.217.07-.443.14-.675.204-.087.024-.178.047-.268.07-.173.046-.346.092-.527.134-.292.067-.59.13-.9.188-.062.012-.127.02-.19.032-.27.047-.545.092-.827.13-.087.013-.176.024-.264.035-.263.034-.53.064-.804.09-.102.01-.203.02-.306.028-.275.023-.556.04-.84.056-.1.004-.197.01-.298.015-.38.015-.77.025-1.166.025C39.723 11 35 8.63 35 6.5S39.723 2 46.5 2zm-33 0C20.277 2 25 4.37 25 6.5S20.277 11 13.5 11c-.397 0-.785-.01-1.167-.025-.1-.004-.198-.01-.297-.016-.284-.016-.565-.034-.84-.057-.104-.008-.206-.018-.307-.028-.274-.026-.542-.056-.805-.09-.088-.01-.177-.022-.264-.034-.28-.038-.556-.082-.826-.13-.063-.01-.128-.02-.19-.032-.31-.057-.608-.12-.9-.188-.18-.042-.353-.088-.527-.134l-.27-.07c-.23-.065-.457-.132-.674-.203H6.43C4.575 9.388 3.255 8.584 2.57 7.784c-.022-.025-.052-.04-.076-.062C2.173 7.318 2 6.905 2 6.5 2 4.37 6.723 2 13.5 2zM7.295 12.314c1.344.32 2.828.535 4.416.628.065.004.128.01.192.013.524.027 1.055.045 1.598.045.44 0 .875-.012 1.303-.03.136-.005.268-.015.402-.022.294-.016.586-.036.873-.06.146-.013.29-.027.436-.042.28-.028.553-.06.824-.097.13-.02.263-.035.393-.054.33-.05.654-.104.97-.165l.18-.03c.37-.074.73-.156 1.083-.245.105-.026.204-.055.307-.083.246-.066.49-.134.725-.208.12-.037.234-.075.35-.113.217-.07.428-.146.635-.225.107-.04.216-.08.32-.123.23-.093.45-.19.666-.29.067-.03.138-.06.204-.092.273-.133.534-.27.782-.416.067-.04.128-.08.193-.12.178-.11.35-.22.513-.335.08-.058.155-.115.23-.173.14-.106.274-.214.4-.324.07-.06.14-.12.206-.183.13-.123.25-.248.364-.375.046-.05.096-.1.14-.152.144-.172.276-.348.39-.528l2.433 3.908-3.393 5.452-4.166 6.69-13.965-12.25zm15.042 14.31l8.513-13.672 2.762-4.436c.114.18.246.356.39.528.043.052.094.102.14.152.114.127.234.253.364.375.066.064.136.124.206.185.127.11.26.218.4.323.076.058.15.116.23.172.163.114.335.225.512.333.066.04.127.083.195.122.246.144.507.283.78.415.067.033.14.063.208.094.214.1.433.196.66.288.107.042.216.083.325.124.205.078.415.153.63.224.118.04.235.078.355.115.234.073.475.14.72.206.103.03.205.06.31.085.352.088.71.17 1.082.243.06.012.123.02.184.033.316.06.637.116.965.165.13.02.262.035.394.053.27.036.544.07.822.097.145.015.29.03.437.04.287.026.578.045.872.062.134.007.267.017.403.022.427.018.86.03 1.302.03.543 0 1.074-.018 1.597-.044.064-.003.127-.01.19-.013 1.59-.093 3.073-.308 4.417-.628l-14.85 13.027h-.002L29.34 32.81 5.42 53.793l16.917-27.168zm9.18 6.938l6.77-5.938 16.292 26.168-23.063-20.23z"/></svg>