<svg xmlns="http://www.w3.org/2000/svg" viewBox="0 0 55.867 55.867"><path d="M11.287 54.548c-.207 0-.414-.064-.588-.19-.31-.225-.463-.604-.398-.98l3.09-18.017L.303 22.603c-.272-.266-.37-.663-.253-1.024.117-.362.43-.626.807-.68l18.09-2.63 8.09-16.393c.17-.342.517-.558.897-.558s.73.216.896.558l8.09 16.393 18.09 2.63c.378.054.69.317.81.68.116.36.02.76-.254 1.024l-13.09 12.76 3.09 18.018c.063.375-.09.754-.398.978-.308.226-.717.255-1.054.076l-16.18-8.506-16.182 8.506c-.146.076-.306.114-.465.114zM3.15 22.584l12.015 11.713c.235.23.343.56.287.885L12.615 51.72l14.854-7.808c.29-.154.637-.154.93 0l14.852 7.808-2.836-16.538c-.056-.324.052-.655.287-.885L52.72 22.584 36.113 20.17c-.326-.046-.607-.25-.753-.546L27.935 4.578l-7.427 15.047c-.146.295-.427.5-.753.547L3.15 22.584z"/></svg>