<svg xmlns="http://www.w3.org/2000/svg" viewBox="0 0 60 60"><path d="M31.634 37.99c1.04-.082 1.99-.613 2.606-1.46l9.363-12.944c.287-.397.244-.945-.104-1.293-.35-.347-.897-.39-1.294-.104L29.26 31.554c-.844.614-1.375 1.563-1.456 2.604s.296 2.06 1.033 2.796c.67.672 1.576 1.044 2.517 1.044.093 0 .186-.004.28-.01zm-1.836-3.675c.035-.457.27-.874.637-1.142l7.897-5.713-5.71 7.895c-.27.37-.688.604-1.145.64-.455.03-.902-.128-1.227-.453-.322-.323-.488-.77-.452-1.227z"/><path d="M54.034 19.564c-.01-.02-.01-.043-.02-.064-.013-.02-.032-.03-.045-.05-1.012-1.734-2.208-3.347-3.566-4.81l2.148-2.146 1.414 1.414 4.242-4.243-4.242-4.242-4.243 4.242 1.415 1.415-2.148 2.147c-1.462-1.358-3.074-2.555-4.81-3.566-.018-.012-.03-.03-.05-.043-.02-.012-.042-.01-.063-.022-3.093-1.782-6.568-2.97-10.273-3.404V5h1.5c1.38 0 2.5-1.12 2.5-2.5S36.672 0 35.294 0h-9c-1.38 0-2.5 1.12-2.5 2.5s1.12 2.5 2.5 2.5h1.5v1.156c-1.08.115-2.16.29-3.225.535-.54.124-.876.66-.752 1.2.123.537.66.875 1.198.75.92-.21 1.85-.37 2.78-.477l1.073-.083c.327-.025.63-.043.923-.057V10c0 .553.447 1 1 1s1-.447 1-1V8.03c3.76.173 7.305 1.183 10.456 2.845l-.987 1.707c-.276.48-.112 1.09.366 1.366.156.09.328.134.498.134.346 0 .682-.18.867-.5l.983-1.703c3.13 1.984 5.787 4.642 7.772 7.77l-1.703.984c-.477.276-.64.887-.364 1.366.186.32.52.5.867.5.17 0 .342-.043.5-.134l1.706-.986c1.685 3.196 2.698 6.798 2.85 10.62H53.63c-.553 0-1 .446-1 1s.447 1 1 1h1.975c-.15 3.82-1.164 7.422-2.85 10.618l-1.706-.986c-.48-.276-1.09-.114-1.367.366-.276.48-.112 1.09.366 1.366l1.702.983c-1.985 3.13-4.643 5.787-7.772 7.772l-.983-1.704c-.277-.48-.89-.643-1.366-.366-.478.276-.642.888-.365 1.366l.986 1.707c-3.15 1.662-6.694 2.672-10.455 2.845V56c0-.553-.447-1-1-1s-1 .447-1 1v1.976c-1.597-.055-3.2-.255-4.776-.617-.54-.13-1.076.212-1.2.75-.123.538.214 1.075.752 1.198 1.996.46 4.035.692 6.058.692.05 0 .096-.003.145-.004.007 0 .012.004.018.004.008 0 .015-.005.023-.005 4.807-.033 9.317-1.33 13.22-3.573.03-.014.063-.02.093-.04.02-.01.03-.03.05-.043 4.038-2.355 7.413-5.726 9.772-9.762.02-.027.043-.048.06-.078.012-.02.01-.043.02-.064C56.318 42.476 57.63 37.89 57.63 33s-1.313-9.476-3.596-13.436zm-.07-11.313l1.415 1.415-1.415 1.415-1.415-1.415 1.415-1.414zm-24.17-2.23V3h-3.5c-.276 0-.5-.225-.5-.5s.224-.5.5-.5h9c.274 0 .5.225.5.5s-.226.5-.5.5h-3.5v3.02c-.35-.013-.68-.02-1-.02l-.09.002L30.63 6c-.164 0-.328.01-.492.014-.116.003-.225.002-.345.007zM21.793 14h-5c-.553 0-1 .447-1 1s.447 1 1 1h5c.553 0 1-.447 1-1s-.447-1-1-1zM21.793 21h-10c-.553 0-1 .447-1 1s.447 1 1 1h10c.553 0 1-.447 1-1s-.447-1-1-1zM21.793 28h-15c-.553 0-1 .447-1 1s.447 1 1 1h15c.553 0 1-.447 1-1s-.447-1-1-1zM21.793 35h-19c-.553 0-1 .447-1 1s.447 1 1 1h19c.553 0 1-.447 1-1s-.447-1-1-1zM21.793 42h-13c-.553 0-1 .447-1 1s.447 1 1 1h13c.553 0 1-.447 1-1s-.447-1-1-1zM21.793 49h-7c-.553 0-1 .447-1 1s.447 1 1 1h7c.553 0 1-.447 1-1s-.447-1-1-1z"/></svg>