<svg xmlns="http://www.w3.org/2000/svg" viewBox="0 0 60 60"><path d="M60 30C60 13.458 46.542 0 30 0S0 13.458 0 30c0 8.485 3.547 16.153 9.23 21.615l-.033.025.89.792c2.09 1.856 4.408 3.392 6.882 4.587.102.05.208.094.312.143.31.146.622.29.938.425.195.083.393.16.59.24.23.092.458.186.69.272.236.09.476.17.715.254.197.068.394.137.592.2.258.084.52.162.78.238.186.054.372.11.56.16.268.072.537.14.807.205.188.045.377.09.566.13.268.06.536.117.807.168.202.04.404.074.607.11.26.043.518.087.78.124.228.032.458.06.688.087.238.03.476.06.716.082.284.026.57.045.854.064.19.013.38.03.574.04.483.023.968.036 1.454.036.485 0 .97-.013 1.452-.037.194-.01.386-.027.58-.04.28-.02.562-.037.84-.064.246-.024.488-.055.73-.084.224-.027.447-.053.67-.085.268-.038.535-.082.8-.128.192-.033.383-.066.574-.103.282-.055.563-.113.842-.175.173-.038.345-.078.517-.12.287-.068.573-.14.856-.217.165-.045.33-.092.492-.14.284-.083.567-.166.847-.257.166-.053.33-.11.496-.167.27-.093.542-.186.81-.286.188-.07.374-.147.56-.22.24-.097.48-.19.718-.29.266-.115.528-.238.79-.36.153-.07.31-.136.46-.21 2.45-1.182 4.745-2.7 6.818-4.532l.893-.788-.03-.025C56.428 46.205 60 38.514 60 30zM2 30C2 14.56 14.56 2 30 2s28 12.56 28 28c0 8.057-3.425 15.325-8.89 20.438C43.543 46.238 36.94 44 29.94 44c-6.972 0-13.55 2.22-19.105 6.386C5.403 45.276 2 38.03 2 30zm45.284 22.004c-.456.358-.92.704-1.394 1.032-.126.087-.25.175-.378.26-.532.355-1.077.688-1.63 1.004-.122.07-.242.142-.365.21-.597.33-1.207.637-1.825.92l-.32.147c-.652.29-1.312.56-1.983.798-.05.018-.1.033-.15.05-1.41.493-2.858.872-4.334 1.135l-.26.047c-.7.118-1.41.21-2.12.273-.113.01-.226.017-.34.026-.724.057-1.453.094-2.186.094-.736 0-1.468-.037-2.196-.094-.114-.01-.228-.016-.34-.026-.712-.064-1.418-.156-2.118-.274l-.286-.05c-.728-.13-1.45-.284-2.163-.47l-.012-.004c-.723-.19-1.437-.414-2.142-.66-.06-.022-.118-.04-.177-.06-.66-.238-1.31-.504-1.952-.79-.122-.054-.244-.11-.365-.165-.606-.28-1.202-.582-1.787-.906-.14-.077-.28-.16-.42-.24-.56-.323-1.11-.66-1.65-1.022-.13-.087-.254-.18-.382-.27-.462-.322-.914-.66-1.36-1.013-.098-.078-.198-.154-.296-.233C17.49 47.974 23.544 46 29.94 46c6.423 0 12.498 1.99 17.645 5.767l-.3.237z"/><path d="M30 8c.553 0 1-.447 1-1V5c0-.553-.447-1-1-1s-1 .447-1 1v2c0 .553.447 1 1 1zM52.5 30c0 .553.447 1 1 1h2c.553 0 1-.447 1-1s-.447-1-1-1h-2c-.553 0-1 .447-1 1zM7.5 30c0-.553-.447-1-1-1h-2c-.553 0-1 .447-1 1s.447 1 1 1h2c.553 0 1-.447 1-1zM41.25 11.015c.157.09.33.134.5.134.345 0 .68-.18.866-.5l1-1.733c.276-.48.112-1.09-.366-1.366-.48-.276-1.09-.11-1.366.367l-1 1.732c-.277.477-.113 1.088.366 1.365zM52.584 42.384l-1.732-1c-.478-.277-1.09-.112-1.366.366-.276.48-.112 1.09.366 1.366l1.732 1c.157.09.33.134.5.134.345 0 .68-.18.866-.5.277-.48.113-1.09-.366-1.366zM7.416 18.616l1.732 1c.157.09.33.134.5.134.345 0 .68-.18.866-.5.276-.48.112-1.09-.366-1.366l-1.732-1c-.478-.276-1.09-.112-1.366.366s-.112 1.09.366 1.366zM17.38 10.615c.185.32.52.5.866.5.17 0 .342-.043.5-.134.478-.275.642-.887.365-1.365l-1-1.732c-.275-.48-.89-.643-1.365-.366-.48.276-.643.888-.366 1.366l1 1.732zM50.1 19.283c.17 0 .34-.043.498-.134l1.73-1c.48-.277.644-.89.367-1.367-.277-.48-.89-.643-1.366-.366l-1.732 1c-.48.276-.643.888-.366 1.366.185.32.52.5.867.5zM10.26 41.283c-.277-.48-.89-.643-1.366-.366l-1.73 1c-.48.276-.644.888-.367 1.366.186.32.52.5.867.5.17 0 .342-.043.5-.134l1.73-1c.478-.277.642-.888.366-1.367zM30 32.88c1.068 0 2.073-.417 2.828-1.173.756-.756 1.172-1.76 1.172-2.828 0-.647-.168-1.26-.455-1.818l8.476-8.476c.392-.39.392-1.023 0-1.414s-1.022-.39-1.413 0L32.22 25.56c-1.537-.997-3.724-.834-5.047.49-.757.756-1.173 1.76-1.173 2.83 0 1.067.416 2.07 1.172 2.827.755.756 1.76 1.172 2.828 1.172zm-1.414-5.415c.378-.378.88-.586 1.414-.586s1.036.207 1.414.585.586.88.586 1.414-.208 1.035-.586 1.413c-.756.756-2.072.756-2.828 0-.378-.378-.586-.88-.586-1.414s.208-1.037.586-1.415z"/></svg>