<svg xmlns="http://www.w3.org/2000/svg" viewBox="0 0 60 60"><path d="M58.978 37.765v-.01C59.642 35.28 60 32.68 60 30s-.36-5.28-1.022-7.755v-.007l-.006-.014c-.68-2.533-1.687-4.933-2.97-7.156-.01-.022-.01-.047-.022-.07-.012-.02-.034-.032-.047-.053-1.298-2.228-2.87-4.277-4.677-6.094-.017-.02-.024-.045-.043-.064s-.045-.026-.065-.043c-1.817-1.808-3.866-3.38-6.094-4.677-.02-.013-.032-.034-.054-.046-.022-.013-.047-.013-.07-.023-2.223-1.28-4.622-2.288-7.155-2.97-.004 0-.007-.003-.01-.004h-.01C35.28.36 32.68 0 30 0s-5.28.36-7.755 1.022h-.01c-.004 0-.007.004-.01.005-2.533.68-4.932 1.687-7.155 2.968-.023.012-.048.012-.07.025-.022.012-.034.034-.054.047-2.228 1.298-4.277 2.87-6.094 4.677-.02.017-.046.024-.065.043s-.026.045-.043.065c-1.807 1.817-3.38 3.866-4.677 6.094-.014.02-.035.033-.047.054-.013.022-.012.046-.023.07-1.282 2.222-2.288 4.622-2.97 7.155 0 .004-.003.006-.004.01v.01C.358 24.72 0 27.32 0 30s.36 5.28 1.022 7.755v.01c.002.005.006.008.007.013.68 2.532 1.686 4.93 2.967 7.154.01.022.01.046.023.068.018.03.044.055.065.083 1.295 2.216 2.86 4.256 4.66 6.064.017.02.024.046.043.065s.045.026.065.043c1.816 1.807 3.864 3.377 6.09 4.675.022.015.035.037.058.05.035.02.072.03.108.044 2.213 1.27 4.6 2.27 7.118 2.947l.01.006c.005 0 .01 0 .015.002C24.725 59.642 27.32 60 30 60s5.276-.358 7.75-1.02l.015-.003c.004 0 .007-.004.01-.005 2.52-.677 4.905-1.676 7.118-2.947.036-.015.073-.024.107-.044.023-.012.036-.035.057-.05 2.226-1.297 4.275-2.867 6.09-4.674.02-.017.047-.024.066-.043s.026-.045.043-.065c1.8-1.81 3.365-3.848 4.66-6.064.02-.03.047-.052.065-.083.014-.02.013-.045.024-.068 1.28-2.222 2.287-4.62 2.968-7.154 0-.005.004-.008.006-.013zm-4.123-.07l1.915.513c-.526 1.713-1.215 3.356-2.044 4.912l-1.71-.987c-.477-.276-1.09-.113-1.365.366-.275.478-.11 1.09.367 1.365l1.704.984c-.946 1.507-2.032 2.918-3.24 4.215l-1.388-1.388c-.39-.39-1.023-.39-1.414 0s-.39 1.023 0 1.414l1.388 1.39c-1.297 1.207-2.708 2.293-4.216 3.24l-.984-1.705c-.277-.48-.89-.643-1.366-.366-.48.275-.643.887-.366 1.365l.987 1.71c-1.556.828-3.198 1.517-4.91 2.043l-.514-1.915c-.143-.534-.69-.85-1.225-.707-.532.143-.85.69-.706 1.225l.512 1.91c-1.705.392-3.468.628-5.275.692V54c0-.553-.446-1-1-1s-1 .447-1 1v3.975c-1.806-.064-3.57-.3-5.274-.692l.512-1.91c.143-.532-.174-1.08-.707-1.224-.532-.144-1.08.172-1.224.706l-.513 1.915c-1.713-.525-3.355-1.214-4.912-2.043l.988-1.71c.276-.478.112-1.09-.366-1.365s-1.09-.112-1.366.366l-.984 1.705c-1.508-.947-2.92-2.033-4.216-3.24l1.388-1.39c.39-.39.39-1.022 0-1.413s-1.023-.39-1.414 0l-1.39 1.386c-1.208-1.297-2.294-2.708-3.24-4.216l1.703-.984c.48-.276.643-.887.367-1.366-.277-.48-.89-.643-1.366-.366l-1.71.987c-.828-1.556-1.517-3.198-2.043-4.91l1.916-.514c.533-.143.85-.69.707-1.225-.142-.533-.69-.85-1.225-.706l-1.91.51c-.392-1.704-.63-3.467-.693-5.274H6c.553 0 1-.447 1-1s-.447-1-1-1H2.025c.064-1.807.3-3.57.692-5.275l1.91.51c.086.024.173.035.26.035.44 0 .845-.294.964-.74.144-.534-.173-1.083-.706-1.226l-1.914-.512c.526-1.713 1.215-3.356 2.044-4.912l1.71.987c.157.09.328.133.498.133.346 0 .682-.18.867-.5.275-.48.11-1.09-.367-1.366L6.28 15.15c.946-1.508 2.032-2.92 3.24-4.216l1.388 1.388c.195.195.45.293.707.293s.512-.098.707-.293c.39-.39.39-1.023 0-1.414L10.934 9.52c1.297-1.208 2.708-2.294 4.216-3.24l.984 1.703c.186.32.52.5.867.5.17 0 .343-.043.5-.134.48-.277.643-.89.366-1.367l-.987-1.71c1.556-.828 3.198-1.517 4.91-2.043l.514 1.915c.12.447.523.74.965.74.085 0 .172-.01.26-.033.532-.143.85-.69.706-1.225l-.512-1.91c1.706-.39 3.47-.628 5.276-.692V6c0 .553.447 1 1 1s1-.447 1-1V2.025c1.807.064 3.57.3 5.275.692l-.512 1.91c-.143.532.174 1.08.707 1.224.087.024.174.035.26.035.44 0 .846-.294.965-.74l.513-1.916c1.713.525 3.356 1.214 4.912 2.043l-.987 1.71c-.276.478-.112 1.09.366 1.365.156.09.328.134.498.134.346 0 .682-.18.867-.5l.984-1.704c1.507.947 2.918 2.033 4.215 3.24l-1.388 1.39c-.39.39-.39 1.022 0 1.413.195.196.45.294.707.294s.512-.098.707-.293l1.39-1.387c1.207 1.297 2.293 2.708 3.24 4.216l-1.704.983c-.48.276-.643.888-.366 1.366.186.32.52.5.867.5.17 0 .342-.044.5-.135l1.708-.987c.83 1.557 1.518 3.2 2.044 4.912l-1.916.513c-.533.143-.85.69-.707 1.225.12.447.523.74.965.74.086 0 .173-.01.26-.033l1.91-.51c.39 1.704.628 3.467.69 5.274H54c-.553 0-1 .446-1 1s.447 1 1 1h3.975c-.064 1.806-.3 3.57-.692 5.274l-1.91-.51c-.53-.144-1.08.172-1.224.706-.144.534.172 1.083.705 1.225z"/><path d="M41 29h-7.142c-.364-1.4-1.46-2.495-2.858-2.858V13c0-.553-.447-1-1-1s-1 .447-1 1v13.142c-1.72.447-3 2-3 3.858 0 2.206 1.794 4 4 4 1.86 0 3.41-1.28 3.858-3H41c.553 0 1-.447 1-1s-.447-1-1-1zm-11 3c-1.103 0-2-.897-2-2s.897-2 2-2 2 .897 2 2-.897 2-2 2zM30 35c-4.41 0-8 3.59-8 8s3.59 8 8 8 8-3.59 8-8-3.59-8-8-8zm0 14c-3.31 0-6-2.69-6-6s2.69-6 6-6 6 2.69 6 6-2.69 6-6 6z"/><path d="M27.707 39.293c-.39-.39-1.023-.39-1.414 0s-.39 1.023 0 1.414l3 3c.195.195.45.293.707.293s.512-.098.707-.293c.39-.39.39-1.023 0-1.414l-3-3z"/></svg>