<svg xmlns="http://www.w3.org/2000/svg" viewBox="0 0 60 60"><path d="M30 0c-.553 0-1 .447-1 1v13.292c0 .553.447 1 1 1s1-.447 1-1V2.018C45.98 2.546 58 14.896 58 30c0 15.44-12.56 28-28 28S2 45.44 2 30c0-7.46 2.9-14.48 8.166-19.764.39-.392.39-1.024-.002-1.414-.392-.388-1.024-.388-1.414.002C3.107 14.486 0 22.007 0 30c0 16.542 13.458 30 30 30s30-13.458 30-30S46.542 0 30 0z"/><path d="M28.555 33.532c.614.845 1.563 1.376 2.604 1.457.092.007.185.01.277.01.942 0 1.848-.372 2.52-1.044.736-.737 1.113-1.756 1.032-2.797s-.613-1.99-1.46-2.607L20.586 19.19c-.396-.286-.945-.242-1.293.104-.348.348-.39.896-.104 1.293l9.365 12.945zm3.8-3.36c.37.27.604.687.64 1.144.036.456-.13.903-.453 1.227-.324.323-.78.488-1.228.453-.456-.035-.873-.27-1.14-.637L24.46 24.46l7.895 5.71z"/></svg>