<svg xmlns="http://www.w3.org/2000/svg" viewBox="0 0 60 60"><path d="M32.53 30.553L19.586 21.19c-.396-.285-.945-.243-1.293.104-.348.348-.39.896-.104 1.293l9.364 12.946c.614.845 1.563 1.376 2.604 1.457.094.007.187.01.28.01.94 0 1.847-.372 2.518-1.044.737-.737 1.114-1.756 1.033-2.797s-.613-1.99-1.46-2.607zm-.988 3.99c-.324.322-.775.487-1.228.452-.456-.035-.873-.27-1.14-.637L23.46 26.46l7.895 5.712c.37.27.604.687.64 1.144.036.455-.13.903-.453 1.226z"/><path d="M56.08 26.022v-.01c0-.004-.004-.007-.005-.01-.612-2.28-1.518-4.438-2.67-6.438-.01-.02-.01-.043-.022-.064-.012-.02-.03-.03-.044-.05-1.012-1.735-2.208-3.347-3.567-4.81l2.147-2.146 1.415 1.414 4.242-4.242-4.242-4.243-4.243 4.243 1.414 1.414-2.147 2.147c-1.463-1.358-3.075-2.555-4.81-3.566-.02-.012-.03-.03-.05-.043-.02-.012-.044-.01-.064-.022-2-1.153-4.158-2.058-6.436-2.67-.004 0-.007-.004-.01-.005h-.01c-1.293-.346-2.62-.598-3.98-.75V5h1.5C35.88 5 37 3.88 37 2.5S35.88 0 34.5 0h-9C24.12 0 23 1.12 23 2.5S24.12 5 25.5 5H27v1.17c-1.36.152-2.687.404-3.978.75h-.01l-.01.006c-2.28.612-4.437 1.518-6.437 2.67-.02.01-.044.01-.065.022-.02.012-.03.03-.05.044-1.734 1.01-3.347 2.207-4.81 3.566L9.495 11.08l1.414-1.414-4.243-4.243-4.242 4.243 4.242 4.242 1.415-1.414 2.147 2.147c-1.358 1.463-2.555 3.075-3.565 4.81-.013.02-.033.03-.044.05-.012.02-.01.043-.022.064-1.153 2-2.058 4.158-2.67 6.437 0 .005-.004.008-.005.012v.01C3.323 28.25 3 30.587 3 33s.323 4.75.92 6.978v.01c0 .005.005.01.006.014.612 2.278 1.517 4.435 2.67 6.434.01.02.01.043.02.064.018.03.042.05.06.078 1.166 1.993 2.574 3.827 4.192 5.454.016.02.022.042.04.06s.04.024.06.04c1.634 1.626 3.478 3.04 5.482 4.207.02.012.03.03.05.043.03.017.063.025.094.04 1.99 1.143 4.14 2.043 6.407 2.652.005 0 .008.004.012.005.005 0 .01 0 .015.002C25.253 59.678 27.59 60 30 60s4.747-.322 6.973-.918c.005 0 .01 0 .015-.002.004 0 .007-.004.01-.005 2.268-.61 4.416-1.51 6.408-2.653.03-.014.064-.02.094-.04.02-.01.03-.03.05-.043 2.004-1.17 3.847-2.582 5.482-4.208.02-.016.042-.022.06-.04s.024-.042.04-.06c1.618-1.627 3.026-3.46 4.19-5.454.02-.027.044-.048.06-.078.013-.02.012-.043.023-.064 1.152-2 2.057-4.156 2.67-6.434 0-.005.004-.01.005-.014v-.01c.597-2.228.92-4.565.92-6.978s-.323-4.75-.92-6.978zm-2.745-17.77l1.414 1.414-1.415 1.414-1.415-1.414 1.415-1.415zM5.25 9.665L6.666 8.25 8.08 9.667 6.665 11.08 5.25 9.666zM51.958 39.92l1.915.512c-.455 1.458-1.045 2.857-1.747 4.188l-1.707-.986c-.478-.277-1.09-.114-1.366.366s-.112 1.09.366 1.366l1.703.983c-.812 1.28-1.735 2.485-2.76 3.595l-1.39-1.39c-.39-.39-1.023-.39-1.414 0s-.39 1.024 0 1.415l1.39 1.39c-1.11 1.025-2.315 1.948-3.597 2.76l-.984-1.702c-.277-.48-.89-.644-1.366-.366-.48.276-.643.888-.366 1.366l.986 1.707c-1.33.702-2.73 1.292-4.188 1.747l-.513-1.914c-.144-.534-.692-.852-1.226-.707-.533.144-.85.692-.707 1.226l.51 1.908c-1.455.328-2.958.53-4.497.59V56c0-.553-.447-1-1-1s-1 .447-1 1v1.975c-1.54-.06-3.042-.263-4.498-.59l.51-1.91c.144-.532-.173-1.08-.706-1.224-.533-.143-1.082.174-1.225.708l-.512 1.914c-1.458-.455-2.857-1.045-4.188-1.747l.986-1.707c.276-.48.112-1.09-.366-1.366-.478-.277-1.09-.114-1.366.366l-.983 1.703c-1.28-.812-2.485-1.735-3.595-2.76l1.39-1.39c.39-.39.39-1.023 0-1.414s-1.024-.39-1.415 0l-1.39 1.39c-1.025-1.11-1.948-2.315-2.76-3.597l1.702-.984c.48-.276.643-.888.366-1.366-.277-.48-.89-.644-1.366-.366l-1.707.986c-.702-1.33-1.292-2.73-1.747-4.188l1.915-.513c.533-.144.85-.692.707-1.226-.142-.534-.69-.852-1.225-.707l-1.91.51c-.326-1.455-.53-2.958-.59-4.497H7c.553 0 1-.447 1-1s-.447-1-1-1H5.025c.06-1.54.263-3.042.59-4.498l1.91.512c.087.023.174.034.26.034.44 0 .845-.294.965-.74.144-.534-.174-1.083-.707-1.226l-1.915-.514c.455-1.458 1.045-2.857 1.747-4.188l1.707.986c.156.09.328.134.498.134.346 0 .682-.18.867-.5.276-.48.112-1.09-.366-1.366L8.88 19.65c.813-1.28 1.736-2.485 2.762-3.595l1.39 1.39c.194.194.45.292.706.292s.512-.098.707-.293c.39-.39.39-1.023 0-1.414l-1.39-1.39c1.11-1.024 2.315-1.948 3.597-2.76l.983 1.703c.186.32.52.5.867.5.17 0 .342-.043.5-.134.478-.277.642-.89.365-1.367l-.986-1.708c1.33-.702 2.728-1.292 4.187-1.747l.513 1.915c.12.446.523.74.965.74.086 0 .173-.01.26-.033.533-.143.85-.69.707-1.225l-.51-1.91c1.17-.263 2.372-.444 3.6-.536.31-.024.59-.04.86-.054H29V10c0 .553.447 1 1 1s1-.447 1-1V8.025h.038c.27.014.55.03.86.054 1.228.092 2.43.272 3.6.536l-.51 1.91c-.143.532.174 1.08.707 1.224.087.023.174.034.26.034.44 0 .846-.295.965-.74l.513-1.916c1.458.455 2.857 1.045 4.188 1.747l-.985 1.708c-.276.48-.112 1.09.366 1.366.158.09.33.133.5.133.346 0 .682-.18.867-.5l.983-1.704c1.282.812 2.486 1.736 3.596 2.76l-1.39 1.39c-.39.39-.39 1.023 0 1.414.196.195.452.293.708.293s.512-.098.707-.293l1.39-1.39c1.026 1.11 1.95 2.315 2.762 3.597l-1.703.984c-.48.276-.644.887-.367 1.366.186.32.52.5.867.5.17 0 .342-.043.5-.134l1.706-.986c.702 1.33 1.292 2.73 1.747 4.188l-1.915.514c-.533.143-.85.69-.707 1.225.12.447.524.74.966.74.086 0 .173-.01.26-.033l1.91-.512c.327 1.456.53 2.96.59 4.498H53c-.553 0-1 .447-1 1s.447 1 1 1h1.975c-.06 1.54-.263 3.042-.59 4.5l-1.91-.512c-.53-.144-1.082.174-1.225.707s.174 1.08.707 1.224zM29 6.02V3h-3.5c-.275 0-.5-.225-.5-.5s.225-.5.5-.5h9c.275 0 .5.225.5.5s-.225.5-.5.5H31v3.022C30.65 6.007 30.32 6 30 6s-.65.007-1 .022z"/></svg>