<svg xmlns="http://www.w3.org/2000/svg" viewBox="0 0 60 60"><path d="M43 12H31V9.9c2.28-.466 4-2.486 4-4.9 0-2.757-2.243-5-5-5s-5 2.243-5 5c0 2.414 1.72 4.434 4 4.9V12H17c-3.86 0-7 3.14-7 7s3.14 7 7 7h12v24h-5v4h-3v6h18v-6h-3v-4h-5V26h12c3.86 0 7-3.14 7-7s-3.14-7-7-7zM27 5c0-1.654 1.346-3 3-3s3 1.346 3 3-1.346 3-3 3-3-1.346-3-3zm10 51v2H23v-2h14zm-3-2h-8v-2h8v2zm9-30H17c-2.757 0-5-2.243-5-5s2.243-5 5-5h26c2.757 0 5 2.243 5 5s-2.243 5-5 5z"/><path d="M25 18h10c.552 0 1-.447 1-1s-.448-1-1-1H25c-.552 0-1 .447-1 1s.448 1 1 1zM44 20H17c-.552 0-1 .447-1 1s.448 1 1 1h27c.552 0 1-.447 1-1s-.448-1-1-1z"/></svg>