<svg xmlns="http://www.w3.org/2000/svg" viewBox="0 0 60 60"><path d="M51.914 17l-6-6H30.5V9.9c2.28-.466 4-2.485 4-4.9 0-2.757-2.243-5-5-5s-5 2.243-5 5c0 2.414 1.72 4.434 4 4.9V11h-7.86c-1.73 0-3.14 1.41-3.14 3.142V17h-3.414l-6 6 6 6H28.5v21h-5v4h-3v6h18v-6h-3v-4h-5V29h8.86c1.73 0 3.14-1.41 3.14-3.142V23h3.414l6-6zM26.5 5c0-1.654 1.346-3 3-3s3 1.346 3 3-1.346 3-3 3-3-1.346-3-3zm10 51v2h-14v-2h14zm-3-2h-8v-2h8v2zm7-28.142c0 .63-.512 1.142-1.14 1.142H14.913l-4-4 4-4H39.36c.628 0 1.14.512 1.14 1.142v5.716zm2-4.858v-.858C42.5 18.41 41.09 17 39.36 17H19.5v-2.858c0-.63.512-1.142 1.14-1.142h24.446l4 4-4 4H42.5z"/></svg>