<svg xmlns="http://www.w3.org/2000/svg" viewBox="0 0 60 60"><path d="M56.008 14H3.992C1.792 14 0 15.79 0 17.992v24.016C0 44.208 1.79 46 3.992 46h52.016c2.2 0 3.992-1.79 3.992-3.992V17.992c0-2.2-1.79-3.992-3.992-3.992zM3.992 44C2.894 44 2 43.106 2 42.008V17.992C2 16.894 2.894 16 3.992 16h24.016c1.098 0 1.992.894 1.992 1.992v24.016C30 43.106 29.106 44 28.008 44H3.992zM58 42.008C58 43.106 57.106 44 56.008 44h-24.56c.34-.59.552-1.263.552-1.992V17.992c0-.73-.21-1.403-.553-1.992h24.56c1.1 0 1.993.894 1.993 1.992v24.016z"/><circle cx="35" cy="21" r="1"/><circle cx="41" cy="21" r="1"/><circle cx="38" cy="18" r="1"/><circle cx="44" cy="18" r="1"/><circle cx="38" cy="24" r="1"/><circle cx="44" cy="24" r="1"/><circle cx="47" cy="21" r="1"/><circle cx="53" cy="21" r="1"/><circle cx="50" cy="18" r="1"/><circle cx="56" cy="18" r="1"/><circle cx="50" cy="24" r="1"/><circle cx="56" cy="24" r="1"/><circle cx="35" cy="39" r="1"/><circle cx="38" cy="42" r="1"/><circle cx="41" cy="39" r="1"/><circle cx="47" cy="39" r="1"/><circle cx="44" cy="42" r="1"/><circle cx="50" cy="42" r="1"/><circle cx="53" cy="39" r="1"/><circle cx="56" cy="42" r="1"/><circle cx="35" cy="27" r="1"/><circle cx="41" cy="27" r="1"/><circle cx="35" cy="33" r="1"/><circle cx="41" cy="33" r="1"/><circle cx="38" cy="30" r="1"/><circle cx="44" cy="30" r="1"/><circle cx="38" cy="36" r="1"/><circle cx="44" cy="36" r="1"/><circle cx="47" cy="27" r="1"/><circle cx="53" cy="27" r="1"/><circle cx="47" cy="33" r="1"/><circle cx="53" cy="33" r="1"/><circle cx="50" cy="30" r="1"/><circle cx="56" cy="30" r="1"/><circle cx="50" cy="36" r="1"/><circle cx="56" cy="36" r="1"/><path d="M13 26c-.552 0-1 .447-1 1v6c0 .553.448 1 1 1s1-.447 1-1v-6c0-.553-.448-1-1-1zM16 26c-.552 0-1 .447-1 1v6c0 .553.448 1 1 1s1-.447 1-1v-6c0-.553-.448-1-1-1zM19 26c-.552 0-1 .447-1 1v6c0 .553.448 1 1 1s1-.447 1-1v-6c0-.553-.448-1-1-1z"/></svg>