<svg xmlns="http://www.w3.org/2000/svg" viewBox="0 0 60 60"><path d="M46 16c-5.168 0-9.68 2.823-12.106 7H7c-3.86 0-7 3.14-7 7s3.14 7 7 7h26.894C36.32 41.177 40.83 44 46 44c7.72 0 14-6.28 14-14s-6.28-14-14-14zM32.926 35H7c-2.757 0-5-2.243-5-5s2.243-5 5-5h25.926c-.05.133-.088.27-.135.404-.07.207-.145.413-.208.625-.074.248-.134.5-.194.753-.04.173-.087.343-.12.518-.06.306-.103.614-.142.923-.017.137-.043.27-.056.41-.045.45-.07.907-.07 1.367s.025.916.07 1.368c.012.138.038.272.055.41.04.308.08.616.14.92.035.176.08.346.122.52.06.252.12.504.194.753.064.212.137.42.21.626.048.134.084.27.136.404zM46 42c-4.662 0-8.702-2.678-10.688-6.572-.18-.352-.338-.71-.48-1.07-.047-.118-.088-.236-.13-.354-.106-.295-.198-.593-.28-.893-.04-.148-.08-.296-.114-.447-.067-.294-.118-.592-.162-.89-.02-.145-.05-.287-.066-.433-.05-.442-.08-.888-.08-1.34s.03-.898.08-1.34c.016-.146.045-.288.066-.432.045-.3.095-.597.162-.89.034-.152.075-.3.115-.45.08-.3.173-.598.278-.892.043-.118.085-.237.13-.353.143-.362.303-.72.482-1.07C37.298 20.677 41.338 18 46 18c6.617 0 12 5.383 12 12s-5.383 12-12 12z"/><circle cx="26" cy="30" r="1"/><circle cx="29" cy="27" r="1"/><circle cx="23" cy="27" r="1"/><circle cx="29" cy="33" r="1"/><circle cx="23" cy="33" r="1"/><circle cx="20" cy="30" r="1"/><circle cx="14" cy="30" r="1"/><circle cx="17" cy="27" r="1"/><circle cx="11" cy="27" r="1"/><circle cx="17" cy="33" r="1"/><circle cx="11" cy="33" r="1"/><circle cx="8" cy="30" r="1"/><circle cx="5" cy="27" r="1"/><circle cx="5" cy="33" r="1"/></svg>