<svg xmlns="http://www.w3.org/2000/svg" viewBox="0 0 60 60"><path d="M52.472 0H7.528C3.378 0 0 3.377 0 7.528V52.47C0 56.624 3.377 60 7.528 60H52.47c4.153 0 7.53-3.377 7.53-7.528V7.528C60 3.378 56.623 0 52.472 0zM58 52.472C58 55.52 55.52 58 52.472 58H7.528C4.48 58 2 55.52 2 52.472V7.528C2 4.48 4.48 2 7.528 2H52.47C55.52 2 58 4.48 58 7.528v44.944z"/><path d="M44 6H16C9.935 6 5 10.935 5 17s4.935 11 11 11h28c6.065 0 11-4.935 11-11S50.065 6 44 6zM16 26c-4.963 0-9-4.037-9-9s4.037-9 9-9h21.695C34.86 9.992 33 13.28 33 17s1.86 7.008 4.695 9H16zm28 0c-4.963 0-9-4.037-9-9s4.037-9 9-9 9 4.037 9 9-4.037 9-9 9zM44 32H16C9.935 32 5 36.935 5 43s4.935 11 11 11h28c6.065 0 11-4.935 11-11s-4.935-11-11-11zM7 43c0-4.963 4.037-9 9-9s9 4.037 9 9-4.037 9-9 9-9-4.037-9-9zm45.435-3.11c.36.97.565 2.016.565 3.11 0 .52-.054 1.026-.14 1.52-.17-.305-.485-.52-.86-.52-.552 0-1 .448-1 1s.448 1 1 1c.204 0 .383-.076.54-.18-.892 2.696-3.025 4.83-5.722 5.722.106-.16.182-.338.182-.542 0-.552-.448-1-1-1s-1 .448-1 1c0 .375.215.69.52.86-.494.086-1 .14-1.52.14H22.305C25.14 50.008 27 46.72 27 43c0-2.23-.67-4.302-1.815-6.037.46-.09.815-.476.815-.963 0-.552-.448-1-1-1-.402 0-.743.24-.902.582-.54-.59-1.138-1.12-1.793-1.582H44c1.62 0 3.136.436 4.45 1.187-.265.18-.45.47-.45.813 0 .552.448 1 1 1 .46 0 .83-.316.947-.737.615.543 1.156 1.166 1.604 1.857-.322.165-.55.492-.55.88 0 .552.448 1 1 1 .158 0 .302-.044.435-.11z"/><circle cx="28" cy="39" r="1"/><circle cx="31" cy="36" r="1"/><circle cx="37" cy="36" r="1"/><circle cx="34" cy="39" r="1"/><circle cx="40" cy="39" r="1"/><circle cx="43" cy="36" r="1"/><circle cx="46" cy="39" r="1"/><circle cx="28" cy="45" r="1"/><circle cx="28" cy="51" r="1"/><circle cx="31" cy="42" r="1"/><circle cx="37" cy="42" r="1"/><circle cx="31" cy="48" r="1"/><circle cx="37" cy="48" r="1"/><circle cx="34" cy="45" r="1"/><circle cx="40" cy="45" r="1"/><circle cx="34" cy="51" r="1"/><circle cx="40" cy="51" r="1"/><circle cx="43" cy="42" r="1"/><circle cx="49" cy="42" r="1"/><circle cx="43" cy="48" r="1"/><circle cx="49" cy="48" r="1"/><circle cx="46" cy="45" r="1"/></svg>