<svg xmlns="http://www.w3.org/2000/svg" viewBox="0 0 60 60"><path d="M53 23H26.106C23.68 18.823 19.17 16 14 16 6.28 16 0 22.28 0 30s6.28 14 14 14c5.168 0 9.68-2.823 12.106-7H53c3.86 0 7-3.14 7-7s-3.14-7-7-7zM14 42C7.383 42 2 36.617 2 30s5.383-12 12-12c4.662 0 8.702 2.678 10.688 6.572.18.352.338.71.48 1.07.047.118.088.236.13.354.106.295.198.593.28.893.04.148.08.296.114.447.067.294.118.592.162.89.02.145.05.287.066.433.05.442.08.888.08 1.34s-.03.898-.08 1.34c-.016.146-.045.288-.066.432-.045.3-.095.597-.162.89-.034.152-.075.3-.115.45-.08.3-.173.598-.278.892-.043.118-.085.237-.13.353-.143.362-.303.72-.482 1.07C22.702 39.323 18.662 42 14 42zm39-7H27.074c.05-.133.088-.27.135-.405.07-.207.145-.413.207-.624.075-.25.135-.502.195-.755.04-.172.086-.342.12-.516.06-.306.103-.616.142-.925.017-.136.043-.27.056-.406.045-.454.07-.91.07-1.37s-.025-.916-.07-1.368c-.012-.137-.038-.27-.055-.406-.04-.31-.08-.62-.14-.924-.035-.174-.08-.344-.122-.516-.06-.253-.12-.506-.195-.756-.063-.21-.136-.417-.208-.624-.047-.134-.084-.272-.135-.405H53c2.757 0 5 2.244 5 5s-2.243 5-5 5z"/><circle cx="34" cy="30" r="1"/><circle cx="31" cy="27" r="1"/><circle cx="37" cy="27" r="1"/><circle cx="31" cy="33" r="1"/><circle cx="37" cy="33" r="1"/><circle cx="40" cy="30" r="1"/><circle cx="46" cy="30" r="1"/><circle cx="43" cy="27" r="1"/><circle cx="49" cy="27" r="1"/><circle cx="43" cy="33" r="1"/><circle cx="49" cy="33" r="1"/><circle cx="52" cy="30" r="1"/><circle cx="55" cy="27" r="1"/><circle cx="55" cy="33" r="1"/></svg>