<svg xmlns="http://www.w3.org/2000/svg" viewBox="0 0 60 60"><path d="M14 28h32c7.72 0 14-6.28 14-14S53.72 0 46 0H14C6.28 0 0 6.28 0 14s6.28 14 14 14zm0-26h32c6.617 0 12 5.383 12 12s-5.383 12-12 12H14C7.383 26 2 20.617 2 14S7.383 2 14 2zM51.4 33.086l-.03-.01C49.715 32.385 47.902 32 46 32H14c-1.902 0-3.715.385-5.37 1.075l-.03.01C3.554 35.204 0 40.194 0 46c0 7.72 6.28 14 14 14h32c1.902 0 3.715-.385 5.37-1.075l.03-.01C56.445 56.796 60 51.806 60 46c0-5.807-3.554-10.797-8.6-12.914zm5.483 7.89C57.593 42.506 58 44.206 58 46s-.407 3.493-1.117 5.024c-.494.06-.883.465-.883.976 0 .16.045.304.11.437-.42.658-.9 1.27-1.436 1.833-.18-.164-.412-.27-.674-.27-.552 0-1 .448-1 1 0 .22.085.41.204.575C51.194 57.09 48.704 58 46 58c0-.552-.448-1-1-1s-1 .448-1 1h-4c0-.552-.448-1-1-1s-1 .448-1 1h-4c0-.552-.448-1-1-1s-1 .448-1 1h-4c0-.552-.448-1-1-1s-1 .448-1 1h-4c0-.552-.448-1-1-1s-1 .448-1 1h-4c0-.552-.448-1-1-1s-1 .448-1 1c-2.705 0-5.195-.91-7.204-2.425C6.916 55.41 7 55.22 7 55c0-.552-.448-1-1-1-.262 0-.495.106-.673.27C3.27 52.115 2 49.206 2 46c0-1.795.407-3.493 1.117-5.024C3.61 40.916 4 40.51 4 40c0-.16-.045-.304-.11-.437.42-.658.9-1.27 1.436-1.833.18.164.412.27.674.27.552 0 1-.448 1-1 0-.22-.085-.41-.204-.575C8.806 34.91 11.296 34 14 34c0 .552.448 1 1 1s1-.448 1-1h4c0 .552.448 1 1 1s1-.448 1-1h4c0 .552.448 1 1 1s1-.448 1-1h4c0 .552.448 1 1 1s1-.448 1-1h4c0 .552.448 1 1 1s1-.448 1-1h4c0 .552.448 1 1 1s1-.448 1-1c2.705 0 5.195.91 7.204 2.425-.12.165-.204.356-.204.575 0 .552.448 1 1 1 .262 0 .495-.106.673-.27.536.562 1.017 1.176 1.437 1.833-.065.133-.11.278-.11.437 0 .51.39.916.883.976z"/><path d="M46 24c5.514 0 10-4.486 10-10S51.514 4 46 4 36 8.486 36 14s4.486 10 10 10zm0-18c4.41 0 8 3.59 8 8s-3.59 8-8 8-8-3.59-8-8 3.59-8 8-8zM11.22 55.6c.183.237.457.4.78.4.17 0 .325-.054.466-.13.5.077 1.01.13 1.534.13 1.1 0 2.154-.185 3.144-.514.172.302.484.514.856.514.552 0 1-.448 1-1 0-.112-.03-.214-.063-.315 1.96-1.118 3.503-2.876 4.348-4.99.18.187.433.305.715.305.552 0 1-.448 1-1s-.448-1-1-1c-.075 0-.14.027-.21.043.136-.66.21-1.343.21-2.043s-.074-1.383-.21-2.043c.07.016.135.043.21.043.552 0 1-.448 1-1s-.448-1-1-1c-.282 0-.534.118-.716.306-.328-.822-.765-1.587-1.288-2.286 0-.007.004-.013.004-.02 0-.496-.368-.89-.842-.968-.654-.672-1.402-1.25-2.222-1.717.034-.1.064-.203.064-.315 0-.552-.448-1-1-1-.372 0-.684.212-.856.514C16.154 36.184 15.1 36 14 36c-.523 0-1.033.053-1.534.13-.14-.076-.295-.13-.466-.13-.323 0-.597.163-.78.4C7.056 37.61 4 41.453 4 46s3.056 8.39 7.22 9.6zM14 38c4.41 0 8 3.59 8 8s-3.59 8-8 8-8-3.59-8-8 3.59-8 8-8z"/><circle cx="24" cy="37" r="1"/><circle cx="30" cy="37" r="1"/><circle cx="36" cy="37" r="1"/><circle cx="42" cy="37" r="1"/><circle cx="48" cy="37" r="1"/><circle cx="3" cy="46" r="1"/><circle cx="27" cy="40" r="1"/><circle cx="33" cy="40" r="1"/><circle cx="27" cy="46" r="1"/><circle cx="33" cy="46" r="1"/><circle cx="30" cy="43" r="1"/><circle cx="36" cy="43" r="1"/><circle cx="30" cy="49" r="1"/><circle cx="36" cy="49" r="1"/><circle cx="39" cy="40" r="1"/><circle cx="45" cy="40" r="1"/><circle cx="39" cy="46" r="1"/><circle cx="45" cy="46" r="1"/><circle cx="42" cy="43" r="1"/><circle cx="48" cy="43" r="1"/><circle cx="42" cy="49" r="1"/><circle cx="48" cy="49" r="1"/><circle cx="51" cy="40" r="1"/><circle cx="51" cy="46" r="1"/><circle cx="57" cy="46" r="1"/><circle cx="27" cy="52" r="1"/><circle cx="33" cy="52" r="1"/><circle cx="39" cy="52" r="1"/><circle cx="45" cy="52" r="1"/><circle cx="51" cy="52" r="1"/><circle cx="54" cy="43" r="1"/><circle cx="54" cy="49" r="1"/><circle cx="24" cy="55" r="1"/><circle cx="30" cy="55" r="1"/><circle cx="36" cy="55" r="1"/><circle cx="42" cy="55" r="1"/><circle cx="48" cy="55" r="1"/></svg>