<svg xmlns="http://www.w3.org/2000/svg" viewBox="0 0 60 60"><path d="M42 12H18C8.075 12 0 20.075 0 30s8.075 18 18 18h24c9.925 0 18-8.075 18-18s-8.075-18-18-18zm0 34H18C9.178 46 2 38.822 2 30s7.178-16 16-16h24c8.822 0 16 7.178 16 16s-7.178 16-16 16z"/><path d="M18 17c-7.168 0-13 5.832-13 13s5.832 13 13 13 13-5.832 13-13-5.832-13-13-13zm0 24c-6.065 0-11-4.935-11-11s4.935-11 11-11 11 4.935 11 11-4.935 11-11 11zM48.293 25.293L41 32.586l-3.293-3.293c-.39-.39-1.023-.39-1.414 0s-.39 1.023 0 1.414l4 4c.195.195.45.293.707.293s.512-.098.707-.293l8-8c.39-.39.39-1.023 0-1.414s-1.023-.39-1.414 0z"/></svg>