<svg xmlns="http://www.w3.org/2000/svg" viewBox="0 0 56 56"><path d="M0 14.5v39h56v-39H0zm54 37h-4c0-.552-.448-1-1-1s-1 .448-1 1h-4c0-.552-.448-1-1-1s-1 .448-1 1h-4c0-.552-.448-1-1-1s-1 .448-1 1h-4c0-.552-.448-1-1-1s-1 .448-1 1h-4c0-.552-.448-1-1-1s-1 .448-1 1h-4c0-.552-.448-1-1-1s-1 .448-1 1h-4c0-.552-.448-1-1-1s-1 .448-1 1H8c0-.552-.448-1-1-1s-1 .448-1 1H2v-35h52v35zM3 12.5h50c.553 0 1-.448 1-1s-.447-1-1-1H3c-.553 0-1 .448-1 1s.447 1 1 1zM6 8.5h44c.553 0 1-.448 1-1s-.447-1-1-1H6c-.553 0-1 .448-1 1s.447 1 1 1zM9 4.5h38c.553 0 1-.448 1-1s-.447-1-1-1H9c-.553 0-1 .448-1 1s.447 1 1 1z"/><circle cx="46" cy="18.5" r="1"/><circle cx="46" cy="24.5" r="1"/><circle cx="49" cy="21.5" r="1"/><circle cx="49" cy="27.5" r="1"/><circle cx="52" cy="18.5" r="1"/><circle cx="52" cy="24.5" r="1"/><circle cx="46" cy="30.5" r="1"/><circle cx="46" cy="36.5" r="1"/><circle cx="49" cy="33.5" r="1"/><circle cx="49" cy="39.5" r="1"/><circle cx="52" cy="30.5" r="1"/><circle cx="52" cy="36.5" r="1"/><circle cx="46" cy="42.5" r="1"/><circle cx="46" cy="48.5" r="1"/><circle cx="49" cy="45.5" r="1"/><circle cx="52" cy="42.5" r="1"/><circle cx="52" cy="48.5" r="1"/><circle cx="28" cy="18.5" r="1"/><circle cx="28" cy="24.5" r="1"/><circle cx="31" cy="21.5" r="1"/><circle cx="31" cy="27.5" r="1"/><circle cx="34" cy="18.5" r="1"/><circle cx="40" cy="18.5" r="1"/><circle cx="34" cy="24.5" r="1"/><circle cx="40" cy="24.5" r="1"/><circle cx="37" cy="21.5" r="1"/><circle cx="43" cy="21.5" r="1"/><circle cx="37" cy="27.5" r="1"/><circle cx="43" cy="27.5" r="1"/><circle cx="28" cy="30.5" r="1"/><circle cx="28" cy="36.5" r="1"/><circle cx="31" cy="33.5" r="1"/><circle cx="31" cy="39.5" r="1"/><circle cx="34" cy="30.5" r="1"/><circle cx="40" cy="30.5" r="1"/><circle cx="34" cy="36.5" r="1"/><circle cx="40" cy="36.5" r="1"/><circle cx="37" cy="33.5" r="1"/><circle cx="43" cy="33.5" r="1"/><circle cx="37" cy="39.5" r="1"/><circle cx="43" cy="39.5" r="1"/><circle cx="28" cy="42.5" r="1"/><circle cx="28" cy="48.5" r="1"/><circle cx="31" cy="45.5" r="1"/><circle cx="34" cy="42.5" r="1"/><circle cx="40" cy="42.5" r="1"/><circle cx="34" cy="48.5" r="1"/><circle cx="40" cy="48.5" r="1"/><circle cx="37" cy="45.5" r="1"/><circle cx="43" cy="45.5" r="1"/><circle cx="22" cy="18.5" r="1"/><circle cx="22" cy="24.5" r="1"/><circle cx="25" cy="21.5" r="1"/><circle cx="25" cy="27.5" r="1"/><circle cx="22" cy="30.5" r="1"/><circle cx="22" cy="36.5" r="1"/><circle cx="25" cy="33.5" r="1"/><circle cx="25" cy="39.5" r="1"/><circle cx="22" cy="42.5" r="1"/><circle cx="22" cy="48.5" r="1"/><circle cx="25" cy="45.5" r="1"/><circle cx="4" cy="18.5" r="1"/><circle cx="4" cy="24.5" r="1"/><circle cx="7" cy="21.5" r="1"/><circle cx="7" cy="27.5" r="1"/><circle cx="10" cy="18.5" r="1"/><circle cx="16" cy="18.5" r="1"/><circle cx="10" cy="24.5" r="1"/><circle cx="16" cy="24.5" r="1"/><circle cx="13" cy="21.5" r="1"/><circle cx="19" cy="21.5" r="1"/><circle cx="13" cy="27.5" r="1"/><circle cx="19" cy="27.5" r="1"/><circle cx="4" cy="30.5" r="1"/><circle cx="4" cy="36.5" r="1"/><circle cx="7" cy="33.5" r="1"/><circle cx="7" cy="39.5" r="1"/><circle cx="10" cy="30.5" r="1"/><circle cx="16" cy="30.5" r="1"/><circle cx="10" cy="36.5" r="1"/><circle cx="16" cy="36.5" r="1"/><circle cx="13" cy="33.5" r="1"/><circle cx="19" cy="33.5" r="1"/><circle cx="13" cy="39.5" r="1"/><circle cx="19" cy="39.5" r="1"/><circle cx="4" cy="42.5" r="1"/><circle cx="4" cy="48.5" r="1"/><circle cx="7" cy="45.5" r="1"/><circle cx="10" cy="42.5" r="1"/><circle cx="16" cy="42.5" r="1"/><circle cx="10" cy="48.5" r="1"/><circle cx="16" cy="48.5" r="1"/><circle cx="13" cy="45.5" r="1"/><circle cx="19" cy="45.5" r="1"/></svg>