<svg xmlns="http://www.w3.org/2000/svg" viewBox="0 0 60 60"><path d="M59 29h-2.025C56.458 14.907 45.093 3.542 31 3.025V1c0-.553-.447-1-1-1s-1 .447-1 1v2.025C14.907 3.542 3.542 14.907 3.025 29H1c-.553 0-1 .447-1 1s.447 1 1 1h2.025C3.542 45.093 14.907 56.458 29 56.975V59c0 .553.447 1 1 1s1-.447 1-1v-2.025C45.093 56.458 56.458 45.093 56.975 31H59c.553 0 1-.447 1-1s-.447-1-1-1zM31 54.975V53c0-.553-.447-1-1-1s-1 .447-1 1v1.975C16.01 54.46 5.54 43.99 5.025 31H7c.553 0 1-.447 1-1s-.447-1-1-1H5.025C5.54 16.01 16.01 5.54 29 5.025V7c0 .553.447 1 1 1s1-.447 1-1V5.025C43.99 5.54 54.46 16.01 54.975 29H53c-.553 0-1 .447-1 1s.447 1 1 1h1.975C54.46 43.99 43.99 54.46 31 54.975z"/><path d="M42 29h-5.08c-.44-3.06-2.86-5.48-5.92-5.92V18c0-.553-.447-1-1-1s-1 .447-1 1v5.08c-3.06.44-5.48 2.862-5.92 5.92H18c-.553 0-1 .447-1 1s.447 1 1 1h5.08c.44 3.06 2.86 5.48 5.92 5.92V42c0 .553.447 1 1 1s1-.447 1-1v-5.08c3.06-.44 5.48-2.862 5.92-5.92H42c.553 0 1-.447 1-1s-.447-1-1-1zm-12 6c-2.757 0-5-2.243-5-5s2.243-5 5-5 5 2.243 5 5-2.243 5-5 5z"/></svg>