<svg xmlns="http://www.w3.org/2000/svg" viewBox="0 0 60 60"><path d="M59 6H1c-.553 0-1 .447-1 1v38c0 .553.447 1 1 1h26v3h-5v5h16v-5h-5v-3h26c.553 0 1-.447 1-1V7c0-.553-.447-1-1-1zM36 51v1H24v-1h5v-5h2v5h5zm22-7H2V8h56v36z"/><path d="M55 34H42.374l-.085-.075c-.354-.312-.73-.57-1.126-.775l-4.62-2.99-.097-.054c-.35-.175-.738-.256-1.08-.328-.11-.022-.25-.053-.367-.083v-1.302l.14-.096c.677-.466.994-.7 1.185-.968.693-.982 1.387-2.038 1.83-3.172.96-.44 1.846-1.29 1.846-2.37v-2.244c0-.413-.16-.816-.48-1.196-.236-.284-.52-.744-.52-1.32v-1.054C38.938 13.562 37.184 9 31 9s-7.937 4.562-8 7v1.027c0 .576-.282 1.036-.52 1.32-.318.38-.48.784-.48 1.197v2.245c0 .963.793 1.646 1.353 2.04.666 2.015 2.682 3.514 3.647 4.137v1.327c-.26.254-1.06.633-1.416.803-.22.105-.414.198-.58.29l-4.685 2.72c-.397.215-.778.495-1.133.83L19.12 34H14v7h41v-7zm-29.015-1.87c.117-.065.277-.14.458-.227C27.583 31.36 29 30.687 29 29.455V26.81l-.52-.284c-.788-.43-2.913-1.902-3.29-3.547l-.09-.397-.342-.22c-.618-.4-.734-.605-.758-.574v-2.142c.004-.004.01-.01.016-.02.634-.76.984-1.684.984-2.6v-1.002c.005-.205.2-5.026 6-5.026 5.656 0 5.982 4.516 6 5v1.027c0 .905.34 1.816 1 2.627v2.12c-.032.143-.437.51-.928.66l-.497.154-.16.496c-.34 1.053-1.028 2.106-1.673 3.026-.103.102-.516.386-.737.54-.424.29-.617.427-.756.584l-.25.285V30c0 1.325 1.32 1.602 1.956 1.735.203.042.43.09.56.143L38.796 34H22.76l3.225-1.87zM53 39H16v-3h37v3zM55 10h-6v6h6v-6zm-2 4h-2v-2h2v2zM12 34H5v7h7v-7zm-2 5H7v-3h3v3z"/></svg>