<svg xmlns="http://www.w3.org/2000/svg" viewBox="0 0 60 60"><path d="M54.95 28.25c.017-.068.038-.134.04-.206.002-.015.01-.028.01-.044C55 14.55 44.323 3.553 31 3.025V1c0-.553-.448-1-1-1s-1 .447-1 1v2.025C15.677 3.553 5 14.55 5 28c0 .016.008.03.01.045.002.07.022.137.04.207.017.06.026.118.05.172.026.053.065.097.1.145.04.058.08.117.134.166.01.01.016.025.028.035.036.03.08.04.118.065.06.037.115.074.182.098.07.026.14.034.213.043.043.004.08.024.125.024.015 0 .027-.008.042-.008.076-.003.147-.024.22-.044.054-.015.11-.023.158-.047.057-.025.104-.067.156-.104.055-.04.11-.077.157-.127.01-.013.026-.018.037-.03C8.18 26.936 10.038 26 12 26s3.82.937 5.23 2.64c.02.022.048.03.07.052.023.024.035.056.062.078.04.033.088.045.13.07.05.032.098.063.152.083.082.032.164.045.25.054.036.004.07.023.106.023.016 0 .03-.007.046-.008.05-.002.098-.015.148-.025.07-.014.135-.03.2-.06.05-.02.095-.05.14-.08.034-.02.07-.032.102-.058.024-.02.035-.05.057-.07.023-.024.054-.036.075-.062C20.18 26.938 22.038 26 24 26c1.86 0 3.62.85 5 2.386V55c0 1.654-1.346 3-3 3s-3-1.346-3-3c0-.553-.448-1-1-1s-1 .447-1 1c0 2.757 2.243 5 5 5s5-2.243 5-5V28.386C32.38 26.85 34.14 26 36 26c1.962 0 3.82.937 5.23 2.64.02.022.048.03.07.052.023.024.035.056.062.078.04.033.088.044.13.07.05.03.098.062.153.083.08.03.163.045.25.054.035.004.07.023.105.023.016 0 .03-.007.046-.008.05-.002.1-.015.15-.026.067-.014.133-.03.198-.058.05-.022.096-.05.142-.08.033-.022.07-.033.1-.058.025-.02.036-.048.057-.07.023-.023.054-.035.076-.06C44.18 26.936 46.037 26 48 26s3.82.937 5.23 2.64c.01.01.024.014.035.026.07.077.154.135.245.188.03.018.055.045.088.06.123.053.258.086.402.086.123 0 .245-.027.36-.073.046-.018.083-.047.125-.07.05-.03.106-.05.152-.088.012-.01.017-.025.028-.036.054-.05.092-.107.135-.167.034-.048.073-.093.098-.145.026-.053.036-.112.05-.17zM48 24c-2.218 0-4.312.895-6 2.534C40.312 24.894 38.218 24 36 24s-4.312.895-6 2.534C28.312 24.894 26.218 24 24 24s-4.312.895-6 2.534C16.312 24.894 14.218 24 12 24c-1.75 0-3.418.566-4.875 1.605C8.327 14.045 18.127 5 30 5s21.673 9.044 22.875 20.605C51.418 24.565 49.75 24 48 24z"/></svg>