<svg xmlns="http://www.w3.org/2000/svg" viewBox="0 0 58 58"><path d="M40 21.314V10.22C40 4.585 35.065 0 29 0S18 4.585 18 10.22c0 .553.447 1 1 1s1-.447 1-1C20 5.688 24.037 2 29 2s9 3.688 9 8.22v9.938c-.188-.095-.38-.18-.57-.268-.393-.184-.792-.356-1.198-.515-.26-.102-.523-.198-.787-.29-.26-.088-.518-.177-.782-.255-.437-.13-.88-.24-1.324-.34-.194-.044-.388-.085-.583-.123-.523-.1-1.05-.183-1.58-.242-.12-.013-.24-.02-.36-.032C30.214 18.036 29.608 18 29 18 17.972 18 9 26.972 9 38s8.972 20 20 20 20-8.972 20-20c0-6.966-3.584-13.104-9-16.686zM29 56c-9.925 0-18-8.075-18-18s8.075-18 18-18c.54 0 1.072.034 1.6.08.172.017.342.035.513.055.377.044.75.104 1.118.17.257.048.512.1.766.157.348.08.693.167 1.033.266.276.08.55.173.823.268.18.062.355.128.53.195.992.38 1.954.848 2.874 1.402C43.485 25.745 47 31.462 47 38c0 9.925-8.075 18-18 18z"/><path d="M41 37h-3.06c-.192-1.733-.88-3.316-1.915-4.61l2.167-2.168c.39-.39.39-1.023 0-1.414s-1.023-.39-1.414 0l-2.167 2.167c-1.294-1.036-2.877-1.723-4.61-1.916V26c0-.553-.447-1-1-1s-1 .447-1 1v3.06c-1.733.192-3.316.88-4.61 1.915l-2.168-2.167c-.39-.39-1.023-.39-1.414 0s-.39 1.023 0 1.414l2.167 2.167c-1.036 1.294-1.723 2.877-1.916 4.61H17c-.553 0-1 .447-1 1s.447 1 1 1h3.06c.192 1.733.88 3.316 1.915 4.61l-2.167 2.168c-.39.39-.39 1.023 0 1.414.195.195.45.293.707.293s.512-.098.707-.293l2.167-2.167c1.294 1.036 2.877 1.723 4.61 1.916V50c0 .553.447 1 1 1s1-.447 1-1v-3.06c1.733-.192 3.316-.88 4.61-1.915l2.168 2.167c.195.195.45.293.707.293s.512-.098.707-.293c.39-.39.39-1.023 0-1.414l-2.167-2.167c1.036-1.294 1.723-2.877 1.916-4.61H41c.553 0 1-.447 1-1s-.447-1-1-1zm-12 8c-3.86 0-7-3.14-7-7s3.14-7 7-7 7 3.14 7 7-3.14 7-7 7z"/></svg>