<svg xmlns="http://www.w3.org/2000/svg" viewBox="0 0 60 60"><path d="M55.517 46.55l-9.773-4.233c-.23-.115-.485-.396-.704-.77l6.525-.006c.114.012 2.804.258 4.96-.67.818-.35 1.426-1.046 1.67-1.906.246-.868.09-1.787-.426-2.523-1.866-2.653-6.22-9.588-6.355-16.622-.003-.12-.397-12.083-12.21-12.18-1.74.014-3.347.31-4.81.853-.32-.812-.79-1.66-1.488-2.458C30.854 3.688 27.52 2.5 23 2.5s-7.854 1.188-9.908 3.53c-2.368 2.7-2.148 5.976-2.092 6.525v5.32c-.64.728-1 1.66-1 2.624v4c0 1.216.553 2.35 1.497 3.108.916 3.627 2.833 6.36 3.503 7.237v3.31c0 .967-.528 1.855-1.377 2.32l-8.92 4.865C1.8 46.924 0 49.958 0 53.262V57.5h60v-3.697c0-3.092-1.718-5.87-4.483-7.253zM44 55.5H2v-2.238c0-2.57 1.402-4.934 3.66-6.164l8.92-4.866c1.493-.815 2.42-2.378 2.42-4.077v-4.02l-.233-.277c-.024-.03-2.475-2.994-3.41-7.065l-.09-.396-.342-.22c-.58-.374-.925-1-.925-1.677v-4c0-.56.238-1.084.67-1.475l.33-.297V12.5l-.01-.13c-.002-.028-.342-2.8 1.606-5.022C16.253 5.458 19.08 4.5 23 4.5c3.905 0 6.727.95 8.386 2.828.825.932 1.24 1.973 1.447 2.867l.045.208c.014.07.03.142.04.21l.035.226c.008.052.016.106.022.157.015.124.027.244.035.355v.026c.008.108.013.21.016.303v.052c.003.083.003.162.002.23v.03c-.004.236-.02.376-.02.38L33 18.727l.33.298c.432.39.67.913.67 1.474v4c0 .873-.572 1.637-1.422 1.9l-.498.152-.16.495c-.67 2.08-1.622 4.003-2.834 5.713-.297.42-.586.794-.837 1.08l-.25.283v4.125c0 .253.025.5.064.745.008.052.022.102.032.154.04.2.09.398.155.59.016.045.032.088.05.133.077.21.168.41.274.605l.035.067c.144.256.31.5.503.723l.228.28h.04c.343.34.737.633 1.185.857l9.553 4.776C42.513 48.374 44 50.78 44 53.458V55.5zm14 0H46v-2.043c0-3.44-1.91-6.53-4.986-8.068l-6.858-3.43c.17-.387.19-.83.043-1.255-.246-.705-.886-1.16-1.63-1.16H30.35c-.046-.08-.076-.17-.113-.256-.05-.116-.11-.23-.143-.35-.06-.222-.097-.454-.097-.692v-3.38c.23-.28.47-.6.72-.952 1.238-1.75 2.23-3.698 2.953-5.8C35.083 27.47 36 26.077 36 24.5v-4c0-.963-.36-1.896-1-2.625v-5.32c.026-.25.082-1.068-.084-2.138 1.288-.506 2.73-.767 4.29-.78 9.84.08 10.2 9.81 10.21 10.22.147 7.584 4.746 14.928 6.717 17.733.17.24.22.542.14.827-.047.164-.18.462-.536.615-1.68.723-3.96.518-4.076.513H44.78c-.643 0-1.23.327-1.568.874-.338.544-.37 1.21-.086 1.782.313.63.866 1.474 1.775 1.927l9.746 4.22C56.716 49.397 58 51.483 58 53.804V55.5z"/></svg>