<svg xmlns="http://www.w3.org/2000/svg" viewBox="0 0 60 60"><path d="M55.014 45.39l-9.553-4.777c-.9-.45-1.46-1.357-1.46-2.365v-3.38c.23-.28.47-.6.72-.952 1.238-1.75 2.23-3.698 2.953-5.8C49.083 27.47 50 26.077 50 24.5v-4c0-.963-.36-1.896-1-2.625v-5.32c.056-.55.276-3.823-2.092-6.524C44.854 3.69 41.52 2.5 37 2.5s-7.854 1.188-9.908 3.53c-1.435 1.637-1.918 3.48-2.064 4.805C23.314 9.95 21.294 9.5 19 9.5c-10.39 0-10.994 8.855-11 9v4.58c-.648.705-1 1.52-1 2.33v3.453c0 1.08.483 2.085 1.31 2.765.826 3.11 2.855 5.46 3.645 6.285v2.743c0 .787-.428 1.51-1.17 1.915L4.13 46.745C1.584 48.134 0 50.8 0 53.704V57.5h60v-4.043c0-3.438-1.91-6.53-4.986-8.068zM14 53.26V55.5H2v-1.797c0-2.17 1.184-4.164 3.14-5.233l6.653-4.173c1.333-.727 2.16-2.12 2.16-3.64v-3.592l-.317-.297c-.026-.024-2.683-2.534-3.468-5.955l-.09-.396-.343-.22C9.275 29.9 9 29.4 9 28.863V25.41c0-.36.245-.79.67-1.175l.33-.297-.002-5.38c.018-.287.54-7.058 9.002-7.058 2.393 0 4.408.553 6 1.644v4.73c-.64.73-1 1.663-1 2.626v4c0 .304.035.603.1.893.028.116.082.222.12.334.054.168.098.34.175.5 0 .002.002.003.003.005.256.528.63 1 1.1 1.377.004.018.01.035.015.053.06.23.123.457.19.68l.082.26c.014.047.03.094.046.14.036.108.07.215.106.32.06.176.123.357.196.554.03.082.065.156.097.237.08.21.163.41.25.61.02.05.038.1.06.148l.055.126c.026.058.053.11.08.167.097.214.193.42.293.62.016.033.03.068.047.1.063.125.126.243.19.363.107.206.213.4.32.588.05.092.102.182.153.27.144.245.28.47.414.68.03.046.057.093.085.136.242.375.452.68.626.916l.125.17c.022.03.052.07.07.097v3.31c0 .967-.527 1.855-1.376 2.32l-2.646 1.442-.46-.04-.19.394-5.625 3.07c-2.9 1.584-4.7 4.618-4.7 7.922zM58 55.5H16v-2.238c0-2.57 1.402-4.934 3.66-6.164l8.92-4.866c1.493-.815 2.42-2.378 2.42-4.077v-4.018l-.194-.233-.038-.045-.165-.21c-.006-.01-.012-.017-.02-.025-.052-.07-.114-.152-.185-.25 0-.003-.002-.004-.003-.006-.15-.208-.336-.477-.544-.8l-.013-.023c-.098-.153-.202-.32-.308-.497-.01-.013-.017-.026-.025-.04-.226-.38-.466-.808-.705-1.283v-.002c-.128-.255-.255-.523-.38-.802-.016-.04-.034-.077-.05-.116-.056-.125-.11-.256-.167-.39l-.06-.15c-.052-.132-.105-.264-.16-.415-.103-.272-.2-.556-.29-.85l-.056-.177-.02-.06c-.093-.317-.183-.64-.26-.972l-.09-.396-.34-.22c-.58-.374-.927-1-.927-1.677v-4c0-.56.238-1.084.67-1.475l.33-.297v-6.582l-.027-.02c-.034-.723.01-2.936 1.623-4.777C30.253 5.457 33.08 4.5 37 4.5c3.905 0 6.727.95 8.386 2.828 1.947 2.2 1.625 5.017 1.623 5.04L47 18.73l.33.298c.432.39.67.913.67 1.474v4c0 .873-.572 1.637-1.422 1.9l-.498.152-.16.495c-.67 2.08-1.622 4.003-2.834 5.713-.297.42-.586.794-.837 1.08l-.25.283v4.125c0 1.77.983 3.36 2.566 4.153l9.553 4.777c2.393 1.197 3.88 3.603 3.88 6.28V55.5z"/></svg>