<svg xmlns="http://www.w3.org/2000/svg" viewBox="0 0 60 60"><path d="M60 30C60 13.458 46.542 0 30 0S0 13.458 0 30c0 6.142 1.858 11.857 5.038 16.618l-.002.02.207.304c.18.263.374.512.562.768.076.104.15.21.23.313.237.316.482.626.73.93.073.09.146.176.22.263C8.14 50.6 9.41 51.87 10.776 53.01c.083.07.165.14.25.208.297.243.598.48.905.712.124.094.25.185.375.277.292.214.584.426.884.63.16.108.327.21.49.316.415.27.835.53 1.263.78.298.173.597.346.902.51.184.1.372.19.558.286.324.165.65.326.982.48.167.077.334.153.502.227.383.17.77.33 1.162.485.12.048.24.097.362.144 1.073.406 2.175.754 3.302 1.036.046.012.093.02.14.032.497.122 1 .23 1.508.328.135.026.27.05.405.073.424.075.85.14 1.28.198l.49.063c.42.048.842.086 1.266.117.158.012.315.027.473.036.57.03 1.145.05 1.724.05s1.153-.02 1.724-.053c.158-.01.315-.025.473-.036.424-.03.846-.067 1.265-.116.164-.02.328-.04.49-.063.43-.056.857-.122 1.28-.197.136-.024.27-.047.406-.073.508-.097 1.01-.206 1.51-.328.045-.01.092-.02.138-.032 1.127-.282 2.23-.63 3.302-1.036.122-.046.243-.096.365-.144.39-.154.778-.315 1.16-.484.17-.074.337-.15.503-.227.33-.155.658-.316.982-.482.187-.095.374-.188.558-.286.305-.164.603-.337.902-.51.428-.25.85-.51 1.264-.78.163-.106.328-.208.488-.317.3-.203.592-.415.884-.63.125-.09.25-.182.375-.276.305-.232.607-.47.905-.713.084-.07.166-.14.25-.208 1.365-1.143 2.635-2.41 3.793-3.796l.216-.26c.25-.306.494-.616.732-.932.078-.103.152-.208.23-.313.187-.257.38-.506.56-.77l.208-.302-.002-.02C58.142 41.857 60 36.14 60 30zm-2 0c0 4.972-1.31 9.642-3.59 13.694-1.648-5.46-6.564-9.373-12.41-9.662V34h-6.635c-.2 0-.365-.164-.365-.365v-.645c0-.183.15-.303.276-.352 6.44-2.42 10.455-12.464 9.613-19.488-.44-3.658-2.25-6.927-4.884-9.295C50.516 7.892 58 18.085 58 30zm-5.462 16.59c-.08.11-.162.217-.244.325-.223.293-.448.584-.682.868-.024.03-.05.057-.073.086-.81.97-1.682 1.887-2.612 2.742-.055.05-.11.103-.166.153-.277.25-.56.495-.848.735-.09.075-.18.15-.272.223-.28.227-.56.45-.847.666-.097.072-.197.14-.295.213-.165.12-.332.238-.5.355V42h-4v-5.97c5.574.324 10.138 4.51 10.89 10.065-.116.166-.23.332-.352.495zm-9.424 8.14c-.177.093-.357.184-.537.275-.302.152-.606.3-.913.44-.15.07-.3.138-.45.204-.385.167-.774.327-1.166.478-.08.03-.16.065-.24.095-1 .374-2.023.692-3.064.95-.075.02-.15.034-.226.052-.43.103-.865.197-1.302.28l-.39.07c-.39.067-.78.126-1.17.177-.152.02-.303.04-.455.058-.387.045-.778.078-1.17.107-.144.01-.288.025-.434.033-.53.032-1.062.05-1.596.05s-1.065-.018-1.595-.048c-.146-.008-.29-.023-.435-.033-.39-.03-.782-.063-1.17-.108-.152-.017-.303-.038-.454-.058-.392-.052-.782-.11-1.17-.178-.13-.023-.26-.045-.39-.07-.438-.083-.873-.176-1.304-.28l-.225-.052c-1.04-.26-2.064-.576-3.064-.95-.08-.03-.16-.064-.24-.095-.393-.152-.782-.312-1.166-.48-.15-.066-.3-.135-.45-.204-.308-.14-.612-.288-.914-.44-.18-.09-.36-.18-.537-.276-.26-.137-.514-.283-.77-.428L16 54.234V44h28v10.233l-.12.068c-.252.147-.507.292-.766.43zm-29.908-2.34c-.287-.217-.568-.44-.846-.666l-.274-.224c-.287-.24-.57-.483-.846-.734-.057-.05-.112-.104-.168-.155-.93-.854-1.803-1.77-2.61-2.74-.024-.03-.05-.058-.073-.087-.235-.284-.46-.575-.683-.868-.082-.108-.164-.216-.244-.325-.12-.163-.235-.33-.352-.495.752-5.554 5.316-9.74 10.89-10.064V42h-4v10.958c-.167-.117-.335-.235-.5-.355-.098-.072-.197-.14-.294-.214zm12.285-21.6C20.71 29.023 17 20.85 17 15c0-.128.015-.253.02-.38l.73-.903c1.652-1.964 4.47-2.526 7.013-1.4 1.022.454 2.11.683 3.237.683 2.97 0 5.64-1.615 7.028-4.184 3.182 1.045 6.022 3.015 7.943 5.498.294 6.1-3.293 14.533-8.397 16.452C33.617 31.126 33 32 33 32.99v.645C33 34.938 34.062 36 35.365 36H36v6H24v-6h.635C25.938 36 27 34.938 27 33.635V33c0-.986-.605-1.874-1.51-2.21zm4.55-28.788h.033c.49.003.97.03 1.43.083 4.96.553 9.126 4.005 10.752 8.59-2.115-1.843-4.708-3.26-7.497-4.028l-.86-.236-.333.827C32.645 9.522 30.46 11 28 11c-.845 0-1.662-.172-2.427-.51-2.766-1.225-5.787-.894-8.017.728.613-2.026 1.72-3.882 3.26-5.42 2.455-2.448 5.714-3.796 9.224-3.796zM40 42h-2v-6h2v6zm-18 0h-2v-6h2v6zM19.982 3.86c-.193.174-.392.338-.578.523C16.564 7.218 15 10.987 15 15c0 6.63 4.19 15.593 9.797 17.666.12.045.203.182.203.334v.635c0 .2-.164.365-.365.365H18v.032c-5.846.29-10.762 4.202-12.41 9.662C3.31 39.642 2 34.972 2 30 2 18.09 9.478 7.9 19.982 3.86z"/></svg>