<svg xmlns="http://www.w3.org/2000/svg" viewBox="0 0 60 60"><path d="M60 30C60 13.458 46.542 0 30 0c-.226 0-.45.012-.673.017h-.014l-.058.002c-.373.008-.746.02-1.116.044-.293.017-.57.04-.848.065C12.015 1.502 0 14.37 0 30c0 5.583 1.537 10.81 4.204 15.292l-.005.025.205.336c.188.306.39.597.588.895l.18.275c.253.372.513.734.778 1.092l.038.05c4.637 6.215 11.378 10.32 18.942 11.597.26.044.52.088.78.126.27.038.54.072.812.103.357.042.716.076 1.077.104.21.017.42.036.634.048.585.036 1.173.058 1.766.058.55 0 1.098-.017 1.64-.047.223-.012.443-.034.663-.05.31-.025.623-.048.932-.08.294-.032.586-.073.878-.113.22-.03.438-.06.655-.094.35-.056.7-.12 1.047-.188.136-.027.272-.054.407-.083.412-.086.822-.18 1.23-.284l.09-.023c5.58-1.437 10.626-4.463 14.582-8.802.042-.046.084-.09.126-.138.268-.297.53-.6.788-.91.09-.108.178-.218.267-.328.16-.2.328-.392.485-.595l.208-.27v-.017C57.765 42.966 60 36.74 60 30zm-2 0c0 5.463-1.578 10.562-4.295 14.875C52.655 39.88 48.87 35.89 44 34.52V15l-.012-1h-.035c-.018-.285-.03-.573-.064-.85-.478-3.978-2.577-7.498-5.593-9.895C49.697 6.8 58 17.448 58 30zm-6.306 17.678c-.084.103-.17.204-.255.305-1.843 2.193-4.016 4.096-6.44 5.64V49h-2v5.788c-1.87.984-3.86 1.768-5.947 2.31l-.12.032c-.378.097-.762.184-1.147.266l-.375.075c-.326.065-.654.125-.984.177-.2.03-.4.058-.6.085-.275.038-.55.076-.828.105-.283.03-.57.05-.854.072-.208.015-.414.035-.623.047-.504.027-1.01.043-1.52.043-.547 0-1.09-.02-1.632-.05-.2-.012-.397-.03-.595-.046-.33-.026-.658-.056-.985-.093-.255-.028-.51-.06-.764-.096-.24-.034-.478-.074-.716-.114-.314-.053-.628-.104-.94-.168l-.034-.008c-3.373-.696-6.52-2.006-9.334-3.798V49h-2v3.228c-2.366-1.814-4.437-3.994-6.123-6.46-.056-.08-.112-.163-.167-.246-.13-.196-.255-.395-.38-.594.612-2.53 2.045-4.706 3.973-6.28L29 55.342l18.7-16.693c2.525 2.07 4.176 5.17 4.29 8.655-.098.125-.195.253-.296.376zM16 34.108v-10.23c.025.057.056.113.08.17.146.328.3.647.458.966.07.144.137.29.21.432.237.454.484.9.745 1.33.032.052.067.1.1.152.23.374.47.74.72 1.09.098.14.202.27.303.403.192.257.386.51.587.75.12.143.243.278.365.415.194.217.39.426.592.626.13.132.263.258.398.38.207.19.417.368.63.54.135.108.268.217.405.317.236.173.478.326.72.474.12.074.24.156.36.223.37.202.743.38 1.125.522.118.046.202.183.202.335v.635c0 .2-.164.365-.365.365H17.69c-.52 0-1.032.04-1.54.098-.05.006-.1.003-.15.01zm-.638 2.137c.306-.062.612-.11.918-.15.083-.01.166-.023.25-.03.388-.04.775-.065 1.16-.065h5.944C24.938 36 26 34.938 26 33.635V33c0-.986-.605-1.874-1.51-2.21C19.71 29.023 16 20.85 16 15c0-.228.02-.45.03-.676l.493-.606c1.65-1.964 4.47-2.526 7.012-1.4 1.023.453 2.11.682 3.237.682 2.97 0 5.64-1.615 7.028-4.184 3.302 1.084 6.245 3.158 8.165 5.775l.022-.015v.193c.002.117-.003.238-.004.357-.03 5.177-2.76 11.86-6.646 14.673-.05.036-.102.065-.152.1-.228.157-.458.308-.693.438-.3.165-.607.312-.92.43-.955.36-1.572 1.233-1.572 2.224v.645C32 34.938 33.062 36 34.365 36h5.945c.407 0 .82.023 1.232.068.01 0 .023.004.034.005.393.044.787.108 1.18.192 1.15.247 2.237.666 3.236 1.225L30 51.766V51c0-4.41 3.59-8 8-8 .553 0 1-.447 1-1s-.447-1-1-1c-3.96 0-7.382 2.322-9 5.67-1.618-3.348-5.04-5.67-9-5.67-.553 0-1 .447-1 1s.447 1 1 1c4.41 0 8 3.59 8 8v.766l-15.996-14.28c1.038-.58 2.17-.998 3.358-1.24zM27.192 2.14c.355-.035.715-.06 1.075-.08.318-.02.648-.032.99-.04l.066-.003c.39.01.782.022 1.18.068 5.06.565 9.3 4.147 10.852 8.873-2.17-1.983-4.892-3.505-7.824-4.31l-.86-.238-.333.826C31.417 9.522 29.232 11 26.772 11c-.845 0-1.662-.172-2.427-.51-2.634-1.166-5.497-.925-7.692.498C18.168 6.375 22.2 2.823 27.19 2.14zM42 34.108c-.03-.004-.062-.002-.094-.006-.524-.06-1.055-.1-1.595-.1h-5.944c-.202 0-.366-.164-.366-.365v-.645c0-.183.15-.303.276-.35v-.002c3.346-1.258 6.028-4.578 7.724-8.46v9.93zM18.247 4.595C15.617 7.315 14 10.997 14 15v19.516c-4.055 1.144-7.416 4.12-9.007 8.056C3.083 38.79 2 34.52 2 30 2 18.757 8.664 9.047 18.247 4.595z"/></svg>