<svg xmlns="http://www.w3.org/2000/svg" viewBox="0 0 60 60"><path d="M30 60c-7.955 0-23-1.254-23-6v-2.238c0-3.304 1.8-6.338 4.7-7.92l9.262-5.363c.065-.037.243-.144.686-.48h-7.365c-.417.04-2.533.183-4.334-.895-.718-.43-1.224-1.116-1.428-1.937-.206-.832-.07-1.728.374-2.458 1.687-2.777 5.662-10.06 6.166-17.674.17-2.597.66-4.76 1.493-6.612C18.27 4.617 21.935.064 29.67 0 42.87.108 43.312 13.482 43.314 13.617c.154 7.97 5.08 15.82 7.19 18.824.562.8.73 1.798.463 2.74-.265.934-.925 1.688-1.81 2.068-2.404 1.03-5.407.76-5.534.746l-7.67.006c.332.51.693.942 1.033 1.112l10.977 4.753C51.09 45.427 53 48.52 53 51.957V54c0 4.746-15.045 6-23 6zM14.23 36h7.95c.786 0 1.46.48 1.718 1.224.257.74.026 1.535-.59 2.02-.85.672-1.185.88-1.363.978l-9.263 5.364C10.402 46.828 9 49.19 9 51.762V54c0 1.357 7.412 4 21 4s21-2.643 21-4v-2.043c0-2.677-1.487-5.083-3.88-6.28L36.14 40.926c-.986-.492-1.594-1.418-1.94-2.113-.3-.605-.266-1.31.09-1.887.36-.58.982-.925 1.663-.925h7.766c.122.01 2.724.238 4.65-.59.33-.14.576-.424.676-.775.103-.36.04-.74-.174-1.043-2.216-3.155-7.39-11.413-7.555-19.934C41.305 13.188 40.9 2.092 29.67 2c-6.66.055-9.818 3.97-11.29 7.245-.735 1.63-1.167 3.568-1.322 5.924-.533 8.055-4.69 15.676-6.452 18.578-.17.28-.222.62-.143.94.074.3.256.548.51.7 1.367.816 3.12.62 3.136.62l.12-.008z"/></svg>