<svg xmlns="http://www.w3.org/2000/svg" viewBox="0 0 55 55"><path d="M55 27.5C55 12.337 42.663 0 27.5 0S0 12.337 0 27.5c0 8.01 3.444 15.228 8.926 20.258l-.026.023.892.753c.058.05.12.09.18.137.473.393.964.766 1.464 1.127.162.117.324.234.49.348.533.368 1.08.717 1.64 1.048.123.072.246.142.37.212.612.35 1.238.678 1.88.98l.14.064c2.09.97 4.32 1.683 6.652 2.104l.184.033c.724.125 1.456.225 2.197.292.09.007.18.012.27.02.738.06 1.484.1 2.24.1.75 0 1.488-.04 2.222-.098.093-.008.186-.013.28-.02.734-.068 1.46-.165 2.177-.288l.186-.034c2.297-.412 4.495-1.11 6.557-2.055.076-.035.153-.068.23-.104.616-.29 1.22-.602 1.81-.935.147-.083.293-.167.44-.253.537-.317 1.066-.648 1.58-1 .185-.126.366-.26.55-.39.438-.317.87-.643 1.288-.984.094-.075.194-.14.285-.217l.915-.763-.027-.023C51.523 42.802 55 35.55 55 27.5zm-53 0C2 13.44 13.44 2 27.5 2S53 13.44 53 27.5c0 7.577-3.325 14.39-8.59 19.063-.293-.203-.59-.385-.892-.537l-8.467-4.233c-.76-.38-1.23-1.144-1.23-1.993v-2.957c.195-.242.402-.516.616-.817 1.096-1.548 1.975-3.27 2.616-5.123 1.267-.602 2.085-1.864 2.085-3.29V24.07c0-.868-.318-1.71-.887-2.37v-4.667c.052-.52.236-3.448-1.883-5.864C34.524 9.064 31.54 8 27.5 8s-7.024 1.065-8.867 3.168c-2.12 2.416-1.935 5.345-1.883 5.864V21.7c-.568.66-.887 1.5-.887 2.368v3.545c0 1.1.494 2.128 1.34 2.82.81 3.174 2.477 5.576 3.093 6.39v2.894c0 .816-.445 1.566-1.162 1.958l-7.907 4.313c-.252.137-.502.297-.752.476C5.275 41.792 2 35.022 2 27.5zm40.46 20.632c-.35.254-.707.5-1.068.735-.166.108-.33.216-.5.32-.472.293-.952.57-1.442.83-.108.058-.217.112-.326.168-1.126.577-2.29 1.073-3.488 1.476l-.127.044c-.628.208-1.263.393-1.905.552H33.6c-.65.16-1.305.294-1.965.403-.018.002-.036.006-.054.01-.62.1-1.246.173-1.874.228-.11.01-.222.017-.334.025-.62.047-1.245.077-1.872.077-.634 0-1.266-.03-1.895-.078-.11-.008-.218-.015-.326-.025-.635-.056-1.266-.13-1.89-.233l-.085-.015c-1.322-.222-2.623-.547-3.89-.972l-.118-.04c-.63-.214-1.25-.45-1.862-.713l-.013-.006c-.578-.25-1.145-.526-1.705-.817-.073-.038-.147-.074-.22-.113-.51-.273-1.01-.568-1.503-.876-.146-.092-.29-.185-.435-.28-.455-.296-.903-.605-1.34-.932-.044-.034-.087-.07-.132-.104l.096-.054 7.907-4.313c1.36-.74 2.206-2.164 2.206-3.713v-3.602l-.23-.278c-.023-.025-2.185-2.655-3.002-6.216l-.09-.395-.342-.22c-.48-.312-.77-.832-.77-1.393v-3.545c0-.465.198-.898.558-1.223l.33-.298v-5.57l-.01-.13c-.002-.025-.297-2.43 1.397-4.36C21.583 10.835 24.06 10 27.5 10c3.426 0 5.896.83 7.346 2.466 1.692 1.91 1.415 4.36 1.413 4.38l-.01 5.702.33.298c.36.324.557.758.557 1.223v3.544c0 .713-.485 1.36-1.18 1.575l-.498.152-.16.495c-.59 1.833-1.43 3.526-2.497 5.032-.262.37-.517.697-.736.948l-.248.283v3.7c0 1.612.895 3.062 2.337 3.782l8.467 4.233.16.083c-.107.08-.217.156-.325.234z"/></svg>