<svg xmlns="http://www.w3.org/2000/svg" viewBox="0 0 57 57"><path d="M55.263 16.43c-1.087-.696-2.437-.79-3.608-.248L44 19.715v-.13c0-1.824-1.483-3.308-3.307-3.308H36v-5c0-1.654-1.346-3-3-3H1c-.552 0-1 .447-1 1s.448 1 1 1h32c.55 0 1 .448 1 1v5H3.307C1.483 16.277 0 17.76 0 19.584V44.97c0 1.824 1.483 3.308 3.307 3.308h37.386c1.824 0 3.307-1.483 3.307-3.307v-.13l7.655 3.533c.506.233 1.045.35 1.582.35.707 0 1.41-.2 2.027-.597C56.35 47.43 57 46.246 57 44.954V19.602c0-1.29-.65-2.477-1.737-3.173zM42 44.97c0 .722-.586 1.308-1.307 1.308H3.307c-.72 0-1.307-.586-1.307-1.307V19.585c0-.72.586-1.307 1.307-1.307h37.386c.72 0 1.307.586 1.307 1.307V44.97zm13-.016c0 .614-.297 1.157-.814 1.488-.517.33-1.133.376-1.692.115L44 42.637v-20.72l8.493-3.92c.558-.26 1.175-.215 1.692.116s.815.875.815 1.49v25.35z"/></svg>