<svg xmlns="http://www.w3.org/2000/svg" viewBox="0 0 57 57"><path d="M55.332 6.643c-1.02-.438-2.156-.235-2.952.523L41 17.67V8.943C41 6.218 38.782 4 36.056 4H4.944C2.218 4 0 6.218 0 8.944V32.21C0 34.85 2.15 37 4.79 37h14.776l-6.762 14.58c-.232.5-.015 1.095.486 1.327.136.064.28.093.42.093.377 0 .738-.215.908-.58l6.514-14.043 6.514 14.044c.17.365.53.58.907.58.14 0 .284-.03.42-.093.5-.232.72-.827.486-1.328L22.697 37h13.13C38.677 37 41 34.68 41 31.826v-8.002l11.32 10.82c.53.528 1.213.807 1.917.807.353 0 .71-.068 1.057-.21C56.33 34.81 57 33.81 57 32.682v-23.5c0-1.125-.64-2.1-1.668-2.54zM39 31.826C39 33.576 37.577 35 35.827 35H4.79C3.253 35 2 33.748 2 32.21V8.943C2 7.32 3.32 6 4.944 6h31.112C37.68 6 39 7.32 39 8.944v22.882zm16 .857c0 .477-.357.66-.467.706-.136.056-.488.15-.803-.166L41.22 21.27c-.145-.147-.223-.344-.22-.553.003-.21.087-.402.228-.536l12.52-11.555c.17-.16.346-.208.495-.208.13 0 .24.037.3.063.107.046.457.233.457.703v23.5z"/><path d="M18.137 19.723c.546-.95.863-2.05.863-3.223 0-3.584-2.916-6.5-6.5-6.5S6 12.916 6 16.5 8.916 23 12.5 23c1.687 0 3.22-.65 4.377-1.71l1.416 1.417c.195.195.45.293.707.293s.512-.098.707-.293c.39-.39.39-1.023 0-1.414l-1.57-1.57zM12.5 21C10.02 21 8 18.98 8 16.5s2.02-4.5 4.5-4.5 4.5 2.02 4.5 4.5c0 .615-.125 1.2-.35 1.736l-1.943-1.943c-.39-.39-1.023-.39-1.414 0s-.39 1.023 0 1.414l2.16 2.16C14.662 20.565 13.636 21 12.5 21z"/></svg>