<svg xmlns="http://www.w3.org/2000/svg" viewBox="0 0 58 58"><path d="M36.537 28.156l-11-7c-.308-.195-.698-.208-1.02-.033C24.2 21.3 24 21.635 24 22v14c0 .365.2.7.52.877.15.082.314.123.48.123.187 0 .374-.053.537-.156l11-7c.288-.184.463-.502.463-.844s-.175-.66-.463-.844zM26 34.18V23.82L34.137 29 26 34.18z"/><path d="M57 6H1c-.552 0-1 .447-1 1v44c0 .553.448 1 1 1h56c.552 0 1-.447 1-1V7c0-.553-.448-1-1-1zM10 28H2v-9h8v9zm-8 2h8v9H2v-9zm10 10V8h34v42H12V40zm44-12h-8v-9h8v9zm-8 2h8v9h-8v-9zm8-22v9h-8V8h8zM2 8h8v9H2V8zm0 42v-9h8v9H2zm54 0h-8v-9h8v9z"/></svg>