<svg xmlns="http://www.w3.org/2000/svg" viewBox="0 0 55 55"><path d="M22.02 25.877c.15.082.315.123.48.123.187 0 .373-.053.537-.156l11-7c.288-.184.463-.502.463-.844s-.175-.66-.463-.844l-11-7c-.31-.195-.697-.208-1.02-.033-.318.176-.517.512-.517.877v14c0 .365.2.7.52.877zM23.5 12.82L31.638 18 23.5 23.18V12.82z"/><path d="M.5 0v55h54V0H.5zm52 2v33h-50V2h50zm-50 51V37h50v16h-50z"/><path d="M47.5 44h-24v-2c0-.553-.447-1-1-1s-1 .447-1 1v2h-4c-.553 0-1 .447-1 1s.447 1 1 1h4v2c0 .553.447 1 1 1s1-.447 1-1v-2h24c.553 0 1-.447 1-1s-.447-1-1-1zM7.5 41c-.553 0-1 .447-1 1v6c0 .553.447 1 1 1s1-.447 1-1v-6c0-.553-.447-1-1-1zM11.5 41c-.553 0-1 .447-1 1v6c0 .553.447 1 1 1s1-.447 1-1v-6c0-.553-.447-1-1-1z"/></svg>