<svg xmlns="http://www.w3.org/2000/svg" viewBox="0 0 57.945 57.945"><path d="M57.655 27.873c-7.613-7.674-17.758-11.9-28.568-11.9l-.077.002-.037-.002c-.036 0-.07.005-.106.005C18.14 16.035 8.08 20.25.52 27.873l-.23.232c-.39.392-.386 1.025.006 1.414.195.192.45.29.704.29.257 0 .515-.1.71-.297l.23-.232c5.245-5.286 11.758-8.84 18.856-10.4-2.94 2.384-4.823 6.02-4.823 10.093 0 7.168 5.832 13 13 13s13-5.832 13-13c0-4.116-1.928-7.784-4.922-10.167 7.227 1.522 13.86 5.107 19.185 10.476.39.393 1.023.395 1.414.006.39-.39.394-1.023.005-1.415zm-17.682 1.1c0 6.064-4.935 11-11 11s-11-4.936-11-11c0-6.03 4.878-10.938 10.893-10.996l.144-.003c6.048.02 10.963 4.946 10.963 10.998z"/><path d="M36 27.972c-.552 0-1 .448-1 1 0 3.31-2.69 6-6 6s-6-2.69-6-6 2.69-6 6-6c.552 0 1-.448 1-1s-.448-1-1-1c-4.41 0-8 3.59-8 8s3.59 8 8 8 8-3.59 8-8c0-.552-.448-1-1-1z"/></svg>