<svg xmlns="http://www.w3.org/2000/svg" viewBox="0 0 57.945 57.945"><path d="M29 21.972c-3.86 0-7 3.14-7 7 0 .552.448 1 1 1s1-.448 1-1c0-2.757 2.243-5 5-5 .552 0 1-.448 1-1s-.448-1-1-1z"/><path d="M57.655 27.873c-7.613-7.674-17.758-11.9-28.568-11.9H29c-.027 0-.054.004-.08.004C18.172 16.02 8.092 20.24.52 27.873l-.23.232c-.39.392-.386 1.025.006 1.414.195.192.45.29.704.29.257 0 .515-.1.71-.297l.23-.232c5.254-5.296 11.782-8.854 18.895-10.41C17.89 21.255 16 24.896 16 28.972c0 7.168 5.832 13 13 13s13-5.832 13-13c0-4.11-1.923-7.774-4.91-10.158 7.21 1.527 13.83 5.108 19.145 10.467.39.394 1.023.396 1.414.007.39-.39.394-1.022.005-1.414zM40 28.973c0 6.064-4.935 11-11 11s-11-4.936-11-11c0-6.04 4.89-10.953 10.92-10.997l.108-.003C35.08 17.99 40 22.917 40 28.973z"/></svg>