<svg xmlns="http://www.w3.org/2000/svg" viewBox="0 0 60 60"><path d="M30 6C13.458 6 0 19.458 0 36c0 .553.448 1 1 1s1-.447 1-1C2 20.56 14.56 8 30 8s28 12.56 28 28c0 .553.447 1 1 1s1-.447 1-1C60 19.458 46.542 6 30 6z"/><path d="M30 20c-4.54 0-8.81 1.77-12.02 4.98C14.77 28.19 13 32.46 13 37s1.77 8.81 4.98 12.02C21.19 52.23 25.46 54 30 54s8.81-1.77 12.02-4.98C45.233 45.81 47 41.54 47 37s-1.768-8.81-4.98-12.02C38.81 21.77 34.54 20 30 20zm10.606 27.606C37.773 50.44 34.006 52 30 52s-7.773-1.56-10.606-4.394S15 41.006 15 37s1.56-7.773 4.394-10.606S25.994 22 30 22c3.67 0 7.13 1.323 9.865 3.72L29.293 36.294c-.39.39-.39 1.023 0 1.414.195.195.45.293.707.293s.512-.098.707-.293L41.28 27.135C43.676 29.87 45 33.33 45 37c0 4.007-1.56 7.773-4.394 10.606z"/></svg>