<svg xmlns="http://www.w3.org/2000/svg" viewBox="0 0 51.498 51.498"><path d="M25.75 17.25c-4.542 0-8.81 1.768-12.022 4.978s-4.98 7.48-4.98 12.02 1.77 8.81 4.98 12.022 7.48 4.98 12.02 4.98 8.81-1.77 12.022-4.98 4.98-7.48 4.98-12.02-1.77-8.81-4.98-12.022-7.48-4.98-12.02-4.98zm10.605 27.605c-2.833 2.833-6.6 4.394-10.606 4.394s-7.774-1.562-10.607-4.395-4.394-6.6-4.394-10.606 1.56-7.774 4.393-10.607 6.6-4.394 10.606-4.394c3.67 0 7.13 1.322 9.864 3.72L25.042 33.542c-.39.39-.39 1.023 0 1.414.195.195.45.293.707.293s.51-.1.706-.294l10.572-10.572c2.398 2.734 3.72 6.194 3.72 9.865 0 4.006-1.56 7.772-4.393 10.605zM25.75 8.25c.552 0 1-.448 1-1v-6c0-.554-.448-1-1-1s-1 .446-1 1v6c0 .552.446 1 1 1zM51.205 10.793c-.39-.39-1.023-.39-1.414 0l-4.242 4.243c-.39.39-.39 1.023 0 1.414.195.195.45.293.707.293s.512-.098.707-.293l4.243-4.243c.39-.39.39-1.023 0-1.414zM1.707 10.793c-.39-.39-1.023-.39-1.414 0s-.39 1.023 0 1.414l4.243 4.243c.195.195.45.293.707.293s.512-.098.707-.293c.39-.39.39-1.023 0-1.414l-4.243-4.243zM32.996 9.203c.087.023.174.034.26.034.44 0 .846-.295.965-.74L35.774 2.7c.143-.533-.174-1.082-.707-1.225-.53-.142-1.082.174-1.225.707L32.29 7.978c-.142.534.175 1.083.708 1.225zM17.277 8.496c.12.447.523.74.965.74.086 0 .173-.01.26-.033.533-.143.85-.69.707-1.225l-1.554-5.796c-.143-.534-.69-.85-1.225-.707s-.85.69-.706 1.225l1.553 5.796zM43.75 5.072c-.48-.275-1.09-.11-1.367.366l-3 5.196c-.276.48-.112 1.09.366 1.366.156.09.328.134.498.134.346 0 .682-.18.867-.5l3-5.196c.277-.478.113-1.09-.366-1.366zM11.25 12.135c.17 0 .342-.043.5-.134.478-.275.642-.887.365-1.365l-3-5.196c-.277-.48-.89-.643-1.366-.368-.48.277-.644.888-.367 1.366l3 5.196c.185.322.52.5.867.5z"/></svg>