<svg xmlns="http://www.w3.org/2000/svg" viewBox="0 0 59 59"><path d="M10.407 1.707c.39-.39.39-1.023 0-1.414s-1.023-.39-1.414 0c-11.307 11.307-11.307 29.705 0 41.012.196.195.452.293.707.293s.512-.098.707-.293c.39-.39.39-1.023 0-1.414C-.12 29.364-.12 12.235 10.407 1.708zM50.005.293c-.39-.39-1.023-.39-1.414 0s-.39 1.023 0 1.414c5.093 5.09 7.897 11.87 7.897 19.092s-2.804 14-7.896 19.09c-.39.392-.39 1.024 0 1.415.196.195.452.293.708.293s.512-.098.707-.293c5.47-5.47 8.48-12.75 8.48-20.506S55.476 5.76 50.006.292z"/><path d="M14.65 5.95c.392-.392.392-1.024 0-1.415s-1.022-.39-1.413 0c-8.968 8.968-8.968 23.56 0 32.527.195.195.45.293.707.293s.512-.098.707-.293c.392-.39.392-1.023 0-1.414-8.187-8.188-8.187-21.51 0-29.7zM45.763 4.535c-.39-.39-1.023-.39-1.414 0s-.392 1.023 0 1.414c8.187 8.187 8.187 21.51 0 29.698-.392.39-.392 1.023 0 1.414.194.195.45.293.706.293s.512-.098.707-.293c8.968-8.967 8.968-23.56 0-32.527z"/><path d="M18.893 8.778c-.39-.39-1.023-.39-1.414 0-3.207 3.206-4.973 7.475-4.973 12.02s1.766 8.815 4.972 12.022c.194.195.45.293.706.293s.512-.098.707-.293c.39-.39.39-1.023 0-1.414-5.85-5.85-5.85-15.364 0-21.213.39-.39.39-1.024 0-1.415zM41.52 8.778c-.39-.39-1.022-.39-1.413 0s-.39 1.023 0 1.414c5.85 5.85 5.85 15.364 0 21.213-.39.39-.39 1.023 0 1.414.195.194.45.292.707.292s.512-.098.707-.293c3.207-3.207 4.973-7.476 4.973-12.022s-1.766-8.814-4.972-12.02zM29.5 14c-3.86 0-7 3.14-7 7 0 3.52 2.613 6.432 6 6.92V58c0 .553.446 1 1 1s1-.447 1-1V27.92c3.385-.488 6-3.4 6-6.92 0-3.86-3.14-7-7-7zm0 12c-2.758 0-5-2.243-5-5s2.242-5 5-5 5 2.243 5 5-2.244 5-5 5z"/></svg>