<svg xmlns="http://www.w3.org/2000/svg" viewBox="0 0 60 60"><path d="M30 28.007c-2.206 0-4 1.794-4 4s1.794 4 4 4 4-1.794 4-4-1.794-4-4-4zm0 6c-1.103 0-2-.897-2-2s.897-2 2-2 2 .897 2 2-.897 2-2 2z"/><path d="M30 23.007c-4.962 0-9 4.037-9 9 0 3.158 1.7 6.126 4.436 7.745.477.282 1.09.125 1.37-.352.28-.475.124-1.088-.352-1.37C24.324 36.77 23 34.463 23 32.008c0-3.86 3.14-7 7-7s7 3.14 7 7c0 2.455-1.324 4.763-3.455 6.024-.475.282-.633.896-.352 1.37.187.316.52.49.862.49.173 0 .35-.044.508-.14C37.3 38.134 39 35.166 39 32.008c0-4.963-4.038-9-9-9z"/><path d="M30 2.007c-16.542 0-30 13.458-30 30C0 42.57 5.662 52.475 14.775 57.854c.16.094.334.14.507.14.342 0 .676-.177.862-.492.28-.476.123-1.09-.353-1.37C7.286 51.11 2 41.866 2 32.007c0-15.44 12.56-28 28-28s28 12.56 28 28c0 9.86-5.285 19.104-13.792 24.125-.476.28-.634.894-.353 1.37.28.475.893.632 1.37.353C54.338 52.475 60 42.57 60 32.007c0-16.542-13.458-30-30-30z"/><path d="M53 32.007c0-12.683-10.318-23-23-23s-23 10.317-23 23c0 8.087 4.342 15.677 11.33 19.81.16.094.336.14.51.14.34 0 .674-.177.86-.492.282-.476.125-1.09-.35-1.37C12.964 46.32 9 39.39 9 32.008c0-11.58 9.42-21 21-21s21 9.42 21 21c0 7.383-3.965 14.313-10.35 18.088-.475.28-.632.894-.35 1.37.28.475.894.633 1.37.35C48.657 47.686 53 40.094 53 32.008z"/><path d="M46 32.007c0-8.822-7.178-16-16-16s-16 7.178-16 16c0 5.615 3.022 10.892 7.888 13.77.478.282 1.09.123 1.37-.353.28-.475.124-1.088-.352-1.37C18.646 41.535 16 36.92 16 32.008c0-7.72 6.28-14 14-14s14 6.28 14 14c0 4.91-2.646 9.528-6.907 12.048-.475.28-.633.895-.352 1.37.188.315.52.49.863.49.173 0 .348-.045.508-.14C42.98 42.897 46 37.622 46 32.007z"/></svg>