<svg xmlns="http://www.w3.org/2000/svg" viewBox="0 0 60 60"><path d="M52.994 21c0-7.17-3.617-13.505-9.116-17.296l-.002-.015-.145-.096-.01-.007-.228-.15c-.452-.296-.915-.572-1.385-.83-.165-.092-.337-.172-.505-.26-.374-.192-.752-.377-1.136-.547-.21-.094-.424-.183-.64-.27-.394-.16-.795-.305-1.198-.44-.178-.06-.352-.125-.53-.18-.57-.173-1.145-.32-1.727-.445C36.2.43 36.03.403 35.858.37 35.395.286 34.93.214 34.46.16c-.187-.022-.374-.045-.563-.062C33.267.04 32.632 0 31.994 0c-.647 0-1.29.04-1.927.098-.18.017-.36.04-.54.06-.487.057-.97.132-1.45.222-.156.03-.312.054-.465.087-1.245.265-2.46.644-3.635 1.13-.122.052-.24.105-.362.158-.484.21-.96.44-1.428.69-.1.052-.2.103-.3.157-.574.316-1.138.65-1.684 1.02l-.43.293v.04c-.658.474-1.283.985-1.88 1.528l-2.87-2.87-.707.708C9.603 8.038 7.006 14.315 7.006 21s2.597 12.963 7.312 17.678c4.48 4.48 10.375 7.044 16.688 7.288V55h-10v5h22v-5h-10v-9.035c6.304-.25 12.19-2.81 16.666-7.287l.707-.707-2.87-2.868C50.905 31.37 52.994 26.43 52.994 21zM21.752 5.022c.87-.56 1.78-1.058 2.74-1.47.093-.042.19-.08.283-.12.458-.188.924-.36 1.4-.512.086-.028.17-.06.258-.086.546-.167 1.103-.312 1.67-.43.088-.02.178-.03.268-.048.473-.092.95-.164 1.434-.22.152-.017.304-.034.457-.048.572-.052 1.15-.088 1.734-.088.578 0 1.148.036 1.713.087.144.013.288.026.432.043.545.062 1.086.14 1.617.248.095.02.188.046.283.066.445.097.883.212 1.316.34.17.05.338.1.505.154.49.16.972.332 1.442.53.124.05.244.112.367.166.37.165.736.34 1.094.528.17.09.34.18.51.275.08.046.158.1.24.146-3.112 1.126-4.898 2.45-6.924 5.083-.12.158-.22.33-.29.513-.108-.113-.228-.213-.36-.3-.71-.465-1.647-.45-2.79.048l-.15.017c-1.393.155-2.398.268-2.48 2.032-.04.872.427 1.73 1.188 2.188.146.088.297.157.45.208.02.037.04.074.065.11l.234.335c-.498-.135-.98-.205-1.455-.274-.602-.087-1.17-.17-1.732-.386-2.15-.824-3.737-4.443-4.896-7.085-.223-.508-.435-.99-.646-1.492.01-.19.018-.376.024-.558zM35.87 26.916c-1.878-1.554-2.586-3.797-1.806-5.714.4-.983-.004-2.077-.964-2.65-.037-.133-.07-.39-.096-.567-.068-.514-.15-1.133-.454-1.726.164.12.35.214.55.276.182.056.23.102.258.183.25.857.824 1.494 1.577 1.745.723.24 1.52.09 2.19-.416.198-.15.232-.177.997.192.523.253 1.174.568 2.08.668.53.56.95 1.27 1.354 1.96.63 1.07 1.278 2.177 2.39 2.754.368.19.14 1.378-.68 3.525-.075.197-.146.384-.208.554-1.04.82-1.676 1.73-2.294 2.615-.566.81-1.102 1.577-1.96 2.314-1.323 1.14-2.392 1.792-3.755 2.19 1.41-2.52 3.026-6.08.82-7.908zM31.497 12.08l-.682.402c-.02 0-.085-.02-.157-.093-.093-.092-.147-.215-.142-.32 0-.02.002-.035.003-.05.185-.03.445-.06.7-.088l.472-.054.147-.068c.75-.35 1.002-.258 1.002-.258.002 0 .21.21.185 1.152l-.01.317c-.186-.07-.43-.13-.75-.15-.043-.08-.1-.16-.174-.236l-.595-.555zm.45 3.42c-.148-.123-.305-.222-.437-.287-.184-.09-.366-.167-.546-.232l.29-.048c.2-.033.384-.053.54-.062.017.216.068.43.155.63zM19.886 6.37c.015.038.02.08.038.118.197.425.402.894.62 1.388 1.372 3.13 3.08 7.026 6.01 8.15.77.295 1.51.402 2.16.497.708.103 1.32.19 1.91.48.028.016.078.05.077.046.202.297.264.756.322 1.2.094.7.21 1.573 1.024 2.004.104.055.185.147.166.193-1.118 2.743-.183 5.888 2.38 8.01.44.364.86 1.55-1.288 5.393-.417.748-.328 1.654.226 2.31.4.476.973.733 1.565.733.23 0 .466-.04.695-.12 1.522-.543 2.815-1.327 4.32-2.622 1.048-.9 1.71-1.85 2.294-2.685.618-.885 1.152-1.65 2.074-2.33l.285-.244.097-.284c.073-.214.17-.467.275-.743.7-1.834 1.87-4.902-.27-6.014-.6-.312-1.056-1.09-1.585-1.99-.44-.752-.94-1.603-1.632-2.33-.308-.32-.734-.525-1.236-.592-.54-.07-.986-.286-1.42-.495-.784-.38-1.858-.898-3.07.01-.08.06-.23.15-.356.115-.092-.03-.215-.153-.29-.407-.216-.746-.684-1.225-1.466-1.495.108-.333.09-.668-.046-.96l.115.018c.897.132 1.57-.054 2.005-.555.45-.515.538-1.25.265-2.188-.005-.016 0-.062.026-.096 1.89-2.456 3.39-3.522 6.425-4.564.302-.103.56-.28.773-.498 4.616 3.47 7.62 8.973 7.62 15.178 0 10.477-8.523 19-19 19s-19-8.523-19-19c0-5.878 2.686-11.14 6.892-14.628zM41.005 57v1h-18v-1h18zm6.53-19.045c-9.013 8.27-23.073 8.038-31.804-.69C11.396 32.926 9.007 27.15 9.007 21c0-5.815 2.135-11.296 6.033-15.54l1.44 1.438C13.083 10.63 10.993 15.57 10.993 21c0 11.58 9.42 21 21 21 5.43 0 10.37-2.09 14.1-5.484l1.44 1.44z"/></svg>