<svg xmlns="http://www.w3.org/2000/svg" viewBox="0 0 60 60"><path d="M47.007 5.305l.05-.032-1.324-.816c-.078-.048-.16-.088-.238-.136-.434-.26-.875-.512-1.323-.753-.227-.122-.457-.237-.687-.353-.337-.17-.678-.334-1.022-.492-.203-.093-.405-.188-.61-.276-.534-.23-1.075-.448-1.625-.648-.113-.04-.228-.076-.342-.116-.48-.168-.968-.324-1.46-.468-.156-.046-.313-.09-.47-.134-.545-.15-1.095-.287-1.65-.406-.054-.01-.105-.025-.158-.036-.615-.13-1.237-.235-1.865-.325-.138-.02-.278-.035-.416-.053-.49-.063-.985-.115-1.483-.154-.168-.013-.335-.028-.503-.038C31.26.026 30.633 0 30 0c-.683 0-1.358.03-2.03.076-.176.012-.35.025-.527.04-.63.053-1.258.12-1.878.214-.062.01-.124.017-.186.026-.625.097-1.24.22-1.85.354-.203.044-.404.09-.605.14-.562.136-1.118.285-1.667.452-.174.053-.346.11-.518.167-.492.16-.98.332-1.46.517-.22.084-.44.17-.657.26-.552.227-1.098.465-1.633.724-.176.086-.35.18-.524.27-.418.212-.83.433-1.236.664-.203.115-.405.23-.606.35-.508.304-1.007.622-1.495.955-.068.045-.14.083-.205.13l-.545.378.005.022C4.887 11.197 0 20.036 0 30c0 16.542 13.458 30 30 30s30-13.458 30-30c0-10.23-5.152-19.278-12.993-24.695zM15.09 6.318c.322-.204.65-.4.98-.59.182-.107.363-.216.55-.318.463-.254.934-.49 1.41-.717.206-.098.414-.19.623-.282.35-.154.7-.3 1.054-.442.195-.078.39-.16.587-.232.506-.188 1.018-.36 1.534-.517.19-.06.382-.11.573-.164.402-.113.805-.218 1.212-.313.182-.043.364-.088.547-.127.558-.12 1.12-.223 1.688-.308.13-.02.26-.032.39-.05.477-.064.958-.116 1.44-.156.17-.014.338-.028.507-.04C28.788 2.028 29.392 2 30 2c.53 0 1.057.018 1.583.048.15.008.3.023.45.034.38.028.758.06 1.135.103.167.02.333.042.5.064.364.047.727.1 1.09.164.16.028.32.056.48.086.377.072.752.153 1.125.24.138.032.277.062.414.096.46.115.917.24 1.37.38.046.013.093.024.14.038.483.15.96.316 1.436.49.19.072.376.15.564.224.276.11.55.22.823.338.236.103.47.21.703.318.21.098.418.2.626.302.15.074.303.153.454.232-3.822 1.532-6.196 3.41-8.853 6.866-.376.49-.567 1.088-.55 1.686-.23-.552-.565-.972-1.013-1.266-.926-.608-2.138-.565-3.703.133l-.285.032c-2.007.223-3.112.347-3.212 2.53-.05 1.103.54 2.193 1.508 2.775.245.147.502.254.764.32.028.094.072.19.137.29l.403.556.643-.106c.55-.093 1.012-.113 1.325-.104-.047.444.03.898.23 1.303.28.562.757.972 1.347 1.154.564.174.613.343.68.576.322 1.105 1.052 1.922 2.004 2.24.91.304 1.92.107 2.777-.536.514-.39.805-.308 1.928.235.733.354 1.646.796 2.828.948.186.023.297.08.338.122.814.854 1.438 1.916 2.04 2.943.925 1.573 1.798 3.06 3.3 3.84 1.175.61-.14 4.06-.772 5.716-.127.335-.246.646-.345.924-1.524 1.174-2.455 2.507-3.356 3.797-.807 1.156-1.64 2.35-2.934 3.463-1.953 1.68-3.605 2.688-5.523 3.37-.315.11-.52-.076-.594-.163-.07-.082-.216-.305-.06-.584 1.973-3.532 4.255-8.513 1.3-10.958-2.895-2.396-3.98-5.875-2.763-8.86.517-1.27-.06-2.69-1.337-3.36-.11-.132-.187-.713-.238-1.098-.113-.845-.253-1.896-.878-2.813-.26-.38-.726-.723-1.047-.88-1.22-.597-2.393-.768-3.526-.932-.902-.132-1.755-.256-2.625-.59-3.313-1.27-5.67-6.645-7.393-10.57-.247-.563-.484-1.102-.712-1.607l.36-.23zM30 58C14.56 58 2 45.44 2 30c0-9.077 4.345-17.156 11.06-22.275.178.397.36.807.547 1.235 1.967 4.485 4.415 10.066 8.508 11.636 1.077.413 2.082.56 3.053.7 1.026.15 1.995.29 2.937.752.076.037.233.16.273.21.357.523.454 1.247.547 1.947.13.966.275 2.06 1.253 2.578.318.17.596.51.453.86-1.552 3.812-.24 8.19 3.342 11.157.918.76 1.356 2.842-1.772 8.442-.515.922-.405 2.04.28 2.85.496.588 1.2.906 1.932.906.286 0 .576-.05.86-.15 2.164-.77 4.005-1.887 6.156-3.738 1.485-1.276 2.392-2.575 3.27-3.832.886-1.27 1.724-2.468 3.097-3.48.2-.145.348-.344.427-.574.108-.316.25-.688.406-1.098 1.028-2.696 2.582-6.77-.174-8.204-.99-.515-1.688-1.702-2.497-3.077-.63-1.073-1.345-2.29-2.316-3.31-.375-.396-.905-.647-1.53-.728-.86-.11-1.546-.443-2.212-.765-1.097-.53-2.464-1.19-4-.034-.233.175-.584.356-.944.238-.32-.107-.58-.435-.715-.9-.195-.67-.6-1.494-2.013-1.93-.062-.02-.11-.063-.143-.13-.044-.09-.05-.2-.003-.326.19-.515.112-1.035-.213-1.428-.357-.432-.994-.654-1.9-.668-.036-.157-.116-.316-.264-.47l-.607-.556-.682.402c-.177.105-.377.092-.594-.04-.336-.2-.56-.6-.542-.97.01-.23.025-.36.038-.435.245-.072.83-.138 1.398-.2l.607-.07.148-.068c.893-.415 1.608-.54 1.912-.344.123.08.52.47.474 2.076l-.025.887.877.13c1.14.17 1.987-.052 2.514-.657.546-.626.645-1.555.292-2.76-.05-.176-.006-.39.115-.548 2.767-3.6 5.09-5.257 9.508-6.783C52.865 11.45 58 20.133 58 30c0 15.44-12.56 28-28 28z"/></svg>