<svg xmlns="http://www.w3.org/2000/svg" viewBox="0 0 52.966 52.966"><path d="M28.983 20h-6v-6c0-.552-.448-1-1-1s-1 .448-1 1v6h-6c-.552 0-1 .448-1 1s.448 1 1 1h6v6c0 .552.448 1 1 1s1-.448 1-1v-6h6c.552 0 1-.448 1-1s-.448-1-1-1z"/><path d="M51.704 51.273L36.844 35.82c3.79-3.8 6.14-9.04 6.14-14.82 0-11.58-9.42-21-21-21s-21 9.42-21 21 9.42 21 21 21c5.082 0 9.747-1.817 13.383-4.832l14.895 15.49c.196.206.458.308.72.308.25 0 .5-.093.694-.28.398-.382.41-1.015.028-1.413zM2.984 21c0-10.477 8.522-19 19-19s19 8.523 19 19-8.524 19-19 19-19-8.523-19-19z"/></svg>